<?xml version="1.0" encoding="UTF-8" standalone="no"?>
<!DOCTYPE svg PUBLIC "-//W3C//DTD SVG 1.1//EN"
 "http://www.w3.org/Graphics/SVG/1.1/DTD/svg11.dtd">
<!-- Generated by graphviz version 13.1.0 (0)
 -->
<!-- Title: core/analyzer.cpp Pages: 1 -->
<svg width="402pt" height="308pt"
 viewBox="0.00 0.00 402.00 308.00" xmlns="http://www.w3.org/2000/svg" xmlns:xlink="http://www.w3.org/1999/xlink">
<g id="graph0" class="graph" transform="scale(1 1) rotate(0) translate(4 304)">
<title>core/analyzer.cpp</title>
<!-- Node1 -->
<g id="Node000001" class="node">
<title>Node1</title>
<g id="a_Node000001"><a xlink:title=" ">
<polygon fill="#999999" stroke="#666666" points="279.38,-300 186.12,-300 186.12,-280 279.38,-280 279.38,-300"/>
<text xml:space="preserve" text-anchor="middle" x="232.75" y="-286.5" font-family="Helvetica,sans-Serif" font-size="10.00">core/analyzer.cpp</text>
</a>
</g>
</g>
<!-- Node2 -->
<g id="Node000002" class="node">
<title>Node2</title>
<g id="a_Node000002"><a xlink:href="analyzer_8hpp.html" target="_top" xlink:title=" ">
<polygon fill="white" stroke="#666666" points="268.5,-244 197,-244 197,-224 268.5,-224 268.5,-244"/>
<text xml:space="preserve" text-anchor="middle" x="232.75" y="-230.5" font-family="Helvetica,sans-Serif" font-size="10.00">analyzer.hpp</text>
</a>
</g>
</g>
<!-- Node1&#45;&gt;Node2 -->
<g id="edge1_Node000001_Node000002" class="edge">
<title>Node1&#45;&gt;Node2</title>
<g id="a_edge1_Node000001_Node000002"><a xlink:title=" ">
<path fill="none" stroke="#63b8ff" d="M232.75,-279.59C232.75,-273.01 232.75,-263.96 232.75,-255.73"/>
<polygon fill="#63b8ff" stroke="#63b8ff" points="236.25,-255.81 232.75,-245.81 229.25,-255.81 236.25,-255.81"/>
</a>
</g>
</g>
<!-- Node3 -->
<g id="Node000003" class="node">
<title>Node3</title>
<g id="a_Node000003"><a xlink:title=" ">
<polygon fill="#e0e0e0" stroke="#999999" points="53.5,-20 0,-20 0,0 53.5,0 53.5,-20"/>
<text xml:space="preserve" text-anchor="middle" x="26.75" y="-6.5" font-family="Helvetica,sans-Serif" font-size="10.00">iostream</text>
</a>
</g>
</g>
<!-- Node2&#45;&gt;Node3 -->
<g id="edge2_Node000002_Node000003" class="edge">
<title>Node2&#45;&gt;Node3</title>
<g id="a_edge2_Node000002_Node000003"><a xlink:title=" ">
<path fill="none" stroke="#63b8ff" d="M196.6,-223.98C170.92,-216.62 136.26,-204.69 108.75,-188 77.29,-168.91 69.03,-162.03 47.75,-132 32.09,-109.91 29.19,-102.53 23.75,-76 21.96,-67.29 23.45,-64.88 23.75,-56 24.01,-48.08 24.54,-39.39 25.08,-31.77"/>
<polygon fill="#63b8ff" stroke="#63b8ff" points="28.56,-32.04 25.83,-21.81 21.58,-31.51 28.56,-32.04"/>
</a>
</g>
</g>
<!-- Node4 -->
<g id="Node000004" class="node">
<title>Node4</title>
<g id="a_Node000004"><a xlink:title=" ">
<polygon fill="#e0e0e0" stroke="#999999" points="394.15,-20 365.35,-20 365.35,0 394.15,0 394.15,-20"/>
<text xml:space="preserve" text-anchor="middle" x="379.75" y="-6.5" font-family="Helvetica,sans-Serif" font-size="10.00">list</text>
</a>
</g>
</g>
<!-- Node2&#45;&gt;Node4 -->
<g id="edge3_Node000002_Node000004" class="edge">
<title>Node2&#45;&gt;Node4</title>
<g id="a_edge3_Node000002_Node000004"><a xlink:title=" ">
<path fill="none" stroke="#63b8ff" d="M250.34,-223.5C277.15,-208.06 327.86,-174.86 353.75,-132 372.77,-100.52 377.98,-57.04 379.34,-31.69"/>
<polygon fill="#63b8ff" stroke="#63b8ff" points="382.84,-31.87 379.7,-21.75 375.84,-31.62 382.84,-31.87"/>
</a>
</g>
</g>
<!-- Node5 -->
<g id="Node000005" class="node">
<title>Node5</title>
<g id="a_Node000005"><a xlink:href="element_8hpp.html" target="_top" xlink:title=" ">
<polygon fill="white" stroke="#666666" points="187.38,-188 118.12,-188 118.12,-168 187.38,-168 187.38,-188"/>
<text xml:space="preserve" text-anchor="middle" x="152.75" y="-174.5" font-family="Helvetica,sans-Serif" font-size="10.00">element.hpp</text>
</a>
</g>
</g>
<!-- Node2&#45;&gt;Node5 -->
<g id="edge4_Node000002_Node000005" class="edge">
<title>Node2&#45;&gt;Node5</title>
<g id="a_edge4_Node000002_Node000005"><a xlink:title=" ">
<path fill="none" stroke="#63b8ff" d="M218.82,-223.59C207.07,-215.67 190.02,-204.16 176.18,-194.82"/>
<polygon fill="#63b8ff" stroke="#63b8ff" points="178.29,-192.02 168.05,-189.33 174.38,-197.82 178.29,-192.02"/>
</a>
</g>
</g>
<!-- Node12 -->
<g id="Node000012" class="node">
<title>Node12</title>
<g id="a_Node000012"><a xlink:href="constraintModel_8hpp.html" target="_top" xlink:title=" ">
<polygon fill="white" stroke="#666666" points="344.62,-132 240.88,-132 240.88,-112 344.62,-112 344.62,-132"/>
<text xml:space="preserve" text-anchor="middle" x="292.75" y="-118.5" font-family="Helvetica,sans-Serif" font-size="10.00">constraintModel.hpp</text>
</a>
</g>
</g>
<!-- Node2&#45;&gt;Node12 -->
<g id="edge16_Node000002_Node000012" class="edge">
<title>Node2&#45;&gt;Node12</title>
<g id="a_edge16_Node000002_Node000012"><a xlink:title=" ">
<path fill="none" stroke="#63b8ff" d="M237.87,-223.62C247.65,-205.68 269.2,-166.17 282.2,-142.35"/>
<polygon fill="#63b8ff" stroke="#63b8ff" points="285.21,-144.14 286.92,-133.68 279.06,-140.79 285.21,-144.14"/>
</a>
</g>
</g>
<!-- Node5&#45;&gt;Node3 -->
<g id="edge5_Node000005_Node000003" class="edge">
<title>Node5&#45;&gt;Node3</title>
<g id="a_edge5_Node000005_Node000003"><a xlink:title=" ">
<path fill="none" stroke="#63b8ff" d="M129.67,-167.61C112.42,-159.83 88.94,-147.53 71.75,-132 49.25,-111.67 43.16,-104.49 32.75,-76 27.56,-61.79 26.15,-44.72 25.99,-31.64"/>
<polygon fill="#63b8ff" stroke="#63b8ff" points="29.49,-31.71 26.13,-21.66 22.49,-31.61 29.49,-31.71"/>
</a>
</g>
</g>
<!-- Node6 -->
<g id="Node000006" class="node">
<title>Node6</title>
<g id="a_Node000006"><a xlink:href="compositeNode_8hpp.html" target="_top" xlink:title=" ">
<polygon fill="white" stroke="#666666" points="184.25,-132 81.25,-132 81.25,-112 184.25,-112 184.25,-132"/>
<text xml:space="preserve" text-anchor="middle" x="132.75" y="-118.5" font-family="Helvetica,sans-Serif" font-size="10.00">compositeNode.hpp</text>
</a>
</g>
</g>
<!-- Node5&#45;&gt;Node6 -->
<g id="edge6_Node000005_Node000006" class="edge">
<title>Node5&#45;&gt;Node6</title>
<g id="a_edge6_Node000005_Node000006"><a xlink:title=" ">
<path fill="none" stroke="#63b8ff" d="M149.27,-167.59C146.74,-160.78 143.24,-151.32 140.11,-142.86"/>
<polygon fill="#63b8ff" stroke="#63b8ff" points="143.47,-141.88 136.72,-133.72 136.91,-144.31 143.47,-141.88"/>
</a>
</g>
</g>
<!-- Node7 -->
<g id="Node000007" class="node">
<title>Node7</title>
<g id="a_Node000007"><a xlink:href="knowledge_8hpp.html" target="_top" xlink:title=" ">
<polygon fill="white" stroke="#666666" points="346.38,-76 265.12,-76 265.12,-56 346.38,-56 346.38,-76"/>
<text xml:space="preserve" text-anchor="middle" x="305.75" y="-62.5" font-family="Helvetica,sans-Serif" font-size="10.00">knowledge.hpp</text>
</a>
</g>
</g>
<!-- Node5&#45;&gt;Node7 -->
<g id="edge15_Node000005_Node000007" class="edge">
<title>Node5&#45;&gt;Node7</title>
<g id="a_edge15_Node000005_Node000007"><a xlink:title=" ">
<path fill="none" stroke="#63b8ff" d="M163.1,-167.67C177.85,-154.58 205.97,-130.3 231.75,-112 246.94,-101.21 264.77,-90.32 279.11,-81.96"/>
<polygon fill="#63b8ff" stroke="#63b8ff" points="280.63,-85.13 287.55,-77.11 277.14,-79.06 280.63,-85.13"/>
</a>
</g>
</g>
<!-- Node6&#45;&gt;Node3 -->
<g id="edge7_Node000006_Node000003" class="edge">
<title>Node6&#45;&gt;Node3</title>
<g id="a_edge7_Node000006_Node000003"><a xlink:title=" ">
<path fill="none" stroke="#63b8ff" d="M102.63,-111.6C84.41,-104.49 62.03,-93.01 47.75,-76 37.24,-63.48 31.96,-45.6 29.33,-31.77"/>
<polygon fill="#63b8ff" stroke="#63b8ff" points="32.8,-31.3 27.81,-21.96 25.88,-32.38 32.8,-31.3"/>
</a>
</g>
</g>
<!-- Node6&#45;&gt;Node7 -->
<g id="edge8_Node000006_Node000007" class="edge">
<title>Node6&#45;&gt;Node7</title>
<g id="a_edge8_Node000006_Node000007"><a xlink:title=" ">
<path fill="none" stroke="#63b8ff" d="M162.88,-111.59C190.99,-102.82 233.16,-89.66 264.41,-79.9"/>
<polygon fill="#63b8ff" stroke="#63b8ff" points="265.43,-83.25 273.94,-76.93 263.35,-76.57 265.43,-83.25"/>
</a>
</g>
</g>
<!-- Node11 -->
<g id="Node000011" class="node">
<title>Node11</title>
<g id="a_Node000011"><a xlink:title=" ">
<polygon fill="#e0e0e0" stroke="#999999" points="208.25,-76 57.25,-76 57.25,-56 208.25,-56 208.25,-76"/>
<text xml:space="preserve" text-anchor="middle" x="132.75" y="-62.5" font-family="Helvetica,sans-Serif" font-size="10.00">enum/compositeNodeType.hpp</text>
</a>
</g>
</g>
<!-- Node6&#45;&gt;Node11 -->
<g id="edge14_Node000006_Node000011" class="edge">
<title>Node6&#45;&gt;Node11</title>
<g id="a_edge14_Node000006_Node000011"><a xlink:title=" ">
<path fill="none" stroke="#63b8ff" d="M132.75,-111.59C132.75,-105.01 132.75,-95.96 132.75,-87.73"/>
<polygon fill="#63b8ff" stroke="#63b8ff" points="136.25,-87.81 132.75,-77.81 129.25,-87.81 136.25,-87.81"/>
</a>
</g>
</g>
<!-- Node7&#45;&gt;Node3 -->
<g id="edge9_Node000007_Node000003" class="edge">
<title>Node7&#45;&gt;Node3</title>
<g id="a_edge9_Node000007_Node000003"><a xlink:title=" ">
<path fill="none" stroke="#63b8ff" d="M264.75,-58.2C218.59,-50.38 141.09,-36.71 65.04,-20.39"/>
<polygon fill="#63b8ff" stroke="#63b8ff" points="65.83,-16.98 55.31,-18.28 64.35,-23.82 65.83,-16.98"/>
</a>
</g>
</g>
<!-- Node7&#45;&gt;Node4 -->
<g id="edge10_Node000007_Node000004" class="edge">
<title>Node7&#45;&gt;Node4</title>
<g id="a_edge10_Node000007_Node000004"><a xlink:title=" ">
<path fill="none" stroke="#63b8ff" d="M318.64,-55.59C329.46,-47.7 345.16,-36.24 357.94,-26.92"/>
<polygon fill="#63b8ff" stroke="#63b8ff" points="359.77,-29.91 365.79,-21.19 355.64,-24.26 359.77,-29.91"/>
</a>
</g>
</g>
<!-- Node8 -->
<g id="Node000008" class="node">
<title>Node8</title>
<g id="a_Node000008"><a xlink:title=" ">
<polygon fill="#e0e0e0" stroke="#999999" points="347.38,-20 296.12,-20 296.12,0 347.38,0 347.38,-20"/>
<text xml:space="preserve" text-anchor="middle" x="321.75" y="-6.5" font-family="Helvetica,sans-Serif" font-size="10.00">memory</text>
</a>
</g>
</g>
<!-- Node7&#45;&gt;Node8 -->
<g id="edge11_Node000007_Node000008" class="edge">
<title>Node7&#45;&gt;Node8</title>
<g id="a_edge11_Node000007_Node000008"><a xlink:title=" ">
<path fill="none" stroke="#63b8ff" d="M308.54,-55.59C310.53,-48.86 313.3,-39.53 315.78,-31.15"/>
<polygon fill="#63b8ff" stroke="#63b8ff" points="319.08,-32.33 318.56,-21.75 312.37,-30.34 319.08,-32.33"/>
</a>
</g>
</g>
<!-- Node9 -->
<g id="Node000009" class="node">
<title>Node9</title>
<g id="a_Node000009"><a xlink:title=" ">
<polygon fill="#e0e0e0" stroke="#999999" points="161.88,-20 71.62,-20 71.62,0 161.88,0 161.88,-20"/>
<text xml:space="preserve" text-anchor="middle" x="116.75" y="-6.5" font-family="Helvetica,sans-Serif" font-size="10.00">model/model.hpp</text>
</a>
</g>
</g>
<!-- Node7&#45;&gt;Node9 -->
<g id="edge12_Node000007_Node000009" class="edge">
<title>Node7&#45;&gt;Node9</title>
<g id="a_edge12_Node000007_Node000009"><a xlink:title=" ">
<path fill="none" stroke="#63b8ff" d="M272.83,-55.59C241.72,-46.71 194.83,-33.31 160.57,-23.52"/>
<polygon fill="#63b8ff" stroke="#63b8ff" points="161.96,-20.28 151.38,-20.9 160.04,-27.01 161.96,-20.28"/>
</a>
</g>
</g>
<!-- Node10 -->
<g id="Node000010" class="node">
<title>Node10</title>
<g id="a_Node000010"><a xlink:title=" ">
<polygon fill="#e0e0e0" stroke="#999999" points="278,-20 179.5,-20 179.5,0 278,0 278,-20"/>
<text xml:space="preserve" text-anchor="middle" x="228.75" y="-6.5" font-family="Helvetica,sans-Serif" font-size="10.00">model/strategy.hpp</text>
</a>
</g>
</g>
<!-- Node7&#45;&gt;Node10 -->
<g id="edge13_Node000007_Node000010" class="edge">
<title>Node7&#45;&gt;Node10</title>
<g id="a_edge13_Node000007_Node000010"><a xlink:title=" ">
<path fill="none" stroke="#63b8ff" d="M292.34,-55.59C281.14,-47.74 264.94,-36.38 251.69,-27.09"/>
<polygon fill="#63b8ff" stroke="#63b8ff" points="253.7,-24.22 243.51,-21.35 249.68,-29.96 253.7,-24.22"/>
</a>
</g>
</g>
<!-- Node12&#45;&gt;Node3 -->
<g id="edge17_Node000012_Node000003" class="edge">
<title>Node12&#45;&gt;Node3</title>
<g id="a_edge17_Node000012_Node000003"><a xlink:title=" ">
<path fill="none" stroke="#63b8ff" d="M284.99,-111.88C272.39,-97.67 246,-70.39 217.75,-56 157.81,-25.47 133.87,-35.45 64.86,-20.36"/>
<polygon fill="#63b8ff" stroke="#63b8ff" points="65.87,-17 55.34,-18.17 64.3,-23.82 65.87,-17"/>
</a>
</g>
</g>
<!-- Node12&#45;&gt;Node7 -->
<g id="edge18_Node000012_Node000007" class="edge">
<title>Node12&#45;&gt;Node7</title>
<g id="a_edge18_Node000012_Node000007"><a xlink:title=" ">
<path fill="none" stroke="#63b8ff" d="M295.01,-111.59C296.62,-104.93 298.83,-95.75 300.83,-87.44"/>
<polygon fill="#63b8ff" stroke="#63b8ff" points="304.22,-88.31 303.16,-77.77 297.41,-86.67 304.22,-88.31"/>
</a>
</g>
</g>
</g>
</svg>
