<?xml version="1.0" encoding="UTF-8" standalone="no"?>
<!DOCTYPE svg PUBLIC "-//W3C//DTD SVG 1.1//EN"
 "http://www.w3.org/Graphics/SVG/1.1/DTD/svg11.dtd">
<!-- Generated by graphviz version 13.1.0 (0)
 -->
<!-- Title: core/app.hpp Pages: 1 -->
<svg width="447pt" height="308pt"
 viewBox="0.00 0.00 447.00 308.00" xmlns="http://www.w3.org/2000/svg" xmlns:xlink="http://www.w3.org/1999/xlink">
<g id="graph0" class="graph" transform="scale(1 1) rotate(0) translate(4 304)">
<title>core/app.hpp</title>
<!-- Node1 -->
<g id="Node000001" class="node">
<title>Node1</title>
<g id="a_Node000001"><a xlink:title=" ">
<polygon fill="#999999" stroke="#666666" points="72.25,-300 0,-300 0,-280 72.25,-280 72.25,-300"/>
<text xml:space="preserve" text-anchor="middle" x="36.12" y="-286.5" font-family="Helvetica,sans-Serif" font-size="10.00">core/app.hpp</text>
</a>
</g>
</g>
<!-- Node2 -->
<g id="Node000002" class="node">
<title>Node2</title>
<g id="a_Node000002"><a xlink:title=" ">
<polygon fill="#e0e0e0" stroke="#999999" points="98.88,-20 45.38,-20 45.38,0 98.88,0 98.88,-20"/>
<text xml:space="preserve" text-anchor="middle" x="72.12" y="-6.5" font-family="Helvetica,sans-Serif" font-size="10.00">iostream</text>
</a>
</g>
</g>
<!-- Node1&#45;&gt;Node2 -->
<g id="edge1_Node000001_Node000002" class="edge">
<title>Node1&#45;&gt;Node2</title>
<g id="a_edge1_Node000001_Node000002"><a xlink:title=" ">
<path fill="none" stroke="#63b8ff" d="M31.7,-279.53C23.35,-260.77 6.13,-217.4 6.12,-179 6.12,-179 6.12,-179 6.12,-121 6.12,-83.95 34,-48.59 53.52,-28.38"/>
<polygon fill="#63b8ff" stroke="#63b8ff" points="55.81,-31.04 60.45,-21.51 50.88,-26.07 55.81,-31.04"/>
</a>
</g>
</g>
<!-- Node3 -->
<g id="Node000003" class="node">
<title>Node3</title>
<g id="a_Node000003"><a xlink:href="module_8hpp.html" target="_top" xlink:title=" ">
<polygon fill="white" stroke="#666666" points="100.25,-244 34,-244 34,-224 100.25,-224 100.25,-244"/>
<text xml:space="preserve" text-anchor="middle" x="67.12" y="-230.5" font-family="Helvetica,sans-Serif" font-size="10.00">module.hpp</text>
</a>
</g>
</g>
<!-- Node1&#45;&gt;Node3 -->
<g id="edge2_Node000001_Node000003" class="edge">
<title>Node1&#45;&gt;Node3</title>
<g id="a_edge2_Node000001_Node000003"><a xlink:title=" ">
<path fill="none" stroke="#63b8ff" d="M41.52,-279.59C45.57,-272.55 51.24,-262.67 56.22,-254"/>
<polygon fill="#63b8ff" stroke="#63b8ff" points="59.09,-256.03 61.03,-245.61 53.02,-252.54 59.09,-256.03"/>
</a>
</g>
</g>
<!-- Node3&#45;&gt;Node2 -->
<g id="edge3_Node000003_Node000002" class="edge">
<title>Node3&#45;&gt;Node2</title>
<g id="a_edge3_Node000003_Node000002"><a xlink:title=" ">
<path fill="none" stroke="#63b8ff" d="M66.06,-223.71C65.07,-214.62 63.67,-200.38 63.12,-188 60.61,-131.28 66.4,-64.38 69.82,-31.43"/>
<polygon fill="#63b8ff" stroke="#63b8ff" points="73.28,-32.03 70.88,-21.72 66.32,-31.28 73.28,-32.03"/>
</a>
</g>
</g>
<!-- Node4 -->
<g id="Node000004" class="node">
<title>Node4</title>
<g id="a_Node000004"><a xlink:href="modularComponent_8hpp.html" target="_top" xlink:title=" ">
<polygon fill="white" stroke="#666666" points="191.88,-188 72.38,-188 72.38,-168 191.88,-168 191.88,-188"/>
<text xml:space="preserve" text-anchor="middle" x="132.12" y="-174.5" font-family="Helvetica,sans-Serif" font-size="10.00">modularComponent.hpp</text>
</a>
</g>
</g>
<!-- Node3&#45;&gt;Node4 -->
<g id="edge4_Node000003_Node000004" class="edge">
<title>Node3&#45;&gt;Node4</title>
<g id="a_edge4_Node000003_Node000004"><a xlink:title=" ">
<path fill="none" stroke="#63b8ff" d="M78.45,-223.59C87.77,-215.85 101.2,-204.69 112.3,-195.47"/>
<polygon fill="#63b8ff" stroke="#63b8ff" points="114.31,-198.35 119.77,-189.27 109.84,-192.96 114.31,-198.35"/>
</a>
</g>
</g>
<!-- Node4&#45;&gt;Node2 -->
<g id="edge5_Node000004_Node000002" class="edge">
<title>Node4&#45;&gt;Node2</title>
<g id="a_edge5_Node000004_Node000002"><a xlink:title=" ">
<path fill="none" stroke="#63b8ff" d="M128.55,-167.71C125.08,-158.63 119.67,-144.39 115.12,-132 102.13,-96.54 87.51,-55.04 79.1,-31.01"/>
<polygon fill="#63b8ff" stroke="#63b8ff" points="82.51,-30.15 75.91,-21.87 75.9,-32.46 82.51,-30.15"/>
</a>
</g>
</g>
<!-- Node5 -->
<g id="Node000005" class="node">
<title>Node5</title>
<g id="a_Node000005"><a xlink:href="compositeNode_8hpp.html" target="_top" xlink:title=" ">
<polygon fill="white" stroke="#666666" points="226.62,-132 123.62,-132 123.62,-112 226.62,-112 226.62,-132"/>
<text xml:space="preserve" text-anchor="middle" x="175.12" y="-118.5" font-family="Helvetica,sans-Serif" font-size="10.00">compositeNode.hpp</text>
</a>
</g>
</g>
<!-- Node4&#45;&gt;Node5 -->
<g id="edge6_Node000004_Node000005" class="edge">
<title>Node4&#45;&gt;Node5</title>
<g id="a_edge6_Node000004_Node000005"><a xlink:title=" ">
<path fill="none" stroke="#63b8ff" d="M139.62,-167.59C145.41,-160.32 153.61,-150.02 160.67,-141.15"/>
<polygon fill="#63b8ff" stroke="#63b8ff" points="163.29,-143.49 166.78,-133.48 157.81,-139.12 163.29,-143.49"/>
</a>
</g>
</g>
<!-- Node5&#45;&gt;Node2 -->
<g id="edge7_Node000005_Node000002" class="edge">
<title>Node5&#45;&gt;Node2</title>
<g id="a_edge7_Node000005_Node000002"><a xlink:title=" ">
<path fill="none" stroke="#63b8ff" d="M166.34,-111.62C149.16,-93.27 110.86,-52.37 88.75,-28.75"/>
<polygon fill="#63b8ff" stroke="#63b8ff" points="91.31,-26.37 81.92,-21.46 86.2,-31.15 91.31,-26.37"/>
</a>
</g>
</g>
<!-- Node6 -->
<g id="Node000006" class="node">
<title>Node6</title>
<g id="a_Node000006"><a xlink:href="knowledge_8hpp.html" target="_top" xlink:title=" ">
<polygon fill="white" stroke="#666666" points="229.75,-76 148.5,-76 148.5,-56 229.75,-56 229.75,-76"/>
<text xml:space="preserve" text-anchor="middle" x="189.12" y="-62.5" font-family="Helvetica,sans-Serif" font-size="10.00">knowledge.hpp</text>
</a>
</g>
</g>
<!-- Node5&#45;&gt;Node6 -->
<g id="edge8_Node000005_Node000006" class="edge">
<title>Node5&#45;&gt;Node6</title>
<g id="a_edge8_Node000005_Node000006"><a xlink:title=" ">
<path fill="none" stroke="#63b8ff" d="M177.56,-111.59C179.29,-104.93 181.67,-95.75 183.83,-87.44"/>
<polygon fill="#63b8ff" stroke="#63b8ff" points="187.21,-88.32 186.33,-77.76 180.44,-86.56 187.21,-88.32"/>
</a>
</g>
</g>
<!-- Node11 -->
<g id="Node000011" class="node">
<title>Node11</title>
<g id="a_Node000011"><a xlink:title=" ">
<polygon fill="#e0e0e0" stroke="#999999" points="398.62,-76 247.62,-76 247.62,-56 398.62,-56 398.62,-76"/>
<text xml:space="preserve" text-anchor="middle" x="323.12" y="-62.5" font-family="Helvetica,sans-Serif" font-size="10.00">enum/compositeNodeType.hpp</text>
</a>
</g>
</g>
<!-- Node5&#45;&gt;Node11 -->
<g id="edge14_Node000005_Node000011" class="edge">
<title>Node5&#45;&gt;Node11</title>
<g id="a_edge14_Node000005_Node000011"><a xlink:title=" ">
<path fill="none" stroke="#63b8ff" d="M200.9,-111.59C224.53,-102.97 259.77,-90.12 286.34,-80.42"/>
<polygon fill="#63b8ff" stroke="#63b8ff" points="287.53,-83.71 295.72,-77 285.13,-77.14 287.53,-83.71"/>
</a>
</g>
</g>
<!-- Node6&#45;&gt;Node2 -->
<g id="edge9_Node000006_Node000002" class="edge">
<title>Node6&#45;&gt;Node2</title>
<g id="a_edge9_Node000006_Node000002"><a xlink:title=" ">
<path fill="none" stroke="#63b8ff" d="M168.75,-55.59C150.57,-47.21 123.7,-34.8 102.91,-25.21"/>
<polygon fill="#63b8ff" stroke="#63b8ff" points="104.58,-22.13 94.04,-21.11 101.65,-28.48 104.58,-22.13"/>
</a>
</g>
</g>
<!-- Node7 -->
<g id="Node000007" class="node">
<title>Node7</title>
<g id="a_Node000007"><a xlink:title=" ">
<polygon fill="#e0e0e0" stroke="#999999" points="145.53,-20 116.72,-20 116.72,0 145.53,0 145.53,-20"/>
<text xml:space="preserve" text-anchor="middle" x="131.12" y="-6.5" font-family="Helvetica,sans-Serif" font-size="10.00">list</text>
</a>
</g>
</g>
<!-- Node6&#45;&gt;Node7 -->
<g id="edge10_Node000006_Node000007" class="edge">
<title>Node6&#45;&gt;Node7</title>
<g id="a_edge10_Node000006_Node000007"><a xlink:title=" ">
<path fill="none" stroke="#63b8ff" d="M179.02,-55.59C170.87,-48.01 159.19,-37.13 149.41,-28.02"/>
<polygon fill="#63b8ff" stroke="#63b8ff" points="151.92,-25.58 142.22,-21.33 147.15,-30.71 151.92,-25.58"/>
</a>
</g>
</g>
<!-- Node8 -->
<g id="Node000008" class="node">
<title>Node8</title>
<g id="a_Node000008"><a xlink:title=" ">
<polygon fill="#e0e0e0" stroke="#999999" points="214.75,-20 163.5,-20 163.5,0 214.75,0 214.75,-20"/>
<text xml:space="preserve" text-anchor="middle" x="189.12" y="-6.5" font-family="Helvetica,sans-Serif" font-size="10.00">memory</text>
</a>
</g>
</g>
<!-- Node6&#45;&gt;Node8 -->
<g id="edge11_Node000006_Node000008" class="edge">
<title>Node6&#45;&gt;Node8</title>
<g id="a_edge11_Node000006_Node000008"><a xlink:title=" ">
<path fill="none" stroke="#63b8ff" d="M189.12,-55.59C189.12,-49.01 189.12,-39.96 189.12,-31.73"/>
<polygon fill="#63b8ff" stroke="#63b8ff" points="192.63,-31.81 189.13,-21.81 185.63,-31.81 192.63,-31.81"/>
</a>
</g>
</g>
<!-- Node9 -->
<g id="Node000009" class="node">
<title>Node9</title>
<g id="a_Node000009"><a xlink:title=" ">
<polygon fill="#e0e0e0" stroke="#999999" points="323.25,-20 233,-20 233,0 323.25,0 323.25,-20"/>
<text xml:space="preserve" text-anchor="middle" x="278.12" y="-6.5" font-family="Helvetica,sans-Serif" font-size="10.00">model/model.hpp</text>
</a>
</g>
</g>
<!-- Node6&#45;&gt;Node9 -->
<g id="edge12_Node000006_Node000009" class="edge">
<title>Node6&#45;&gt;Node9</title>
<g id="a_edge12_Node000006_Node000009"><a xlink:title=" ">
<path fill="none" stroke="#63b8ff" d="M204.63,-55.59C217.95,-47.51 237.4,-35.71 252.95,-26.27"/>
<polygon fill="#63b8ff" stroke="#63b8ff" points="254.47,-29.44 261.21,-21.26 250.84,-23.46 254.47,-29.44"/>
</a>
</g>
</g>
<!-- Node10 -->
<g id="Node000010" class="node">
<title>Node10</title>
<g id="a_Node000010"><a xlink:title=" ">
<polygon fill="#e0e0e0" stroke="#999999" points="439.38,-20 340.88,-20 340.88,0 439.38,0 439.38,-20"/>
<text xml:space="preserve" text-anchor="middle" x="390.12" y="-6.5" font-family="Helvetica,sans-Serif" font-size="10.00">model/strategy.hpp</text>
</a>
</g>
</g>
<!-- Node6&#45;&gt;Node10 -->
<g id="edge13_Node000006_Node000010" class="edge">
<title>Node6&#45;&gt;Node10</title>
<g id="a_edge13_Node000006_Node000010"><a xlink:title=" ">
<path fill="none" stroke="#63b8ff" d="M224.14,-55.59C257.37,-46.67 307.51,-33.19 343.99,-23.39"/>
<polygon fill="#63b8ff" stroke="#63b8ff" points="344.63,-26.85 353.38,-20.87 342.81,-20.09 344.63,-26.85"/>
</a>
</g>
</g>
</g>
</svg>
