<?xml version="1.0" encoding="UTF-8" standalone="no"?>
<!DOCTYPE svg PUBLIC "-//W3C//DTD SVG 1.1//EN"
 "http://www.w3.org/Graphics/SVG/1.1/DTD/svg11.dtd">
<!-- Generated by graphviz version 13.1.0 (0)
 -->
<!-- Title: CAT::MAPEK Pages: 1 -->
<svg width="827pt" height="212pt"
 viewBox="0.00 0.00 827.00 212.00" xmlns="http://www.w3.org/2000/svg" xmlns:xlink="http://www.w3.org/1999/xlink">
<g id="graph0" class="graph" transform="scale(1 1) rotate(0) translate(4 207.89)">
<title>CAT::MAPEK</title>
<!-- Node1 -->
<g id="Node000001" class="node">
<title>Node1</title>
<g id="a_Node000001"><a xlink:title=" ">
<polygon fill="#999999" stroke="#666666" points="818.5,-120 742.5,-120 742.5,-100 818.5,-100 818.5,-120"/>
<text xml:space="preserve" text-anchor="middle" x="780.5" y="-106.5" font-family="Helvetica,sans-Serif" font-size="10.00">CAT::MAPEK</text>
</a>
</g>
</g>
<!-- Node2 -->
<g id="Node000002" class="node">
<title>Node2</title>
<g id="a_Node000002"><a xlink:href="classCAT_1_1LoopComponent.html" target="_top" xlink:title=" ">
<polygon fill="white" stroke="#666666" points="705.5,-120 593.5,-120 593.5,-100 705.5,-100 705.5,-120"/>
<text xml:space="preserve" text-anchor="middle" x="649.5" y="-106.5" font-family="Helvetica,sans-Serif" font-size="10.00">CAT::LoopComponent</text>
</a>
</g>
</g>
<!-- Node2&#45;&gt;Node1 -->
<g id="edge1_Node000001_Node000002" class="edge">
<title>Node2&#45;&gt;Node1</title>
<g id="a_edge1_Node000001_Node000002"><a xlink:title=" ">
<path fill="none" stroke="#63b8ff" d="M717.26,-110C725.88,-110 734.45,-110 742.34,-110"/>
<polygon fill="#63b8ff" stroke="#63b8ff" points="717.47,-106.5 707.47,-110 717.47,-113.5 717.47,-106.5"/>
</a>
</g>
</g>
<!-- Node3 -->
<g id="Node000003" class="node">
<title>Node3</title>
<g id="a_Node000003"><a xlink:href="classCAT_1_1CompositeNode.html" target="_top" xlink:title=" ">
<polygon fill="white" stroke="#666666" points="416.25,-174 305,-174 305,-154 416.25,-154 416.25,-174"/>
<text xml:space="preserve" text-anchor="middle" x="360.62" y="-160.5" font-family="Helvetica,sans-Serif" font-size="10.00">CAT::CompositeNode</text>
</a>
</g>
</g>
<!-- Node3&#45;&gt;Node2 -->
<g id="edge2_Node000002_Node000003" class="edge">
<title>Node3&#45;&gt;Node2</title>
<g id="a_edge2_Node000002_Node000003"><a xlink:title=" ">
<path fill="none" stroke="#63b8ff" d="M427.91,-162.47C470.64,-160.2 527.06,-154.77 575.5,-142 594.5,-136.99 614.88,-127.69 629.27,-120.4"/>
<polygon fill="#63b8ff" stroke="#63b8ff" points="427.85,-158.97 418.03,-162.95 428.19,-165.96 427.85,-158.97"/>
</a>
</g>
</g>
<!-- Node4 -->
<g id="Node000004" class="node">
<title>Node4</title>
<g id="a_Node000004"><a xlink:href="classCAT_1_1Knowledge.html" target="_top" xlink:title=" ">
<polygon fill="white" stroke="#666666" points="88.75,-174 0,-174 0,-154 88.75,-154 88.75,-174"/>
<text xml:space="preserve" text-anchor="middle" x="44.38" y="-160.5" font-family="Helvetica,sans-Serif" font-size="10.00">CAT::Knowledge</text>
</a>
</g>
</g>
<!-- Node4&#45;&gt;Node2 -->
<g id="edge4_Node000002_Node000004" class="edge">
<title>Node4&#45;&gt;Node2</title>
<g id="a_edge4_Node000002_Node000004"><a xlink:title=" ">
<path fill="none" stroke="#9a32cd" stroke-dasharray="5,2" d="M79.13,-178.44C87.96,-181.56 97.58,-184.41 106.75,-186 144.19,-192.51 154.25,-186.51 192.25,-186 335.37,-184.08 372.21,-191.57 514,-172 541.59,-168.19 549.81,-170.76 575.5,-160 599.16,-150.09 623.02,-131.83 636.75,-120.33"/>
<polygon fill="#9a32cd" stroke="#9a32cd" points="80.48,-175.21 69.88,-174.94 78,-181.75 80.48,-175.21"/>
</a>
</g>
<text xml:space="preserve" text-anchor="start" x="319.75" y="-191.39" font-family="Helvetica,sans-Serif" font-size="10.00" fill="grey">moduleComponent</text>
</g>
<!-- Node4&#45;&gt;Node3 -->
<g id="edge3_Node000003_Node000004" class="edge">
<title>Node4&#45;&gt;Node3</title>
<g id="a_edge3_Node000003_Node000004"><a xlink:title=" ">
<path fill="none" stroke="#9a32cd" stroke-dasharray="5,2" d="M100.46,-164C157.88,-164 247.32,-164 304.68,-164"/>
<polygon fill="#9a32cd" stroke="#9a32cd" points="100.58,-160.5 90.58,-164 100.58,-167.5 100.58,-160.5"/>
</a>
</g>
<text xml:space="preserve" text-anchor="start" x="126.25" y="-169.5" font-family="Helvetica,sans-Serif" font-size="10.00" fill="grey">knowledge</text>
</g>
<!-- Node6 -->
<g id="Node000006" class="node">
<title>Node6</title>
<g id="a_Node000006"><a xlink:href="classCAT_1_1Element.html" target="_top" xlink:title=" ">
<polygon fill="white" stroke="#666666" points="287,-98 210.25,-98 210.25,-78 287,-78 287,-98"/>
<text xml:space="preserve" text-anchor="middle" x="248.62" y="-84.5" font-family="Helvetica,sans-Serif" font-size="10.00">CAT::Element</text>
</a>
</g>
</g>
<!-- Node4&#45;&gt;Node6 -->
<g id="edge7_Node000006_Node000004" class="edge">
<title>Node4&#45;&gt;Node6</title>
<g id="a_edge7_Node000006_Node000004"><a xlink:title=" ">
<path fill="none" stroke="#9a32cd" stroke-dasharray="5,2" d="M60.5,-145.23C71.84,-132.55 88.48,-116.61 106.75,-108 139.38,-92.63 180.61,-88.28 210.02,-87.39"/>
<polygon fill="#9a32cd" stroke="#9a32cd" points="58.06,-142.71 54.23,-152.59 63.38,-147.25 58.06,-142.71"/>
</a>
</g>
<text xml:space="preserve" text-anchor="start" x="109.75" y="-129.5" font-family="Helvetica,sans-Serif" font-size="10.00" fill="grey">localKnowledge</text>
<text xml:space="preserve" text-anchor="start" x="109.75" y="-113.5" font-family="Helvetica,sans-Serif" font-size="10.00" fill="grey">moduleKnowledge</text>
</g>
<!-- Node5 -->
<g id="Node000005" class="node">
<title>Node5</title>
<g id="a_Node000005"><a xlink:href="classCAT_1_1Analyzer.html" target="_top" xlink:title=" ">
<polygon fill="white" stroke="#666666" points="513.62,-136 434.62,-136 434.62,-116 513.62,-116 513.62,-136"/>
<text xml:space="preserve" text-anchor="middle" x="474.12" y="-122.5" font-family="Helvetica,sans-Serif" font-size="10.00">CAT::Analyzer</text>
</a>
</g>
</g>
<!-- Node5&#45;&gt;Node2 -->
<g id="edge5_Node000002_Node000005" class="edge">
<title>Node5&#45;&gt;Node2</title>
<g id="a_edge5_Node000002_Node000005"><a xlink:title=" ">
<path fill="none" stroke="#9a32cd" stroke-dasharray="5,2" d="M525.44,-121.36C546.7,-119.4 571.52,-117.1 593.28,-115.1"/>
<polygon fill="#9a32cd" stroke="#9a32cd" points="525.18,-117.87 515.54,-122.27 525.82,-124.84 525.18,-117.87"/>
</a>
</g>
<text xml:space="preserve" text-anchor="start" x="535.38" y="-125.87" font-family="Helvetica,sans-Serif" font-size="10.00" fill="grey">analyzer</text>
</g>
<!-- Node6&#45;&gt;Node5 -->
<g id="edge6_Node000005_Node000006" class="edge">
<title>Node6&#45;&gt;Node5</title>
<g id="a_edge6_Node000005_Node000006"><a xlink:title=" ">
<path fill="none" stroke="#63b8ff" d="M298.44,-100.64C300.65,-101.12 302.85,-101.58 305,-102 348.97,-110.67 400,-117.51 434.2,-121.63"/>
<polygon fill="#63b8ff" stroke="#63b8ff" points="299.34,-97.26 288.81,-98.44 297.78,-104.08 299.34,-97.26"/>
</a>
</g>
</g>
<!-- Node6&#45;&gt;Node6 -->
<g id="edge8_Node000006_Node000006" class="edge">
<title>Node6&#45;&gt;Node6</title>
<g id="a_edge8_Node000006_Node000006"><a xlink:title=" ">
<path fill="none" stroke="#9a32cd" stroke-dasharray="5,2" d="M231.11,-109.44C233.36,-113.3 239.2,-116 248.62,-116 265.86,-116 271.11,-106.98 264.37,-98.34"/>
<polygon fill="#9a32cd" stroke="#9a32cd" points="234.52,-110.26 232.64,-99.83 227.61,-109.16 234.52,-110.26"/>
</a>
</g>
<text xml:space="preserve" text-anchor="start" x="229.88" y="-121.5" font-family="Helvetica,sans-Serif" font-size="10.00" fill="grey">observer</text>
</g>
<!-- Node7 -->
<g id="Node000007" class="node">
<title>Node7</title>
<g id="a_Node000007"><a xlink:href="classCAT_1_1Planner.html" target="_top" xlink:title=" ">
<polygon fill="white" stroke="#666666" points="511,-98 437.25,-98 437.25,-78 511,-78 511,-98"/>
<text xml:space="preserve" text-anchor="middle" x="474.12" y="-84.5" font-family="Helvetica,sans-Serif" font-size="10.00">CAT::Planner</text>
</a>
</g>
</g>
<!-- Node6&#45;&gt;Node7 -->
<g id="edge10_Node000007_Node000006" class="edge">
<title>Node6&#45;&gt;Node7</title>
<g id="a_edge10_Node000007_Node000006"><a xlink:title=" ">
<path fill="none" stroke="#63b8ff" d="M298.55,-88C340.24,-88 399.19,-88 436.79,-88"/>
<polygon fill="#63b8ff" stroke="#63b8ff" points="298.8,-84.5 288.8,-88 298.8,-91.5 298.8,-84.5"/>
</a>
</g>
</g>
<!-- Node8 -->
<g id="Node000008" class="node">
<title>Node8</title>
<g id="a_Node000008"><a xlink:href="classCAT_1_1Executor.html" target="_top" xlink:title=" ">
<polygon fill="white" stroke="#666666" points="514,-60 434.25,-60 434.25,-40 514,-40 514,-60"/>
<text xml:space="preserve" text-anchor="middle" x="474.12" y="-46.5" font-family="Helvetica,sans-Serif" font-size="10.00">CAT::Executor</text>
</a>
</g>
</g>
<!-- Node6&#45;&gt;Node8 -->
<g id="edge12_Node000008_Node000006" class="edge">
<title>Node6&#45;&gt;Node8</title>
<g id="a_edge12_Node000008_Node000006"><a xlink:title=" ">
<path fill="none" stroke="#63b8ff" d="M298.53,-79.68C339.13,-72.78 396.12,-63.09 433.8,-56.69"/>
<polygon fill="#63b8ff" stroke="#63b8ff" points="298.05,-76.22 288.78,-81.34 299.22,-83.12 298.05,-76.22"/>
</a>
</g>
</g>
<!-- Node9 -->
<g id="Node000009" class="node">
<title>Node9</title>
<g id="a_Node000009"><a xlink:href="classCAT_1_1Monitor.html" target="_top" xlink:title=" ">
<polygon fill="white" stroke="#666666" points="510.62,-20 437.62,-20 437.62,0 510.62,0 510.62,-20"/>
<text xml:space="preserve" text-anchor="middle" x="474.12" y="-6.5" font-family="Helvetica,sans-Serif" font-size="10.00">CAT::Monitor</text>
</a>
</g>
</g>
<!-- Node6&#45;&gt;Node9 -->
<g id="edge14_Node000009_Node000006" class="edge">
<title>Node6&#45;&gt;Node9</title>
<g id="a_edge14_Node000009_Node000006"><a xlink:title=" ">
<path fill="none" stroke="#63b8ff" d="M274.76,-71.64C284.01,-66.13 294.73,-60.29 305,-56 348.98,-37.64 402.48,-24.46 437.14,-17.03"/>
<polygon fill="#63b8ff" stroke="#63b8ff" points="273.02,-68.61 266.35,-76.84 276.7,-74.56 273.02,-68.61"/>
</a>
</g>
</g>
<!-- Node7&#45;&gt;Node2 -->
<g id="edge9_Node000002_Node000007" class="edge">
<title>Node7&#45;&gt;Node2</title>
<g id="a_edge9_Node000002_Node000007"><a xlink:title=" ">
<path fill="none" stroke="#9a32cd" stroke-dasharray="5,2" d="M522.68,-90.02C539.43,-91.07 558.34,-92.65 575.5,-95 584.22,-96.19 593.45,-97.81 602.32,-99.54"/>
<polygon fill="#9a32cd" stroke="#9a32cd" points="523.18,-86.54 512.99,-89.46 522.78,-93.53 523.18,-86.54"/>
</a>
</g>
<text xml:space="preserve" text-anchor="start" x="538" y="-100.5" font-family="Helvetica,sans-Serif" font-size="10.00" fill="grey">planner</text>
</g>
<!-- Node8&#45;&gt;Node2 -->
<g id="edge11_Node000002_Node000008" class="edge">
<title>Node8&#45;&gt;Node2</title>
<g id="a_edge11_Node000002_Node000008"><a xlink:title=" ">
<path fill="none" stroke="#9a32cd" stroke-dasharray="5,2" d="M525.06,-56.17C541.44,-59.05 559.52,-63.18 575.5,-69 596.81,-76.76 619.25,-90.29 633.54,-99.67"/>
<polygon fill="#9a32cd" stroke="#9a32cd" points="525.97,-52.77 515.53,-54.61 524.84,-59.68 525.97,-52.77"/>
</a>
</g>
<text xml:space="preserve" text-anchor="start" x="535" y="-74.5" font-family="Helvetica,sans-Serif" font-size="10.00" fill="grey">executor</text>
</g>
<!-- Node9&#45;&gt;Node2 -->
<g id="edge13_Node000002_Node000009" class="edge">
<title>Node9&#45;&gt;Node2</title>
<g id="a_edge13_Node000002_Node000009"><a xlink:title=" ">
<path fill="none" stroke="#9a32cd" stroke-dasharray="5,2" d="M522.02,-16.71C539.6,-20.59 559.25,-26.64 575.5,-36 604.27,-52.58 629.39,-83.56 641.25,-99.67"/>
<polygon fill="#9a32cd" stroke="#9a32cd" points="522.79,-13.29 512.3,-14.75 521.41,-20.15 522.79,-13.29"/>
</a>
</g>
<text xml:space="preserve" text-anchor="start" x="537.62" y="-41.5" font-family="Helvetica,sans-Serif" font-size="10.00" fill="grey">monitor</text>
</g>
</g>
</svg>
