<?xml version="1.0" encoding="UTF-8" standalone="no"?>
<!DOCTYPE svg PUBLIC "-//W3C//DTD SVG 1.1//EN"
 "http://www.w3.org/Graphics/SVG/1.1/DTD/svg11.dtd">
<!-- Generated by graphviz version 13.1.0 (0)
 -->
<!-- Title: CAT::Module Pages: 1 -->
<svg width="134pt" height="216pt"
 viewBox="0.00 0.00 134.00 216.00" xmlns="http://www.w3.org/2000/svg" xmlns:xlink="http://www.w3.org/1999/xlink">
<g id="graph0" class="graph" transform="scale(1 1) rotate(0) translate(4 212)">
<title>CAT::Module</title>
<!-- Node1 -->
<g id="Node000001" class="node">
<title>Node1</title>
<g id="a_Node000001"><a xlink:title=" ">
<polygon fill="#999999" stroke="#666666" points="98.88,-20 26.62,-20 26.62,0 98.88,0 98.88,-20"/>
<text xml:space="preserve" text-anchor="middle" x="62.75" y="-6.5" font-family="Helvetica,sans-Serif" font-size="10.00">CAT::Module</text>
</a>
</g>
</g>
<!-- Node2 -->
<g id="Node000002" class="node">
<title>Node2</title>
<g id="a_Node000002"><a xlink:href="classCAT_1_1ModularComponent.html" target="_top" xlink:title=" ">
<polygon fill="white" stroke="#666666" points="125.5,-77 0,-77 0,-57 125.5,-57 125.5,-77"/>
<text xml:space="preserve" text-anchor="middle" x="62.75" y="-63.5" font-family="Helvetica,sans-Serif" font-size="10.00">CAT::ModularComponent</text>
</a>
</g>
</g>
<!-- Node2&#45;&gt;Node1 -->
<g id="edge1_Node000001_Node000002" class="edge">
<title>Node2&#45;&gt;Node1</title>
<g id="a_edge1_Node000001_Node000002"><a xlink:title=" ">
<path fill="none" stroke="#63b8ff" d="M62.75,-45.69C62.75,-36.97 62.75,-27.22 62.75,-20.28"/>
<polygon fill="#63b8ff" stroke="#63b8ff" points="59.25,-45.4 62.75,-55.4 66.25,-45.4 59.25,-45.4"/>
</a>
</g>
</g>
<!-- Node3 -->
<g id="Node000003" class="node">
<title>Node3</title>
<g id="a_Node000003"><a xlink:href="classCAT_1_1CompositeNode.html" target="_top" xlink:title=" ">
<polygon fill="white" stroke="#666666" points="118.38,-134 7.12,-134 7.12,-114 118.38,-114 118.38,-134"/>
<text xml:space="preserve" text-anchor="middle" x="62.75" y="-120.5" font-family="Helvetica,sans-Serif" font-size="10.00">CAT::CompositeNode</text>
</a>
</g>
</g>
<!-- Node3&#45;&gt;Node2 -->
<g id="edge2_Node000002_Node000003" class="edge">
<title>Node3&#45;&gt;Node2</title>
<g id="a_edge2_Node000002_Node000003"><a xlink:title=" ">
<path fill="none" stroke="#63b8ff" d="M62.75,-102.69C62.75,-93.97 62.75,-84.22 62.75,-77.28"/>
<polygon fill="#63b8ff" stroke="#63b8ff" points="59.25,-102.4 62.75,-112.4 66.25,-102.4 59.25,-102.4"/>
</a>
</g>
</g>
<!-- Node4 -->
<g id="Node000004" class="node">
<title>Node4</title>
<g id="a_Node000004"><a xlink:href="classCAT_1_1Knowledge.html" target="_top" xlink:title=" ">
<polygon fill="white" stroke="#666666" points="107.12,-208 18.38,-208 18.38,-188 107.12,-188 107.12,-208"/>
<text xml:space="preserve" text-anchor="middle" x="62.75" y="-194.5" font-family="Helvetica,sans-Serif" font-size="10.00">CAT::Knowledge</text>
</a>
</g>
</g>
<!-- Node4&#45;&gt;Node3 -->
<g id="edge3_Node000003_Node000004" class="edge">
<title>Node4&#45;&gt;Node3</title>
<g id="a_edge3_Node000003_Node000004"><a xlink:title=" ">
<path fill="none" stroke="#9a32cd" stroke-dasharray="5,2" d="M62.75,-176.18C62.75,-162.29 62.75,-144.71 62.75,-134.19"/>
<polygon fill="#9a32cd" stroke="#9a32cd" points="59.25,-176.07 62.75,-186.07 66.25,-176.07 59.25,-176.07"/>
</a>
</g>
<text xml:space="preserve" text-anchor="start" x="65.75" y="-157.5" font-family="Helvetica,sans-Serif" font-size="10.00" fill="grey">knowledge</text>
</g>
</g>
</svg>
