<?xml version="1.0" encoding="UTF-8" standalone="no"?>
<!DOCTYPE svg PUBLIC "-//W3C//DTD SVG 1.1//EN"
 "http://www.w3.org/Graphics/SVG/1.1/DTD/svg11.dtd">
<!-- Generated by graphviz version 13.1.0 (0)
 -->
<!-- Title: CAT::App Pages: 1 -->
<svg width="138pt" height="290pt"
 viewBox="0.00 0.00 138.00 290.00" xmlns="http://www.w3.org/2000/svg" xmlns:xlink="http://www.w3.org/1999/xlink">
<g id="graph0" class="graph" transform="scale(1 1) rotate(0) translate(4 286)">
<title>CAT::App</title>
<!-- Node1 -->
<g id="Node000001" class="node">
<title>Node1</title>
<g id="a_Node000001"><a xlink:title=" ">
<polygon fill="#999999" stroke="#666666" points="91.75,-20 33.75,-20 33.75,0 91.75,0 91.75,-20"/>
<text xml:space="preserve" text-anchor="middle" x="62.75" y="-6.5" font-family="Helvetica,sans-Serif" font-size="10.00">CAT::App</text>
</a>
</g>
</g>
<!-- Node2 -->
<g id="Node000002" class="node">
<title>Node2</title>
<g id="a_Node000002"><a xlink:href="classCAT_1_1Module.html" target="_top" xlink:title=" ">
<polygon fill="white" stroke="#666666" points="98.88,-94 26.62,-94 26.62,-74 98.88,-74 98.88,-94"/>
<text xml:space="preserve" text-anchor="middle" x="62.75" y="-80.5" font-family="Helvetica,sans-Serif" font-size="10.00">CAT::Module</text>
</a>
</g>
</g>
<!-- Node2&#45;&gt;Node1 -->
<g id="edge1_Node000001_Node000002" class="edge">
<title>Node2&#45;&gt;Node1</title>
<g id="a_edge1_Node000001_Node000002"><a xlink:title=" ">
<path fill="none" stroke="#9a32cd" stroke-dasharray="5,2" d="M62.75,-62.18C62.75,-48.29 62.75,-30.71 62.75,-20.19"/>
<polygon fill="#9a32cd" stroke="#9a32cd" points="59.25,-62.07 62.75,-72.07 66.25,-62.07 59.25,-62.07"/>
</a>
</g>
<text xml:space="preserve" text-anchor="start" x="65.75" y="-43.5" font-family="Helvetica,sans-Serif" font-size="10.00" fill="grey">defaultModule</text>
</g>
<!-- Node3 -->
<g id="Node000003" class="node">
<title>Node3</title>
<g id="a_Node000003"><a xlink:href="classCAT_1_1ModularComponent.html" target="_top" xlink:title=" ">
<polygon fill="white" stroke="#666666" points="125.5,-151 0,-151 0,-131 125.5,-131 125.5,-151"/>
<text xml:space="preserve" text-anchor="middle" x="62.75" y="-137.5" font-family="Helvetica,sans-Serif" font-size="10.00">CAT::ModularComponent</text>
</a>
</g>
</g>
<!-- Node3&#45;&gt;Node2 -->
<g id="edge2_Node000002_Node000003" class="edge">
<title>Node3&#45;&gt;Node2</title>
<g id="a_edge2_Node000002_Node000003"><a xlink:title=" ">
<path fill="none" stroke="#63b8ff" d="M62.75,-119.69C62.75,-110.97 62.75,-101.22 62.75,-94.28"/>
<polygon fill="#63b8ff" stroke="#63b8ff" points="59.25,-119.4 62.75,-129.4 66.25,-119.4 59.25,-119.4"/>
</a>
</g>
</g>
<!-- Node4 -->
<g id="Node000004" class="node">
<title>Node4</title>
<g id="a_Node000004"><a xlink:href="classCAT_1_1CompositeNode.html" target="_top" xlink:title=" ">
<polygon fill="white" stroke="#666666" points="118.38,-208 7.12,-208 7.12,-188 118.38,-188 118.38,-208"/>
<text xml:space="preserve" text-anchor="middle" x="62.75" y="-194.5" font-family="Helvetica,sans-Serif" font-size="10.00">CAT::CompositeNode</text>
</a>
</g>
</g>
<!-- Node4&#45;&gt;Node3 -->
<g id="edge3_Node000003_Node000004" class="edge">
<title>Node4&#45;&gt;Node3</title>
<g id="a_edge3_Node000003_Node000004"><a xlink:title=" ">
<path fill="none" stroke="#63b8ff" d="M62.75,-176.69C62.75,-167.97 62.75,-158.22 62.75,-151.28"/>
<polygon fill="#63b8ff" stroke="#63b8ff" points="59.25,-176.4 62.75,-186.4 66.25,-176.4 59.25,-176.4"/>
</a>
</g>
</g>
<!-- Node5 -->
<g id="Node000005" class="node">
<title>Node5</title>
<g id="a_Node000005"><a xlink:href="classCAT_1_1Knowledge.html" target="_top" xlink:title=" ">
<polygon fill="white" stroke="#666666" points="107.12,-282 18.38,-282 18.38,-262 107.12,-262 107.12,-282"/>
<text xml:space="preserve" text-anchor="middle" x="62.75" y="-268.5" font-family="Helvetica,sans-Serif" font-size="10.00">CAT::Knowledge</text>
</a>
</g>
</g>
<!-- Node5&#45;&gt;Node4 -->
<g id="edge4_Node000004_Node000005" class="edge">
<title>Node5&#45;&gt;Node4</title>
<g id="a_edge4_Node000004_Node000005"><a xlink:title=" ">
<path fill="none" stroke="#9a32cd" stroke-dasharray="5,2" d="M62.75,-250.18C62.75,-236.29 62.75,-218.71 62.75,-208.19"/>
<polygon fill="#9a32cd" stroke="#9a32cd" points="59.25,-250.07 62.75,-260.07 66.25,-250.07 59.25,-250.07"/>
</a>
</g>
<text xml:space="preserve" text-anchor="start" x="65.75" y="-231.5" font-family="Helvetica,sans-Serif" font-size="10.00" fill="grey">knowledge</text>
</g>
</g>
</svg>
