<?xml version="1.0" encoding="UTF-8" standalone="no"?>
<!DOCTYPE svg PUBLIC "-//W3C//DTD SVG 1.1//EN"
 "http://www.w3.org/Graphics/SVG/1.1/DTD/svg11.dtd">
<!-- Generated by graphviz version 13.1.0 (0)
 -->
<!-- Title: CAT::Planner::update Pages: 1 -->
<svg width="389pt" height="28pt"
 viewBox="0.00 0.00 389.00 28.00" xmlns="http://www.w3.org/2000/svg" xmlns:xlink="http://www.w3.org/1999/xlink">
<g id="graph0" class="graph" transform="scale(1 1) rotate(0) translate(4 24)">
<title>CAT::Planner::update</title>
<!-- Node1 -->
<g id="Node000001" class="node">
<title>Node1</title>
<g id="a_Node000001"><a xlink:title=" ">
<polygon fill="#999999" stroke="#666666" points="109,-20 0,-20 0,0 109,0 109,-20"/>
<text xml:space="preserve" text-anchor="middle" x="54.5" y="-6.5" font-family="Helvetica,sans-Serif" font-size="10.00">CAT::Planner::update</text>
</a>
</g>
</g>
<!-- Node2 -->
<g id="Node000002" class="node">
<title>Node2</title>
<g id="a_Node000002"><a xlink:href="classCAT_1_1Planner.html#aa6153eb818b576a3f2ac80f661234efd" target="_top" xlink:title=" ">
<polygon fill="white" stroke="#666666" points="238.25,-20 145,-20 145,0 238.25,0 238.25,-20"/>
<text xml:space="preserve" text-anchor="middle" x="191.62" y="-6.5" font-family="Helvetica,sans-Serif" font-size="10.00">CAT::Planner::run</text>
</a>
</g>
</g>
<!-- Node1&#45;&gt;Node2 -->
<g id="edge1_Node000001_Node000002" class="edge">
<title>Node1&#45;&gt;Node2</title>
<g id="a_edge1_Node000001_Node000002"><a xlink:title=" ">
<path fill="none" stroke="#63b8ff" d="M109.29,-10C117.2,-10 125.38,-10 133.36,-10"/>
<polygon fill="#63b8ff" stroke="#63b8ff" points="133.34,-13.5 143.34,-10 133.34,-6.5 133.34,-13.5"/>
</a>
</g>
</g>
<!-- Node3 -->
<g id="Node000003" class="node">
<title>Node3</title>
<g id="a_Node000003"><a xlink:href="classCAT_1_1Element.html#ab5dbde2570c07bb973f812ba163860d7" target="_top" xlink:title=" ">
<polygon fill="white" stroke="#666666" points="381,-20 274.25,-20 274.25,0 381,0 381,-20"/>
<text xml:space="preserve" text-anchor="middle" x="327.62" y="-6.5" font-family="Helvetica,sans-Serif" font-size="10.00">CAT::Element::notify</text>
</a>
</g>
</g>
<!-- Node2&#45;&gt;Node3 -->
<g id="edge2_Node000002_Node000003" class="edge">
<title>Node2&#45;&gt;Node3</title>
<g id="a_edge2_Node000002_Node000003"><a xlink:title=" ">
<path fill="none" stroke="#63b8ff" d="M238.74,-10C246.46,-10 254.59,-10 262.66,-10"/>
<polygon fill="#63b8ff" stroke="#63b8ff" points="262.47,-13.5 272.47,-10 262.47,-6.5 262.47,-13.5"/>
</a>
</g>
</g>
</g>
</svg>
