<?xml version="1.0" encoding="UTF-8" standalone="no"?>
<!DOCTYPE svg PUBLIC "-//W3C//DTD SVG 1.1//EN"
 "http://www.w3.org/Graphics/SVG/1.1/DTD/svg11.dtd">
<!-- Generated by graphviz version 13.1.0 (0)
 -->
<!-- Title: CAT::Element Pages: 1 -->
<svg width="366pt" height="84pt"
 viewBox="0.00 0.00 366.00 84.00" xmlns="http://www.w3.org/2000/svg" xmlns:xlink="http://www.w3.org/1999/xlink">
<g id="graph0" class="graph" transform="scale(1 1) rotate(0) translate(4 80)">
<title>CAT::Element</title>
<!-- Node1 -->
<g id="Node000001" class="node">
<title>Node1</title>
<g id="a_Node000001"><a xlink:title=" ">
<polygon fill="#999999" stroke="#666666" points="221.88,-76 145.12,-76 145.12,-56 221.88,-56 221.88,-76"/>
<text xml:space="preserve" text-anchor="middle" x="183.5" y="-62.5" font-family="Helvetica,sans-Serif" font-size="10.00">CAT::Element</text>
</a>
</g>
</g>
<!-- Node2 -->
<g id="Node000002" class="node">
<title>Node2</title>
<g id="a_Node000002"><a xlink:href="classCAT_1_1Analyzer.html" target="_top" xlink:title=" ">
<polygon fill="white" stroke="#666666" points="79,-20 0,-20 0,0 79,0 79,-20"/>
<text xml:space="preserve" text-anchor="middle" x="39.5" y="-6.5" font-family="Helvetica,sans-Serif" font-size="10.00">CAT::Analyzer</text>
</a>
</g>
</g>
<!-- Node1&#45;&gt;Node2 -->
<g id="edge1_Node000001_Node000002" class="edge">
<title>Node1&#45;&gt;Node2</title>
<g id="a_edge1_Node000001_Node000002"><a xlink:title=" ">
<path fill="none" stroke="#63b8ff" d="M147.93,-51.66C122.12,-41.98 87.83,-29.12 64.78,-20.48"/>
<polygon fill="#63b8ff" stroke="#63b8ff" points="146.41,-54.83 157,-55.06 148.87,-48.27 146.41,-54.83"/>
</a>
</g>
</g>
<!-- Node3 -->
<g id="Node000003" class="node">
<title>Node3</title>
<g id="a_Node000003"><a xlink:href="classCAT_1_1Executor.html" target="_top" xlink:title=" ">
<polygon fill="white" stroke="#666666" points="176.38,-20 96.62,-20 96.62,0 176.38,0 176.38,-20"/>
<text xml:space="preserve" text-anchor="middle" x="136.5" y="-6.5" font-family="Helvetica,sans-Serif" font-size="10.00">CAT::Executor</text>
</a>
</g>
</g>
<!-- Node1&#45;&gt;Node3 -->
<g id="edge2_Node000001_Node000003" class="edge">
<title>Node1&#45;&gt;Node3</title>
<g id="a_edge2_Node000001_Node000003"><a xlink:title=" ">
<path fill="none" stroke="#63b8ff" d="M167.84,-47C160.05,-38.06 150.97,-27.62 144.59,-20.3"/>
<polygon fill="#63b8ff" stroke="#63b8ff" points="165.11,-49.21 174.32,-54.45 170.39,-44.61 165.11,-49.21"/>
</a>
</g>
</g>
<!-- Node4 -->
<g id="Node000004" class="node">
<title>Node4</title>
<g id="a_Node000004"><a xlink:href="classCAT_1_1Monitor.html" target="_top" xlink:title=" ">
<polygon fill="white" stroke="#666666" points="267,-20 194,-20 194,0 267,0 267,-20"/>
<text xml:space="preserve" text-anchor="middle" x="230.5" y="-6.5" font-family="Helvetica,sans-Serif" font-size="10.00">CAT::Monitor</text>
</a>
</g>
</g>
<!-- Node1&#45;&gt;Node4 -->
<g id="edge3_Node000001_Node000004" class="edge">
<title>Node1&#45;&gt;Node4</title>
<g id="a_edge3_Node000001_Node000004"><a xlink:title=" ">
<path fill="none" stroke="#63b8ff" d="M199.16,-47C206.95,-38.06 216.03,-27.62 222.41,-20.3"/>
<polygon fill="#63b8ff" stroke="#63b8ff" points="196.61,-44.61 192.68,-54.45 201.89,-49.21 196.61,-44.61"/>
</a>
</g>
</g>
<!-- Node5 -->
<g id="Node000005" class="node">
<title>Node5</title>
<g id="a_Node000005"><a xlink:href="classCAT_1_1Planner.html" target="_top" xlink:title=" ">
<polygon fill="white" stroke="#666666" points="358.38,-20 284.62,-20 284.62,0 358.38,0 358.38,-20"/>
<text xml:space="preserve" text-anchor="middle" x="321.5" y="-6.5" font-family="Helvetica,sans-Serif" font-size="10.00">CAT::Planner</text>
</a>
</g>
</g>
<!-- Node1&#45;&gt;Node5 -->
<g id="edge4_Node000001_Node000005" class="edge">
<title>Node1&#45;&gt;Node5</title>
<g id="a_edge4_Node000001_Node000005"><a xlink:title=" ">
<path fill="none" stroke="#63b8ff" d="M218.25,-51.4C242.91,-41.75 275.38,-29.05 297.27,-20.48"/>
<polygon fill="#63b8ff" stroke="#63b8ff" points="216.98,-48.14 208.95,-55.04 219.54,-54.66 216.98,-48.14"/>
</a>
</g>
</g>
</g>
</svg>
