<?xml version="1.0" encoding="UTF-8" standalone="no"?>
<!DOCTYPE svg PUBLIC "-//W3C//DTD SVG 1.1//EN"
 "http://www.w3.org/Graphics/SVG/1.1/DTD/svg11.dtd">
<!-- Generated by graphviz version 13.1.0 (0)
 -->
<!-- Title: CAT::ModularComponent Pages: 1 -->
<svg width="134pt" height="159pt"
 viewBox="0.00 0.00 134.00 159.00" xmlns="http://www.w3.org/2000/svg" xmlns:xlink="http://www.w3.org/1999/xlink">
<g id="graph0" class="graph" transform="scale(1 1) rotate(0) translate(4 155)">
<title>CAT::ModularComponent</title>
<!-- Node1 -->
<g id="Node000001" class="node">
<title>Node1</title>
<g id="a_Node000001"><a xlink:title=" ">
<polygon fill="#999999" stroke="#666666" points="125.5,-20 0,-20 0,0 125.5,0 125.5,-20"/>
<text xml:space="preserve" text-anchor="middle" x="62.75" y="-6.5" font-family="Helvetica,sans-Serif" font-size="10.00">CAT::ModularComponent</text>
</a>
</g>
</g>
<!-- Node2 -->
<g id="Node000002" class="node">
<title>Node2</title>
<g id="a_Node000002"><a xlink:href="classCAT_1_1CompositeNode.html" target="_top" xlink:title=" ">
<polygon fill="white" stroke="#666666" points="118.38,-77 7.12,-77 7.12,-57 118.38,-57 118.38,-77"/>
<text xml:space="preserve" text-anchor="middle" x="62.75" y="-63.5" font-family="Helvetica,sans-Serif" font-size="10.00">CAT::CompositeNode</text>
</a>
</g>
</g>
<!-- Node2&#45;&gt;Node1 -->
<g id="edge1_Node000001_Node000002" class="edge">
<title>Node2&#45;&gt;Node1</title>
<g id="a_edge1_Node000001_Node000002"><a xlink:title=" ">
<path fill="none" stroke="#63b8ff" d="M62.75,-45.69C62.75,-36.97 62.75,-27.22 62.75,-20.28"/>
<polygon fill="#63b8ff" stroke="#63b8ff" points="59.25,-45.4 62.75,-55.4 66.25,-45.4 59.25,-45.4"/>
</a>
</g>
</g>
<!-- Node3 -->
<g id="Node000003" class="node">
<title>Node3</title>
<g id="a_Node000003"><a xlink:href="classCAT_1_1Knowledge.html" target="_top" xlink:title=" ">
<polygon fill="white" stroke="#666666" points="107.12,-151 18.38,-151 18.38,-131 107.12,-131 107.12,-151"/>
<text xml:space="preserve" text-anchor="middle" x="62.75" y="-137.5" font-family="Helvetica,sans-Serif" font-size="10.00">CAT::Knowledge</text>
</a>
</g>
</g>
<!-- Node3&#45;&gt;Node2 -->
<g id="edge2_Node000002_Node000003" class="edge">
<title>Node3&#45;&gt;Node2</title>
<g id="a_edge2_Node000002_Node000003"><a xlink:title=" ">
<path fill="none" stroke="#9a32cd" stroke-dasharray="5,2" d="M62.75,-119.18C62.75,-105.29 62.75,-87.71 62.75,-77.19"/>
<polygon fill="#9a32cd" stroke="#9a32cd" points="59.25,-119.07 62.75,-129.07 66.25,-119.07 59.25,-119.07"/>
</a>
</g>
<text xml:space="preserve" text-anchor="start" x="65.75" y="-100.5" font-family="Helvetica,sans-Serif" font-size="10.00" fill="grey">knowledge</text>
</g>
</g>
</svg>
