<?xml version="1.0" encoding="UTF-8" standalone="no"?>
<!DOCTYPE svg PUBLIC "-//W3C//DTD SVG 1.1//EN"
 "http://www.w3.org/Graphics/SVG/1.1/DTD/svg11.dtd">
<!-- Generated by graphviz version 13.1.0 (0)
 -->
<!-- Title: CAT::Analyzer::update Pages: 1 -->
<svg width="595pt" height="28pt"
 viewBox="0.00 0.00 595.00 28.00" xmlns="http://www.w3.org/2000/svg" xmlns:xlink="http://www.w3.org/1999/xlink">
<g id="graph0" class="graph" transform="scale(1 1) rotate(0) translate(4 24)">
<title>CAT::Analyzer::update</title>
<!-- Node1 -->
<g id="Node000001" class="node">
<title>Node1</title>
<g id="a_Node000001"><a xlink:title=" ">
<polygon fill="#999999" stroke="#666666" points="114.25,-20 0,-20 0,0 114.25,0 114.25,-20"/>
<text xml:space="preserve" text-anchor="middle" x="57.12" y="-6.5" font-family="Helvetica,sans-Serif" font-size="10.00">CAT::Analyzer::update</text>
</a>
</g>
</g>
<!-- Node2 -->
<g id="Node000002" class="node">
<title>Node2</title>
<g id="a_Node000002"><a xlink:href="classCAT_1_1Analyzer.html#ab65c9a961c0003710774c7fe0da400dc" target="_top" xlink:title=" ">
<polygon fill="white" stroke="#666666" points="248.75,-20 150.25,-20 150.25,0 248.75,0 248.75,-20"/>
<text xml:space="preserve" text-anchor="middle" x="199.5" y="-6.5" font-family="Helvetica,sans-Serif" font-size="10.00">CAT::Analyzer::run</text>
</a>
</g>
</g>
<!-- Node1&#45;&gt;Node2 -->
<g id="edge1_Node000001_Node000002" class="edge">
<title>Node1&#45;&gt;Node2</title>
<g id="a_edge1_Node000001_Node000002"><a xlink:title=" ">
<path fill="none" stroke="#63b8ff" d="M114.41,-10C122.3,-10 130.44,-10 138.4,-10"/>
<polygon fill="#63b8ff" stroke="#63b8ff" points="138.37,-13.5 148.37,-10 138.37,-6.5 138.37,-13.5"/>
</a>
</g>
</g>
<!-- Node3 -->
<g id="Node000003" class="node">
<title>Node3</title>
<g id="a_Node000003"><a xlink:href="classCAT_1_1Analyzer.html#a6a7d6e35823b990c5490a7079b174f6a" target="_top" xlink:title=" ">
<polygon fill="white" stroke="#666666" points="444,-20 284.75,-20 284.75,0 444,0 444,-20"/>
<text xml:space="preserve" text-anchor="middle" x="364.38" y="-6.5" font-family="Helvetica,sans-Serif" font-size="10.00">CAT::Analyzer::verifyConstraints</text>
</a>
</g>
</g>
<!-- Node2&#45;&gt;Node3 -->
<g id="edge2_Node000002_Node000003" class="edge">
<title>Node2&#45;&gt;Node3</title>
<g id="a_edge2_Node000002_Node000003"><a xlink:title=" ">
<path fill="none" stroke="#63b8ff" d="M248.93,-10C256.6,-10 264.74,-10 273.01,-10"/>
<polygon fill="#63b8ff" stroke="#63b8ff" points="272.81,-13.5 282.81,-10 272.81,-6.5 272.81,-13.5"/>
</a>
</g>
</g>
<!-- Node4 -->
<g id="Node000004" class="node">
<title>Node4</title>
<g id="a_Node000004"><a xlink:href="classCAT_1_1Element.html#ab5dbde2570c07bb973f812ba163860d7" target="_top" xlink:title=" ">
<polygon fill="white" stroke="#666666" points="586.75,-20 480,-20 480,0 586.75,0 586.75,-20"/>
<text xml:space="preserve" text-anchor="middle" x="533.38" y="-6.5" font-family="Helvetica,sans-Serif" font-size="10.00">CAT::Element::notify</text>
</a>
</g>
</g>
<!-- Node3&#45;&gt;Node4 -->
<g id="edge3_Node000003_Node000004" class="edge">
<title>Node3&#45;&gt;Node4</title>
<g id="a_edge3_Node000003_Node000004"><a xlink:title=" ">
<path fill="none" stroke="#63b8ff" d="M444.47,-10C452.52,-10 460.61,-10 468.47,-10"/>
<polygon fill="#63b8ff" stroke="#63b8ff" points="468.25,-13.5 478.25,-10 468.25,-6.5 468.25,-13.5"/>
</a>
</g>
</g>
</g>
</svg>
