<?xml version="1.0" encoding="UTF-8" standalone="no"?>
<!DOCTYPE svg PUBLIC "-//W3C//DTD SVG 1.1//EN"
 "http://www.w3.org/Graphics/SVG/1.1/DTD/svg11.dtd">
<!-- Generated by graphviz version 13.1.0 (0)
 -->
<!-- Title: CAT::Analyzer::verifyConstraints Pages: 1 -->
<svg width="452pt" height="28pt"
 viewBox="0.00 0.00 452.00 28.00" xmlns="http://www.w3.org/2000/svg" xmlns:xlink="http://www.w3.org/1999/xlink">
<g id="graph0" class="graph" transform="scale(1 1) rotate(0) translate(4 24)">
<title>CAT::Analyzer::verifyConstraints</title>
<!-- Node1 -->
<g id="Node000001" class="node">
<title>Node1</title>
<g id="a_Node000001"><a xlink:title=" ">
<polygon fill="#999999" stroke="#666666" points="444,-20 284.75,-20 284.75,0 444,0 444,-20"/>
<text xml:space="preserve" text-anchor="middle" x="364.38" y="-6.5" font-family="Helvetica,sans-Serif" font-size="10.00">CAT::Analyzer::verifyConstraints</text>
</a>
</g>
</g>
<!-- Node2 -->
<g id="Node000002" class="node">
<title>Node2</title>
<g id="a_Node000002"><a xlink:href="classCAT_1_1Analyzer.html#ab65c9a961c0003710774c7fe0da400dc" target="_top" xlink:title=" ">
<polygon fill="white" stroke="#666666" points="248.75,-20 150.25,-20 150.25,0 248.75,0 248.75,-20"/>
<text xml:space="preserve" text-anchor="middle" x="199.5" y="-6.5" font-family="Helvetica,sans-Serif" font-size="10.00">CAT::Analyzer::run</text>
</a>
</g>
</g>
<!-- Node1&#45;&gt;Node2 -->
<g id="edge1_Node000001_Node000002" class="edge">
<title>Node1&#45;&gt;Node2</title>
<g id="a_edge1_Node000001_Node000002"><a xlink:title=" ">
<path fill="none" stroke="#63b8ff" d="M273.09,-10C264.88,-10 256.8,-10 249.17,-10"/>
<polygon fill="#63b8ff" stroke="#63b8ff" points="272.81,-13.5 282.81,-10 272.81,-6.5 272.81,-13.5"/>
</a>
</g>
</g>
<!-- Node3 -->
<g id="Node000003" class="node">
<title>Node3</title>
<g id="a_Node000003"><a xlink:href="classCAT_1_1Analyzer.html#a250843ae34626605db631f542eccdbdf" target="_top" xlink:title=" ">
<polygon fill="white" stroke="#666666" points="114.25,-20 0,-20 0,0 114.25,0 114.25,-20"/>
<text xml:space="preserve" text-anchor="middle" x="57.12" y="-6.5" font-family="Helvetica,sans-Serif" font-size="10.00">CAT::Analyzer::update</text>
</a>
</g>
</g>
<!-- Node2&#45;&gt;Node3 -->
<g id="edge2_Node000002_Node000003" class="edge">
<title>Node2&#45;&gt;Node3</title>
<g id="a_edge2_Node000002_Node000003"><a xlink:title=" ">
<path fill="none" stroke="#63b8ff" d="M138.35,-10C130.42,-10 122.31,-10 114.45,-10"/>
<polygon fill="#63b8ff" stroke="#63b8ff" points="138.28,-13.5 148.28,-10 138.28,-6.5 138.28,-13.5"/>
</a>
</g>
</g>
</g>
</svg>
