<?xml version="1.0" encoding="UTF-8" standalone="no"?>
<!DOCTYPE svg PUBLIC "-//W3C//DTD SVG 1.1//EN"
 "http://www.w3.org/Graphics/SVG/1.1/DTD/svg11.dtd">
<!-- Generated by graphviz version 13.1.0 (0)
 -->
<!-- Title: CAT::Element::notify Pages: 1 -->
<svg width="605pt" height="104pt"
 viewBox="0.00 0.00 605.00 104.00" xmlns="http://www.w3.org/2000/svg" xmlns:xlink="http://www.w3.org/1999/xlink">
<g id="graph0" class="graph" transform="scale(1 1) rotate(0) translate(4 100)">
<title>CAT::Element::notify</title>
<!-- Node1 -->
<g id="Node000001" class="node">
<title>Node1</title>
<g id="a_Node000001"><a xlink:title=" ">
<polygon fill="#999999" stroke="#666666" points="597.25,-58 490.5,-58 490.5,-38 597.25,-38 597.25,-58"/>
<text xml:space="preserve" text-anchor="middle" x="543.88" y="-44.5" font-family="Helvetica,sans-Serif" font-size="10.00">CAT::Element::notify</text>
</a>
</g>
</g>
<!-- Node2 -->
<g id="Node000002" class="node">
<title>Node2</title>
<g id="a_Node000002"><a xlink:href="classCAT_1_1Monitor.html#a6d4755004618b34ae3117237c8490f5a" target="_top" xlink:title=" ">
<polygon fill="white" stroke="#666666" points="421.12,-96 328.62,-96 328.62,-76 421.12,-76 421.12,-96"/>
<text xml:space="preserve" text-anchor="middle" x="374.88" y="-82.5" font-family="Helvetica,sans-Serif" font-size="10.00">CAT::Monitor::run</text>
</a>
</g>
</g>
<!-- Node1&#45;&gt;Node2 -->
<g id="edge1_Node000001_Node000002" class="edge">
<title>Node1&#45;&gt;Node2</title>
<g id="a_edge1_Node000001_Node000002"><a xlink:title=" ">
<path fill="none" stroke="#63b8ff" d="M485.77,-60.99C464.79,-65.77 441.34,-71.1 421.51,-75.62"/>
<polygon fill="#63b8ff" stroke="#63b8ff" points="486.35,-64.45 495.32,-58.82 484.8,-57.63 486.35,-64.45"/>
</a>
</g>
</g>
<!-- Node3 -->
<g id="Node000003" class="node">
<title>Node3</title>
<g id="a_Node000003"><a xlink:href="classCAT_1_1Planner.html#aa6153eb818b576a3f2ac80f661234efd" target="_top" xlink:title=" ">
<polygon fill="white" stroke="#666666" points="421.5,-58 328.25,-58 328.25,-38 421.5,-38 421.5,-58"/>
<text xml:space="preserve" text-anchor="middle" x="374.88" y="-44.5" font-family="Helvetica,sans-Serif" font-size="10.00">CAT::Planner::run</text>
</a>
</g>
</g>
<!-- Node1&#45;&gt;Node3 -->
<g id="edge2_Node000001_Node000003" class="edge">
<title>Node1&#45;&gt;Node3</title>
<g id="a_edge2_Node000001_Node000003"><a xlink:title=" ">
<path fill="none" stroke="#63b8ff" d="M478.77,-48C459.82,-48 439.46,-48 421.9,-48"/>
<polygon fill="#63b8ff" stroke="#63b8ff" points="478.52,-51.5 488.52,-48 478.52,-44.5 478.52,-51.5"/>
</a>
</g>
</g>
<!-- Node5 -->
<g id="Node000005" class="node">
<title>Node5</title>
<g id="a_Node000005"><a xlink:href="classCAT_1_1Analyzer.html#a6a7d6e35823b990c5490a7079b174f6a" target="_top" xlink:title=" ">
<polygon fill="white" stroke="#666666" points="454.5,-20 295.25,-20 295.25,0 454.5,0 454.5,-20"/>
<text xml:space="preserve" text-anchor="middle" x="374.88" y="-6.5" font-family="Helvetica,sans-Serif" font-size="10.00">CAT::Analyzer::verifyConstraints</text>
</a>
</g>
</g>
<!-- Node1&#45;&gt;Node5 -->
<g id="edge4_Node000001_Node000005" class="edge">
<title>Node1&#45;&gt;Node5</title>
<g id="a_edge4_Node000001_Node000005"><a xlink:title=" ">
<path fill="none" stroke="#63b8ff" d="M485.81,-35.02C464.93,-30.26 441.59,-24.95 421.8,-20.45"/>
<polygon fill="#63b8ff" stroke="#63b8ff" points="484.8,-38.37 495.32,-37.18 486.35,-31.55 484.8,-38.37"/>
</a>
</g>
</g>
<!-- Node4 -->
<g id="Node000004" class="node">
<title>Node4</title>
<g id="a_Node000004"><a xlink:href="classCAT_1_1Planner.html#a8bfb6e967cd4a5d5211309b5679e66aa" target="_top" xlink:title=" ">
<polygon fill="white" stroke="#666666" points="259.25,-58 150.25,-58 150.25,-38 259.25,-38 259.25,-58"/>
<text xml:space="preserve" text-anchor="middle" x="204.75" y="-44.5" font-family="Helvetica,sans-Serif" font-size="10.00">CAT::Planner::update</text>
</a>
</g>
</g>
<!-- Node3&#45;&gt;Node4 -->
<g id="edge3_Node000003_Node000004" class="edge">
<title>Node3&#45;&gt;Node4</title>
<g id="a_edge3_Node000003_Node000004"><a xlink:title=" ">
<path fill="none" stroke="#63b8ff" d="M316.47,-48C298.09,-48 277.81,-48 259.68,-48"/>
<polygon fill="#63b8ff" stroke="#63b8ff" points="316.42,-51.5 326.42,-48 316.42,-44.5 316.42,-51.5"/>
</a>
</g>
</g>
<!-- Node6 -->
<g id="Node000006" class="node">
<title>Node6</title>
<g id="a_Node000006"><a xlink:href="classCAT_1_1Analyzer.html#ab65c9a961c0003710774c7fe0da400dc" target="_top" xlink:title=" ">
<polygon fill="white" stroke="#666666" points="254,-20 155.5,-20 155.5,0 254,0 254,-20"/>
<text xml:space="preserve" text-anchor="middle" x="204.75" y="-6.5" font-family="Helvetica,sans-Serif" font-size="10.00">CAT::Analyzer::run</text>
</a>
</g>
</g>
<!-- Node5&#45;&gt;Node6 -->
<g id="edge5_Node000005_Node000006" class="edge">
<title>Node5&#45;&gt;Node6</title>
<g id="a_edge5_Node000005_Node000006"><a xlink:title=" ">
<path fill="none" stroke="#63b8ff" d="M283.72,-10C273.54,-10 263.48,-10 254.14,-10"/>
<polygon fill="#63b8ff" stroke="#63b8ff" points="283.71,-13.5 293.71,-10 283.71,-6.5 283.71,-13.5"/>
</a>
</g>
</g>
<!-- Node7 -->
<g id="Node000007" class="node">
<title>Node7</title>
<g id="a_Node000007"><a xlink:href="classCAT_1_1Analyzer.html#a250843ae34626605db631f542eccdbdf" target="_top" xlink:title=" ">
<polygon fill="white" stroke="#666666" points="114.25,-20 0,-20 0,0 114.25,0 114.25,-20"/>
<text xml:space="preserve" text-anchor="middle" x="57.12" y="-6.5" font-family="Helvetica,sans-Serif" font-size="10.00">CAT::Analyzer::update</text>
</a>
</g>
</g>
<!-- Node6&#45;&gt;Node7 -->
<g id="edge6_Node000006_Node000007" class="edge">
<title>Node6&#45;&gt;Node7</title>
<g id="a_edge6_Node000006_Node000007"><a xlink:title=" ">
<path fill="none" stroke="#63b8ff" d="M143.75,-10C134.15,-10 124.24,-10 114.73,-10"/>
<polygon fill="#63b8ff" stroke="#63b8ff" points="143.75,-13.5 153.75,-10 143.75,-6.5 143.75,-13.5"/>
</a>
</g>
</g>
</g>
</svg>
