<?xml version="1.0" encoding="UTF-8" standalone="no"?>
<!DOCTYPE svg PUBLIC "-//W3C//DTD SVG 1.1//EN"
 "http://www.w3.org/Graphics/SVG/1.1/DTD/svg11.dtd">
<!-- Generated by graphviz version 13.1.0 (0)
 -->
<!-- Title: CAT::Executor Pages: 1 -->
<svg width="152pt" height="175pt"
 viewBox="0.00 0.00 152.00 175.00" xmlns="http://www.w3.org/2000/svg" xmlns:xlink="http://www.w3.org/1999/xlink">
<g id="graph0" class="graph" transform="scale(1 1) rotate(0) translate(4 171)">
<title>CAT::Executor</title>
<!-- Node1 -->
<g id="Node000001" class="node">
<title>Node1</title>
<g id="a_Node000001"><a xlink:title=" ">
<polygon fill="#999999" stroke="#666666" points="84.25,-20 4.5,-20 4.5,0 84.25,0 84.25,-20"/>
<text xml:space="preserve" text-anchor="middle" x="44.38" y="-6.5" font-family="Helvetica,sans-Serif" font-size="10.00">CAT::Executor</text>
</a>
</g>
</g>
<!-- Node2 -->
<g id="Node000002" class="node">
<title>Node2</title>
<g id="a_Node000002"><a xlink:href="classCAT_1_1Element.html" target="_top" xlink:title=" ">
<polygon fill="white" stroke="#666666" points="82.75,-77 6,-77 6,-57 82.75,-57 82.75,-77"/>
<text xml:space="preserve" text-anchor="middle" x="44.38" y="-63.5" font-family="Helvetica,sans-Serif" font-size="10.00">CAT::Element</text>
</a>
</g>
</g>
<!-- Node2&#45;&gt;Node1 -->
<g id="edge1_Node000001_Node000002" class="edge">
<title>Node2&#45;&gt;Node1</title>
<g id="a_edge1_Node000001_Node000002"><a xlink:title=" ">
<path fill="none" stroke="#63b8ff" d="M44.38,-45.69C44.38,-36.97 44.38,-27.22 44.38,-20.28"/>
<polygon fill="#63b8ff" stroke="#63b8ff" points="40.88,-45.4 44.38,-55.4 47.88,-45.4 40.88,-45.4"/>
</a>
</g>
</g>
<!-- Node2&#45;&gt;Node2 -->
<g id="edge3_Node000002_Node000002" class="edge">
<title>Node2&#45;&gt;Node2</title>
<g id="a_edge3_Node000002_Node000002"><a xlink:title=" ">
<path fill="none" stroke="#9a32cd" stroke-dasharray="5,2" d="M94.46,-71.04C98.35,-70.15 100.75,-68.8 100.75,-67 100.75,-63.8 93.17,-62.04 83.11,-61.71"/>
<polygon fill="#9a32cd" stroke="#9a32cd" points="94.17,-67.55 84.61,-72.12 94.94,-74.51 94.17,-67.55"/>
</a>
</g>
<text xml:space="preserve" text-anchor="start" x="103.75" y="-63.5" font-family="Helvetica,sans-Serif" font-size="10.00" fill="grey">observer</text>
</g>
<!-- Node3 -->
<g id="Node000003" class="node">
<title>Node3</title>
<g id="a_Node000003"><a xlink:href="classCAT_1_1Knowledge.html" target="_top" xlink:title=" ">
<polygon fill="white" stroke="#666666" points="88.75,-167 0,-167 0,-147 88.75,-147 88.75,-167"/>
<text xml:space="preserve" text-anchor="middle" x="44.38" y="-153.5" font-family="Helvetica,sans-Serif" font-size="10.00">CAT::Knowledge</text>
</a>
</g>
</g>
<!-- Node3&#45;&gt;Node2 -->
<g id="edge2_Node000002_Node000003" class="edge">
<title>Node3&#45;&gt;Node2</title>
<g id="a_edge2_Node000002_Node000003"><a xlink:title=" ">
<path fill="none" stroke="#9a32cd" stroke-dasharray="5,2" d="M44.38,-135.09C44.38,-116.77 44.38,-91.01 44.38,-77.35"/>
<polygon fill="#9a32cd" stroke="#9a32cd" points="40.88,-135.07 44.38,-145.07 47.88,-135.07 40.88,-135.07"/>
</a>
</g>
<text xml:space="preserve" text-anchor="start" x="47.38" y="-116.5" font-family="Helvetica,sans-Serif" font-size="10.00" fill="grey">localKnowledge</text>
<text xml:space="preserve" text-anchor="start" x="47.38" y="-100.5" font-family="Helvetica,sans-Serif" font-size="10.00" fill="grey">moduleKnowledge</text>
</g>
</g>
</svg>
