<?xml version="1.0" encoding="UTF-8" standalone="no"?>
<!DOCTYPE svg PUBLIC "-//W3C//DTD SVG 1.1//EN"
 "http://www.w3.org/Graphics/SVG/1.1/DTD/svg11.dtd">
<!-- Generated by graphviz version 13.1.0 (0)
 -->
<!-- Title: CAT::Element::Element Pages: 1 -->
<svg width="288pt" height="104pt"
 viewBox="0.00 0.00 288.00 104.00" xmlns="http://www.w3.org/2000/svg" xmlns:xlink="http://www.w3.org/1999/xlink">
<g id="graph0" class="graph" transform="scale(1 1) rotate(0) translate(4 100)">
<title>CAT::Element::Element</title>
<!-- Node1 -->
<g id="Node000001" class="node">
<title>Node1</title>
<g id="a_Node000001"><a xlink:title=" ">
<polygon fill="#999999" stroke="#666666" points="279.5,-58 160.75,-58 160.75,-38 279.5,-38 279.5,-58"/>
<text xml:space="preserve" text-anchor="middle" x="220.12" y="-44.5" font-family="Helvetica,sans-Serif" font-size="10.00">CAT::Element::Element</text>
</a>
</g>
</g>
<!-- Node2 -->
<g id="Node000002" class="node">
<title>Node2</title>
<g id="a_Node000002"><a xlink:href="classCAT_1_1Executor.html#a31f326bedddaa3a6f45895d41deb804e" target="_top" xlink:title=" ">
<polygon fill="white" stroke="#666666" points="124.75,-96 0,-96 0,-76 124.75,-76 124.75,-96"/>
<text xml:space="preserve" text-anchor="middle" x="62.38" y="-82.5" font-family="Helvetica,sans-Serif" font-size="10.00">CAT::Executor::Executor</text>
</a>
</g>
</g>
<!-- Node1&#45;&gt;Node2 -->
<g id="edge1_Node000001_Node000002" class="edge">
<title>Node1&#45;&gt;Node2</title>
<g id="a_edge1_Node000001_Node000002"><a xlink:title=" ">
<path fill="none" stroke="#63b8ff" d="M165.1,-61.18C145.83,-65.88 124.4,-71.11 106.21,-75.55"/>
<polygon fill="#63b8ff" stroke="#63b8ff" points="165.8,-64.61 174.68,-58.84 164.14,-57.81 165.8,-64.61"/>
</a>
</g>
</g>
<!-- Node3 -->
<g id="Node000003" class="node">
<title>Node3</title>
<g id="a_Node000003"><a xlink:href="classCAT_1_1Monitor.html#aac87ec73d743ab2c3f083ea9e0a008ed" target="_top" xlink:title=" ">
<polygon fill="white" stroke="#666666" points="118,-58 6.75,-58 6.75,-38 118,-38 118,-58"/>
<text xml:space="preserve" text-anchor="middle" x="62.38" y="-44.5" font-family="Helvetica,sans-Serif" font-size="10.00">CAT::Monitor::Monitor</text>
</a>
</g>
</g>
<!-- Node1&#45;&gt;Node3 -->
<g id="edge2_Node000001_Node000003" class="edge">
<title>Node1&#45;&gt;Node3</title>
<g id="a_edge2_Node000001_Node000003"><a xlink:title=" ">
<path fill="none" stroke="#63b8ff" d="M149.46,-48C139.01,-48 128.36,-48 118.28,-48"/>
<polygon fill="#63b8ff" stroke="#63b8ff" points="149.17,-51.5 159.17,-48 149.17,-44.5 149.17,-51.5"/>
</a>
</g>
</g>
<!-- Node4 -->
<g id="Node000004" class="node">
<title>Node4</title>
<g id="a_Node000004"><a xlink:href="classCAT_1_1Planner.html#aa9455aaef9f08d5337c10fef56e40b10" target="_top" xlink:title=" ">
<polygon fill="white" stroke="#666666" points="118.75,-20 6,-20 6,0 118.75,0 118.75,-20"/>
<text xml:space="preserve" text-anchor="middle" x="62.38" y="-6.5" font-family="Helvetica,sans-Serif" font-size="10.00">CAT::Planner::Planner</text>
</a>
</g>
</g>
<!-- Node1&#45;&gt;Node4 -->
<g id="edge3_Node000001_Node000004" class="edge">
<title>Node1&#45;&gt;Node4</title>
<g id="a_edge3_Node000001_Node000004"><a xlink:title=" ">
<path fill="none" stroke="#63b8ff" d="M165.1,-34.82C145.83,-30.12 124.4,-24.89 106.21,-20.45"/>
<polygon fill="#63b8ff" stroke="#63b8ff" points="164.14,-38.19 174.68,-37.16 165.8,-31.39 164.14,-38.19"/>
</a>
</g>
</g>
</g>
</svg>
