<?xml version="1.0" encoding="UTF-8" standalone="no"?>
<!DOCTYPE svg PUBLIC "-//W3C//DTD SVG 1.1//EN"
 "http://www.w3.org/Graphics/SVG/1.1/DTD/svg11.dtd">
<!-- Generated by graphviz version 13.1.0 (0)
 -->
<!-- Title: CAT::Element Pages: 1 -->
<svg width="152pt" height="118pt"
 viewBox="0.00 0.00 152.00 118.00" xmlns="http://www.w3.org/2000/svg" xmlns:xlink="http://www.w3.org/1999/xlink">
<g id="graph0" class="graph" transform="scale(1 1) rotate(0) translate(4 114)">
<title>CAT::Element</title>
<!-- Node1 -->
<g id="Node000001" class="node">
<title>Node1</title>
<g id="a_Node000001"><a xlink:title=" ">
<polygon fill="#999999" stroke="#666666" points="82.75,-20 6,-20 6,0 82.75,0 82.75,-20"/>
<text xml:space="preserve" text-anchor="middle" x="44.38" y="-6.5" font-family="Helvetica,sans-Serif" font-size="10.00">CAT::Element</text>
</a>
</g>
</g>
<!-- Node1&#45;&gt;Node1 -->
<g id="edge2_Node000001_Node000001" class="edge">
<title>Node1&#45;&gt;Node1</title>
<g id="a_edge2_Node000001_Node000001"><a xlink:title=" ">
<path fill="none" stroke="#9a32cd" stroke-dasharray="5,2" d="M94.13,-16.49C98.22,-15.08 100.75,-12.92 100.75,-10 100.75,-4.95 93.17,-2.16 83.11,-1.65"/>
<polygon fill="#9a32cd" stroke="#9a32cd" points="93.88,-12.98 84.6,-18.1 95.04,-19.88 93.88,-12.98"/>
</a>
</g>
<text xml:space="preserve" text-anchor="start" x="103.75" y="-6.5" font-family="Helvetica,sans-Serif" font-size="10.00" fill="grey">observer</text>
</g>
<!-- Node2 -->
<g id="Node000002" class="node">
<title>Node2</title>
<g id="a_Node000002"><a xlink:href="classCAT_1_1Knowledge.html" target="_top" xlink:title=" ">
<polygon fill="white" stroke="#666666" points="88.75,-110 0,-110 0,-90 88.75,-90 88.75,-110"/>
<text xml:space="preserve" text-anchor="middle" x="44.38" y="-96.5" font-family="Helvetica,sans-Serif" font-size="10.00">CAT::Knowledge</text>
</a>
</g>
</g>
<!-- Node2&#45;&gt;Node1 -->
<g id="edge1_Node000001_Node000002" class="edge">
<title>Node2&#45;&gt;Node1</title>
<g id="a_edge1_Node000001_Node000002"><a xlink:title=" ">
<path fill="none" stroke="#9a32cd" stroke-dasharray="5,2" d="M44.38,-78.09C44.38,-59.77 44.38,-34.01 44.38,-20.35"/>
<polygon fill="#9a32cd" stroke="#9a32cd" points="40.88,-78.07 44.38,-88.07 47.88,-78.07 40.88,-78.07"/>
</a>
</g>
<text xml:space="preserve" text-anchor="start" x="47.38" y="-59.5" font-family="Helvetica,sans-Serif" font-size="10.00" fill="grey">localKnowledge</text>
<text xml:space="preserve" text-anchor="start" x="47.38" y="-43.5" font-family="Helvetica,sans-Serif" font-size="10.00" fill="grey">moduleKnowledge</text>
</g>
</g>
</svg>
