<?xml version="1.0" encoding="UTF-8" standalone="no"?>
<!DOCTYPE svg PUBLIC "-//W3C//DTD SVG 1.1//EN"
 "http://www.w3.org/Graphics/SVG/1.1/DTD/svg11.dtd">
<!-- Generated by graphviz version 13.1.0 (0)
 -->
<!-- Title: core/compositeNode.hpp Pages: 1 -->
<svg width="402pt" height="140pt"
 viewBox="0.00 0.00 402.00 140.00" xmlns="http://www.w3.org/2000/svg" xmlns:xlink="http://www.w3.org/1999/xlink">
<g id="graph0" class="graph" transform="scale(1 1) rotate(0) translate(4 136)">
<title>core/compositeNode.hpp</title>
<!-- Node1 -->
<g id="Node000001" class="node">
<title>Node1</title>
<g id="a_Node000001"><a xlink:title=" ">
<polygon fill="#999999" stroke="#666666" points="194.12,-132 69.38,-132 69.38,-112 194.12,-112 194.12,-132"/>
<text xml:space="preserve" text-anchor="middle" x="131.75" y="-118.5" font-family="Helvetica,sans-Serif" font-size="10.00">core/compositeNode.hpp</text>
</a>
</g>
</g>
<!-- Node2 -->
<g id="Node000002" class="node">
<title>Node2</title>
<g id="a_Node000002"><a xlink:title=" ">
<polygon fill="#e0e0e0" stroke="#999999" points="53.5,-20 0,-20 0,0 53.5,0 53.5,-20"/>
<text xml:space="preserve" text-anchor="middle" x="26.75" y="-6.5" font-family="Helvetica,sans-Serif" font-size="10.00">iostream</text>
</a>
</g>
</g>
<!-- Node1&#45;&gt;Node2 -->
<g id="edge1_Node000001_Node000002" class="edge">
<title>Node1&#45;&gt;Node2</title>
<g id="a_edge1_Node000001_Node000002"><a xlink:title=" ">
<path fill="none" stroke="#63b8ff" d="M120.63,-111.75C110.23,-102.93 94.43,-89.08 81.75,-76 67.01,-60.8 51.55,-42.26 40.78,-28.88"/>
<polygon fill="#63b8ff" stroke="#63b8ff" points="43.76,-27 34.8,-21.35 38.28,-31.36 43.76,-27"/>
</a>
</g>
</g>
<!-- Node3 -->
<g id="Node000003" class="node">
<title>Node3</title>
<g id="a_Node000003"><a xlink:href="knowledge_8hpp.html" target="_top" xlink:title=" ">
<polygon fill="white" stroke="#666666" points="172.38,-76 91.12,-76 91.12,-56 172.38,-56 172.38,-76"/>
<text xml:space="preserve" text-anchor="middle" x="131.75" y="-62.5" font-family="Helvetica,sans-Serif" font-size="10.00">knowledge.hpp</text>
</a>
</g>
</g>
<!-- Node1&#45;&gt;Node3 -->
<g id="edge2_Node000001_Node000003" class="edge">
<title>Node1&#45;&gt;Node3</title>
<g id="a_edge2_Node000001_Node000003"><a xlink:title=" ">
<path fill="none" stroke="#63b8ff" d="M131.75,-111.59C131.75,-105.01 131.75,-95.96 131.75,-87.73"/>
<polygon fill="#63b8ff" stroke="#63b8ff" points="135.25,-87.81 131.75,-77.81 128.25,-87.81 135.25,-87.81"/>
</a>
</g>
</g>
<!-- Node8 -->
<g id="Node000008" class="node">
<title>Node8</title>
<g id="a_Node000008"><a xlink:title=" ">
<polygon fill="#e0e0e0" stroke="#999999" points="341.25,-76 190.25,-76 190.25,-56 341.25,-56 341.25,-76"/>
<text xml:space="preserve" text-anchor="middle" x="265.75" y="-62.5" font-family="Helvetica,sans-Serif" font-size="10.00">enum/compositeNodeType.hpp</text>
</a>
</g>
</g>
<!-- Node1&#45;&gt;Node8 -->
<g id="edge8_Node000001_Node000008" class="edge">
<title>Node1&#45;&gt;Node8</title>
<g id="a_edge8_Node000001_Node000008"><a xlink:title=" ">
<path fill="none" stroke="#63b8ff" d="M155.09,-111.59C176.29,-103.05 207.82,-90.35 231.8,-80.68"/>
<polygon fill="#63b8ff" stroke="#63b8ff" points="232.86,-84.03 240.82,-77.05 230.24,-77.54 232.86,-84.03"/>
</a>
</g>
</g>
<!-- Node3&#45;&gt;Node2 -->
<g id="edge3_Node000003_Node000002" class="edge">
<title>Node3&#45;&gt;Node2</title>
<g id="a_edge3_Node000003_Node000002"><a xlink:title=" ">
<path fill="none" stroke="#63b8ff" d="M113.46,-55.59C97.45,-47.36 73.92,-35.26 55.41,-25.74"/>
<polygon fill="#63b8ff" stroke="#63b8ff" points="57.02,-22.63 46.53,-21.17 53.82,-28.86 57.02,-22.63"/>
</a>
</g>
</g>
<!-- Node4 -->
<g id="Node000004" class="node">
<title>Node4</title>
<g id="a_Node000004"><a xlink:title=" ">
<polygon fill="#e0e0e0" stroke="#999999" points="100.15,-20 71.35,-20 71.35,0 100.15,0 100.15,-20"/>
<text xml:space="preserve" text-anchor="middle" x="85.75" y="-6.5" font-family="Helvetica,sans-Serif" font-size="10.00">list</text>
</a>
</g>
</g>
<!-- Node3&#45;&gt;Node4 -->
<g id="edge4_Node000003_Node000004" class="edge">
<title>Node3&#45;&gt;Node4</title>
<g id="a_edge4_Node000003_Node000004"><a xlink:title=" ">
<path fill="none" stroke="#63b8ff" d="M123.74,-55.59C117.47,-48.24 108.58,-37.8 100.97,-28.87"/>
<polygon fill="#63b8ff" stroke="#63b8ff" points="103.8,-26.79 94.65,-21.45 98.47,-31.33 103.8,-26.79"/>
</a>
</g>
</g>
<!-- Node5 -->
<g id="Node000005" class="node">
<title>Node5</title>
<g id="a_Node000005"><a xlink:title=" ">
<polygon fill="#e0e0e0" stroke="#999999" points="169.38,-20 118.12,-20 118.12,0 169.38,0 169.38,-20"/>
<text xml:space="preserve" text-anchor="middle" x="143.75" y="-6.5" font-family="Helvetica,sans-Serif" font-size="10.00">memory</text>
</a>
</g>
</g>
<!-- Node3&#45;&gt;Node5 -->
<g id="edge5_Node000003_Node000005" class="edge">
<title>Node3&#45;&gt;Node5</title>
<g id="a_edge5_Node000003_Node000005"><a xlink:title=" ">
<path fill="none" stroke="#63b8ff" d="M133.84,-55.59C135.32,-48.93 137.36,-39.75 139.21,-31.44"/>
<polygon fill="#63b8ff" stroke="#63b8ff" points="142.6,-32.3 141.36,-21.78 135.77,-30.78 142.6,-32.3"/>
</a>
</g>
</g>
<!-- Node6 -->
<g id="Node000006" class="node">
<title>Node6</title>
<g id="a_Node000006"><a xlink:title=" ">
<polygon fill="#e0e0e0" stroke="#999999" points="277.88,-20 187.62,-20 187.62,0 277.88,0 277.88,-20"/>
<text xml:space="preserve" text-anchor="middle" x="232.75" y="-6.5" font-family="Helvetica,sans-Serif" font-size="10.00">model/model.hpp</text>
</a>
</g>
</g>
<!-- Node3&#45;&gt;Node6 -->
<g id="edge6_Node000003_Node000006" class="edge">
<title>Node3&#45;&gt;Node6</title>
<g id="a_edge6_Node000003_Node000006"><a xlink:title=" ">
<path fill="none" stroke="#63b8ff" d="M149.34,-55.59C164.67,-47.4 187.17,-35.37 204.94,-25.87"/>
<polygon fill="#63b8ff" stroke="#63b8ff" points="206.52,-28.99 213.69,-21.19 203.22,-22.82 206.52,-28.99"/>
</a>
</g>
</g>
<!-- Node7 -->
<g id="Node000007" class="node">
<title>Node7</title>
<g id="a_Node000007"><a xlink:title=" ">
<polygon fill="#e0e0e0" stroke="#999999" points="394,-20 295.5,-20 295.5,0 394,0 394,-20"/>
<text xml:space="preserve" text-anchor="middle" x="344.75" y="-6.5" font-family="Helvetica,sans-Serif" font-size="10.00">model/strategy.hpp</text>
</a>
</g>
</g>
<!-- Node3&#45;&gt;Node7 -->
<g id="edge7_Node000003_Node000007" class="edge">
<title>Node3&#45;&gt;Node7</title>
<g id="a_edge7_Node000003_Node000007"><a xlink:title=" ">
<path fill="none" stroke="#63b8ff" d="M168.85,-55.59C204.22,-46.63 257.67,-33.08 296.36,-23.27"/>
<polygon fill="#63b8ff" stroke="#63b8ff" points="297.06,-26.7 305.89,-20.85 295.34,-19.92 297.06,-26.7"/>
</a>
</g>
</g>
</g>
</svg>
