<?xml version="1.0" encoding="UTF-8" standalone="no"?>
<!DOCTYPE svg PUBLIC "-//W3C//DTD SVG 1.1//EN"
 "http://www.w3.org/Graphics/SVG/1.1/DTD/svg11.dtd">
<!-- Generated by graphviz version 13.1.0 (0)
 -->
<!-- Title: core/compositeNode.hpp Pages: 1 -->
<svg width="839pt" height="252pt"
 viewBox="0.00 0.00 839.00 252.00" xmlns="http://www.w3.org/2000/svg" xmlns:xlink="http://www.w3.org/1999/xlink">
<g id="graph0" class="graph" transform="scale(1 1) rotate(0) translate(4 248)">
<title>core/compositeNode.hpp</title>
<!-- Node1 -->
<g id="Node000001" class="node">
<title>Node1</title>
<g id="a_Node000001"><a xlink:title=" ">
<polygon fill="#999999" stroke="#666666" points="617,-244 492.25,-244 492.25,-224 617,-224 617,-244"/>
<text xml:space="preserve" text-anchor="middle" x="554.62" y="-230.5" font-family="Helvetica,sans-Serif" font-size="10.00">core/compositeNode.hpp</text>
</a>
</g>
</g>
<!-- Node2 -->
<g id="Node000002" class="node">
<title>Node2</title>
<g id="a_Node000002"><a xlink:href="element_8hpp.html" target="_top" xlink:title=" ">
<polygon fill="white" stroke="#666666" points="368.12,-188 277.12,-188 277.12,-168 368.12,-168 368.12,-188"/>
<text xml:space="preserve" text-anchor="middle" x="322.62" y="-174.5" font-family="Helvetica,sans-Serif" font-size="10.00">core/element.hpp</text>
</a>
</g>
</g>
<!-- Node1&#45;&gt;Node2 -->
<g id="edge1_Node000001_Node000002" class="edge">
<title>Node1&#45;&gt;Node2</title>
<g id="a_edge1_Node000001_Node000002"><a xlink:title=" ">
<path fill="none" stroke="#63b8ff" d="M502.8,-220.94C460.67,-211.13 402.05,-197.49 363.26,-188.46"/>
<polygon fill="#63b8ff" stroke="#63b8ff" points="501.94,-224.33 512.47,-223.19 503.53,-217.51 501.94,-224.33"/>
</a>
</g>
</g>
<!-- Node5 -->
<g id="Node000005" class="node">
<title>Node5</title>
<g id="a_Node000005"><a xlink:href="loopComponent_8hpp.html" target="_top" xlink:title=" ">
<polygon fill="white" stroke="#666666" points="394,-76 269.25,-76 269.25,-56 394,-56 394,-76"/>
<text xml:space="preserve" text-anchor="middle" x="331.62" y="-62.5" font-family="Helvetica,sans-Serif" font-size="10.00">core/loopComponent.hpp</text>
</a>
</g>
</g>
<!-- Node1&#45;&gt;Node5 -->
<g id="edge17_Node000001_Node000005" class="edge">
<title>Node1&#45;&gt;Node5</title>
<g id="a_edge17_Node000001_Node000005"><a xlink:title=" ">
<path fill="none" stroke="#63b8ff" d="M557.81,-212.21C560.64,-185.41 561.04,-139.02 535.62,-112 525.58,-101.32 446.79,-86.17 390.13,-76.46"/>
<polygon fill="#63b8ff" stroke="#63b8ff" points="554.34,-211.76 556.52,-222.13 561.28,-212.67 554.34,-211.76"/>
</a>
</g>
</g>
<!-- Node15 -->
<g id="Node000015" class="node">
<title>Node15</title>
<g id="a_Node000015"><a xlink:href="modularComponent_8hpp.html" target="_top" xlink:title=" ">
<polygon fill="white" stroke="#666666" points="724.25,-188 583,-188 583,-168 724.25,-168 724.25,-188"/>
<text xml:space="preserve" text-anchor="middle" x="653.62" y="-174.5" font-family="Helvetica,sans-Serif" font-size="10.00">core/modularComponent.hpp</text>
</a>
</g>
</g>
<!-- Node1&#45;&gt;Node15 -->
<g id="edge18_Node000001_Node000015" class="edge">
<title>Node1&#45;&gt;Node15</title>
<g id="a_edge18_Node000001_Node000015"><a xlink:title=" ">
<path fill="none" stroke="#63b8ff" d="M581.49,-218.35C598.91,-208.84 621.11,-196.74 636.25,-188.48"/>
<polygon fill="#63b8ff" stroke="#63b8ff" points="580.3,-215.01 573.2,-222.87 583.65,-221.15 580.3,-215.01"/>
</a>
</g>
</g>
<!-- Node3 -->
<g id="Node000003" class="node">
<title>Node3</title>
<g id="a_Node000003"><a xlink:href="analyzer_8hpp.html" target="_top" xlink:title=" ">
<polygon fill="white" stroke="#666666" points="93.25,-132 0,-132 0,-112 93.25,-112 93.25,-132"/>
<text xml:space="preserve" text-anchor="middle" x="46.62" y="-118.5" font-family="Helvetica,sans-Serif" font-size="10.00">core/analyzer.hpp</text>
</a>
</g>
</g>
<!-- Node2&#45;&gt;Node3 -->
<g id="edge2_Node000002_Node000003" class="edge">
<title>Node2&#45;&gt;Node3</title>
<g id="a_edge2_Node000002_Node000003"><a xlink:title=" ">
<path fill="none" stroke="#63b8ff" d="M265.6,-165.84C214.72,-155.89 141.1,-141.48 93.54,-132.18"/>
<polygon fill="#63b8ff" stroke="#63b8ff" points="264.77,-169.25 275.25,-167.73 266.11,-162.38 264.77,-169.25"/>
</a>
</g>
</g>
<!-- Node8 -->
<g id="Node000008" class="node">
<title>Node8</title>
<g id="a_Node000008"><a xlink:href="element_8cpp.html" target="_top" xlink:title=" ">
<polygon fill="white" stroke="#666666" points="202.12,-132 111.12,-132 111.12,-112 202.12,-112 202.12,-132"/>
<text xml:space="preserve" text-anchor="middle" x="156.62" y="-118.5" font-family="Helvetica,sans-Serif" font-size="10.00">core/element.cpp</text>
</a>
</g>
</g>
<!-- Node2&#45;&gt;Node8 -->
<g id="edge7_Node000002_Node000008" class="edge">
<title>Node2&#45;&gt;Node8</title>
<g id="a_edge7_Node000002_Node000008"><a xlink:title=" ">
<path fill="none" stroke="#63b8ff" d="M282.81,-164.05C252.93,-154.33 212.69,-141.24 185.77,-132.48"/>
<polygon fill="#63b8ff" stroke="#63b8ff" points="281.68,-167.36 292.27,-167.13 283.84,-160.7 281.68,-167.36"/>
</a>
</g>
</g>
<!-- Node9 -->
<g id="Node000009" class="node">
<title>Node9</title>
<g id="a_Node000009"><a xlink:href="executor_8hpp.html" target="_top" xlink:title=" ">
<polygon fill="white" stroke="#666666" points="314.62,-132 220.62,-132 220.62,-112 314.62,-112 314.62,-132"/>
<text xml:space="preserve" text-anchor="middle" x="267.62" y="-118.5" font-family="Helvetica,sans-Serif" font-size="10.00">core/executor.hpp</text>
</a>
</g>
</g>
<!-- Node2&#45;&gt;Node9 -->
<g id="edge8_Node000002_Node000009" class="edge">
<title>Node2&#45;&gt;Node9</title>
<g id="a_edge8_Node000002_Node000009"><a xlink:title=" ">
<path fill="none" stroke="#63b8ff" d="M304.87,-159.57C295.63,-150.5 284.71,-139.78 277.1,-132.3"/>
<polygon fill="#63b8ff" stroke="#63b8ff" points="302.38,-162.03 311.96,-166.53 307.28,-157.03 302.38,-162.03"/>
</a>
</g>
</g>
<!-- Node11 -->
<g id="Node000011" class="node">
<title>Node11</title>
<g id="a_Node000011"><a xlink:href="monitor_8hpp.html" target="_top" xlink:title=" ">
<polygon fill="white" stroke="#666666" points="421,-132 332.25,-132 332.25,-112 421,-112 421,-132"/>
<text xml:space="preserve" text-anchor="middle" x="376.62" y="-118.5" font-family="Helvetica,sans-Serif" font-size="10.00">core/monitor.hpp</text>
</a>
</g>
</g>
<!-- Node2&#45;&gt;Node11 -->
<g id="edge11_Node000002_Node000011" class="edge">
<title>Node2&#45;&gt;Node11</title>
<g id="a_edge11_Node000002_Node000011"><a xlink:title=" ">
<path fill="none" stroke="#63b8ff" d="M340.06,-159.57C349.13,-150.5 359.85,-139.78 367.33,-132.3"/>
<polygon fill="#63b8ff" stroke="#63b8ff" points="337.7,-156.98 333.1,-166.52 342.65,-161.93 337.7,-156.98"/>
</a>
</g>
</g>
<!-- Node13 -->
<g id="Node000013" class="node">
<title>Node13</title>
<g id="a_Node000013"><a xlink:href="planner_8hpp.html" target="_top" xlink:title=" ">
<polygon fill="white" stroke="#666666" points="526.62,-132 438.62,-132 438.62,-112 526.62,-112 526.62,-132"/>
<text xml:space="preserve" text-anchor="middle" x="482.62" y="-118.5" font-family="Helvetica,sans-Serif" font-size="10.00">core/planner.hpp</text>
</a>
</g>
</g>
<!-- Node2&#45;&gt;Node13 -->
<g id="edge14_Node000002_Node000013" class="edge">
<title>Node2&#45;&gt;Node13</title>
<g id="a_edge14_Node000002_Node000013"><a xlink:title=" ">
<path fill="none" stroke="#63b8ff" d="M361.38,-163.92C390.14,-154.21 428.7,-141.2 454.54,-132.48"/>
<polygon fill="#63b8ff" stroke="#63b8ff" points="360.28,-160.6 351.93,-167.11 362.52,-167.23 360.28,-160.6"/>
</a>
</g>
</g>
<!-- Node4 -->
<g id="Node000004" class="node">
<title>Node4</title>
<g id="a_Node000004"><a xlink:href="analyzer_8cpp.html" target="_top" xlink:title=" ">
<polygon fill="white" stroke="#666666" points="93.25,-76 0,-76 0,-56 93.25,-56 93.25,-76"/>
<text xml:space="preserve" text-anchor="middle" x="46.62" y="-62.5" font-family="Helvetica,sans-Serif" font-size="10.00">core/analyzer.cpp</text>
</a>
</g>
</g>
<!-- Node3&#45;&gt;Node4 -->
<g id="edge3_Node000003_Node000004" class="edge">
<title>Node3&#45;&gt;Node4</title>
<g id="a_edge3_Node000003_Node000004"><a xlink:title=" ">
<path fill="none" stroke="#63b8ff" d="M46.62,-100.13C46.62,-91.9 46.62,-82.85 46.62,-76.3"/>
<polygon fill="#63b8ff" stroke="#63b8ff" points="43.13,-100.08 46.63,-110.08 50.13,-100.08 43.13,-100.08"/>
</a>
</g>
</g>
<!-- Node3&#45;&gt;Node5 -->
<g id="edge4_Node000003_Node000005" class="edge">
<title>Node3&#45;&gt;Node5</title>
<g id="a_edge4_Node000003_Node000005"><a xlink:title=" ">
<path fill="none" stroke="#63b8ff" d="M104.74,-109.99C156.76,-100.13 232.23,-85.83 281.61,-76.48"/>
<polygon fill="#63b8ff" stroke="#63b8ff" points="104.35,-106.5 95.17,-111.8 105.65,-113.38 104.35,-106.5"/>
</a>
</g>
</g>
<!-- Node6 -->
<g id="Node000006" class="node">
<title>Node6</title>
<g id="a_Node000006"><a xlink:href="loopComponent_8cpp.html" target="_top" xlink:title=" ">
<polygon fill="white" stroke="#666666" points="455,-20 330.25,-20 330.25,0 455,0 455,-20"/>
<text xml:space="preserve" text-anchor="middle" x="392.62" y="-6.5" font-family="Helvetica,sans-Serif" font-size="10.00">core/loopComponent.cpp</text>
</a>
</g>
</g>
<!-- Node5&#45;&gt;Node6 -->
<g id="edge5_Node000005_Node000006" class="edge">
<title>Node5&#45;&gt;Node6</title>
<g id="a_edge5_Node000005_Node000006"><a xlink:title=" ">
<path fill="none" stroke="#63b8ff" d="M350.69,-48.13C361.06,-38.94 373.5,-27.93 382.12,-20.3"/>
<polygon fill="#63b8ff" stroke="#63b8ff" points="348.55,-45.34 343.38,-54.59 353.19,-50.58 348.55,-45.34"/>
</a>
</g>
</g>
<!-- Node7 -->
<g id="Node000007" class="node">
<title>Node7</title>
<g id="a_Node000007"><a xlink:href="mapek_8hpp.html" target="_top" xlink:title=" ">
<polygon fill="white" stroke="#666666" points="312.5,-20 226.75,-20 226.75,0 312.5,0 312.5,-20"/>
<text xml:space="preserve" text-anchor="middle" x="269.62" y="-6.5" font-family="Helvetica,sans-Serif" font-size="10.00">core/mapek.hpp</text>
</a>
</g>
</g>
<!-- Node5&#45;&gt;Node7 -->
<g id="edge6_Node000005_Node000007" class="edge">
<title>Node5&#45;&gt;Node7</title>
<g id="a_edge6_Node000005_Node000007"><a xlink:title=" ">
<path fill="none" stroke="#63b8ff" d="M312.25,-48.13C301.71,-38.94 289.07,-27.93 280.3,-20.3"/>
<polygon fill="#63b8ff" stroke="#63b8ff" points="309.84,-50.67 319.68,-54.6 314.44,-45.39 309.84,-50.67"/>
</a>
</g>
</g>
<!-- Node9&#45;&gt;Node5 -->
<g id="edge10_Node000009_Node000005" class="edge">
<title>Node9&#45;&gt;Node5</title>
<g id="a_edge10_Node000009_Node000005"><a xlink:title=" ">
<path fill="none" stroke="#63b8ff" d="M287.3,-104.4C298.24,-95.17 311.47,-84.01 320.6,-76.3"/>
<polygon fill="#63b8ff" stroke="#63b8ff" points="285.32,-101.49 279.93,-110.62 289.83,-106.84 285.32,-101.49"/>
</a>
</g>
</g>
<!-- Node10 -->
<g id="Node000010" class="node">
<title>Node10</title>
<g id="a_Node000010"><a xlink:href="executor_8cpp.html" target="_top" xlink:title=" ">
<polygon fill="white" stroke="#666666" points="251.62,-76 157.62,-76 157.62,-56 251.62,-56 251.62,-76"/>
<text xml:space="preserve" text-anchor="middle" x="204.62" y="-62.5" font-family="Helvetica,sans-Serif" font-size="10.00">core/executor.cpp</text>
</a>
</g>
</g>
<!-- Node9&#45;&gt;Node10 -->
<g id="edge9_Node000009_Node000010" class="edge">
<title>Node9&#45;&gt;Node10</title>
<g id="a_edge9_Node000009_Node000010"><a xlink:title=" ">
<path fill="none" stroke="#63b8ff" d="M247.94,-104.13C237.22,-94.94 224.38,-83.93 215.47,-76.3"/>
<polygon fill="#63b8ff" stroke="#63b8ff" points="245.63,-106.76 255.5,-110.61 250.19,-101.44 245.63,-106.76"/>
</a>
</g>
</g>
<!-- Node11&#45;&gt;Node5 -->
<g id="edge12_Node000011_Node000005" class="edge">
<title>Node11&#45;&gt;Node5</title>
<g id="a_edge12_Node000011_Node000005"><a xlink:title=" ">
<path fill="none" stroke="#63b8ff" d="M361.63,-103C354.17,-94.06 345.48,-83.62 339.37,-76.3"/>
<polygon fill="#63b8ff" stroke="#63b8ff" points="358.73,-104.99 367.82,-110.43 364.1,-100.51 358.73,-104.99"/>
</a>
</g>
</g>
<!-- Node12 -->
<g id="Node000012" class="node">
<title>Node12</title>
<g id="a_Node000012"><a xlink:href="monitor_8cpp.html" target="_top" xlink:title=" ">
<polygon fill="white" stroke="#666666" points="501,-76 412.25,-76 412.25,-56 501,-56 501,-76"/>
<text xml:space="preserve" text-anchor="middle" x="456.62" y="-62.5" font-family="Helvetica,sans-Serif" font-size="10.00">core/monitor.cpp</text>
</a>
</g>
</g>
<!-- Node11&#45;&gt;Node12 -->
<g id="edge13_Node000011_Node000012" class="edge">
<title>Node11&#45;&gt;Node12</title>
<g id="a_edge13_Node000011_Node000012"><a xlink:title=" ">
<path fill="none" stroke="#63b8ff" d="M399.93,-105.27C413.75,-95.94 430.81,-84.43 442.58,-76.48"/>
<polygon fill="#63b8ff" stroke="#63b8ff" points="398.14,-102.25 391.81,-110.75 402.06,-108.05 398.14,-102.25"/>
</a>
</g>
</g>
<!-- Node13&#45;&gt;Node5 -->
<g id="edge15_Node000013_Node000005" class="edge">
<title>Node13&#45;&gt;Node5</title>
<g id="a_edge15_Node000013_Node000005"><a xlink:title=" ">
<path fill="none" stroke="#63b8ff" d="M445.69,-107.79C418.58,-98.1 382.41,-85.16 358.13,-76.48"/>
<polygon fill="#63b8ff" stroke="#63b8ff" points="444.3,-111.01 454.9,-111.08 446.66,-104.42 444.3,-111.01"/>
</a>
</g>
</g>
<!-- Node14 -->
<g id="Node000014" class="node">
<title>Node14</title>
<g id="a_Node000014"><a xlink:href="planner_8cpp.html" target="_top" xlink:title=" ">
<polygon fill="white" stroke="#666666" points="606.62,-76 518.62,-76 518.62,-56 606.62,-56 606.62,-76"/>
<text xml:space="preserve" text-anchor="middle" x="562.62" y="-62.5" font-family="Helvetica,sans-Serif" font-size="10.00">core/planner.cpp</text>
</a>
</g>
</g>
<!-- Node13&#45;&gt;Node14 -->
<g id="edge16_Node000013_Node000014" class="edge">
<title>Node13&#45;&gt;Node14</title>
<g id="a_edge16_Node000013_Node000014"><a xlink:title=" ">
<path fill="none" stroke="#63b8ff" d="M505.93,-105.27C519.75,-95.94 536.81,-84.43 548.58,-76.48"/>
<polygon fill="#63b8ff" stroke="#63b8ff" points="504.14,-102.25 497.81,-110.75 508.06,-108.05 504.14,-102.25"/>
</a>
</g>
</g>
<!-- Node16 -->
<g id="Node000016" class="node">
<title>Node16</title>
<g id="a_Node000016"><a xlink:href="modularComponent_8cpp.html" target="_top" xlink:title=" ">
<polygon fill="white" stroke="#666666" points="724.25,-132 583,-132 583,-112 724.25,-112 724.25,-132"/>
<text xml:space="preserve" text-anchor="middle" x="653.62" y="-118.5" font-family="Helvetica,sans-Serif" font-size="10.00">core/modularComponent.cpp</text>
</a>
</g>
</g>
<!-- Node15&#45;&gt;Node16 -->
<g id="edge19_Node000015_Node000016" class="edge">
<title>Node15&#45;&gt;Node16</title>
<g id="a_edge19_Node000015_Node000016"><a xlink:title=" ">
<path fill="none" stroke="#63b8ff" d="M653.62,-156.13C653.62,-147.9 653.62,-138.85 653.62,-132.3"/>
<polygon fill="#63b8ff" stroke="#63b8ff" points="650.13,-156.08 653.63,-166.08 657.13,-156.08 650.13,-156.08"/>
</a>
</g>
</g>
<!-- Node17 -->
<g id="Node000017" class="node">
<title>Node17</title>
<g id="a_Node000017"><a xlink:href="module_8hpp.html" target="_top" xlink:title=" ">
<polygon fill="white" stroke="#666666" points="830.62,-132 742.62,-132 742.62,-112 830.62,-112 830.62,-132"/>
<text xml:space="preserve" text-anchor="middle" x="786.62" y="-118.5" font-family="Helvetica,sans-Serif" font-size="10.00">core/module.hpp</text>
</a>
</g>
</g>
<!-- Node15&#45;&gt;Node17 -->
<g id="edge20_Node000015_Node000017" class="edge">
<title>Node15&#45;&gt;Node17</title>
<g id="a_edge20_Node000015_Node000017"><a xlink:title=" ">
<path fill="none" stroke="#63b8ff" d="M687.44,-163.27C711.16,-153.64 742.27,-141.01 763.28,-132.48"/>
<polygon fill="#63b8ff" stroke="#63b8ff" points="686.14,-160.02 678.19,-167.02 688.78,-166.51 686.14,-160.02"/>
</a>
</g>
</g>
<!-- Node18 -->
<g id="Node000018" class="node">
<title>Node18</title>
<g id="a_Node000018"><a xlink:href="app_8hpp.html" target="_top" xlink:title=" ">
<polygon fill="white" stroke="#666666" points="822.75,-76 750.5,-76 750.5,-56 822.75,-56 822.75,-76"/>
<text xml:space="preserve" text-anchor="middle" x="786.62" y="-62.5" font-family="Helvetica,sans-Serif" font-size="10.00">core/app.hpp</text>
</a>
</g>
</g>
<!-- Node17&#45;&gt;Node18 -->
<g id="edge21_Node000017_Node000018" class="edge">
<title>Node17&#45;&gt;Node18</title>
<g id="a_edge21_Node000017_Node000018"><a xlink:title=" ">
<path fill="none" stroke="#63b8ff" d="M786.62,-100.13C786.62,-91.9 786.62,-82.85 786.62,-76.3"/>
<polygon fill="#63b8ff" stroke="#63b8ff" points="783.13,-100.08 786.63,-110.08 790.13,-100.08 783.13,-100.08"/>
</a>
</g>
</g>
<!-- Node19 -->
<g id="Node000019" class="node">
<title>Node19</title>
<g id="a_Node000019"><a xlink:href="app_8cpp.html" target="_top" xlink:title=" ">
<polygon fill="white" stroke="#666666" points="822.75,-20 750.5,-20 750.5,0 822.75,0 822.75,-20"/>
<text xml:space="preserve" text-anchor="middle" x="786.62" y="-6.5" font-family="Helvetica,sans-Serif" font-size="10.00">core/app.cpp</text>
</a>
</g>
</g>
<!-- Node18&#45;&gt;Node19 -->
<g id="edge22_Node000018_Node000019" class="edge">
<title>Node18&#45;&gt;Node19</title>
<g id="a_edge22_Node000018_Node000019"><a xlink:title=" ">
<path fill="none" stroke="#63b8ff" d="M786.62,-44.13C786.62,-35.9 786.62,-26.85 786.62,-20.3"/>
<polygon fill="#63b8ff" stroke="#63b8ff" points="783.13,-44.08 786.63,-54.08 790.13,-44.08 783.13,-44.08"/>
</a>
</g>
</g>
</g>
</svg>
