<?xml version="1.0" encoding="UTF-8" standalone="no"?>
<!DOCTYPE svg PUBLIC "-//W3C//DTD SVG 1.1//EN"
 "http://www.w3.org/Graphics/SVG/1.1/DTD/svg11.dtd">
<!-- Generated by graphviz version 13.1.0 (0)
 -->
<!-- Title: core/constraintModel.hpp Pages: 1 -->
<svg width="286pt" height="196pt"
 viewBox="0.00 0.00 286.00 196.00" xmlns="http://www.w3.org/2000/svg" xmlns:xlink="http://www.w3.org/1999/xlink">
<g id="graph0" class="graph" transform="scale(1 1) rotate(0) translate(4 192)">
<title>core/constraintModel.hpp</title>
<!-- Node1 -->
<g id="Node000001" class="node">
<title>Node1</title>
<g id="a_Node000001"><a xlink:title=" ">
<polygon fill="#999999" stroke="#666666" points="172.38,-188 46.88,-188 46.88,-168 172.38,-168 172.38,-188"/>
<text xml:space="preserve" text-anchor="middle" x="109.62" y="-174.5" font-family="Helvetica,sans-Serif" font-size="10.00">core/constraintModel.hpp</text>
</a>
</g>
</g>
<!-- Node2 -->
<g id="Node000002" class="node">
<title>Node2</title>
<g id="a_Node000002"><a xlink:href="analyzer_8hpp.html" target="_top" xlink:title=" ">
<polygon fill="white" stroke="#666666" points="156.25,-132 63,-132 63,-112 156.25,-112 156.25,-132"/>
<text xml:space="preserve" text-anchor="middle" x="109.62" y="-118.5" font-family="Helvetica,sans-Serif" font-size="10.00">core/analyzer.hpp</text>
</a>
</g>
</g>
<!-- Node1&#45;&gt;Node2 -->
<g id="edge1_Node000001_Node000002" class="edge">
<title>Node1&#45;&gt;Node2</title>
<g id="a_edge1_Node000001_Node000002"><a xlink:title=" ">
<path fill="none" stroke="#63b8ff" d="M109.62,-156.13C109.62,-147.9 109.62,-138.85 109.62,-132.3"/>
<polygon fill="#63b8ff" stroke="#63b8ff" points="106.13,-156.08 109.63,-166.08 113.13,-156.08 106.13,-156.08"/>
</a>
</g>
</g>
<!-- Node3 -->
<g id="Node000003" class="node">
<title>Node3</title>
<g id="a_Node000003"><a xlink:href="analyzer_8cpp.html" target="_top" xlink:title=" ">
<polygon fill="white" stroke="#666666" points="93.25,-76 0,-76 0,-56 93.25,-56 93.25,-76"/>
<text xml:space="preserve" text-anchor="middle" x="46.62" y="-62.5" font-family="Helvetica,sans-Serif" font-size="10.00">core/analyzer.cpp</text>
</a>
</g>
</g>
<!-- Node2&#45;&gt;Node3 -->
<g id="edge2_Node000002_Node000003" class="edge">
<title>Node2&#45;&gt;Node3</title>
<g id="a_edge2_Node000002_Node000003"><a xlink:title=" ">
<path fill="none" stroke="#63b8ff" d="M89.94,-104.13C79.22,-94.94 66.38,-83.93 57.47,-76.3"/>
<polygon fill="#63b8ff" stroke="#63b8ff" points="87.63,-106.76 97.5,-110.61 92.19,-101.44 87.63,-106.76"/>
</a>
</g>
</g>
<!-- Node4 -->
<g id="Node000004" class="node">
<title>Node4</title>
<g id="a_Node000004"><a xlink:href="loopComponent_8hpp.html" target="_top" xlink:title=" ">
<polygon fill="white" stroke="#666666" points="236,-76 111.25,-76 111.25,-56 236,-56 236,-76"/>
<text xml:space="preserve" text-anchor="middle" x="173.62" y="-62.5" font-family="Helvetica,sans-Serif" font-size="10.00">core/loopComponent.hpp</text>
</a>
</g>
</g>
<!-- Node2&#45;&gt;Node4 -->
<g id="edge3_Node000002_Node000004" class="edge">
<title>Node2&#45;&gt;Node4</title>
<g id="a_edge3_Node000002_Node000004"><a xlink:title=" ">
<path fill="none" stroke="#63b8ff" d="M129.3,-104.4C140.24,-95.17 153.47,-84.01 162.6,-76.3"/>
<polygon fill="#63b8ff" stroke="#63b8ff" points="127.32,-101.49 121.93,-110.62 131.83,-106.84 127.32,-101.49"/>
</a>
</g>
</g>
<!-- Node5 -->
<g id="Node000005" class="node">
<title>Node5</title>
<g id="a_Node000005"><a xlink:href="loopComponent_8cpp.html" target="_top" xlink:title=" ">
<polygon fill="white" stroke="#666666" points="174,-20 49.25,-20 49.25,0 174,0 174,-20"/>
<text xml:space="preserve" text-anchor="middle" x="111.62" y="-6.5" font-family="Helvetica,sans-Serif" font-size="10.00">core/loopComponent.cpp</text>
</a>
</g>
</g>
<!-- Node4&#45;&gt;Node5 -->
<g id="edge4_Node000004_Node000005" class="edge">
<title>Node4&#45;&gt;Node5</title>
<g id="a_edge4_Node000004_Node000005"><a xlink:title=" ">
<path fill="none" stroke="#63b8ff" d="M154.25,-48.13C143.71,-38.94 131.07,-27.93 122.3,-20.3"/>
<polygon fill="#63b8ff" stroke="#63b8ff" points="151.84,-50.67 161.68,-54.6 156.44,-45.39 151.84,-50.67"/>
</a>
</g>
</g>
<!-- Node6 -->
<g id="Node000006" class="node">
<title>Node6</title>
<g id="a_Node000006"><a xlink:href="mapek_8hpp.html" target="_top" xlink:title=" ">
<polygon fill="white" stroke="#666666" points="277.5,-20 191.75,-20 191.75,0 277.5,0 277.5,-20"/>
<text xml:space="preserve" text-anchor="middle" x="234.62" y="-6.5" font-family="Helvetica,sans-Serif" font-size="10.00">core/mapek.hpp</text>
</a>
</g>
</g>
<!-- Node4&#45;&gt;Node6 -->
<g id="edge5_Node000004_Node000006" class="edge">
<title>Node4&#45;&gt;Node6</title>
<g id="a_edge5_Node000004_Node000006"><a xlink:title=" ">
<path fill="none" stroke="#63b8ff" d="M192.69,-48.13C203.06,-38.94 215.5,-27.93 224.12,-20.3"/>
<polygon fill="#63b8ff" stroke="#63b8ff" points="190.55,-45.34 185.38,-54.59 195.19,-50.58 190.55,-45.34"/>
</a>
</g>
</g>
</g>
</svg>
