<?xml version="1.0" encoding="UTF-8" standalone="no"?>
<!DOCTYPE svg PUBLIC "-//W3C//DTD SVG 1.1//EN"
 "http://www.w3.org/Graphics/SVG/1.1/DTD/svg11.dtd">
<!-- Generated by graphviz version 13.1.0 (0)
 -->
<!-- Title: core/element.hpp Pages: 1 -->
<svg width="607pt" height="196pt"
 viewBox="0.00 0.00 607.00 196.00" xmlns="http://www.w3.org/2000/svg" xmlns:xlink="http://www.w3.org/1999/xlink">
<g id="graph0" class="graph" transform="scale(1 1) rotate(0) translate(4 192)">
<title>core/element.hpp</title>
<!-- Node1 -->
<g id="Node000001" class="node">
<title>Node1</title>
<g id="a_Node000001"><a xlink:title=" ">
<polygon fill="#999999" stroke="#666666" points="385.12,-188 294.12,-188 294.12,-168 385.12,-168 385.12,-188"/>
<text xml:space="preserve" text-anchor="middle" x="339.62" y="-174.5" font-family="Helvetica,sans-Serif" font-size="10.00">core/element.hpp</text>
</a>
</g>
</g>
<!-- Node2 -->
<g id="Node000002" class="node">
<title>Node2</title>
<g id="a_Node000002"><a xlink:href="analyzer_8hpp.html" target="_top" xlink:title=" ">
<polygon fill="white" stroke="#666666" points="165.25,-132 72,-132 72,-112 165.25,-112 165.25,-132"/>
<text xml:space="preserve" text-anchor="middle" x="118.62" y="-118.5" font-family="Helvetica,sans-Serif" font-size="10.00">core/analyzer.hpp</text>
</a>
</g>
</g>
<!-- Node1&#45;&gt;Node2 -->
<g id="edge1_Node000001_Node000002" class="edge">
<title>Node1&#45;&gt;Node2</title>
<g id="a_edge1_Node000001_Node000002"><a xlink:title=" ">
<path fill="none" stroke="#63b8ff" d="M289.75,-164.81C249.65,-155.01 194.12,-141.45 157.33,-132.46"/>
<polygon fill="#63b8ff" stroke="#63b8ff" points="288.86,-168.2 299.41,-167.17 290.52,-161.4 288.86,-168.2"/>
</a>
</g>
</g>
<!-- Node7 -->
<g id="Node000007" class="node">
<title>Node7</title>
<g id="a_Node000007"><a xlink:href="element_8cpp.html" target="_top" xlink:title=" ">
<polygon fill="white" stroke="#666666" points="599.12,-132 508.12,-132 508.12,-112 599.12,-112 599.12,-132"/>
<text xml:space="preserve" text-anchor="middle" x="553.62" y="-118.5" font-family="Helvetica,sans-Serif" font-size="10.00">core/element.cpp</text>
</a>
</g>
</g>
<!-- Node1&#45;&gt;Node7 -->
<g id="edge6_Node000001_Node000007" class="edge">
<title>Node1&#45;&gt;Node7</title>
<g id="a_edge6_Node000001_Node000007"><a xlink:title=" ">
<path fill="none" stroke="#63b8ff" d="M387.92,-164.81C426.72,-155.02 480.43,-141.47 516.06,-132.48"/>
<polygon fill="#63b8ff" stroke="#63b8ff" points="387.21,-161.38 378.37,-167.22 388.92,-168.17 387.21,-161.38"/>
</a>
</g>
</g>
<!-- Node8 -->
<g id="Node000008" class="node">
<title>Node8</title>
<g id="a_Node000008"><a xlink:href="executor_8hpp.html" target="_top" xlink:title=" ">
<polygon fill="white" stroke="#666666" points="277.62,-132 183.62,-132 183.62,-112 277.62,-112 277.62,-132"/>
<text xml:space="preserve" text-anchor="middle" x="230.62" y="-118.5" font-family="Helvetica,sans-Serif" font-size="10.00">core/executor.hpp</text>
</a>
</g>
</g>
<!-- Node1&#45;&gt;Node8 -->
<g id="edge7_Node000001_Node000008" class="edge">
<title>Node1&#45;&gt;Node8</title>
<g id="a_edge7_Node000001_Node000008"><a xlink:title=" ">
<path fill="none" stroke="#63b8ff" d="M310.58,-162.61C291.32,-153.07 266.58,-140.81 249.76,-132.48"/>
<polygon fill="#63b8ff" stroke="#63b8ff" points="308.77,-165.62 319.28,-166.92 311.88,-159.35 308.77,-165.62"/>
</a>
</g>
</g>
<!-- Node10 -->
<g id="Node000010" class="node">
<title>Node10</title>
<g id="a_Node000010"><a xlink:href="monitor_8hpp.html" target="_top" xlink:title=" ">
<polygon fill="white" stroke="#666666" points="384,-132 295.25,-132 295.25,-112 384,-112 384,-132"/>
<text xml:space="preserve" text-anchor="middle" x="339.62" y="-118.5" font-family="Helvetica,sans-Serif" font-size="10.00">core/monitor.hpp</text>
</a>
</g>
</g>
<!-- Node1&#45;&gt;Node10 -->
<g id="edge10_Node000001_Node000010" class="edge">
<title>Node1&#45;&gt;Node10</title>
<g id="a_edge10_Node000001_Node000010"><a xlink:title=" ">
<path fill="none" stroke="#63b8ff" d="M339.62,-156.13C339.62,-147.9 339.62,-138.85 339.62,-132.3"/>
<polygon fill="#63b8ff" stroke="#63b8ff" points="336.13,-156.08 339.63,-166.08 343.13,-156.08 336.13,-156.08"/>
</a>
</g>
</g>
<!-- Node12 -->
<g id="Node000012" class="node">
<title>Node12</title>
<g id="a_Node000012"><a xlink:href="planner_8hpp.html" target="_top" xlink:title=" ">
<polygon fill="white" stroke="#666666" points="489.62,-132 401.62,-132 401.62,-112 489.62,-112 489.62,-132"/>
<text xml:space="preserve" text-anchor="middle" x="445.62" y="-118.5" font-family="Helvetica,sans-Serif" font-size="10.00">core/planner.hpp</text>
</a>
</g>
</g>
<!-- Node1&#45;&gt;Node12 -->
<g id="edge13_Node000001_Node000012" class="edge">
<title>Node1&#45;&gt;Node12</title>
<g id="a_edge13_Node000001_Node000012"><a xlink:title=" ">
<path fill="none" stroke="#63b8ff" d="M368.13,-162.48C386.82,-152.96 410.73,-140.78 427.02,-132.48"/>
<polygon fill="#63b8ff" stroke="#63b8ff" points="366.76,-159.25 359.44,-166.91 369.94,-165.49 366.76,-159.25"/>
</a>
</g>
</g>
<!-- Node3 -->
<g id="Node000003" class="node">
<title>Node3</title>
<g id="a_Node000003"><a xlink:href="analyzer_8cpp.html" target="_top" xlink:title=" ">
<polygon fill="white" stroke="#666666" points="93.25,-76 0,-76 0,-56 93.25,-56 93.25,-76"/>
<text xml:space="preserve" text-anchor="middle" x="46.62" y="-62.5" font-family="Helvetica,sans-Serif" font-size="10.00">core/analyzer.cpp</text>
</a>
</g>
</g>
<!-- Node2&#45;&gt;Node3 -->
<g id="edge2_Node000002_Node000003" class="edge">
<title>Node2&#45;&gt;Node3</title>
<g id="a_edge2_Node000002_Node000003"><a xlink:title=" ">
<path fill="none" stroke="#63b8ff" d="M97.23,-104.95C84.78,-95.61 69.51,-84.16 59.02,-76.3"/>
<polygon fill="#63b8ff" stroke="#63b8ff" points="94.77,-107.49 104.87,-110.69 98.97,-101.89 94.77,-107.49"/>
</a>
</g>
</g>
<!-- Node4 -->
<g id="Node000004" class="node">
<title>Node4</title>
<g id="a_Node000004"><a xlink:href="loopComponent_8hpp.html" target="_top" xlink:title=" ">
<polygon fill="white" stroke="#666666" points="348,-76 223.25,-76 223.25,-56 348,-56 348,-76"/>
<text xml:space="preserve" text-anchor="middle" x="285.62" y="-62.5" font-family="Helvetica,sans-Serif" font-size="10.00">core/loopComponent.hpp</text>
</a>
</g>
</g>
<!-- Node2&#45;&gt;Node4 -->
<g id="edge3_Node000002_Node000004" class="edge">
<title>Node2&#45;&gt;Node4</title>
<g id="a_edge3_Node000002_Node000004"><a xlink:title=" ">
<path fill="none" stroke="#63b8ff" d="M158.28,-108.18C188.38,-98.44 229.1,-85.28 256.31,-76.48"/>
<polygon fill="#63b8ff" stroke="#63b8ff" points="157.59,-104.72 149.15,-111.13 159.75,-111.38 157.59,-104.72"/>
</a>
</g>
</g>
<!-- Node5 -->
<g id="Node000005" class="node">
<title>Node5</title>
<g id="a_Node000005"><a xlink:href="loopComponent_8cpp.html" target="_top" xlink:title=" ">
<polygon fill="white" stroke="#666666" points="286,-20 161.25,-20 161.25,0 286,0 286,-20"/>
<text xml:space="preserve" text-anchor="middle" x="223.62" y="-6.5" font-family="Helvetica,sans-Serif" font-size="10.00">core/loopComponent.cpp</text>
</a>
</g>
</g>
<!-- Node4&#45;&gt;Node5 -->
<g id="edge4_Node000004_Node000005" class="edge">
<title>Node4&#45;&gt;Node5</title>
<g id="a_edge4_Node000004_Node000005"><a xlink:title=" ">
<path fill="none" stroke="#63b8ff" d="M266.25,-48.13C255.71,-38.94 243.07,-27.93 234.3,-20.3"/>
<polygon fill="#63b8ff" stroke="#63b8ff" points="263.84,-50.67 273.68,-54.6 268.44,-45.39 263.84,-50.67"/>
</a>
</g>
</g>
<!-- Node6 -->
<g id="Node000006" class="node">
<title>Node6</title>
<g id="a_Node000006"><a xlink:href="mapek_8hpp.html" target="_top" xlink:title=" ">
<polygon fill="white" stroke="#666666" points="389.5,-20 303.75,-20 303.75,0 389.5,0 389.5,-20"/>
<text xml:space="preserve" text-anchor="middle" x="346.62" y="-6.5" font-family="Helvetica,sans-Serif" font-size="10.00">core/mapek.hpp</text>
</a>
</g>
</g>
<!-- Node4&#45;&gt;Node6 -->
<g id="edge5_Node000004_Node000006" class="edge">
<title>Node4&#45;&gt;Node6</title>
<g id="a_edge5_Node000004_Node000006"><a xlink:title=" ">
<path fill="none" stroke="#63b8ff" d="M304.69,-48.13C315.06,-38.94 327.5,-27.93 336.12,-20.3"/>
<polygon fill="#63b8ff" stroke="#63b8ff" points="302.55,-45.34 297.38,-54.59 307.19,-50.58 302.55,-45.34"/>
</a>
</g>
</g>
<!-- Node8&#45;&gt;Node4 -->
<g id="edge9_Node000008_Node000004" class="edge">
<title>Node8&#45;&gt;Node4</title>
<g id="a_edge9_Node000008_Node000004"><a xlink:title=" ">
<path fill="none" stroke="#63b8ff" d="M248.38,-103.57C257.62,-94.5 268.54,-83.78 276.15,-76.3"/>
<polygon fill="#63b8ff" stroke="#63b8ff" points="245.97,-101.03 241.29,-110.53 250.87,-106.03 245.97,-101.03"/>
</a>
</g>
</g>
<!-- Node9 -->
<g id="Node000009" class="node">
<title>Node9</title>
<g id="a_Node000009"><a xlink:href="executor_8cpp.html" target="_top" xlink:title=" ">
<polygon fill="white" stroke="#666666" points="205.62,-76 111.62,-76 111.62,-56 205.62,-56 205.62,-76"/>
<text xml:space="preserve" text-anchor="middle" x="158.62" y="-62.5" font-family="Helvetica,sans-Serif" font-size="10.00">core/executor.cpp</text>
</a>
</g>
</g>
<!-- Node8&#45;&gt;Node9 -->
<g id="edge8_Node000008_Node000009" class="edge">
<title>Node8&#45;&gt;Node9</title>
<g id="a_edge8_Node000008_Node000009"><a xlink:title=" ">
<path fill="none" stroke="#63b8ff" d="M209.23,-104.95C196.78,-95.61 181.51,-84.16 171.02,-76.3"/>
<polygon fill="#63b8ff" stroke="#63b8ff" points="206.77,-107.49 216.87,-110.69 210.97,-101.89 206.77,-107.49"/>
</a>
</g>
</g>
<!-- Node10&#45;&gt;Node4 -->
<g id="edge11_Node000010_Node000004" class="edge">
<title>Node10&#45;&gt;Node4</title>
<g id="a_edge11_Node000010_Node000004"><a xlink:title=" ">
<path fill="none" stroke="#63b8ff" d="M322.19,-103.57C313.12,-94.5 302.4,-83.78 294.92,-76.3"/>
<polygon fill="#63b8ff" stroke="#63b8ff" points="319.6,-105.93 329.15,-110.52 324.55,-100.98 319.6,-105.93"/>
</a>
</g>
</g>
<!-- Node11 -->
<g id="Node000011" class="node">
<title>Node11</title>
<g id="a_Node000011"><a xlink:href="monitor_8cpp.html" target="_top" xlink:title=" ">
<polygon fill="white" stroke="#666666" points="455,-76 366.25,-76 366.25,-56 455,-56 455,-76"/>
<text xml:space="preserve" text-anchor="middle" x="410.62" y="-62.5" font-family="Helvetica,sans-Serif" font-size="10.00">core/monitor.cpp</text>
</a>
</g>
</g>
<!-- Node10&#45;&gt;Node11 -->
<g id="edge12_Node000010_Node000011" class="edge">
<title>Node10&#45;&gt;Node11</title>
<g id="a_edge12_Node000010_Node000011"><a xlink:title=" ">
<path fill="none" stroke="#63b8ff" d="M361.08,-104.68C373.3,-95.39 388.16,-84.09 398.4,-76.3"/>
<polygon fill="#63b8ff" stroke="#63b8ff" points="359.04,-101.84 353.2,-110.68 363.28,-107.41 359.04,-101.84"/>
</a>
</g>
</g>
<!-- Node12&#45;&gt;Node4 -->
<g id="edge14_Node000012_Node000004" class="edge">
<title>Node12&#45;&gt;Node4</title>
<g id="a_edge14_Node000012_Node000004"><a xlink:title=" ">
<path fill="none" stroke="#63b8ff" d="M406.87,-107.92C378.11,-98.21 339.55,-85.2 313.71,-76.48"/>
<polygon fill="#63b8ff" stroke="#63b8ff" points="405.73,-111.23 416.32,-111.11 407.97,-104.6 405.73,-111.23"/>
</a>
</g>
</g>
<!-- Node13 -->
<g id="Node000013" class="node">
<title>Node13</title>
<g id="a_Node000013"><a xlink:href="planner_8cpp.html" target="_top" xlink:title=" ">
<polygon fill="white" stroke="#666666" points="560.62,-76 472.62,-76 472.62,-56 560.62,-56 560.62,-76"/>
<text xml:space="preserve" text-anchor="middle" x="516.62" y="-62.5" font-family="Helvetica,sans-Serif" font-size="10.00">core/planner.cpp</text>
</a>
</g>
</g>
<!-- Node12&#45;&gt;Node13 -->
<g id="edge15_Node000012_Node000013" class="edge">
<title>Node12&#45;&gt;Node13</title>
<g id="a_edge15_Node000012_Node000013"><a xlink:title=" ">
<path fill="none" stroke="#63b8ff" d="M467.08,-104.68C479.3,-95.39 494.16,-84.09 504.4,-76.3"/>
<polygon fill="#63b8ff" stroke="#63b8ff" points="465.04,-101.84 459.2,-110.68 469.28,-107.41 465.04,-101.84"/>
</a>
</g>
</g>
</g>
</svg>
