<?xml version="1.0" encoding="UTF-8" standalone="no"?>
<!DOCTYPE svg PUBLIC "-//W3C//DTD SVG 1.1//EN"
 "http://www.w3.org/Graphics/SVG/1.1/DTD/svg11.dtd">
<!-- Generated by graphviz version 13.1.0 (0)
 -->
<!-- Title: core/executor.hpp Pages: 1 -->
<svg width="286pt" height="140pt"
 viewBox="0.00 0.00 286.00 140.00" xmlns="http://www.w3.org/2000/svg" xmlns:xlink="http://www.w3.org/1999/xlink">
<g id="graph0" class="graph" transform="scale(1 1) rotate(0) translate(4 136)">
<title>core/executor.hpp</title>
<!-- Node1 -->
<g id="Node000001" class="node">
<title>Node1</title>
<g id="a_Node000001"><a xlink:title=" ">
<polygon fill="#999999" stroke="#666666" points="157,-132 63,-132 63,-112 157,-112 157,-132"/>
<text xml:space="preserve" text-anchor="middle" x="110" y="-118.5" font-family="Helvetica,sans-Serif" font-size="10.00">core/executor.hpp</text>
</a>
</g>
</g>
<!-- Node2 -->
<g id="Node000002" class="node">
<title>Node2</title>
<g id="a_Node000002"><a xlink:href="executor_8cpp.html" target="_top" xlink:title=" ">
<polygon fill="white" stroke="#666666" points="94,-76 0,-76 0,-56 94,-56 94,-76"/>
<text xml:space="preserve" text-anchor="middle" x="47" y="-62.5" font-family="Helvetica,sans-Serif" font-size="10.00">core/executor.cpp</text>
</a>
</g>
</g>
<!-- Node1&#45;&gt;Node2 -->
<g id="edge1_Node000001_Node000002" class="edge">
<title>Node1&#45;&gt;Node2</title>
<g id="a_edge1_Node000001_Node000002"><a xlink:title=" ">
<path fill="none" stroke="#63b8ff" d="M90.31,-104.13C79.6,-94.94 66.75,-83.93 57.85,-76.3"/>
<polygon fill="#63b8ff" stroke="#63b8ff" points="88.01,-106.76 97.88,-110.61 92.56,-101.44 88.01,-106.76"/>
</a>
</g>
</g>
<!-- Node3 -->
<g id="Node000003" class="node">
<title>Node3</title>
<g id="a_Node000003"><a xlink:href="loopComponent_8hpp.html" target="_top" xlink:title=" ">
<polygon fill="white" stroke="#666666" points="236.38,-76 111.62,-76 111.62,-56 236.38,-56 236.38,-76"/>
<text xml:space="preserve" text-anchor="middle" x="174" y="-62.5" font-family="Helvetica,sans-Serif" font-size="10.00">core/loopComponent.hpp</text>
</a>
</g>
</g>
<!-- Node1&#45;&gt;Node3 -->
<g id="edge2_Node000001_Node000003" class="edge">
<title>Node1&#45;&gt;Node3</title>
<g id="a_edge2_Node000001_Node000003"><a xlink:title=" ">
<path fill="none" stroke="#63b8ff" d="M129.67,-104.4C140.62,-95.17 153.84,-84.01 162.98,-76.3"/>
<polygon fill="#63b8ff" stroke="#63b8ff" points="127.69,-101.49 122.3,-110.62 132.2,-106.84 127.69,-101.49"/>
</a>
</g>
</g>
<!-- Node4 -->
<g id="Node000004" class="node">
<title>Node4</title>
<g id="a_Node000004"><a xlink:href="loopComponent_8cpp.html" target="_top" xlink:title=" ">
<polygon fill="white" stroke="#666666" points="174.38,-20 49.63,-20 49.63,0 174.38,0 174.38,-20"/>
<text xml:space="preserve" text-anchor="middle" x="112" y="-6.5" font-family="Helvetica,sans-Serif" font-size="10.00">core/loopComponent.cpp</text>
</a>
</g>
</g>
<!-- Node3&#45;&gt;Node4 -->
<g id="edge3_Node000003_Node000004" class="edge">
<title>Node3&#45;&gt;Node4</title>
<g id="a_edge3_Node000003_Node000004"><a xlink:title=" ">
<path fill="none" stroke="#63b8ff" d="M154.63,-48.13C144.08,-38.94 131.44,-27.93 122.68,-20.3"/>
<polygon fill="#63b8ff" stroke="#63b8ff" points="152.22,-50.67 162.06,-54.6 156.82,-45.39 152.22,-50.67"/>
</a>
</g>
</g>
<!-- Node5 -->
<g id="Node000005" class="node">
<title>Node5</title>
<g id="a_Node000005"><a xlink:href="mapek_8hpp.html" target="_top" xlink:title=" ">
<polygon fill="white" stroke="#666666" points="277.88,-20 192.12,-20 192.12,0 277.88,0 277.88,-20"/>
<text xml:space="preserve" text-anchor="middle" x="235" y="-6.5" font-family="Helvetica,sans-Serif" font-size="10.00">core/mapek.hpp</text>
</a>
</g>
</g>
<!-- Node3&#45;&gt;Node5 -->
<g id="edge4_Node000003_Node000005" class="edge">
<title>Node3&#45;&gt;Node5</title>
<g id="a_edge4_Node000003_Node000005"><a xlink:title=" ">
<path fill="none" stroke="#63b8ff" d="M193.06,-48.13C203.44,-38.94 215.87,-27.93 224.5,-20.3"/>
<polygon fill="#63b8ff" stroke="#63b8ff" points="190.93,-45.34 185.76,-54.59 195.57,-50.58 190.93,-45.34"/>
</a>
</g>
</g>
</g>
</svg>
