<?xml version="1.0" encoding="UTF-8" standalone="no"?>
<!DOCTYPE svg PUBLIC "-//W3C//DTD SVG 1.1//EN"
 "http://www.w3.org/Graphics/SVG/1.1/DTD/svg11.dtd">
<!-- Generated by graphviz version 13.1.0 (0)
 -->
<!-- Title: core/executor.cpp Pages: 1 -->
<svg width="543pt" height="308pt"
 viewBox="0.00 0.00 543.00 308.00" xmlns="http://www.w3.org/2000/svg" xmlns:xlink="http://www.w3.org/1999/xlink">
<g id="graph0" class="graph" transform="scale(1 1) rotate(0) translate(4 304)">
<title>core/executor.cpp</title>
<!-- Node1 -->
<g id="Node000001" class="node">
<title>Node1</title>
<g id="a_Node000001"><a xlink:title=" ">
<polygon fill="#999999" stroke="#666666" points="94,-300 0,-300 0,-280 94,-280 94,-300"/>
<text xml:space="preserve" text-anchor="middle" x="47" y="-286.5" font-family="Helvetica,sans-Serif" font-size="10.00">core/executor.cpp</text>
</a>
</g>
</g>
<!-- Node2 -->
<g id="Node000002" class="node">
<title>Node2</title>
<g id="a_Node000002"><a xlink:href="executor_8hpp.html" target="_top" xlink:title=" ">
<polygon fill="white" stroke="#666666" points="83.12,-244 10.88,-244 10.88,-224 83.12,-224 83.12,-244"/>
<text xml:space="preserve" text-anchor="middle" x="47" y="-230.5" font-family="Helvetica,sans-Serif" font-size="10.00">executor.hpp</text>
</a>
</g>
</g>
<!-- Node1&#45;&gt;Node2 -->
<g id="edge1_Node000001_Node000002" class="edge">
<title>Node1&#45;&gt;Node2</title>
<g id="a_edge1_Node000001_Node000002"><a xlink:title=" ">
<path fill="none" stroke="#63b8ff" d="M47,-279.59C47,-273.01 47,-263.96 47,-255.73"/>
<polygon fill="#63b8ff" stroke="#63b8ff" points="50.5,-255.81 47,-245.81 43.5,-255.81 50.5,-255.81"/>
</a>
</g>
</g>
<!-- Node3 -->
<g id="Node000003" class="node">
<title>Node3</title>
<g id="a_Node000003"><a xlink:title=" ">
<polygon fill="#e0e0e0" stroke="#999999" points="99.75,-20 46.25,-20 46.25,0 99.75,0 99.75,-20"/>
<text xml:space="preserve" text-anchor="middle" x="73" y="-6.5" font-family="Helvetica,sans-Serif" font-size="10.00">iostream</text>
</a>
</g>
</g>
<!-- Node2&#45;&gt;Node3 -->
<g id="edge2_Node000002_Node000003" class="edge">
<title>Node2&#45;&gt;Node3</title>
<g id="a_edge2_Node000002_Node000003"><a xlink:title=" ">
<path fill="none" stroke="#63b8ff" d="M48.08,-223.74C51.95,-190.74 65.12,-78.31 70.59,-31.61"/>
<polygon fill="#63b8ff" stroke="#63b8ff" points="74.05,-32.14 71.74,-21.8 67.1,-31.32 74.05,-32.14"/>
</a>
</g>
</g>
<!-- Node4 -->
<g id="Node000004" class="node">
<title>Node4</title>
<g id="a_Node000004"><a xlink:href="element_8hpp.html" target="_top" xlink:title=" ">
<polygon fill="white" stroke="#666666" points="140.62,-188 71.38,-188 71.38,-168 140.62,-168 140.62,-188"/>
<text xml:space="preserve" text-anchor="middle" x="106" y="-174.5" font-family="Helvetica,sans-Serif" font-size="10.00">element.hpp</text>
</a>
</g>
</g>
<!-- Node2&#45;&gt;Node4 -->
<g id="edge3_Node000002_Node000004" class="edge">
<title>Node2&#45;&gt;Node4</title>
<g id="a_edge3_Node000002_Node000004"><a xlink:title=" ">
<path fill="none" stroke="#63b8ff" d="M57.28,-223.59C65.57,-216.01 77.45,-205.13 87.4,-196.02"/>
<polygon fill="#63b8ff" stroke="#63b8ff" points="89.71,-198.65 94.72,-189.32 84.98,-193.49 89.71,-198.65"/>
</a>
</g>
</g>
<!-- Node4&#45;&gt;Node3 -->
<g id="edge4_Node000004_Node000003" class="edge">
<title>Node4&#45;&gt;Node3</title>
<g id="a_edge4_Node000004_Node000003"><a xlink:title=" ">
<path fill="none" stroke="#63b8ff" d="M104.13,-167.6C98.94,-141.46 84.23,-67.48 77.05,-31.36"/>
<polygon fill="#63b8ff" stroke="#63b8ff" points="80.53,-30.91 75.14,-21.78 73.66,-32.27 80.53,-30.91"/>
</a>
</g>
</g>
<!-- Node5 -->
<g id="Node000005" class="node">
<title>Node5</title>
<g id="a_Node000005"><a xlink:href="compositeNode_8hpp.html" target="_top" xlink:title=" ">
<polygon fill="white" stroke="#666666" points="216.5,-132 113.5,-132 113.5,-112 216.5,-112 216.5,-132"/>
<text xml:space="preserve" text-anchor="middle" x="165" y="-118.5" font-family="Helvetica,sans-Serif" font-size="10.00">compositeNode.hpp</text>
</a>
</g>
</g>
<!-- Node4&#45;&gt;Node5 -->
<g id="edge5_Node000004_Node000005" class="edge">
<title>Node4&#45;&gt;Node5</title>
<g id="a_edge5_Node000004_Node000005"><a xlink:title=" ">
<path fill="none" stroke="#63b8ff" d="M116.28,-167.59C124.57,-160.01 136.45,-149.13 146.4,-140.02"/>
<polygon fill="#63b8ff" stroke="#63b8ff" points="148.71,-142.65 153.72,-133.32 143.98,-137.49 148.71,-142.65"/>
</a>
</g>
</g>
<!-- Node6 -->
<g id="Node000006" class="node">
<title>Node6</title>
<g id="a_Node000006"><a xlink:href="knowledge_8hpp.html" target="_top" xlink:title=" ">
<polygon fill="white" stroke="#666666" points="370.62,-76 289.38,-76 289.38,-56 370.62,-56 370.62,-76"/>
<text xml:space="preserve" text-anchor="middle" x="330" y="-62.5" font-family="Helvetica,sans-Serif" font-size="10.00">knowledge.hpp</text>
</a>
</g>
</g>
<!-- Node4&#45;&gt;Node6 -->
<g id="edge14_Node000004_Node000006" class="edge">
<title>Node4&#45;&gt;Node6</title>
<g id="a_edge14_Node000004_Node000006"><a xlink:title=" ">
<path fill="none" stroke="#63b8ff" d="M136.29,-167.52C160.98,-159.34 196.47,-146.58 226,-132 255.4,-117.48 287.06,-96.91 307.62,-82.82"/>
<polygon fill="#63b8ff" stroke="#63b8ff" points="309.56,-85.74 315.79,-77.16 305.57,-79.98 309.56,-85.74"/>
</a>
</g>
</g>
<!-- Node5&#45;&gt;Node3 -->
<g id="edge6_Node000005_Node000003" class="edge">
<title>Node5&#45;&gt;Node3</title>
<g id="a_edge6_Node000005_Node000003"><a xlink:title=" ">
<path fill="none" stroke="#63b8ff" d="M151.74,-111.68C140.33,-103.23 123.87,-89.99 112,-76 100.16,-62.05 89.67,-44.07 82.57,-30.56"/>
<polygon fill="#63b8ff" stroke="#63b8ff" points="85.77,-29.13 78.12,-21.8 79.52,-32.3 85.77,-29.13"/>
</a>
</g>
</g>
<!-- Node5&#45;&gt;Node6 -->
<g id="edge7_Node000005_Node000006" class="edge">
<title>Node5&#45;&gt;Node6</title>
<g id="a_edge7_Node000005_Node000006"><a xlink:title=" ">
<path fill="none" stroke="#63b8ff" d="M193.74,-111.59C220.43,-102.86 260.42,-89.77 290.18,-80.03"/>
<polygon fill="#63b8ff" stroke="#63b8ff" points="291.18,-83.39 299.6,-76.95 289,-76.73 291.18,-83.39"/>
</a>
</g>
</g>
<!-- Node11 -->
<g id="Node000011" class="node">
<title>Node11</title>
<g id="a_Node000011"><a xlink:title=" ">
<polygon fill="#e0e0e0" stroke="#999999" points="271.5,-76 120.5,-76 120.5,-56 271.5,-56 271.5,-76"/>
<text xml:space="preserve" text-anchor="middle" x="196" y="-62.5" font-family="Helvetica,sans-Serif" font-size="10.00">enum/compositeNodeType.hpp</text>
</a>
</g>
</g>
<!-- Node5&#45;&gt;Node11 -->
<g id="edge13_Node000005_Node000011" class="edge">
<title>Node5&#45;&gt;Node11</title>
<g id="a_edge13_Node000005_Node000011"><a xlink:title=" ">
<path fill="none" stroke="#63b8ff" d="M170.4,-111.59C174.44,-104.55 180.12,-94.67 185.09,-86"/>
<polygon fill="#63b8ff" stroke="#63b8ff" points="187.97,-88.03 189.91,-77.61 181.89,-84.54 187.97,-88.03"/>
</a>
</g>
</g>
<!-- Node6&#45;&gt;Node3 -->
<g id="edge8_Node000006_Node000003" class="edge">
<title>Node6&#45;&gt;Node3</title>
<g id="a_edge8_Node000006_Node000003"><a xlink:title=" ">
<path fill="none" stroke="#63b8ff" d="M288.99,-56.38C240.03,-46.1 158.79,-29.03 111.13,-19.01"/>
<polygon fill="#63b8ff" stroke="#63b8ff" points="112.05,-15.63 101.55,-17 110.61,-22.48 112.05,-15.63"/>
</a>
</g>
</g>
<!-- Node7 -->
<g id="Node000007" class="node">
<title>Node7</title>
<g id="a_Node000007"><a xlink:title=" ">
<polygon fill="#e0e0e0" stroke="#999999" points="241.4,-20 212.6,-20 212.6,0 241.4,0 241.4,-20"/>
<text xml:space="preserve" text-anchor="middle" x="227" y="-6.5" font-family="Helvetica,sans-Serif" font-size="10.00">list</text>
</a>
</g>
</g>
<!-- Node6&#45;&gt;Node7 -->
<g id="edge9_Node000006_Node000007" class="edge">
<title>Node6&#45;&gt;Node7</title>
<g id="a_edge9_Node000006_Node000007"><a xlink:title=" ">
<path fill="none" stroke="#63b8ff" d="M312.06,-55.59C295.39,-46.85 270.41,-33.76 251.83,-24.02"/>
<polygon fill="#63b8ff" stroke="#63b8ff" points="253.56,-20.97 243.08,-19.43 250.31,-27.17 253.56,-20.97"/>
</a>
</g>
</g>
<!-- Node8 -->
<g id="Node000008" class="node">
<title>Node8</title>
<g id="a_Node000008"><a xlink:title=" ">
<polygon fill="#e0e0e0" stroke="#999999" points="310.62,-20 259.38,-20 259.38,0 310.62,0 310.62,-20"/>
<text xml:space="preserve" text-anchor="middle" x="285" y="-6.5" font-family="Helvetica,sans-Serif" font-size="10.00">memory</text>
</a>
</g>
</g>
<!-- Node6&#45;&gt;Node8 -->
<g id="edge10_Node000006_Node000008" class="edge">
<title>Node6&#45;&gt;Node8</title>
<g id="a_edge10_Node000006_Node000008"><a xlink:title=" ">
<path fill="none" stroke="#63b8ff" d="M322.16,-55.59C316.03,-48.24 307.33,-37.8 299.89,-28.87"/>
<polygon fill="#63b8ff" stroke="#63b8ff" points="302.81,-26.9 293.72,-21.46 297.43,-31.38 302.81,-26.9"/>
</a>
</g>
</g>
<!-- Node9 -->
<g id="Node000009" class="node">
<title>Node9</title>
<g id="a_Node000009"><a xlink:title=" ">
<polygon fill="#e0e0e0" stroke="#999999" points="419.12,-20 328.88,-20 328.88,0 419.12,0 419.12,-20"/>
<text xml:space="preserve" text-anchor="middle" x="374" y="-6.5" font-family="Helvetica,sans-Serif" font-size="10.00">model/model.hpp</text>
</a>
</g>
</g>
<!-- Node6&#45;&gt;Node9 -->
<g id="edge11_Node000006_Node000009" class="edge">
<title>Node6&#45;&gt;Node9</title>
<g id="a_edge11_Node000006_Node000009"><a xlink:title=" ">
<path fill="none" stroke="#63b8ff" d="M337.66,-55.59C343.59,-48.32 351.99,-38.02 359.21,-29.15"/>
<polygon fill="#63b8ff" stroke="#63b8ff" points="361.86,-31.43 365.47,-21.47 356.44,-27.01 361.86,-31.43"/>
</a>
</g>
</g>
<!-- Node10 -->
<g id="Node000010" class="node">
<title>Node10</title>
<g id="a_Node000010"><a xlink:title=" ">
<polygon fill="#e0e0e0" stroke="#999999" points="535.25,-20 436.75,-20 436.75,0 535.25,0 535.25,-20"/>
<text xml:space="preserve" text-anchor="middle" x="486" y="-6.5" font-family="Helvetica,sans-Serif" font-size="10.00">model/strategy.hpp</text>
</a>
</g>
</g>
<!-- Node6&#45;&gt;Node10 -->
<g id="edge12_Node000006_Node000010" class="edge">
<title>Node6&#45;&gt;Node10</title>
<g id="a_edge12_Node000006_Node000010"><a xlink:title=" ">
<path fill="none" stroke="#63b8ff" d="M357.17,-55.59C382.3,-46.9 419.88,-33.89 447.98,-24.16"/>
<polygon fill="#63b8ff" stroke="#63b8ff" points="448.88,-27.55 457.18,-20.97 446.59,-20.94 448.88,-27.55"/>
</a>
</g>
</g>
</g>
</svg>
