<?xml version="1.0" encoding="UTF-8" standalone="no"?>
<!DOCTYPE svg PUBLIC "-//W3C//DTD SVG 1.1//EN"
 "http://www.w3.org/Graphics/SVG/1.1/DTD/svg11.dtd">
<!-- Generated by graphviz version 13.1.0 (0)
 -->
<!-- Title: Graphical Class Hierarchy Pages: 1 -->
<svg width="201pt" height="142pt"
 viewBox="0.00 0.00 201.00 142.00" xmlns="http://www.w3.org/2000/svg" xmlns:xlink="http://www.w3.org/1999/xlink">
<g id="graph0" class="graph" transform="scale(1 1) rotate(0) translate(4 138)">
<title>Graphical Class Hierarchy</title>
<!-- Node0 -->
<g id="Node000000" class="node">
<title>Node0</title>
<g id="a_Node000000"><a xlink:href="classCAT_1_1Element.html" target="_top" xlink:title=" ">
<polygon fill="white" stroke="#666666" points="76.75,-77 0,-77 0,-57 76.75,-57 76.75,-77"/>
<text xml:space="preserve" text-anchor="middle" x="38.38" y="-63.5" font-family="Helvetica,sans-Serif" font-size="10.00">CAT::Element</text>
</a>
</g>
</g>
<!-- Node1 -->
<g id="Node000001" class="node">
<title>Node1</title>
<g id="a_Node000001"><a xlink:href="classCAT_1_1Analyzer.html" target="_top" xlink:title=" ">
<polygon fill="white" stroke="#666666" points="192.12,-134 113.12,-134 113.12,-114 192.12,-114 192.12,-134"/>
<text xml:space="preserve" text-anchor="middle" x="152.62" y="-120.5" font-family="Helvetica,sans-Serif" font-size="10.00">CAT::Analyzer</text>
</a>
</g>
</g>
<!-- Node0&#45;&gt;Node1 -->
<g id="edge5_Node000000_Node000001" class="edge">
<title>Node0&#45;&gt;Node1</title>
<g id="a_edge5_Node000000_Node000001"><a xlink:title=" ">
<path fill="none" stroke="#63b8ff" d="M69.27,-82.68C82.55,-89.59 98.39,-97.77 112.75,-105 118.39,-107.84 124.51,-110.86 130.19,-113.64"/>
<polygon fill="#63b8ff" stroke="#63b8ff" points="71.07,-79.67 60.58,-78.15 67.83,-85.88 71.07,-79.67"/>
</a>
</g>
</g>
<!-- Node2 -->
<g id="Node000002" class="node">
<title>Node2</title>
<g id="a_Node000002"><a xlink:href="classCAT_1_1Executor.html" target="_top" xlink:title=" ">
<polygon fill="white" stroke="#666666" points="192.5,-96 112.75,-96 112.75,-76 192.5,-76 192.5,-96"/>
<text xml:space="preserve" text-anchor="middle" x="152.62" y="-82.5" font-family="Helvetica,sans-Serif" font-size="10.00">CAT::Executor</text>
</a>
</g>
</g>
<!-- Node0&#45;&gt;Node2 -->
<g id="edge6_Node000000_Node000002" class="edge">
<title>Node0&#45;&gt;Node2</title>
<g id="a_edge6_Node000000_Node000002"><a xlink:title=" ">
<path fill="none" stroke="#63b8ff" d="M88.24,-75.27C96.28,-76.63 104.53,-78.03 112.31,-79.34"/>
<polygon fill="#63b8ff" stroke="#63b8ff" points="89,-71.85 78.56,-73.63 87.83,-78.75 89,-71.85"/>
</a>
</g>
</g>
<!-- Node3 -->
<g id="Node000003" class="node">
<title>Node3</title>
<g id="a_Node000003"><a xlink:href="classCAT_1_1Monitor.html" target="_top" xlink:title=" ">
<polygon fill="white" stroke="#666666" points="189.12,-58 116.12,-58 116.12,-38 189.12,-38 189.12,-58"/>
<text xml:space="preserve" text-anchor="middle" x="152.62" y="-44.5" font-family="Helvetica,sans-Serif" font-size="10.00">CAT::Monitor</text>
</a>
</g>
</g>
<!-- Node0&#45;&gt;Node3 -->
<g id="edge7_Node000000_Node000003" class="edge">
<title>Node0&#45;&gt;Node3</title>
<g id="a_edge7_Node000000_Node000003"><a xlink:title=" ">
<path fill="none" stroke="#63b8ff" d="M88.16,-58.74C97.43,-57.17 106.97,-55.56 115.74,-54.07"/>
<polygon fill="#63b8ff" stroke="#63b8ff" points="87.83,-55.25 78.56,-60.37 89,-62.15 87.83,-55.25"/>
</a>
</g>
</g>
<!-- Node4 -->
<g id="Node000004" class="node">
<title>Node4</title>
<g id="a_Node000004"><a xlink:href="classCAT_1_1Planner.html" target="_top" xlink:title=" ">
<polygon fill="white" stroke="#666666" points="189.5,-20 115.75,-20 115.75,0 189.5,0 189.5,-20"/>
<text xml:space="preserve" text-anchor="middle" x="152.62" y="-6.5" font-family="Helvetica,sans-Serif" font-size="10.00">CAT::Planner</text>
</a>
</g>
</g>
<!-- Node0&#45;&gt;Node4 -->
<g id="edge8_Node000000_Node000004" class="edge">
<title>Node0&#45;&gt;Node4</title>
<g id="a_edge8_Node000000_Node000004"><a xlink:title=" ">
<path fill="none" stroke="#63b8ff" d="M69.27,-51.32C82.55,-44.41 98.39,-36.23 112.75,-29 118.39,-26.16 124.51,-23.14 130.19,-20.36"/>
<polygon fill="#63b8ff" stroke="#63b8ff" points="67.83,-48.12 60.58,-55.85 71.07,-54.33 67.83,-48.12"/>
</a>
</g>
</g>
</g>
</svg>
