<?xml version="1.0" encoding="UTF-8" standalone="no"?>
<!DOCTYPE svg PUBLIC "-//W3C//DTD SVG 1.1//EN"
 "http://www.w3.org/Graphics/SVG/1.1/DTD/svg11.dtd">
<!-- Generated by graphviz version 13.1.0 (0)
 -->
<!-- Title: Graphical Class Hierarchy Pages: 1 -->
<svg width="393pt" height="66pt"
 viewBox="0.00 0.00 393.00 66.00" xmlns="http://www.w3.org/2000/svg" xmlns:xlink="http://www.w3.org/1999/xlink">
<g id="graph0" class="graph" transform="scale(1 1) rotate(0) translate(4 62)">
<title>Graphical Class Hierarchy</title>
<!-- Node0 -->
<g id="Node000000" class="node">
<title>Node0</title>
<g id="a_Node000000"><a xlink:href="classCAT_1_1CompositeNode.html" target="_top" xlink:title=" ">
<polygon fill="white" stroke="#666666" points="111.25,-39 0,-39 0,-19 111.25,-19 111.25,-39"/>
<text xml:space="preserve" text-anchor="middle" x="55.62" y="-25.5" font-family="Helvetica,sans-Serif" font-size="10.00">CAT::CompositeNode</text>
</a>
</g>
</g>
<!-- Node1 -->
<g id="Node000001" class="node">
<title>Node1</title>
<g id="a_Node000001"><a xlink:href="classCAT_1_1LoopComponent.html" target="_top" xlink:title=" ">
<polygon fill="white" stroke="#666666" points="266,-58 154,-58 154,-38 266,-38 266,-58"/>
<text xml:space="preserve" text-anchor="middle" x="210" y="-44.5" font-family="Helvetica,sans-Serif" font-size="10.00">CAT::LoopComponent</text>
</a>
</g>
</g>
<!-- Node0&#45;&gt;Node1 -->
<g id="edge1_Node000000_Node000001" class="edge">
<title>Node0&#45;&gt;Node1</title>
<g id="a_edge1_Node000000_Node000001"><a xlink:title=" ">
<path fill="none" stroke="#63b8ff" d="M123.01,-37.28C133.2,-38.55 143.63,-39.85 153.56,-41.09"/>
<polygon fill="#63b8ff" stroke="#63b8ff" points="123.49,-33.81 113.14,-36.05 122.63,-40.76 123.49,-33.81"/>
</a>
</g>
</g>
<!-- Node3 -->
<g id="Node000003" class="node">
<title>Node3</title>
<g id="a_Node000003"><a xlink:href="classCAT_1_1ModularComponent.html" target="_top" xlink:title=" ">
<polygon fill="white" stroke="#666666" points="272.75,-20 147.25,-20 147.25,0 272.75,0 272.75,-20"/>
<text xml:space="preserve" text-anchor="middle" x="210" y="-6.5" font-family="Helvetica,sans-Serif" font-size="10.00">CAT::ModularComponent</text>
</a>
</g>
</g>
<!-- Node0&#45;&gt;Node3 -->
<g id="edge3_Node000000_Node000003" class="edge">
<title>Node0&#45;&gt;Node3</title>
<g id="a_edge3_Node000000_Node000003"><a xlink:title=" ">
<path fill="none" stroke="#63b8ff" d="M122.79,-20.75C130.77,-19.75 138.91,-18.74 146.83,-17.75"/>
<polygon fill="#63b8ff" stroke="#63b8ff" points="122.63,-17.24 113.14,-21.95 123.49,-24.19 122.63,-17.24"/>
</a>
</g>
</g>
<!-- Node2 -->
<g id="Node000002" class="node">
<title>Node2</title>
<g id="a_Node000002"><a xlink:href="classCAT_1_1MAPEK.html" target="_top" xlink:title=" ">
<polygon fill="white" stroke="#666666" points="384.75,-58 308.75,-58 308.75,-38 384.75,-38 384.75,-58"/>
<text xml:space="preserve" text-anchor="middle" x="346.75" y="-44.5" font-family="Helvetica,sans-Serif" font-size="10.00">CAT::MAPEK</text>
</a>
</g>
</g>
<!-- Node1&#45;&gt;Node2 -->
<g id="edge2_Node000001_Node000002" class="edge">
<title>Node1&#45;&gt;Node2</title>
<g id="a_edge2_Node000001_Node000002"><a xlink:title=" ">
<path fill="none" stroke="#63b8ff" d="M277.66,-48C288.27,-48 298.92,-48 308.52,-48"/>
<polygon fill="#63b8ff" stroke="#63b8ff" points="277.71,-44.5 267.71,-48 277.71,-51.5 277.71,-44.5"/>
</a>
</g>
</g>
<!-- Node4 -->
<g id="Node000004" class="node">
<title>Node4</title>
<g id="a_Node000004"><a xlink:href="classCAT_1_1Module.html" target="_top" xlink:title=" ">
<polygon fill="white" stroke="#666666" points="382.88,-20 310.62,-20 310.62,0 382.88,0 382.88,-20"/>
<text xml:space="preserve" text-anchor="middle" x="346.75" y="-6.5" font-family="Helvetica,sans-Serif" font-size="10.00">CAT::Module</text>
</a>
</g>
</g>
<!-- Node3&#45;&gt;Node4 -->
<g id="edge4_Node000003_Node000004" class="edge">
<title>Node3&#45;&gt;Node4</title>
<g id="a_edge4_Node000003_Node000004"><a xlink:title=" ">
<path fill="none" stroke="#63b8ff" d="M284.56,-10C293.48,-10 302.24,-10 310.23,-10"/>
<polygon fill="#63b8ff" stroke="#63b8ff" points="284.76,-6.5 274.76,-10 284.76,-13.5 284.76,-6.5"/>
</a>
</g>
</g>
</g>
</svg>
