<?xml version="1.0" encoding="UTF-8" standalone="no"?>
<!DOCTYPE svg PUBLIC "-//W3C//DTD SVG 1.1//EN"
 "http://www.w3.org/Graphics/SVG/1.1/DTD/svg11.dtd">
<!-- Generated by graphviz version 13.1.0 (0)
 -->
<!-- Title: core/modularComponent.hpp Pages: 1 -->
<svg width="256pt" height="196pt"
 viewBox="0.00 0.00 256.00 196.00" xmlns="http://www.w3.org/2000/svg" xmlns:xlink="http://www.w3.org/1999/xlink">
<g id="graph0" class="graph" transform="scale(1 1) rotate(0) translate(4 192)">
<title>core/modularComponent.hpp</title>
<!-- Node1 -->
<g id="Node000001" class="node">
<title>Node1</title>
<g id="a_Node000001"><a xlink:title=" ">
<polygon fill="#999999" stroke="#666666" points="207.25,-188 66,-188 66,-168 207.25,-168 207.25,-188"/>
<text xml:space="preserve" text-anchor="middle" x="136.62" y="-174.5" font-family="Helvetica,sans-Serif" font-size="10.00">core/modularComponent.hpp</text>
</a>
</g>
</g>
<!-- Node2 -->
<g id="Node000002" class="node">
<title>Node2</title>
<g id="a_Node000002"><a xlink:href="modularComponent_8cpp.html" target="_top" xlink:title=" ">
<polygon fill="white" stroke="#666666" points="141.25,-132 0,-132 0,-112 141.25,-112 141.25,-132"/>
<text xml:space="preserve" text-anchor="middle" x="70.62" y="-118.5" font-family="Helvetica,sans-Serif" font-size="10.00">core/modularComponent.cpp</text>
</a>
</g>
</g>
<!-- Node1&#45;&gt;Node2 -->
<g id="edge1_Node000001_Node000002" class="edge">
<title>Node1&#45;&gt;Node2</title>
<g id="a_edge1_Node000001_Node000002"><a xlink:title=" ">
<path fill="none" stroke="#63b8ff" d="M116.34,-160.4C105.05,-151.17 91.41,-140.01 81.99,-132.3"/>
<polygon fill="#63b8ff" stroke="#63b8ff" points="114,-163.01 123.96,-166.64 118.43,-157.59 114,-163.01"/>
</a>
</g>
</g>
<!-- Node3 -->
<g id="Node000003" class="node">
<title>Node3</title>
<g id="a_Node000003"><a xlink:href="module_8hpp.html" target="_top" xlink:title=" ">
<polygon fill="white" stroke="#666666" points="247.62,-132 159.62,-132 159.62,-112 247.62,-112 247.62,-132"/>
<text xml:space="preserve" text-anchor="middle" x="203.62" y="-118.5" font-family="Helvetica,sans-Serif" font-size="10.00">core/module.hpp</text>
</a>
</g>
</g>
<!-- Node1&#45;&gt;Node3 -->
<g id="edge2_Node000001_Node000003" class="edge">
<title>Node1&#45;&gt;Node3</title>
<g id="a_edge2_Node000001_Node000003"><a xlink:title=" ">
<path fill="none" stroke="#63b8ff" d="M157.22,-160.4C168.68,-151.17 182.52,-140.01 192.09,-132.3"/>
<polygon fill="#63b8ff" stroke="#63b8ff" points="155.06,-157.64 149.47,-166.64 159.46,-163.09 155.06,-157.64"/>
</a>
</g>
</g>
<!-- Node4 -->
<g id="Node000004" class="node">
<title>Node4</title>
<g id="a_Node000004"><a xlink:href="app_8hpp.html" target="_top" xlink:title=" ">
<polygon fill="white" stroke="#666666" points="239.75,-76 167.5,-76 167.5,-56 239.75,-56 239.75,-76"/>
<text xml:space="preserve" text-anchor="middle" x="203.62" y="-62.5" font-family="Helvetica,sans-Serif" font-size="10.00">core/app.hpp</text>
</a>
</g>
</g>
<!-- Node3&#45;&gt;Node4 -->
<g id="edge3_Node000003_Node000004" class="edge">
<title>Node3&#45;&gt;Node4</title>
<g id="a_edge3_Node000003_Node000004"><a xlink:title=" ">
<path fill="none" stroke="#63b8ff" d="M203.62,-100.13C203.62,-91.9 203.62,-82.85 203.62,-76.3"/>
<polygon fill="#63b8ff" stroke="#63b8ff" points="200.13,-100.08 203.63,-110.08 207.13,-100.08 200.13,-100.08"/>
</a>
</g>
</g>
<!-- Node5 -->
<g id="Node000005" class="node">
<title>Node5</title>
<g id="a_Node000005"><a xlink:href="app_8cpp.html" target="_top" xlink:title=" ">
<polygon fill="white" stroke="#666666" points="239.75,-20 167.5,-20 167.5,0 239.75,0 239.75,-20"/>
<text xml:space="preserve" text-anchor="middle" x="203.62" y="-6.5" font-family="Helvetica,sans-Serif" font-size="10.00">core/app.cpp</text>
</a>
</g>
</g>
<!-- Node4&#45;&gt;Node5 -->
<g id="edge4_Node000004_Node000005" class="edge">
<title>Node4&#45;&gt;Node5</title>
<g id="a_edge4_Node000004_Node000005"><a xlink:title=" ">
<path fill="none" stroke="#63b8ff" d="M203.62,-44.13C203.62,-35.9 203.62,-26.85 203.62,-20.3"/>
<polygon fill="#63b8ff" stroke="#63b8ff" points="200.13,-44.08 203.63,-54.08 207.13,-44.08 200.13,-44.08"/>
</a>
</g>
</g>
</g>
</svg>
