<?xml version="1.0" encoding="UTF-8" standalone="no"?>
<!DOCTYPE svg PUBLIC "-//W3C//DTD SVG 1.1//EN"
 "http://www.w3.org/Graphics/SVG/1.1/DTD/svg11.dtd">
<!-- Generated by graphviz version 13.1.0 (0)
 -->
<!-- Title: core/module.hpp Pages: 1 -->
<svg width="408pt" height="252pt"
 viewBox="0.00 0.00 408.00 252.00" xmlns="http://www.w3.org/2000/svg" xmlns:xlink="http://www.w3.org/1999/xlink">
<g id="graph0" class="graph" transform="scale(1 1) rotate(0) translate(4 248)">
<title>core/module.hpp</title>
<!-- Node1 -->
<g id="Node000001" class="node">
<title>Node1</title>
<g id="a_Node000001"><a xlink:title=" ">
<polygon fill="#999999" stroke="#666666" points="88,-244 0,-244 0,-224 88,-224 88,-244"/>
<text xml:space="preserve" text-anchor="middle" x="44" y="-230.5" font-family="Helvetica,sans-Serif" font-size="10.00">core/module.hpp</text>
</a>
</g>
</g>
<!-- Node2 -->
<g id="Node000002" class="node">
<title>Node2</title>
<g id="a_Node000002"><a xlink:title=" ">
<polygon fill="#e0e0e0" stroke="#999999" points="59.75,-20 6.25,-20 6.25,0 59.75,0 59.75,-20"/>
<text xml:space="preserve" text-anchor="middle" x="33" y="-6.5" font-family="Helvetica,sans-Serif" font-size="10.00">iostream</text>
</a>
</g>
</g>
<!-- Node1&#45;&gt;Node2 -->
<g id="edge1_Node000001_Node000002" class="edge">
<title>Node1&#45;&gt;Node2</title>
<g id="a_edge1_Node000001_Node000002"><a xlink:title=" ">
<path fill="none" stroke="#63b8ff" d="M36.9,-223.61C30.8,-214.9 22.45,-201.32 19,-188 4.67,-132.7 18.42,-64.71 27.11,-31.38"/>
<polygon fill="#63b8ff" stroke="#63b8ff" points="30.45,-32.43 29.72,-21.86 23.7,-30.58 30.45,-32.43"/>
</a>
</g>
</g>
<!-- Node3 -->
<g id="Node000003" class="node">
<title>Node3</title>
<g id="a_Node000003"><a xlink:href="modularComponent_8hpp.html" target="_top" xlink:title=" ">
<polygon fill="white" stroke="#666666" points="147.75,-188 28.25,-188 28.25,-168 147.75,-168 147.75,-188"/>
<text xml:space="preserve" text-anchor="middle" x="88" y="-174.5" font-family="Helvetica,sans-Serif" font-size="10.00">modularComponent.hpp</text>
</a>
</g>
</g>
<!-- Node1&#45;&gt;Node3 -->
<g id="edge2_Node000001_Node000003" class="edge">
<title>Node1&#45;&gt;Node3</title>
<g id="a_edge2_Node000001_Node000003"><a xlink:title=" ">
<path fill="none" stroke="#63b8ff" d="M51.66,-223.59C57.59,-216.32 65.99,-206.02 73.21,-197.15"/>
<polygon fill="#63b8ff" stroke="#63b8ff" points="75.86,-199.43 79.47,-189.47 70.44,-195.01 75.86,-199.43"/>
</a>
</g>
</g>
<!-- Node3&#45;&gt;Node2 -->
<g id="edge3_Node000003_Node000002" class="edge">
<title>Node3&#45;&gt;Node2</title>
<g id="a_edge3_Node000003_Node000002"><a xlink:title=" ">
<path fill="none" stroke="#63b8ff" d="M84.33,-167.75C80.78,-158.69 75.31,-144.47 71,-132 58.87,-96.91 46.24,-55.55 39.02,-31.41"/>
<polygon fill="#63b8ff" stroke="#63b8ff" points="42.41,-30.51 36.21,-21.92 35.7,-32.51 42.41,-30.51"/>
</a>
</g>
</g>
<!-- Node4 -->
<g id="Node000004" class="node">
<title>Node4</title>
<g id="a_Node000004"><a xlink:href="compositeNode_8hpp.html" target="_top" xlink:title=" ">
<polygon fill="white" stroke="#666666" points="182.5,-132 79.5,-132 79.5,-112 182.5,-112 182.5,-132"/>
<text xml:space="preserve" text-anchor="middle" x="131" y="-118.5" font-family="Helvetica,sans-Serif" font-size="10.00">compositeNode.hpp</text>
</a>
</g>
</g>
<!-- Node3&#45;&gt;Node4 -->
<g id="edge4_Node000003_Node000004" class="edge">
<title>Node3&#45;&gt;Node4</title>
<g id="a_edge4_Node000003_Node000004"><a xlink:title=" ">
<path fill="none" stroke="#63b8ff" d="M95.49,-167.59C101.29,-160.32 109.49,-150.02 116.55,-141.15"/>
<polygon fill="#63b8ff" stroke="#63b8ff" points="119.16,-143.49 122.65,-133.48 113.69,-139.12 119.16,-143.49"/>
</a>
</g>
</g>
<!-- Node4&#45;&gt;Node2 -->
<g id="edge5_Node000004_Node000002" class="edge">
<title>Node4&#45;&gt;Node2</title>
<g id="a_edge5_Node000004_Node000002"><a xlink:title=" ">
<path fill="none" stroke="#63b8ff" d="M122.64,-111.62C106.3,-93.27 69.86,-52.37 48.82,-28.75"/>
<polygon fill="#63b8ff" stroke="#63b8ff" points="51.61,-26.62 42.34,-21.48 46.38,-31.28 51.61,-26.62"/>
</a>
</g>
</g>
<!-- Node5 -->
<g id="Node000005" class="node">
<title>Node5</title>
<g id="a_Node000005"><a xlink:href="knowledge_8hpp.html" target="_top" xlink:title=" ">
<polygon fill="white" stroke="#666666" points="185.62,-76 104.38,-76 104.38,-56 185.62,-56 185.62,-76"/>
<text xml:space="preserve" text-anchor="middle" x="145" y="-62.5" font-family="Helvetica,sans-Serif" font-size="10.00">knowledge.hpp</text>
</a>
</g>
</g>
<!-- Node4&#45;&gt;Node5 -->
<g id="edge6_Node000004_Node000005" class="edge">
<title>Node4&#45;&gt;Node5</title>
<g id="a_edge6_Node000004_Node000005"><a xlink:title=" ">
<path fill="none" stroke="#63b8ff" d="M133.44,-111.59C135.17,-104.93 137.55,-95.75 139.7,-87.44"/>
<polygon fill="#63b8ff" stroke="#63b8ff" points="143.09,-88.32 142.21,-77.76 136.31,-86.56 143.09,-88.32"/>
</a>
</g>
</g>
<!-- Node10 -->
<g id="Node000010" class="node">
<title>Node10</title>
<g id="a_Node000010"><a xlink:title=" ">
<polygon fill="#e0e0e0" stroke="#999999" points="354.5,-76 203.5,-76 203.5,-56 354.5,-56 354.5,-76"/>
<text xml:space="preserve" text-anchor="middle" x="279" y="-62.5" font-family="Helvetica,sans-Serif" font-size="10.00">enum/compositeNodeType.hpp</text>
</a>
</g>
</g>
<!-- Node4&#45;&gt;Node10 -->
<g id="edge12_Node000004_Node000010" class="edge">
<title>Node4&#45;&gt;Node10</title>
<g id="a_edge12_Node000004_Node000010"><a xlink:title=" ">
<path fill="none" stroke="#63b8ff" d="M156.78,-111.59C180.4,-102.97 215.64,-90.12 242.22,-80.42"/>
<polygon fill="#63b8ff" stroke="#63b8ff" points="243.4,-83.71 251.6,-77 241,-77.14 243.4,-83.71"/>
</a>
</g>
</g>
<!-- Node5&#45;&gt;Node2 -->
<g id="edge7_Node000005_Node000002" class="edge">
<title>Node5&#45;&gt;Node2</title>
<g id="a_edge7_Node000005_Node000002"><a xlink:title=" ">
<path fill="none" stroke="#63b8ff" d="M125.49,-55.59C108.25,-47.28 82.84,-35.03 63.01,-25.47"/>
<polygon fill="#63b8ff" stroke="#63b8ff" points="64.55,-22.33 54.02,-21.14 61.51,-28.63 64.55,-22.33"/>
</a>
</g>
</g>
<!-- Node6 -->
<g id="Node000006" class="node">
<title>Node6</title>
<g id="a_Node000006"><a xlink:title=" ">
<polygon fill="#e0e0e0" stroke="#999999" points="106.4,-20 77.6,-20 77.6,0 106.4,0 106.4,-20"/>
<text xml:space="preserve" text-anchor="middle" x="92" y="-6.5" font-family="Helvetica,sans-Serif" font-size="10.00">list</text>
</a>
</g>
</g>
<!-- Node5&#45;&gt;Node6 -->
<g id="edge8_Node000005_Node000006" class="edge">
<title>Node5&#45;&gt;Node6</title>
<g id="a_edge8_Node000005_Node000006"><a xlink:title=" ">
<path fill="none" stroke="#63b8ff" d="M135.77,-55.59C128.4,-48.08 117.87,-37.35 108.98,-28.3"/>
<polygon fill="#63b8ff" stroke="#63b8ff" points="111.69,-26.06 102.19,-21.38 106.69,-30.97 111.69,-26.06"/>
</a>
</g>
</g>
<!-- Node7 -->
<g id="Node000007" class="node">
<title>Node7</title>
<g id="a_Node000007"><a xlink:title=" ">
<polygon fill="#e0e0e0" stroke="#999999" points="175.62,-20 124.38,-20 124.38,0 175.62,0 175.62,-20"/>
<text xml:space="preserve" text-anchor="middle" x="150" y="-6.5" font-family="Helvetica,sans-Serif" font-size="10.00">memory</text>
</a>
</g>
</g>
<!-- Node5&#45;&gt;Node7 -->
<g id="edge9_Node000005_Node000007" class="edge">
<title>Node5&#45;&gt;Node7</title>
<g id="a_edge9_Node000005_Node000007"><a xlink:title=" ">
<path fill="none" stroke="#63b8ff" d="M145.87,-55.59C146.48,-49.01 147.32,-39.96 148.08,-31.73"/>
<polygon fill="#63b8ff" stroke="#63b8ff" points="151.56,-32.09 149,-21.81 144.59,-31.44 151.56,-32.09"/>
</a>
</g>
</g>
<!-- Node8 -->
<g id="Node000008" class="node">
<title>Node8</title>
<g id="a_Node000008"><a xlink:title=" ">
<polygon fill="#e0e0e0" stroke="#999999" points="284.12,-20 193.88,-20 193.88,0 284.12,0 284.12,-20"/>
<text xml:space="preserve" text-anchor="middle" x="239" y="-6.5" font-family="Helvetica,sans-Serif" font-size="10.00">model/model.hpp</text>
</a>
</g>
</g>
<!-- Node5&#45;&gt;Node8 -->
<g id="edge10_Node000005_Node000008" class="edge">
<title>Node5&#45;&gt;Node8</title>
<g id="a_edge10_Node000005_Node000008"><a xlink:title=" ">
<path fill="none" stroke="#63b8ff" d="M161.37,-55.59C175.57,-47.44 196.38,-35.48 212.88,-26"/>
<polygon fill="#63b8ff" stroke="#63b8ff" points="214.26,-29.25 221.19,-21.23 210.77,-23.18 214.26,-29.25"/>
</a>
</g>
</g>
<!-- Node9 -->
<g id="Node000009" class="node">
<title>Node9</title>
<g id="a_Node000009"><a xlink:title=" ">
<polygon fill="#e0e0e0" stroke="#999999" points="400.25,-20 301.75,-20 301.75,0 400.25,0 400.25,-20"/>
<text xml:space="preserve" text-anchor="middle" x="351" y="-6.5" font-family="Helvetica,sans-Serif" font-size="10.00">model/strategy.hpp</text>
</a>
</g>
</g>
<!-- Node5&#45;&gt;Node9 -->
<g id="edge11_Node000005_Node000009" class="edge">
<title>Node5&#45;&gt;Node9</title>
<g id="a_edge11_Node000005_Node000009"><a xlink:title=" ">
<path fill="none" stroke="#63b8ff" d="M180.88,-55.59C214.94,-46.67 266.33,-33.19 303.72,-23.39"/>
<polygon fill="#63b8ff" stroke="#63b8ff" points="304.59,-26.78 313.37,-20.86 302.81,-20.01 304.59,-26.78"/>
</a>
</g>
</g>
</g>
</svg>
