<?xml version="1.0" encoding="UTF-8" standalone="no"?>
<!DOCTYPE svg PUBLIC "-//W3C//DTD SVG 1.1//EN"
 "http://www.w3.org/Graphics/SVG/1.1/DTD/svg11.dtd">
<!-- Generated by graphviz version 13.1.0 (0)
 -->
<!-- Title: core/modularComponent.cpp Pages: 1 -->
<svg width="406pt" height="252pt"
 viewBox="0.00 0.00 406.00 252.00" xmlns="http://www.w3.org/2000/svg" xmlns:xlink="http://www.w3.org/1999/xlink">
<g id="graph0" class="graph" transform="scale(1 1) rotate(0) translate(4 248)">
<title>core/modularComponent.cpp</title>
<!-- Node1 -->
<g id="Node000001" class="node">
<title>Node1</title>
<g id="a_Node000001"><a xlink:title=" ">
<polygon fill="#999999" stroke="#666666" points="141.25,-244 0,-244 0,-224 141.25,-224 141.25,-244"/>
<text xml:space="preserve" text-anchor="middle" x="70.62" y="-230.5" font-family="Helvetica,sans-Serif" font-size="10.00">core/modularComponent.cpp</text>
</a>
</g>
</g>
<!-- Node2 -->
<g id="Node000002" class="node">
<title>Node2</title>
<g id="a_Node000002"><a xlink:href="modularComponent_8hpp.html" target="_top" xlink:title=" ">
<polygon fill="white" stroke="#666666" points="130.38,-188 10.87,-188 10.87,-168 130.38,-168 130.38,-188"/>
<text xml:space="preserve" text-anchor="middle" x="70.62" y="-174.5" font-family="Helvetica,sans-Serif" font-size="10.00">modularComponent.hpp</text>
</a>
</g>
</g>
<!-- Node1&#45;&gt;Node2 -->
<g id="edge1_Node000001_Node000002" class="edge">
<title>Node1&#45;&gt;Node2</title>
<g id="a_edge1_Node000001_Node000002"><a xlink:title=" ">
<path fill="none" stroke="#63b8ff" d="M70.62,-223.59C70.62,-217.01 70.62,-207.96 70.62,-199.73"/>
<polygon fill="#63b8ff" stroke="#63b8ff" points="74.13,-199.81 70.63,-189.81 67.13,-199.81 74.13,-199.81"/>
</a>
</g>
</g>
<!-- Node3 -->
<g id="Node000003" class="node">
<title>Node3</title>
<g id="a_Node000003"><a xlink:title=" ">
<polygon fill="#e0e0e0" stroke="#999999" points="57.38,-20 3.87,-20 3.87,0 57.38,0 57.38,-20"/>
<text xml:space="preserve" text-anchor="middle" x="30.62" y="-6.5" font-family="Helvetica,sans-Serif" font-size="10.00">iostream</text>
</a>
</g>
</g>
<!-- Node2&#45;&gt;Node3 -->
<g id="edge2_Node000002_Node000003" class="edge">
<title>Node2&#45;&gt;Node3</title>
<g id="a_edge2_Node000002_Node000003"><a xlink:title=" ">
<path fill="none" stroke="#63b8ff" d="M68.36,-167.6C62.06,-141.46 44.24,-67.48 35.53,-31.36"/>
<polygon fill="#63b8ff" stroke="#63b8ff" points="38.97,-30.67 33.22,-21.77 32.16,-32.31 38.97,-30.67"/>
</a>
</g>
</g>
<!-- Node4 -->
<g id="Node000004" class="node">
<title>Node4</title>
<g id="a_Node000004"><a xlink:href="compositeNode_8hpp.html" target="_top" xlink:title=" ">
<polygon fill="white" stroke="#666666" points="175.12,-132 72.12,-132 72.12,-112 175.12,-112 175.12,-132"/>
<text xml:space="preserve" text-anchor="middle" x="123.62" y="-118.5" font-family="Helvetica,sans-Serif" font-size="10.00">compositeNode.hpp</text>
</a>
</g>
</g>
<!-- Node2&#45;&gt;Node4 -->
<g id="edge3_Node000002_Node000004" class="edge">
<title>Node2&#45;&gt;Node4</title>
<g id="a_edge3_Node000002_Node000004"><a xlink:title=" ">
<path fill="none" stroke="#63b8ff" d="M79.86,-167.59C87.23,-160.08 97.76,-149.35 106.64,-140.3"/>
<polygon fill="#63b8ff" stroke="#63b8ff" points="108.93,-142.97 113.44,-133.38 103.94,-138.06 108.93,-142.97"/>
</a>
</g>
</g>
<!-- Node4&#45;&gt;Node3 -->
<g id="edge4_Node000004_Node000003" class="edge">
<title>Node4&#45;&gt;Node3</title>
<g id="a_edge4_Node000004_Node000003"><a xlink:title=" ">
<path fill="none" stroke="#63b8ff" d="M115.7,-111.62C100.25,-93.36 65.91,-52.73 45.9,-29.07"/>
<polygon fill="#63b8ff" stroke="#63b8ff" points="48.64,-26.89 39.51,-21.51 43.29,-31.41 48.64,-26.89"/>
</a>
</g>
</g>
<!-- Node5 -->
<g id="Node000005" class="node">
<title>Node5</title>
<g id="a_Node000005"><a xlink:href="knowledge_8hpp.html" target="_top" xlink:title=" ">
<polygon fill="white" stroke="#666666" points="178.25,-76 97,-76 97,-56 178.25,-56 178.25,-76"/>
<text xml:space="preserve" text-anchor="middle" x="137.62" y="-62.5" font-family="Helvetica,sans-Serif" font-size="10.00">knowledge.hpp</text>
</a>
</g>
</g>
<!-- Node4&#45;&gt;Node5 -->
<g id="edge5_Node000004_Node000005" class="edge">
<title>Node4&#45;&gt;Node5</title>
<g id="a_edge5_Node000004_Node000005"><a xlink:title=" ">
<path fill="none" stroke="#63b8ff" d="M126.06,-111.59C127.79,-104.93 130.17,-95.75 132.33,-87.44"/>
<polygon fill="#63b8ff" stroke="#63b8ff" points="135.71,-88.32 134.83,-77.76 128.94,-86.56 135.71,-88.32"/>
</a>
</g>
</g>
<!-- Node10 -->
<g id="Node000010" class="node">
<title>Node10</title>
<g id="a_Node000010"><a xlink:title=" ">
<polygon fill="#e0e0e0" stroke="#999999" points="347.12,-76 196.12,-76 196.12,-56 347.12,-56 347.12,-76"/>
<text xml:space="preserve" text-anchor="middle" x="271.62" y="-62.5" font-family="Helvetica,sans-Serif" font-size="10.00">enum/compositeNodeType.hpp</text>
</a>
</g>
</g>
<!-- Node4&#45;&gt;Node10 -->
<g id="edge11_Node000004_Node000010" class="edge">
<title>Node4&#45;&gt;Node10</title>
<g id="a_edge11_Node000004_Node000010"><a xlink:title=" ">
<path fill="none" stroke="#63b8ff" d="M149.4,-111.59C173.03,-102.97 208.27,-90.12 234.84,-80.42"/>
<polygon fill="#63b8ff" stroke="#63b8ff" points="236.03,-83.71 244.22,-77 233.63,-77.14 236.03,-83.71"/>
</a>
</g>
</g>
<!-- Node5&#45;&gt;Node3 -->
<g id="edge6_Node000005_Node000003" class="edge">
<title>Node5&#45;&gt;Node3</title>
<g id="a_edge6_Node000005_Node000003"><a xlink:title=" ">
<path fill="none" stroke="#63b8ff" d="M118.99,-55.59C102.59,-47.32 78.47,-35.14 59.56,-25.6"/>
<polygon fill="#63b8ff" stroke="#63b8ff" points="61.26,-22.54 50.76,-21.16 58.11,-28.79 61.26,-22.54"/>
</a>
</g>
</g>
<!-- Node6 -->
<g id="Node000006" class="node">
<title>Node6</title>
<g id="a_Node000006"><a xlink:title=" ">
<polygon fill="#e0e0e0" stroke="#999999" points="104.03,-20 75.22,-20 75.22,0 104.03,0 104.03,-20"/>
<text xml:space="preserve" text-anchor="middle" x="89.62" y="-6.5" font-family="Helvetica,sans-Serif" font-size="10.00">list</text>
</a>
</g>
</g>
<!-- Node5&#45;&gt;Node6 -->
<g id="edge7_Node000005_Node000006" class="edge">
<title>Node5&#45;&gt;Node6</title>
<g id="a_edge7_Node000005_Node000006"><a xlink:title=" ">
<path fill="none" stroke="#63b8ff" d="M129.26,-55.59C122.73,-48.24 113.44,-37.8 105.51,-28.87"/>
<polygon fill="#63b8ff" stroke="#63b8ff" points="108.16,-26.58 98.9,-21.43 102.92,-31.23 108.16,-26.58"/>
</a>
</g>
</g>
<!-- Node7 -->
<g id="Node000007" class="node">
<title>Node7</title>
<g id="a_Node000007"><a xlink:title=" ">
<polygon fill="#e0e0e0" stroke="#999999" points="173.25,-20 122,-20 122,0 173.25,0 173.25,-20"/>
<text xml:space="preserve" text-anchor="middle" x="147.62" y="-6.5" font-family="Helvetica,sans-Serif" font-size="10.00">memory</text>
</a>
</g>
</g>
<!-- Node5&#45;&gt;Node7 -->
<g id="edge8_Node000005_Node000007" class="edge">
<title>Node5&#45;&gt;Node7</title>
<g id="a_edge8_Node000005_Node000007"><a xlink:title=" ">
<path fill="none" stroke="#63b8ff" d="M139.37,-55.59C140.6,-48.93 142.3,-39.75 143.84,-31.44"/>
<polygon fill="#63b8ff" stroke="#63b8ff" points="147.25,-32.26 145.63,-21.79 140.37,-30.98 147.25,-32.26"/>
</a>
</g>
</g>
<!-- Node8 -->
<g id="Node000008" class="node">
<title>Node8</title>
<g id="a_Node000008"><a xlink:title=" ">
<polygon fill="#e0e0e0" stroke="#999999" points="281.75,-20 191.5,-20 191.5,0 281.75,0 281.75,-20"/>
<text xml:space="preserve" text-anchor="middle" x="236.62" y="-6.5" font-family="Helvetica,sans-Serif" font-size="10.00">model/model.hpp</text>
</a>
</g>
</g>
<!-- Node5&#45;&gt;Node8 -->
<g id="edge9_Node000005_Node000008" class="edge">
<title>Node5&#45;&gt;Node8</title>
<g id="a_edge9_Node000005_Node000008"><a xlink:title=" ">
<path fill="none" stroke="#63b8ff" d="M154.87,-55.59C169.97,-47.36 192.15,-35.26 209.61,-25.74"/>
<polygon fill="#63b8ff" stroke="#63b8ff" points="210.81,-29.07 217.92,-21.2 207.46,-22.92 210.81,-29.07"/>
</a>
</g>
</g>
<!-- Node9 -->
<g id="Node000009" class="node">
<title>Node9</title>
<g id="a_Node000009"><a xlink:title=" ">
<polygon fill="#e0e0e0" stroke="#999999" points="397.88,-20 299.38,-20 299.38,0 397.88,0 397.88,-20"/>
<text xml:space="preserve" text-anchor="middle" x="348.62" y="-6.5" font-family="Helvetica,sans-Serif" font-size="10.00">model/strategy.hpp</text>
</a>
</g>
</g>
<!-- Node5&#45;&gt;Node9 -->
<g id="edge10_Node000005_Node000009" class="edge">
<title>Node5&#45;&gt;Node9</title>
<g id="a_edge10_Node000005_Node000009"><a xlink:title=" ">
<path fill="none" stroke="#63b8ff" d="M174.38,-55.59C209.41,-46.63 262.36,-33.08 300.69,-23.27"/>
<polygon fill="#63b8ff" stroke="#63b8ff" points="301.3,-26.72 310.12,-20.85 299.56,-19.94 301.3,-26.72"/>
</a>
</g>
</g>
</g>
</svg>
