<?xml version="1.0" encoding="UTF-8" standalone="no"?>
<!DOCTYPE svg PUBLIC "-//W3C//DTD SVG 1.1//EN"
 "http://www.w3.org/Graphics/SVG/1.1/DTD/svg11.dtd">
<!-- Generated by graphviz version 13.1.0 (0)
 -->
<!-- Title: core/monitor.cpp Pages: 1 -->
<svg width="541pt" height="308pt"
 viewBox="0.00 0.00 541.00 308.00" xmlns="http://www.w3.org/2000/svg" xmlns:xlink="http://www.w3.org/1999/xlink">
<g id="graph0" class="graph" transform="scale(1 1) rotate(0) translate(4 304)">
<title>core/monitor.cpp</title>
<!-- Node1 -->
<g id="Node000001" class="node">
<title>Node1</title>
<g id="a_Node000001"><a xlink:title=" ">
<polygon fill="#999999" stroke="#666666" points="88.75,-300 0,-300 0,-280 88.75,-280 88.75,-300"/>
<text xml:space="preserve" text-anchor="middle" x="44.38" y="-286.5" font-family="Helvetica,sans-Serif" font-size="10.00">core/monitor.cpp</text>
</a>
</g>
</g>
<!-- Node2 -->
<g id="Node000002" class="node">
<title>Node2</title>
<g id="a_Node000002"><a xlink:href="monitor_8hpp.html" target="_top" xlink:title=" ">
<polygon fill="white" stroke="#666666" points="77.88,-244 10.88,-244 10.88,-224 77.88,-224 77.88,-244"/>
<text xml:space="preserve" text-anchor="middle" x="44.38" y="-230.5" font-family="Helvetica,sans-Serif" font-size="10.00">monitor.hpp</text>
</a>
</g>
</g>
<!-- Node1&#45;&gt;Node2 -->
<g id="edge1_Node000001_Node000002" class="edge">
<title>Node1&#45;&gt;Node2</title>
<g id="a_edge1_Node000001_Node000002"><a xlink:title=" ">
<path fill="none" stroke="#63b8ff" d="M44.38,-279.59C44.38,-273.01 44.38,-263.96 44.38,-255.73"/>
<polygon fill="#63b8ff" stroke="#63b8ff" points="47.88,-255.81 44.38,-245.81 40.88,-255.81 47.88,-255.81"/>
</a>
</g>
</g>
<!-- Node3 -->
<g id="Node000003" class="node">
<title>Node3</title>
<g id="a_Node000003"><a xlink:title=" ">
<polygon fill="#e0e0e0" stroke="#999999" points="97.12,-20 43.62,-20 43.62,0 97.12,0 97.12,-20"/>
<text xml:space="preserve" text-anchor="middle" x="70.38" y="-6.5" font-family="Helvetica,sans-Serif" font-size="10.00">iostream</text>
</a>
</g>
</g>
<!-- Node2&#45;&gt;Node3 -->
<g id="edge2_Node000002_Node000003" class="edge">
<title>Node2&#45;&gt;Node3</title>
<g id="a_edge2_Node000002_Node000003"><a xlink:title=" ">
<path fill="none" stroke="#63b8ff" d="M45.46,-223.74C49.32,-190.74 62.49,-78.31 67.96,-31.61"/>
<polygon fill="#63b8ff" stroke="#63b8ff" points="71.42,-32.14 69.11,-21.8 64.47,-31.32 71.42,-32.14"/>
</a>
</g>
</g>
<!-- Node4 -->
<g id="Node000004" class="node">
<title>Node4</title>
<g id="a_Node000004"><a xlink:href="element_8hpp.html" target="_top" xlink:title=" ">
<polygon fill="white" stroke="#666666" points="138,-188 68.75,-188 68.75,-168 138,-168 138,-188"/>
<text xml:space="preserve" text-anchor="middle" x="103.38" y="-174.5" font-family="Helvetica,sans-Serif" font-size="10.00">element.hpp</text>
</a>
</g>
</g>
<!-- Node2&#45;&gt;Node4 -->
<g id="edge3_Node000002_Node000004" class="edge">
<title>Node2&#45;&gt;Node4</title>
<g id="a_edge3_Node000002_Node000004"><a xlink:title=" ">
<path fill="none" stroke="#63b8ff" d="M54.65,-223.59C62.94,-216.01 74.82,-205.13 84.78,-196.02"/>
<polygon fill="#63b8ff" stroke="#63b8ff" points="87.09,-198.65 92.1,-189.32 82.36,-193.49 87.09,-198.65"/>
</a>
</g>
</g>
<!-- Node4&#45;&gt;Node3 -->
<g id="edge4_Node000004_Node000003" class="edge">
<title>Node4&#45;&gt;Node3</title>
<g id="a_edge4_Node000004_Node000003"><a xlink:title=" ">
<path fill="none" stroke="#63b8ff" d="M101.51,-167.6C96.31,-141.46 81.6,-67.48 74.42,-31.36"/>
<polygon fill="#63b8ff" stroke="#63b8ff" points="77.9,-30.91 72.52,-21.78 71.04,-32.27 77.9,-30.91"/>
</a>
</g>
</g>
<!-- Node5 -->
<g id="Node000005" class="node">
<title>Node5</title>
<g id="a_Node000005"><a xlink:href="compositeNode_8hpp.html" target="_top" xlink:title=" ">
<polygon fill="white" stroke="#666666" points="213.88,-132 110.88,-132 110.88,-112 213.88,-112 213.88,-132"/>
<text xml:space="preserve" text-anchor="middle" x="162.38" y="-118.5" font-family="Helvetica,sans-Serif" font-size="10.00">compositeNode.hpp</text>
</a>
</g>
</g>
<!-- Node4&#45;&gt;Node5 -->
<g id="edge5_Node000004_Node000005" class="edge">
<title>Node4&#45;&gt;Node5</title>
<g id="a_edge5_Node000004_Node000005"><a xlink:title=" ">
<path fill="none" stroke="#63b8ff" d="M113.65,-167.59C121.94,-160.01 133.82,-149.13 143.78,-140.02"/>
<polygon fill="#63b8ff" stroke="#63b8ff" points="146.09,-142.65 151.1,-133.32 141.36,-137.49 146.09,-142.65"/>
</a>
</g>
</g>
<!-- Node6 -->
<g id="Node000006" class="node">
<title>Node6</title>
<g id="a_Node000006"><a xlink:href="knowledge_8hpp.html" target="_top" xlink:title=" ">
<polygon fill="white" stroke="#666666" points="368,-76 286.75,-76 286.75,-56 368,-56 368,-76"/>
<text xml:space="preserve" text-anchor="middle" x="327.38" y="-62.5" font-family="Helvetica,sans-Serif" font-size="10.00">knowledge.hpp</text>
</a>
</g>
</g>
<!-- Node4&#45;&gt;Node6 -->
<g id="edge14_Node000004_Node000006" class="edge">
<title>Node4&#45;&gt;Node6</title>
<g id="a_edge14_Node000004_Node000006"><a xlink:title=" ">
<path fill="none" stroke="#63b8ff" d="M133.66,-167.52C158.35,-159.34 193.85,-146.58 223.38,-132 252.77,-117.48 284.43,-96.91 305,-82.82"/>
<polygon fill="#63b8ff" stroke="#63b8ff" points="306.94,-85.74 313.16,-77.16 302.95,-79.98 306.94,-85.74"/>
</a>
</g>
</g>
<!-- Node5&#45;&gt;Node3 -->
<g id="edge6_Node000005_Node000003" class="edge">
<title>Node5&#45;&gt;Node3</title>
<g id="a_edge6_Node000005_Node000003"><a xlink:title=" ">
<path fill="none" stroke="#63b8ff" d="M149.12,-111.68C137.7,-103.23 121.25,-89.99 109.38,-76 97.53,-62.05 87.05,-44.07 79.94,-30.56"/>
<polygon fill="#63b8ff" stroke="#63b8ff" points="83.14,-29.13 75.49,-21.8 76.9,-32.3 83.14,-29.13"/>
</a>
</g>
</g>
<!-- Node5&#45;&gt;Node6 -->
<g id="edge7_Node000005_Node000006" class="edge">
<title>Node5&#45;&gt;Node6</title>
<g id="a_edge7_Node000005_Node000006"><a xlink:title=" ">
<path fill="none" stroke="#63b8ff" d="M191.12,-111.59C217.81,-102.86 257.79,-89.77 287.55,-80.03"/>
<polygon fill="#63b8ff" stroke="#63b8ff" points="288.56,-83.39 296.97,-76.95 286.38,-76.73 288.56,-83.39"/>
</a>
</g>
</g>
<!-- Node11 -->
<g id="Node000011" class="node">
<title>Node11</title>
<g id="a_Node000011"><a xlink:title=" ">
<polygon fill="#e0e0e0" stroke="#999999" points="268.88,-76 117.88,-76 117.88,-56 268.88,-56 268.88,-76"/>
<text xml:space="preserve" text-anchor="middle" x="193.38" y="-62.5" font-family="Helvetica,sans-Serif" font-size="10.00">enum/compositeNodeType.hpp</text>
</a>
</g>
</g>
<!-- Node5&#45;&gt;Node11 -->
<g id="edge13_Node000005_Node000011" class="edge">
<title>Node5&#45;&gt;Node11</title>
<g id="a_edge13_Node000005_Node000011"><a xlink:title=" ">
<path fill="none" stroke="#63b8ff" d="M167.77,-111.59C171.82,-104.55 177.49,-94.67 182.47,-86"/>
<polygon fill="#63b8ff" stroke="#63b8ff" points="185.34,-88.03 187.28,-77.61 179.27,-84.54 185.34,-88.03"/>
</a>
</g>
</g>
<!-- Node6&#45;&gt;Node3 -->
<g id="edge8_Node000006_Node000003" class="edge">
<title>Node6&#45;&gt;Node3</title>
<g id="a_edge8_Node000006_Node000003"><a xlink:title=" ">
<path fill="none" stroke="#63b8ff" d="M286.37,-56.38C237.4,-46.1 156.16,-29.03 108.51,-19.01"/>
<polygon fill="#63b8ff" stroke="#63b8ff" points="109.43,-15.63 98.92,-17 107.99,-22.48 109.43,-15.63"/>
</a>
</g>
</g>
<!-- Node7 -->
<g id="Node000007" class="node">
<title>Node7</title>
<g id="a_Node000007"><a xlink:title=" ">
<polygon fill="#e0e0e0" stroke="#999999" points="238.78,-20 209.97,-20 209.97,0 238.78,0 238.78,-20"/>
<text xml:space="preserve" text-anchor="middle" x="224.38" y="-6.5" font-family="Helvetica,sans-Serif" font-size="10.00">list</text>
</a>
</g>
</g>
<!-- Node6&#45;&gt;Node7 -->
<g id="edge9_Node000006_Node000007" class="edge">
<title>Node6&#45;&gt;Node7</title>
<g id="a_edge9_Node000006_Node000007"><a xlink:title=" ">
<path fill="none" stroke="#63b8ff" d="M309.43,-55.59C292.76,-46.85 267.78,-33.76 249.2,-24.02"/>
<polygon fill="#63b8ff" stroke="#63b8ff" points="250.93,-20.97 240.45,-19.43 247.68,-27.17 250.93,-20.97"/>
</a>
</g>
</g>
<!-- Node8 -->
<g id="Node000008" class="node">
<title>Node8</title>
<g id="a_Node000008"><a xlink:title=" ">
<polygon fill="#e0e0e0" stroke="#999999" points="308,-20 256.75,-20 256.75,0 308,0 308,-20"/>
<text xml:space="preserve" text-anchor="middle" x="282.38" y="-6.5" font-family="Helvetica,sans-Serif" font-size="10.00">memory</text>
</a>
</g>
</g>
<!-- Node6&#45;&gt;Node8 -->
<g id="edge10_Node000006_Node000008" class="edge">
<title>Node6&#45;&gt;Node8</title>
<g id="a_edge10_Node000006_Node000008"><a xlink:title=" ">
<path fill="none" stroke="#63b8ff" d="M319.54,-55.59C313.41,-48.24 304.7,-37.8 297.26,-28.87"/>
<polygon fill="#63b8ff" stroke="#63b8ff" points="300.18,-26.9 291.09,-21.46 294.81,-31.38 300.18,-26.9"/>
</a>
</g>
</g>
<!-- Node9 -->
<g id="Node000009" class="node">
<title>Node9</title>
<g id="a_Node000009"><a xlink:title=" ">
<polygon fill="#e0e0e0" stroke="#999999" points="416.5,-20 326.25,-20 326.25,0 416.5,0 416.5,-20"/>
<text xml:space="preserve" text-anchor="middle" x="371.38" y="-6.5" font-family="Helvetica,sans-Serif" font-size="10.00">model/model.hpp</text>
</a>
</g>
</g>
<!-- Node6&#45;&gt;Node9 -->
<g id="edge11_Node000006_Node000009" class="edge">
<title>Node6&#45;&gt;Node9</title>
<g id="a_edge11_Node000006_Node000009"><a xlink:title=" ">
<path fill="none" stroke="#63b8ff" d="M335.04,-55.59C340.97,-48.32 349.36,-38.02 356.59,-29.15"/>
<polygon fill="#63b8ff" stroke="#63b8ff" points="359.24,-31.43 362.84,-21.47 353.81,-27.01 359.24,-31.43"/>
</a>
</g>
</g>
<!-- Node10 -->
<g id="Node000010" class="node">
<title>Node10</title>
<g id="a_Node000010"><a xlink:title=" ">
<polygon fill="#e0e0e0" stroke="#999999" points="532.62,-20 434.12,-20 434.12,0 532.62,0 532.62,-20"/>
<text xml:space="preserve" text-anchor="middle" x="483.38" y="-6.5" font-family="Helvetica,sans-Serif" font-size="10.00">model/strategy.hpp</text>
</a>
</g>
</g>
<!-- Node6&#45;&gt;Node10 -->
<g id="edge12_Node000006_Node000010" class="edge">
<title>Node6&#45;&gt;Node10</title>
<g id="a_edge12_Node000006_Node000010"><a xlink:title=" ">
<path fill="none" stroke="#63b8ff" d="M354.55,-55.59C379.67,-46.9 417.26,-33.89 445.35,-24.16"/>
<polygon fill="#63b8ff" stroke="#63b8ff" points="446.25,-27.55 454.56,-20.97 443.96,-20.94 446.25,-27.55"/>
</a>
</g>
</g>
</g>
</svg>
