<?xml version="1.0" encoding="UTF-8" standalone="no"?>
<!DOCTYPE svg PUBLIC "-//W3C//DTD SVG 1.1//EN"
 "http://www.w3.org/Graphics/SVG/1.1/DTD/svg11.dtd">
<!-- Generated by graphviz version 13.1.0 (0)
 -->
<!-- Title: core/planner.cpp Pages: 1 -->
<svg width="540pt" height="308pt"
 viewBox="0.00 0.00 540.00 308.00" xmlns="http://www.w3.org/2000/svg" xmlns:xlink="http://www.w3.org/1999/xlink">
<g id="graph0" class="graph" transform="scale(1 1) rotate(0) translate(4 304)">
<title>core/planner.cpp</title>
<!-- Node1 -->
<g id="Node000001" class="node">
<title>Node1</title>
<g id="a_Node000001"><a xlink:title=" ">
<polygon fill="#999999" stroke="#666666" points="88,-300 0,-300 0,-280 88,-280 88,-300"/>
<text xml:space="preserve" text-anchor="middle" x="44" y="-286.5" font-family="Helvetica,sans-Serif" font-size="10.00">core/planner.cpp</text>
</a>
</g>
</g>
<!-- Node2 -->
<g id="Node000002" class="node">
<title>Node2</title>
<g id="a_Node000002"><a xlink:href="planner_8hpp.html" target="_top" xlink:title=" ">
<polygon fill="white" stroke="#666666" points="77.12,-244 10.88,-244 10.88,-224 77.12,-224 77.12,-244"/>
<text xml:space="preserve" text-anchor="middle" x="44" y="-230.5" font-family="Helvetica,sans-Serif" font-size="10.00">planner.hpp</text>
</a>
</g>
</g>
<!-- Node1&#45;&gt;Node2 -->
<g id="edge1_Node000001_Node000002" class="edge">
<title>Node1&#45;&gt;Node2</title>
<g id="a_edge1_Node000001_Node000002"><a xlink:title=" ">
<path fill="none" stroke="#63b8ff" d="M44,-279.59C44,-273.01 44,-263.96 44,-255.73"/>
<polygon fill="#63b8ff" stroke="#63b8ff" points="47.5,-255.81 44,-245.81 40.5,-255.81 47.5,-255.81"/>
</a>
</g>
</g>
<!-- Node3 -->
<g id="Node000003" class="node">
<title>Node3</title>
<g id="a_Node000003"><a xlink:title=" ">
<polygon fill="#e0e0e0" stroke="#999999" points="96.75,-20 43.25,-20 43.25,0 96.75,0 96.75,-20"/>
<text xml:space="preserve" text-anchor="middle" x="70" y="-6.5" font-family="Helvetica,sans-Serif" font-size="10.00">iostream</text>
</a>
</g>
</g>
<!-- Node2&#45;&gt;Node3 -->
<g id="edge2_Node000002_Node000003" class="edge">
<title>Node2&#45;&gt;Node3</title>
<g id="a_edge2_Node000002_Node000003"><a xlink:title=" ">
<path fill="none" stroke="#63b8ff" d="M45.08,-223.74C48.95,-190.74 62.12,-78.31 67.59,-31.61"/>
<polygon fill="#63b8ff" stroke="#63b8ff" points="71.05,-32.14 68.74,-21.8 64.1,-31.32 71.05,-32.14"/>
</a>
</g>
</g>
<!-- Node4 -->
<g id="Node000004" class="node">
<title>Node4</title>
<g id="a_Node000004"><a xlink:href="element_8hpp.html" target="_top" xlink:title=" ">
<polygon fill="white" stroke="#666666" points="137.62,-188 68.38,-188 68.38,-168 137.62,-168 137.62,-188"/>
<text xml:space="preserve" text-anchor="middle" x="103" y="-174.5" font-family="Helvetica,sans-Serif" font-size="10.00">element.hpp</text>
</a>
</g>
</g>
<!-- Node2&#45;&gt;Node4 -->
<g id="edge3_Node000002_Node000004" class="edge">
<title>Node2&#45;&gt;Node4</title>
<g id="a_edge3_Node000002_Node000004"><a xlink:title=" ">
<path fill="none" stroke="#63b8ff" d="M54.28,-223.59C62.57,-216.01 74.45,-205.13 84.4,-196.02"/>
<polygon fill="#63b8ff" stroke="#63b8ff" points="86.71,-198.65 91.72,-189.32 81.98,-193.49 86.71,-198.65"/>
</a>
</g>
</g>
<!-- Node4&#45;&gt;Node3 -->
<g id="edge4_Node000004_Node000003" class="edge">
<title>Node4&#45;&gt;Node3</title>
<g id="a_edge4_Node000004_Node000003"><a xlink:title=" ">
<path fill="none" stroke="#63b8ff" d="M101.13,-167.6C95.94,-141.46 81.23,-67.48 74.05,-31.36"/>
<polygon fill="#63b8ff" stroke="#63b8ff" points="77.53,-30.91 72.14,-21.78 70.66,-32.27 77.53,-30.91"/>
</a>
</g>
</g>
<!-- Node5 -->
<g id="Node000005" class="node">
<title>Node5</title>
<g id="a_Node000005"><a xlink:href="compositeNode_8hpp.html" target="_top" xlink:title=" ">
<polygon fill="white" stroke="#666666" points="213.5,-132 110.5,-132 110.5,-112 213.5,-112 213.5,-132"/>
<text xml:space="preserve" text-anchor="middle" x="162" y="-118.5" font-family="Helvetica,sans-Serif" font-size="10.00">compositeNode.hpp</text>
</a>
</g>
</g>
<!-- Node4&#45;&gt;Node5 -->
<g id="edge5_Node000004_Node000005" class="edge">
<title>Node4&#45;&gt;Node5</title>
<g id="a_edge5_Node000004_Node000005"><a xlink:title=" ">
<path fill="none" stroke="#63b8ff" d="M113.28,-167.59C121.57,-160.01 133.45,-149.13 143.4,-140.02"/>
<polygon fill="#63b8ff" stroke="#63b8ff" points="145.71,-142.65 150.72,-133.32 140.98,-137.49 145.71,-142.65"/>
</a>
</g>
</g>
<!-- Node6 -->
<g id="Node000006" class="node">
<title>Node6</title>
<g id="a_Node000006"><a xlink:href="knowledge_8hpp.html" target="_top" xlink:title=" ">
<polygon fill="white" stroke="#666666" points="367.62,-76 286.38,-76 286.38,-56 367.62,-56 367.62,-76"/>
<text xml:space="preserve" text-anchor="middle" x="327" y="-62.5" font-family="Helvetica,sans-Serif" font-size="10.00">knowledge.hpp</text>
</a>
</g>
</g>
<!-- Node4&#45;&gt;Node6 -->
<g id="edge14_Node000004_Node000006" class="edge">
<title>Node4&#45;&gt;Node6</title>
<g id="a_edge14_Node000004_Node000006"><a xlink:title=" ">
<path fill="none" stroke="#63b8ff" d="M133.29,-167.52C157.98,-159.34 193.47,-146.58 223,-132 252.4,-117.48 284.06,-96.91 304.62,-82.82"/>
<polygon fill="#63b8ff" stroke="#63b8ff" points="306.56,-85.74 312.79,-77.16 302.57,-79.98 306.56,-85.74"/>
</a>
</g>
</g>
<!-- Node5&#45;&gt;Node3 -->
<g id="edge6_Node000005_Node000003" class="edge">
<title>Node5&#45;&gt;Node3</title>
<g id="a_edge6_Node000005_Node000003"><a xlink:title=" ">
<path fill="none" stroke="#63b8ff" d="M148.74,-111.68C137.33,-103.23 120.87,-89.99 109,-76 97.16,-62.05 86.67,-44.07 79.57,-30.56"/>
<polygon fill="#63b8ff" stroke="#63b8ff" points="82.77,-29.13 75.12,-21.8 76.52,-32.3 82.77,-29.13"/>
</a>
</g>
</g>
<!-- Node5&#45;&gt;Node6 -->
<g id="edge7_Node000005_Node000006" class="edge">
<title>Node5&#45;&gt;Node6</title>
<g id="a_edge7_Node000005_Node000006"><a xlink:title=" ">
<path fill="none" stroke="#63b8ff" d="M190.74,-111.59C217.43,-102.86 257.42,-89.77 287.18,-80.03"/>
<polygon fill="#63b8ff" stroke="#63b8ff" points="288.18,-83.39 296.6,-76.95 286,-76.73 288.18,-83.39"/>
</a>
</g>
</g>
<!-- Node11 -->
<g id="Node000011" class="node">
<title>Node11</title>
<g id="a_Node000011"><a xlink:title=" ">
<polygon fill="#e0e0e0" stroke="#999999" points="268.5,-76 117.5,-76 117.5,-56 268.5,-56 268.5,-76"/>
<text xml:space="preserve" text-anchor="middle" x="193" y="-62.5" font-family="Helvetica,sans-Serif" font-size="10.00">enum/compositeNodeType.hpp</text>
</a>
</g>
</g>
<!-- Node5&#45;&gt;Node11 -->
<g id="edge13_Node000005_Node000011" class="edge">
<title>Node5&#45;&gt;Node11</title>
<g id="a_edge13_Node000005_Node000011"><a xlink:title=" ">
<path fill="none" stroke="#63b8ff" d="M167.4,-111.59C171.44,-104.55 177.12,-94.67 182.09,-86"/>
<polygon fill="#63b8ff" stroke="#63b8ff" points="184.97,-88.03 186.91,-77.61 178.89,-84.54 184.97,-88.03"/>
</a>
</g>
</g>
<!-- Node6&#45;&gt;Node3 -->
<g id="edge8_Node000006_Node000003" class="edge">
<title>Node6&#45;&gt;Node3</title>
<g id="a_edge8_Node000006_Node000003"><a xlink:title=" ">
<path fill="none" stroke="#63b8ff" d="M285.99,-56.38C237.03,-46.1 155.79,-29.03 108.13,-19.01"/>
<polygon fill="#63b8ff" stroke="#63b8ff" points="109.05,-15.63 98.55,-17 107.61,-22.48 109.05,-15.63"/>
</a>
</g>
</g>
<!-- Node7 -->
<g id="Node000007" class="node">
<title>Node7</title>
<g id="a_Node000007"><a xlink:title=" ">
<polygon fill="#e0e0e0" stroke="#999999" points="238.4,-20 209.6,-20 209.6,0 238.4,0 238.4,-20"/>
<text xml:space="preserve" text-anchor="middle" x="224" y="-6.5" font-family="Helvetica,sans-Serif" font-size="10.00">list</text>
</a>
</g>
</g>
<!-- Node6&#45;&gt;Node7 -->
<g id="edge9_Node000006_Node000007" class="edge">
<title>Node6&#45;&gt;Node7</title>
<g id="a_edge9_Node000006_Node000007"><a xlink:title=" ">
<path fill="none" stroke="#63b8ff" d="M309.06,-55.59C292.39,-46.85 267.41,-33.76 248.83,-24.02"/>
<polygon fill="#63b8ff" stroke="#63b8ff" points="250.56,-20.97 240.08,-19.43 247.31,-27.17 250.56,-20.97"/>
</a>
</g>
</g>
<!-- Node8 -->
<g id="Node000008" class="node">
<title>Node8</title>
<g id="a_Node000008"><a xlink:title=" ">
<polygon fill="#e0e0e0" stroke="#999999" points="307.62,-20 256.38,-20 256.38,0 307.62,0 307.62,-20"/>
<text xml:space="preserve" text-anchor="middle" x="282" y="-6.5" font-family="Helvetica,sans-Serif" font-size="10.00">memory</text>
</a>
</g>
</g>
<!-- Node6&#45;&gt;Node8 -->
<g id="edge10_Node000006_Node000008" class="edge">
<title>Node6&#45;&gt;Node8</title>
<g id="a_edge10_Node000006_Node000008"><a xlink:title=" ">
<path fill="none" stroke="#63b8ff" d="M319.16,-55.59C313.03,-48.24 304.33,-37.8 296.89,-28.87"/>
<polygon fill="#63b8ff" stroke="#63b8ff" points="299.81,-26.9 290.72,-21.46 294.43,-31.38 299.81,-26.9"/>
</a>
</g>
</g>
<!-- Node9 -->
<g id="Node000009" class="node">
<title>Node9</title>
<g id="a_Node000009"><a xlink:title=" ">
<polygon fill="#e0e0e0" stroke="#999999" points="416.12,-20 325.88,-20 325.88,0 416.12,0 416.12,-20"/>
<text xml:space="preserve" text-anchor="middle" x="371" y="-6.5" font-family="Helvetica,sans-Serif" font-size="10.00">model/model.hpp</text>
</a>
</g>
</g>
<!-- Node6&#45;&gt;Node9 -->
<g id="edge11_Node000006_Node000009" class="edge">
<title>Node6&#45;&gt;Node9</title>
<g id="a_edge11_Node000006_Node000009"><a xlink:title=" ">
<path fill="none" stroke="#63b8ff" d="M334.66,-55.59C340.59,-48.32 348.99,-38.02 356.21,-29.15"/>
<polygon fill="#63b8ff" stroke="#63b8ff" points="358.86,-31.43 362.47,-21.47 353.44,-27.01 358.86,-31.43"/>
</a>
</g>
</g>
<!-- Node10 -->
<g id="Node000010" class="node">
<title>Node10</title>
<g id="a_Node000010"><a xlink:title=" ">
<polygon fill="#e0e0e0" stroke="#999999" points="532.25,-20 433.75,-20 433.75,0 532.25,0 532.25,-20"/>
<text xml:space="preserve" text-anchor="middle" x="483" y="-6.5" font-family="Helvetica,sans-Serif" font-size="10.00">model/strategy.hpp</text>
</a>
</g>
</g>
<!-- Node6&#45;&gt;Node10 -->
<g id="edge12_Node000006_Node000010" class="edge">
<title>Node6&#45;&gt;Node10</title>
<g id="a_edge12_Node000006_Node000010"><a xlink:title=" ">
<path fill="none" stroke="#63b8ff" d="M354.17,-55.59C379.3,-46.9 416.88,-33.89 444.98,-24.16"/>
<polygon fill="#63b8ff" stroke="#63b8ff" points="445.88,-27.55 454.18,-20.97 443.59,-20.94 445.88,-27.55"/>
</a>
</g>
</g>
</g>
</svg>
