<?xml version="1.0" encoding="UTF-8" standalone="no"?>
<!DOCTYPE svg PUBLIC "-//W3C//DTD SVG 1.1//EN"
 "http://www.w3.org/Graphics/SVG/1.1/DTD/svg11.dtd">
<!-- Generated by graphviz version 13.1.0 (0)
 -->
<!-- Title: core/planner.hpp Pages: 1 -->
<svg width="299pt" height="140pt"
 viewBox="0.00 0.00 299.00 140.00" xmlns="http://www.w3.org/2000/svg" xmlns:xlink="http://www.w3.org/1999/xlink">
<g id="graph0" class="graph" transform="scale(1 1) rotate(0) translate(4 136)">
<title>core/planner.hpp</title>
<!-- Node1 -->
<g id="Node000001" class="node">
<title>Node1</title>
<g id="a_Node000001"><a xlink:title=" ">
<polygon fill="#999999" stroke="#666666" points="229.38,-132 141.38,-132 141.38,-112 229.38,-112 229.38,-132"/>
<text xml:space="preserve" text-anchor="middle" x="185.38" y="-118.5" font-family="Helvetica,sans-Serif" font-size="10.00">core/planner.hpp</text>
</a>
</g>
</g>
<!-- Node2 -->
<g id="Node000002" class="node">
<title>Node2</title>
<g id="a_Node000002"><a xlink:href="loopComponent_8hpp.html" target="_top" xlink:title=" ">
<polygon fill="white" stroke="#666666" points="185.75,-76 61,-76 61,-56 185.75,-56 185.75,-76"/>
<text xml:space="preserve" text-anchor="middle" x="123.38" y="-62.5" font-family="Helvetica,sans-Serif" font-size="10.00">core/loopComponent.hpp</text>
</a>
</g>
</g>
<!-- Node1&#45;&gt;Node2 -->
<g id="edge1_Node000001_Node000002" class="edge">
<title>Node1&#45;&gt;Node2</title>
<g id="a_edge1_Node000001_Node000002"><a xlink:title=" ">
<path fill="none" stroke="#63b8ff" d="M166,-104.13C155.46,-94.94 142.82,-83.93 134.05,-76.3"/>
<polygon fill="#63b8ff" stroke="#63b8ff" points="163.59,-106.67 173.43,-110.6 168.19,-101.39 163.59,-106.67"/>
</a>
</g>
</g>
<!-- Node5 -->
<g id="Node000005" class="node">
<title>Node5</title>
<g id="a_Node000005"><a xlink:href="planner_8cpp.html" target="_top" xlink:title=" ">
<polygon fill="white" stroke="#666666" points="291.38,-76 203.38,-76 203.38,-56 291.38,-56 291.38,-76"/>
<text xml:space="preserve" text-anchor="middle" x="247.38" y="-62.5" font-family="Helvetica,sans-Serif" font-size="10.00">core/planner.cpp</text>
</a>
</g>
</g>
<!-- Node1&#45;&gt;Node5 -->
<g id="edge4_Node000001_Node000005" class="edge">
<title>Node1&#45;&gt;Node5</title>
<g id="a_edge4_Node000001_Node000005"><a xlink:title=" ">
<path fill="none" stroke="#63b8ff" d="M204.75,-104.13C215.29,-94.94 227.93,-83.93 236.7,-76.3"/>
<polygon fill="#63b8ff" stroke="#63b8ff" points="202.56,-101.39 197.32,-110.6 207.16,-106.67 202.56,-101.39"/>
</a>
</g>
</g>
<!-- Node3 -->
<g id="Node000003" class="node">
<title>Node3</title>
<g id="a_Node000003"><a xlink:href="loopComponent_8cpp.html" target="_top" xlink:title=" ">
<polygon fill="white" stroke="#666666" points="124.75,-20 0,-20 0,0 124.75,0 124.75,-20"/>
<text xml:space="preserve" text-anchor="middle" x="62.38" y="-6.5" font-family="Helvetica,sans-Serif" font-size="10.00">core/loopComponent.cpp</text>
</a>
</g>
</g>
<!-- Node2&#45;&gt;Node3 -->
<g id="edge2_Node000002_Node000003" class="edge">
<title>Node2&#45;&gt;Node3</title>
<g id="a_edge2_Node000002_Node000003"><a xlink:title=" ">
<path fill="none" stroke="#63b8ff" d="M104.31,-48.13C93.94,-38.94 81.5,-27.93 72.88,-20.3"/>
<polygon fill="#63b8ff" stroke="#63b8ff" points="101.81,-50.58 111.62,-54.59 106.45,-45.34 101.81,-50.58"/>
</a>
</g>
</g>
<!-- Node4 -->
<g id="Node000004" class="node">
<title>Node4</title>
<g id="a_Node000004"><a xlink:href="mapek_8hpp.html" target="_top" xlink:title=" ">
<polygon fill="white" stroke="#666666" points="228.25,-20 142.5,-20 142.5,0 228.25,0 228.25,-20"/>
<text xml:space="preserve" text-anchor="middle" x="185.38" y="-6.5" font-family="Helvetica,sans-Serif" font-size="10.00">core/mapek.hpp</text>
</a>
</g>
</g>
<!-- Node2&#45;&gt;Node4 -->
<g id="edge3_Node000002_Node000004" class="edge">
<title>Node2&#45;&gt;Node4</title>
<g id="a_edge3_Node000002_Node000004"><a xlink:title=" ">
<path fill="none" stroke="#63b8ff" d="M142.75,-48.13C153.29,-38.94 165.93,-27.93 174.7,-20.3"/>
<polygon fill="#63b8ff" stroke="#63b8ff" points="140.56,-45.39 135.32,-54.6 145.16,-50.67 140.56,-45.39"/>
</a>
</g>
</g>
</g>
</svg>
