<?xml version="1.0" encoding="UTF-8" standalone="no"?>
<!DOCTYPE svg PUBLIC "-//W3C//DTD SVG 1.1//EN"
 "http://www.w3.org/Graphics/SVG/1.1/DTD/svg11.dtd">
<!-- Generated by graphviz version 13.1.0 (0)
 -->
<!-- Title: app.hpp Pages: 1 -->
<svg width="441pt" height="308pt"
 viewBox="0.00 0.00 441.00 308.00" xmlns="http://www.w3.org/2000/svg" xmlns:xlink="http://www.w3.org/1999/xlink">
<g id="graph0" class="graph" transform="scale(1 1) rotate(0) translate(4 304)">
<title>app.hpp</title>
<!-- Node1 -->
<g id="Node000001" class="node">
<title>Node1</title>
<g id="a_Node000001"><a xlink:title=" ">
<polygon fill="#999999" stroke="#666666" points="55.25,-300 4.75,-300 4.75,-280 55.25,-280 55.25,-300"/>
<text xml:space="preserve" text-anchor="middle" x="30" y="-286.5" font-family="Helvetica,sans-Serif" font-size="10.00">app.hpp</text>
</a>
</g>
</g>
<!-- Node2 -->
<g id="Node000002" class="node">
<title>Node2</title>
<g id="a_Node000002"><a xlink:title=" ">
<polygon fill="#e0e0e0" stroke="#999999" points="92.75,-20 39.25,-20 39.25,0 92.75,0 92.75,-20"/>
<text xml:space="preserve" text-anchor="middle" x="66" y="-6.5" font-family="Helvetica,sans-Serif" font-size="10.00">iostream</text>
</a>
</g>
</g>
<!-- Node1&#45;&gt;Node2 -->
<g id="edge1_Node000001_Node000002" class="edge">
<title>Node1&#45;&gt;Node2</title>
<g id="a_edge1_Node000001_Node000002"><a xlink:title=" ">
<path fill="none" stroke="#63b8ff" d="M25.57,-279.53C17.23,-260.77 0,-217.4 0,-179 0,-179 0,-179 0,-121 0,-83.95 27.88,-48.59 47.4,-28.38"/>
<polygon fill="#63b8ff" stroke="#63b8ff" points="49.69,-31.04 54.32,-21.51 44.76,-26.07 49.69,-31.04"/>
</a>
</g>
</g>
<!-- Node3 -->
<g id="Node000003" class="node">
<title>Node3</title>
<g id="a_Node000003"><a xlink:href="module_8hpp.html" target="_top" xlink:title=" ">
<polygon fill="white" stroke="#666666" points="94.12,-244 27.88,-244 27.88,-224 94.12,-224 94.12,-244"/>
<text xml:space="preserve" text-anchor="middle" x="61" y="-230.5" font-family="Helvetica,sans-Serif" font-size="10.00">module.hpp</text>
</a>
</g>
</g>
<!-- Node1&#45;&gt;Node3 -->
<g id="edge2_Node000001_Node000003" class="edge">
<title>Node1&#45;&gt;Node3</title>
<g id="a_edge2_Node000001_Node000003"><a xlink:title=" ">
<path fill="none" stroke="#63b8ff" d="M35.4,-279.59C39.44,-272.55 45.12,-262.67 50.09,-254"/>
<polygon fill="#63b8ff" stroke="#63b8ff" points="52.97,-256.03 54.91,-245.61 46.89,-252.54 52.97,-256.03"/>
</a>
</g>
</g>
<!-- Node3&#45;&gt;Node2 -->
<g id="edge3_Node000003_Node000002" class="edge">
<title>Node3&#45;&gt;Node2</title>
<g id="a_edge3_Node000003_Node000002"><a xlink:title=" ">
<path fill="none" stroke="#63b8ff" d="M59.93,-223.71C58.94,-214.62 57.55,-200.38 57,-188 54.48,-131.28 60.27,-64.38 63.7,-31.43"/>
<polygon fill="#63b8ff" stroke="#63b8ff" points="67.15,-32.03 64.75,-21.72 60.19,-31.28 67.15,-32.03"/>
</a>
</g>
</g>
<!-- Node4 -->
<g id="Node000004" class="node">
<title>Node4</title>
<g id="a_Node000004"><a xlink:href="modularComponent_8hpp.html" target="_top" xlink:title=" ">
<polygon fill="white" stroke="#666666" points="185.75,-188 66.25,-188 66.25,-168 185.75,-168 185.75,-188"/>
<text xml:space="preserve" text-anchor="middle" x="126" y="-174.5" font-family="Helvetica,sans-Serif" font-size="10.00">modularComponent.hpp</text>
</a>
</g>
</g>
<!-- Node3&#45;&gt;Node4 -->
<g id="edge4_Node000003_Node000004" class="edge">
<title>Node3&#45;&gt;Node4</title>
<g id="a_edge4_Node000003_Node000004"><a xlink:title=" ">
<path fill="none" stroke="#63b8ff" d="M72.32,-223.59C81.64,-215.85 95.08,-204.69 106.18,-195.47"/>
<polygon fill="#63b8ff" stroke="#63b8ff" points="108.19,-198.35 113.64,-189.27 103.71,-192.96 108.19,-198.35"/>
</a>
</g>
</g>
<!-- Node4&#45;&gt;Node2 -->
<g id="edge5_Node000004_Node000002" class="edge">
<title>Node4&#45;&gt;Node2</title>
<g id="a_edge5_Node000004_Node000002"><a xlink:title=" ">
<path fill="none" stroke="#63b8ff" d="M122.43,-167.71C118.95,-158.63 113.54,-144.39 109,-132 96,-96.54 81.38,-55.04 72.97,-31.01"/>
<polygon fill="#63b8ff" stroke="#63b8ff" points="76.38,-30.15 69.78,-21.87 69.77,-32.46 76.38,-30.15"/>
</a>
</g>
</g>
<!-- Node5 -->
<g id="Node000005" class="node">
<title>Node5</title>
<g id="a_Node000005"><a xlink:href="compositeNode_8hpp.html" target="_top" xlink:title=" ">
<polygon fill="white" stroke="#666666" points="220.5,-132 117.5,-132 117.5,-112 220.5,-112 220.5,-132"/>
<text xml:space="preserve" text-anchor="middle" x="169" y="-118.5" font-family="Helvetica,sans-Serif" font-size="10.00">compositeNode.hpp</text>
</a>
</g>
</g>
<!-- Node4&#45;&gt;Node5 -->
<g id="edge6_Node000004_Node000005" class="edge">
<title>Node4&#45;&gt;Node5</title>
<g id="a_edge6_Node000004_Node000005"><a xlink:title=" ">
<path fill="none" stroke="#63b8ff" d="M133.49,-167.59C139.29,-160.32 147.49,-150.02 154.55,-141.15"/>
<polygon fill="#63b8ff" stroke="#63b8ff" points="157.16,-143.49 160.65,-133.48 151.69,-139.12 157.16,-143.49"/>
</a>
</g>
</g>
<!-- Node5&#45;&gt;Node2 -->
<g id="edge7_Node000005_Node000002" class="edge">
<title>Node5&#45;&gt;Node2</title>
<g id="a_edge7_Node000005_Node000002"><a xlink:title=" ">
<path fill="none" stroke="#63b8ff" d="M160.22,-111.62C143.04,-93.27 104.74,-52.37 82.62,-28.75"/>
<polygon fill="#63b8ff" stroke="#63b8ff" points="85.18,-26.37 75.79,-21.46 80.07,-31.15 85.18,-26.37"/>
</a>
</g>
</g>
<!-- Node6 -->
<g id="Node000006" class="node">
<title>Node6</title>
<g id="a_Node000006"><a xlink:href="knowledge_8hpp.html" target="_top" xlink:title=" ">
<polygon fill="white" stroke="#666666" points="223.62,-76 142.38,-76 142.38,-56 223.62,-56 223.62,-76"/>
<text xml:space="preserve" text-anchor="middle" x="183" y="-62.5" font-family="Helvetica,sans-Serif" font-size="10.00">knowledge.hpp</text>
</a>
</g>
</g>
<!-- Node5&#45;&gt;Node6 -->
<g id="edge8_Node000005_Node000006" class="edge">
<title>Node5&#45;&gt;Node6</title>
<g id="a_edge8_Node000005_Node000006"><a xlink:title=" ">
<path fill="none" stroke="#63b8ff" d="M171.44,-111.59C173.17,-104.93 175.55,-95.75 177.7,-87.44"/>
<polygon fill="#63b8ff" stroke="#63b8ff" points="181.09,-88.32 180.21,-77.76 174.31,-86.56 181.09,-88.32"/>
</a>
</g>
</g>
<!-- Node11 -->
<g id="Node000011" class="node">
<title>Node11</title>
<g id="a_Node000011"><a xlink:title=" ">
<polygon fill="#e0e0e0" stroke="#999999" points="392.5,-76 241.5,-76 241.5,-56 392.5,-56 392.5,-76"/>
<text xml:space="preserve" text-anchor="middle" x="317" y="-62.5" font-family="Helvetica,sans-Serif" font-size="10.00">enum/compositeNodeType.hpp</text>
</a>
</g>
</g>
<!-- Node5&#45;&gt;Node11 -->
<g id="edge14_Node000005_Node000011" class="edge">
<title>Node5&#45;&gt;Node11</title>
<g id="a_edge14_Node000005_Node000011"><a xlink:title=" ">
<path fill="none" stroke="#63b8ff" d="M194.78,-111.59C218.4,-102.97 253.64,-90.12 280.22,-80.42"/>
<polygon fill="#63b8ff" stroke="#63b8ff" points="281.4,-83.71 289.6,-77 279,-77.14 281.4,-83.71"/>
</a>
</g>
</g>
<!-- Node6&#45;&gt;Node2 -->
<g id="edge9_Node000006_Node000002" class="edge">
<title>Node6&#45;&gt;Node2</title>
<g id="a_edge9_Node000006_Node000002"><a xlink:title=" ">
<path fill="none" stroke="#63b8ff" d="M162.62,-55.59C144.44,-47.21 117.57,-34.8 96.78,-25.21"/>
<polygon fill="#63b8ff" stroke="#63b8ff" points="98.46,-22.13 87.91,-21.11 95.53,-28.48 98.46,-22.13"/>
</a>
</g>
</g>
<!-- Node7 -->
<g id="Node000007" class="node">
<title>Node7</title>
<g id="a_Node000007"><a xlink:title=" ">
<polygon fill="#e0e0e0" stroke="#999999" points="139.4,-20 110.6,-20 110.6,0 139.4,0 139.4,-20"/>
<text xml:space="preserve" text-anchor="middle" x="125" y="-6.5" font-family="Helvetica,sans-Serif" font-size="10.00">list</text>
</a>
</g>
</g>
<!-- Node6&#45;&gt;Node7 -->
<g id="edge10_Node000006_Node000007" class="edge">
<title>Node6&#45;&gt;Node7</title>
<g id="a_edge10_Node000006_Node000007"><a xlink:title=" ">
<path fill="none" stroke="#63b8ff" d="M172.9,-55.59C164.75,-48.01 153.07,-37.13 143.28,-28.02"/>
<polygon fill="#63b8ff" stroke="#63b8ff" points="145.8,-25.58 136.09,-21.33 141.03,-30.71 145.8,-25.58"/>
</a>
</g>
</g>
<!-- Node8 -->
<g id="Node000008" class="node">
<title>Node8</title>
<g id="a_Node000008"><a xlink:title=" ">
<polygon fill="#e0e0e0" stroke="#999999" points="208.62,-20 157.38,-20 157.38,0 208.62,0 208.62,-20"/>
<text xml:space="preserve" text-anchor="middle" x="183" y="-6.5" font-family="Helvetica,sans-Serif" font-size="10.00">memory</text>
</a>
</g>
</g>
<!-- Node6&#45;&gt;Node8 -->
<g id="edge11_Node000006_Node000008" class="edge">
<title>Node6&#45;&gt;Node8</title>
<g id="a_edge11_Node000006_Node000008"><a xlink:title=" ">
<path fill="none" stroke="#63b8ff" d="M183,-55.59C183,-49.01 183,-39.96 183,-31.73"/>
<polygon fill="#63b8ff" stroke="#63b8ff" points="186.5,-31.81 183,-21.81 179.5,-31.81 186.5,-31.81"/>
</a>
</g>
</g>
<!-- Node9 -->
<g id="Node000009" class="node">
<title>Node9</title>
<g id="a_Node000009"><a xlink:title=" ">
<polygon fill="#e0e0e0" stroke="#999999" points="317.12,-20 226.88,-20 226.88,0 317.12,0 317.12,-20"/>
<text xml:space="preserve" text-anchor="middle" x="272" y="-6.5" font-family="Helvetica,sans-Serif" font-size="10.00">model/model.hpp</text>
</a>
</g>
</g>
<!-- Node6&#45;&gt;Node9 -->
<g id="edge12_Node000006_Node000009" class="edge">
<title>Node6&#45;&gt;Node9</title>
<g id="a_edge12_Node000006_Node000009"><a xlink:title=" ">
<path fill="none" stroke="#63b8ff" d="M198.5,-55.59C211.82,-47.51 231.28,-35.71 246.83,-26.27"/>
<polygon fill="#63b8ff" stroke="#63b8ff" points="248.35,-29.44 255.08,-21.26 244.72,-23.46 248.35,-29.44"/>
</a>
</g>
</g>
<!-- Node10 -->
<g id="Node000010" class="node">
<title>Node10</title>
<g id="a_Node000010"><a xlink:title=" ">
<polygon fill="#e0e0e0" stroke="#999999" points="433.25,-20 334.75,-20 334.75,0 433.25,0 433.25,-20"/>
<text xml:space="preserve" text-anchor="middle" x="384" y="-6.5" font-family="Helvetica,sans-Serif" font-size="10.00">model/strategy.hpp</text>
</a>
</g>
</g>
<!-- Node6&#45;&gt;Node10 -->
<g id="edge13_Node000006_Node000010" class="edge">
<title>Node6&#45;&gt;Node10</title>
<g id="a_edge13_Node000006_Node000010"><a xlink:title=" ">
<path fill="none" stroke="#63b8ff" d="M218.01,-55.59C251.24,-46.67 301.39,-33.19 337.87,-23.39"/>
<polygon fill="#63b8ff" stroke="#63b8ff" points="338.5,-26.85 347.25,-20.87 336.69,-20.09 338.5,-26.85"/>
</a>
</g>
</g>
</g>
</svg>
