<?xml version="1.0" encoding="UTF-8" standalone="no"?>
<!DOCTYPE svg PUBLIC "-//W3C//DTD SVG 1.1//EN"
 "http://www.w3.org/Graphics/SVG/1.1/DTD/svg11.dtd">
<!-- Generated by graphviz version 13.1.0 (0)
 -->
<!-- Title: CAT::CompositeNode Pages: 1 -->
<svg width="264pt" height="140pt"
 viewBox="0.00 0.00 264.00 140.00" xmlns="http://www.w3.org/2000/svg" xmlns:xlink="http://www.w3.org/1999/xlink">
<g id="graph0" class="graph" transform="scale(1 1) rotate(0) translate(4 136)">
<title>CAT::CompositeNode</title>
<!-- Node1 -->
<g id="Node000001" class="node">
<title>Node1</title>
<g id="a_Node000001"><a xlink:title=" ">
<polygon fill="#999999" stroke="#666666" points="179.62,-132 68.38,-132 68.38,-112 179.62,-112 179.62,-132"/>
<text xml:space="preserve" text-anchor="middle" x="124" y="-118.5" font-family="Helvetica,sans-Serif" font-size="10.00">CAT::CompositeNode</text>
</a>
</g>
</g>
<!-- Node2 -->
<g id="Node000002" class="node">
<title>Node2</title>
<g id="a_Node000002"><a xlink:href="classCAT_1_1LoopComponent.html" target="_top" xlink:title=" ">
<polygon fill="white" stroke="#666666" points="112,-76 0,-76 0,-56 112,-56 112,-76"/>
<text xml:space="preserve" text-anchor="middle" x="56" y="-62.5" font-family="Helvetica,sans-Serif" font-size="10.00">CAT::LoopComponent</text>
</a>
</g>
</g>
<!-- Node1&#45;&gt;Node2 -->
<g id="edge1_Node000001_Node000002" class="edge">
<title>Node1&#45;&gt;Node2</title>
<g id="a_edge1_Node000001_Node000002"><a xlink:title=" ">
<path fill="none" stroke="#63b8ff" d="M103.45,-104.68C91.75,-95.39 77.52,-84.09 67.71,-76.3"/>
<polygon fill="#63b8ff" stroke="#63b8ff" points="100.96,-107.17 110.97,-110.65 105.32,-101.69 100.96,-107.17"/>
</a>
</g>
</g>
<!-- Node4 -->
<g id="Node000004" class="node">
<title>Node4</title>
<g id="a_Node000004"><a xlink:href="classCAT_1_1ModularComponent.html" target="_top" xlink:title=" ">
<polygon fill="white" stroke="#666666" points="255.75,-76 130.25,-76 130.25,-56 255.75,-56 255.75,-76"/>
<text xml:space="preserve" text-anchor="middle" x="193" y="-62.5" font-family="Helvetica,sans-Serif" font-size="10.00">CAT::ModularComponent</text>
</a>
</g>
</g>
<!-- Node1&#45;&gt;Node4 -->
<g id="edge3_Node000001_Node000004" class="edge">
<title>Node1&#45;&gt;Node4</title>
<g id="a_edge3_Node000001_Node000004"><a xlink:title=" ">
<path fill="none" stroke="#63b8ff" d="M144.85,-104.68C156.73,-95.39 171.17,-84.09 181.12,-76.3"/>
<polygon fill="#63b8ff" stroke="#63b8ff" points="142.93,-101.74 137.21,-110.66 147.24,-107.25 142.93,-101.74"/>
</a>
</g>
</g>
<!-- Node3 -->
<g id="Node000003" class="node">
<title>Node3</title>
<g id="a_Node000003"><a xlink:href="classCAT_1_1MAPEK.html" target="_top" xlink:title=" ">
<polygon fill="white" stroke="#666666" points="94,-20 18,-20 18,0 94,0 94,-20"/>
<text xml:space="preserve" text-anchor="middle" x="56" y="-6.5" font-family="Helvetica,sans-Serif" font-size="10.00">CAT::MAPEK</text>
</a>
</g>
</g>
<!-- Node2&#45;&gt;Node3 -->
<g id="edge2_Node000002_Node000003" class="edge">
<title>Node2&#45;&gt;Node3</title>
<g id="a_edge2_Node000002_Node000003"><a xlink:title=" ">
<path fill="none" stroke="#63b8ff" d="M56,-44.13C56,-35.9 56,-26.85 56,-20.3"/>
<polygon fill="#63b8ff" stroke="#63b8ff" points="52.5,-44.08 56,-54.08 59.5,-44.08 52.5,-44.08"/>
</a>
</g>
</g>
<!-- Node5 -->
<g id="Node000005" class="node">
<title>Node5</title>
<g id="a_Node000005"><a xlink:href="classCAT_1_1Module.html" target="_top" xlink:title=" ">
<polygon fill="white" stroke="#666666" points="229.12,-20 156.88,-20 156.88,0 229.12,0 229.12,-20"/>
<text xml:space="preserve" text-anchor="middle" x="193" y="-6.5" font-family="Helvetica,sans-Serif" font-size="10.00">CAT::Module</text>
</a>
</g>
</g>
<!-- Node4&#45;&gt;Node5 -->
<g id="edge4_Node000004_Node000005" class="edge">
<title>Node4&#45;&gt;Node5</title>
<g id="a_edge4_Node000004_Node000005"><a xlink:title=" ">
<path fill="none" stroke="#63b8ff" d="M193,-44.13C193,-35.9 193,-26.85 193,-20.3"/>
<polygon fill="#63b8ff" stroke="#63b8ff" points="189.5,-44.08 193,-54.08 196.5,-44.08 189.5,-44.08"/>
</a>
</g>
</g>
</g>
</svg>
