<?xml version="1.0" encoding="UTF-8" standalone="no"?>
<!DOCTYPE svg PUBLIC "-//W3C//DTD SVG 1.1//EN"
 "http://www.w3.org/Graphics/SVG/1.1/DTD/svg11.dtd">
<!-- Generated by graphviz version 13.1.0 (0)
 -->
<!-- Title: compositeNode.hpp Pages: 1 -->
<svg width="687pt" height="252pt"
 viewBox="0.00 0.00 687.00 252.00" xmlns="http://www.w3.org/2000/svg" xmlns:xlink="http://www.w3.org/1999/xlink">
<g id="graph0" class="graph" transform="scale(1 1) rotate(0) translate(4 248)">
<title>compositeNode.hpp</title>
<!-- Node1 -->
<g id="Node000001" class="node">
<title>Node1</title>
<g id="a_Node000001"><a xlink:title=" ">
<polygon fill="#999999" stroke="#666666" points="498.25,-244 395.25,-244 395.25,-224 498.25,-224 498.25,-244"/>
<text xml:space="preserve" text-anchor="middle" x="446.75" y="-230.5" font-family="Helvetica,sans-Serif" font-size="10.00">compositeNode.hpp</text>
</a>
</g>
</g>
<!-- Node2 -->
<g id="Node000002" class="node">
<title>Node2</title>
<g id="a_Node000002"><a xlink:href="element_8hpp.html" target="_top" xlink:title=" ">
<polygon fill="white" stroke="#666666" points="291.38,-188 222.12,-188 222.12,-168 291.38,-168 291.38,-188"/>
<text xml:space="preserve" text-anchor="middle" x="256.75" y="-174.5" font-family="Helvetica,sans-Serif" font-size="10.00">element.hpp</text>
</a>
</g>
</g>
<!-- Node1&#45;&gt;Node2 -->
<g id="edge1_Node000001_Node000002" class="edge">
<title>Node1&#45;&gt;Node2</title>
<g id="a_edge1_Node000001_Node000002"><a xlink:title=" ">
<path fill="none" stroke="#63b8ff" d="M402.98,-220.56C368.61,-210.79 321.47,-197.39 290.1,-188.48"/>
<polygon fill="#63b8ff" stroke="#63b8ff" points="401.62,-223.81 412.2,-223.18 403.54,-217.08 401.62,-223.81"/>
</a>
</g>
</g>
<!-- Node5 -->
<g id="Node000005" class="node">
<title>Node5</title>
<g id="a_Node000005"><a xlink:href="loopComponent_8hpp.html" target="_top" xlink:title=" ">
<polygon fill="white" stroke="#666666" points="318.25,-76 215.25,-76 215.25,-56 318.25,-56 318.25,-76"/>
<text xml:space="preserve" text-anchor="middle" x="266.75" y="-62.5" font-family="Helvetica,sans-Serif" font-size="10.00">loopComponent.hpp</text>
</a>
</g>
</g>
<!-- Node1&#45;&gt;Node5 -->
<g id="edge17_Node000001_Node000005" class="edge">
<title>Node1&#45;&gt;Node5</title>
<g id="a_edge17_Node000001_Node000005"><a xlink:title=" ">
<path fill="none" stroke="#63b8ff" d="M449.7,-212.43C452.28,-185.85 452.41,-139.72 427.75,-112 413.19,-95.63 359.79,-82.91 318.44,-75.24"/>
<polygon fill="#63b8ff" stroke="#63b8ff" points="446.24,-211.89 448.51,-222.23 453.19,-212.73 446.24,-211.89"/>
</a>
</g>
</g>
<!-- Node15 -->
<g id="Node000015" class="node">
<title>Node15</title>
<g id="a_Node000015"><a xlink:href="modularComponent_8hpp.html" target="_top" xlink:title=" ">
<polygon fill="white" stroke="#666666" points="594.5,-188 475,-188 475,-168 594.5,-168 594.5,-188"/>
<text xml:space="preserve" text-anchor="middle" x="534.75" y="-174.5" font-family="Helvetica,sans-Serif" font-size="10.00">modularComponent.hpp</text>
</a>
</g>
</g>
<!-- Node1&#45;&gt;Node15 -->
<g id="edge18_Node000001_Node000015" class="edge">
<title>Node1&#45;&gt;Node15</title>
<g id="a_edge18_Node000001_Node000015"><a xlink:title=" ">
<path fill="none" stroke="#63b8ff" d="M471.5,-217.81C486.85,-208.39 506.1,-196.58 519.3,-188.48"/>
<polygon fill="#63b8ff" stroke="#63b8ff" points="470.06,-214.59 463.37,-222.8 473.72,-220.56 470.06,-214.59"/>
</a>
</g>
</g>
<!-- Node3 -->
<g id="Node000003" class="node">
<title>Node3</title>
<g id="a_Node000003"><a xlink:href="analyzer_8hpp.html" target="_top" xlink:title=" ">
<polygon fill="white" stroke="#666666" points="71.5,-132 0,-132 0,-112 71.5,-112 71.5,-132"/>
<text xml:space="preserve" text-anchor="middle" x="35.75" y="-118.5" font-family="Helvetica,sans-Serif" font-size="10.00">analyzer.hpp</text>
</a>
</g>
</g>
<!-- Node2&#45;&gt;Node3 -->
<g id="edge2_Node000002_Node000003" class="edge">
<title>Node2&#45;&gt;Node3</title>
<g id="a_edge2_Node000002_Node000003"><a xlink:title=" ">
<path fill="none" stroke="#63b8ff" d="M210.6,-165.72C169.29,-155.63 109.56,-141.04 71.7,-131.79"/>
<polygon fill="#63b8ff" stroke="#63b8ff" points="209.72,-169.11 220.26,-168.08 211.38,-162.31 209.72,-169.11"/>
</a>
</g>
</g>
<!-- Node8 -->
<g id="Node000008" class="node">
<title>Node8</title>
<g id="a_Node000008"><a xlink:href="element_8cpp.html" target="_top" xlink:title=" ">
<polygon fill="white" stroke="#666666" points="158.38,-132 89.12,-132 89.12,-112 158.38,-112 158.38,-132"/>
<text xml:space="preserve" text-anchor="middle" x="123.75" y="-118.5" font-family="Helvetica,sans-Serif" font-size="10.00">element.cpp</text>
</a>
</g>
</g>
<!-- Node2&#45;&gt;Node8 -->
<g id="edge7_Node000002_Node000008" class="edge">
<title>Node2&#45;&gt;Node8</title>
<g id="a_edge7_Node000002_Node000008"><a xlink:title=" ">
<path fill="none" stroke="#63b8ff" d="M222.94,-163.27C199.21,-153.64 168.1,-141.01 147.1,-132.48"/>
<polygon fill="#63b8ff" stroke="#63b8ff" points="221.6,-166.51 232.18,-167.02 224.23,-160.02 221.6,-166.51"/>
</a>
</g>
</g>
<!-- Node9 -->
<g id="Node000009" class="node">
<title>Node9</title>
<g id="a_Node000009"><a xlink:href="executor_8hpp.html" target="_top" xlink:title=" ">
<polygon fill="white" stroke="#666666" points="248.88,-132 176.62,-132 176.62,-112 248.88,-112 248.88,-132"/>
<text xml:space="preserve" text-anchor="middle" x="212.75" y="-118.5" font-family="Helvetica,sans-Serif" font-size="10.00">executor.hpp</text>
</a>
</g>
</g>
<!-- Node2&#45;&gt;Node9 -->
<g id="edge8_Node000002_Node000009" class="edge">
<title>Node2&#45;&gt;Node9</title>
<g id="a_edge8_Node000002_Node000009"><a xlink:title=" ">
<path fill="none" stroke="#63b8ff" d="M241.86,-158.72C234.62,-149.84 226.23,-139.55 220.33,-132.3"/>
<polygon fill="#63b8ff" stroke="#63b8ff" points="239.1,-160.88 248.13,-166.42 244.53,-156.46 239.1,-160.88"/>
</a>
</g>
</g>
<!-- Node11 -->
<g id="Node000011" class="node">
<title>Node11</title>
<g id="a_Node000011"><a xlink:href="monitor_8hpp.html" target="_top" xlink:title=" ">
<polygon fill="white" stroke="#666666" points="334.25,-132 267.25,-132 267.25,-112 334.25,-112 334.25,-132"/>
<text xml:space="preserve" text-anchor="middle" x="300.75" y="-118.5" font-family="Helvetica,sans-Serif" font-size="10.00">monitor.hpp</text>
</a>
</g>
</g>
<!-- Node2&#45;&gt;Node11 -->
<g id="edge11_Node000002_Node000011" class="edge">
<title>Node2&#45;&gt;Node11</title>
<g id="a_edge11_Node000002_Node000011"><a xlink:title=" ">
<path fill="none" stroke="#63b8ff" d="M271.64,-158.72C278.88,-149.84 287.27,-139.55 293.17,-132.3"/>
<polygon fill="#63b8ff" stroke="#63b8ff" points="268.97,-156.46 265.37,-166.42 274.4,-160.88 268.97,-156.46"/>
</a>
</g>
</g>
<!-- Node13 -->
<g id="Node000013" class="node">
<title>Node13</title>
<g id="a_Node000013"><a xlink:href="planner_8hpp.html" target="_top" xlink:title=" ">
<polygon fill="white" stroke="#666666" points="418.88,-132 352.62,-132 352.62,-112 418.88,-112 418.88,-132"/>
<text xml:space="preserve" text-anchor="middle" x="385.75" y="-118.5" font-family="Helvetica,sans-Serif" font-size="10.00">planner.hpp</text>
</a>
</g>
</g>
<!-- Node2&#45;&gt;Node13 -->
<g id="edge14_Node000002_Node000013" class="edge">
<title>Node2&#45;&gt;Node13</title>
<g id="a_edge14_Node000002_Node000013"><a xlink:title=" ">
<path fill="none" stroke="#63b8ff" d="M289.55,-163.27C312.56,-153.64 342.73,-141.01 363.1,-132.48"/>
<polygon fill="#63b8ff" stroke="#63b8ff" points="288.49,-159.92 280.62,-167.01 291.19,-166.38 288.49,-159.92"/>
</a>
</g>
</g>
<!-- Node4 -->
<g id="Node000004" class="node">
<title>Node4</title>
<g id="a_Node000004"><a xlink:href="analyzer_8cpp.html" target="_top" xlink:title=" ">
<polygon fill="white" stroke="#666666" points="71.5,-76 0,-76 0,-56 71.5,-56 71.5,-76"/>
<text xml:space="preserve" text-anchor="middle" x="35.75" y="-62.5" font-family="Helvetica,sans-Serif" font-size="10.00">analyzer.cpp</text>
</a>
</g>
</g>
<!-- Node3&#45;&gt;Node4 -->
<g id="edge3_Node000003_Node000004" class="edge">
<title>Node3&#45;&gt;Node4</title>
<g id="a_edge3_Node000003_Node000004"><a xlink:title=" ">
<path fill="none" stroke="#63b8ff" d="M35.75,-100.13C35.75,-91.9 35.75,-82.85 35.75,-76.3"/>
<polygon fill="#63b8ff" stroke="#63b8ff" points="32.25,-100.08 35.75,-110.08 39.25,-100.08 32.25,-100.08"/>
</a>
</g>
</g>
<!-- Node3&#45;&gt;Node5 -->
<g id="edge4_Node000003_Node000005" class="edge">
<title>Node3&#45;&gt;Node5</title>
<g id="a_edge4_Node000003_Node000005"><a xlink:title=" ">
<path fill="none" stroke="#63b8ff" d="M82.93,-109.97C125.11,-100.11 186.25,-85.82 226.25,-76.47"/>
<polygon fill="#63b8ff" stroke="#63b8ff" points="82.26,-106.53 73.32,-112.22 83.85,-113.35 82.26,-106.53"/>
</a>
</g>
</g>
<!-- Node6 -->
<g id="Node000006" class="node">
<title>Node6</title>
<g id="a_Node000006"><a xlink:href="loopComponent_8cpp.html" target="_top" xlink:title=" ">
<polygon fill="white" stroke="#666666" points="369.25,-20 266.25,-20 266.25,0 369.25,0 369.25,-20"/>
<text xml:space="preserve" text-anchor="middle" x="317.75" y="-6.5" font-family="Helvetica,sans-Serif" font-size="10.00">loopComponent.cpp</text>
</a>
</g>
</g>
<!-- Node5&#45;&gt;Node6 -->
<g id="edge5_Node000005_Node000006" class="edge">
<title>Node5&#45;&gt;Node6</title>
<g id="a_edge5_Node000005_Node000006"><a xlink:title=" ">
<path fill="none" stroke="#63b8ff" d="M283.48,-47.29C291.99,-38.28 301.98,-27.7 308.97,-20.3"/>
<polygon fill="#63b8ff" stroke="#63b8ff" points="280.99,-44.82 276.67,-54.49 286.08,-49.63 280.99,-44.82"/>
</a>
</g>
</g>
<!-- Node7 -->
<g id="Node000007" class="node">
<title>Node7</title>
<g id="a_Node000007"><a xlink:href="mapek_8hpp.html" target="_top" xlink:title=" ">
<polygon fill="white" stroke="#666666" points="247.75,-20 183.75,-20 183.75,0 247.75,0 247.75,-20"/>
<text xml:space="preserve" text-anchor="middle" x="215.75" y="-6.5" font-family="Helvetica,sans-Serif" font-size="10.00">mapek.hpp</text>
</a>
</g>
</g>
<!-- Node5&#45;&gt;Node7 -->
<g id="edge6_Node000005_Node000007" class="edge">
<title>Node5&#45;&gt;Node7</title>
<g id="a_edge6_Node000005_Node000007"><a xlink:title=" ">
<path fill="none" stroke="#63b8ff" d="M250.02,-47.29C241.51,-38.28 231.52,-27.7 224.53,-20.3"/>
<polygon fill="#63b8ff" stroke="#63b8ff" points="247.42,-49.63 256.83,-54.49 252.51,-44.82 247.42,-49.63"/>
</a>
</g>
</g>
<!-- Node9&#45;&gt;Node5 -->
<g id="edge10_Node000009_Node000005" class="edge">
<title>Node9&#45;&gt;Node5</title>
<g id="a_edge10_Node000009_Node000005"><a xlink:title=" ">
<path fill="none" stroke="#63b8ff" d="M230.18,-103.57C239.25,-94.5 249.97,-83.78 257.45,-76.3"/>
<polygon fill="#63b8ff" stroke="#63b8ff" points="227.82,-100.98 223.23,-110.52 232.77,-105.93 227.82,-100.98"/>
</a>
</g>
</g>
<!-- Node10 -->
<g id="Node000010" class="node">
<title>Node10</title>
<g id="a_Node000010"><a xlink:href="executor_8cpp.html" target="_top" xlink:title=" ">
<polygon fill="white" stroke="#666666" points="196.88,-76 124.62,-76 124.62,-56 196.88,-56 196.88,-76"/>
<text xml:space="preserve" text-anchor="middle" x="160.75" y="-62.5" font-family="Helvetica,sans-Serif" font-size="10.00">executor.cpp</text>
</a>
</g>
</g>
<!-- Node9&#45;&gt;Node10 -->
<g id="edge9_Node000009_Node000010" class="edge">
<title>Node9&#45;&gt;Node10</title>
<g id="a_edge9_Node000009_Node000010"><a xlink:title=" ">
<path fill="none" stroke="#63b8ff" d="M195.96,-103.57C187.23,-94.5 176.91,-83.78 169.7,-76.3"/>
<polygon fill="#63b8ff" stroke="#63b8ff" points="193.18,-105.73 202.64,-110.5 198.23,-100.87 193.18,-105.73"/>
</a>
</g>
</g>
<!-- Node11&#45;&gt;Node5 -->
<g id="edge12_Node000011_Node000005" class="edge">
<title>Node11&#45;&gt;Node5</title>
<g id="a_edge12_Node000011_Node000005"><a xlink:title=" ">
<path fill="none" stroke="#63b8ff" d="M288.7,-101.87C283.24,-93.19 277.02,-83.32 272.6,-76.3"/>
<polygon fill="#63b8ff" stroke="#63b8ff" points="285.73,-103.72 294.02,-110.31 291.65,-99.99 285.73,-103.72"/>
</a>
</g>
</g>
<!-- Node12 -->
<g id="Node000012" class="node">
<title>Node12</title>
<g id="a_Node000012"><a xlink:href="monitor_8cpp.html" target="_top" xlink:title=" ">
<polygon fill="white" stroke="#666666" points="403.25,-76 336.25,-76 336.25,-56 403.25,-56 403.25,-76"/>
<text xml:space="preserve" text-anchor="middle" x="369.75" y="-62.5" font-family="Helvetica,sans-Serif" font-size="10.00">monitor.cpp</text>
</a>
</g>
</g>
<!-- Node11&#45;&gt;Node12 -->
<g id="edge13_Node000011_Node000012" class="edge">
<title>Node11&#45;&gt;Node12</title>
<g id="a_edge13_Node000011_Node000012"><a xlink:title=" ">
<path fill="none" stroke="#63b8ff" d="M321.6,-104.68C333.48,-95.39 347.92,-84.09 357.87,-76.3"/>
<polygon fill="#63b8ff" stroke="#63b8ff" points="319.68,-101.74 313.96,-110.66 323.99,-107.25 319.68,-101.74"/>
</a>
</g>
</g>
<!-- Node13&#45;&gt;Node5 -->
<g id="edge15_Node000013_Node000005" class="edge">
<title>Node13&#45;&gt;Node5</title>
<g id="a_edge15_Node000013_Node000005"><a xlink:title=" ">
<path fill="none" stroke="#63b8ff" d="M354.63,-106.88C333.52,-97.3 306.18,-84.89 287.64,-76.48"/>
<polygon fill="#63b8ff" stroke="#63b8ff" points="353.09,-110.02 363.64,-110.97 355.98,-103.65 353.09,-110.02"/>
</a>
</g>
</g>
<!-- Node14 -->
<g id="Node000014" class="node">
<title>Node14</title>
<g id="a_Node000014"><a xlink:href="planner_8cpp.html" target="_top" xlink:title=" ">
<polygon fill="white" stroke="#666666" points="487.88,-76 421.62,-76 421.62,-56 487.88,-56 487.88,-76"/>
<text xml:space="preserve" text-anchor="middle" x="454.75" y="-62.5" font-family="Helvetica,sans-Serif" font-size="10.00">planner.cpp</text>
</a>
</g>
</g>
<!-- Node13&#45;&gt;Node14 -->
<g id="edge16_Node000013_Node000014" class="edge">
<title>Node13&#45;&gt;Node14</title>
<g id="a_edge16_Node000013_Node000014"><a xlink:title=" ">
<path fill="none" stroke="#63b8ff" d="M406.6,-104.68C418.48,-95.39 432.92,-84.09 442.87,-76.3"/>
<polygon fill="#63b8ff" stroke="#63b8ff" points="404.68,-101.74 398.96,-110.66 408.99,-107.25 404.68,-101.74"/>
</a>
</g>
</g>
<!-- Node16 -->
<g id="Node000016" class="node">
<title>Node16</title>
<g id="a_Node000016"><a xlink:href="modularComponent_8cpp.html" target="_top" xlink:title=" ">
<polygon fill="white" stroke="#666666" points="594.5,-132 475,-132 475,-112 594.5,-112 594.5,-132"/>
<text xml:space="preserve" text-anchor="middle" x="534.75" y="-118.5" font-family="Helvetica,sans-Serif" font-size="10.00">modularComponent.cpp</text>
</a>
</g>
</g>
<!-- Node15&#45;&gt;Node16 -->
<g id="edge19_Node000015_Node000016" class="edge">
<title>Node15&#45;&gt;Node16</title>
<g id="a_edge19_Node000015_Node000016"><a xlink:title=" ">
<path fill="none" stroke="#63b8ff" d="M534.75,-156.13C534.75,-147.9 534.75,-138.85 534.75,-132.3"/>
<polygon fill="#63b8ff" stroke="#63b8ff" points="531.25,-156.08 534.75,-166.08 538.25,-156.08 531.25,-156.08"/>
</a>
</g>
</g>
<!-- Node17 -->
<g id="Node000017" class="node">
<title>Node17</title>
<g id="a_Node000017"><a xlink:href="module_8hpp.html" target="_top" xlink:title=" ">
<polygon fill="white" stroke="#666666" points="678.88,-132 612.62,-132 612.62,-112 678.88,-112 678.88,-132"/>
<text xml:space="preserve" text-anchor="middle" x="645.75" y="-118.5" font-family="Helvetica,sans-Serif" font-size="10.00">module.hpp</text>
</a>
</g>
</g>
<!-- Node15&#45;&gt;Node17 -->
<g id="edge20_Node000015_Node000017" class="edge">
<title>Node15&#45;&gt;Node17</title>
<g id="a_edge20_Node000015_Node000017"><a xlink:title=" ">
<path fill="none" stroke="#63b8ff" d="M564.32,-162.61C583.94,-153.07 609.13,-140.81 626.26,-132.48"/>
<polygon fill="#63b8ff" stroke="#63b8ff" points="562.91,-159.41 555.45,-166.93 565.97,-165.7 562.91,-159.41"/>
</a>
</g>
</g>
<!-- Node18 -->
<g id="Node000018" class="node">
<title>Node18</title>
<g id="a_Node000018"><a xlink:href="app_8hpp.html" target="_top" xlink:title=" ">
<polygon fill="white" stroke="#666666" points="671,-76 620.5,-76 620.5,-56 671,-56 671,-76"/>
<text xml:space="preserve" text-anchor="middle" x="645.75" y="-62.5" font-family="Helvetica,sans-Serif" font-size="10.00">app.hpp</text>
</a>
</g>
</g>
<!-- Node17&#45;&gt;Node18 -->
<g id="edge21_Node000017_Node000018" class="edge">
<title>Node17&#45;&gt;Node18</title>
<g id="a_edge21_Node000017_Node000018"><a xlink:title=" ">
<path fill="none" stroke="#63b8ff" d="M645.75,-100.13C645.75,-91.9 645.75,-82.85 645.75,-76.3"/>
<polygon fill="#63b8ff" stroke="#63b8ff" points="642.25,-100.08 645.75,-110.08 649.25,-100.08 642.25,-100.08"/>
</a>
</g>
</g>
<!-- Node19 -->
<g id="Node000019" class="node">
<title>Node19</title>
<g id="a_Node000019"><a xlink:href="app_8cpp.html" target="_top" xlink:title=" ">
<polygon fill="white" stroke="#666666" points="671,-20 620.5,-20 620.5,0 671,0 671,-20"/>
<text xml:space="preserve" text-anchor="middle" x="645.75" y="-6.5" font-family="Helvetica,sans-Serif" font-size="10.00">app.cpp</text>
</a>
</g>
</g>
<!-- Node18&#45;&gt;Node19 -->
<g id="edge22_Node000018_Node000019" class="edge">
<title>Node18&#45;&gt;Node19</title>
<g id="a_edge22_Node000018_Node000019"><a xlink:title=" ">
<path fill="none" stroke="#63b8ff" d="M645.75,-44.13C645.75,-35.9 645.75,-26.85 645.75,-20.3"/>
<polygon fill="#63b8ff" stroke="#63b8ff" points="642.25,-44.08 645.75,-54.08 649.25,-44.08 642.25,-44.08"/>
</a>
</g>
</g>
</g>
</svg>
