<?xml version="1.0" encoding="UTF-8" standalone="no"?>
<!DOCTYPE svg PUBLIC "-//W3C//DTD SVG 1.1//EN"
 "http://www.w3.org/Graphics/SVG/1.1/DTD/svg11.dtd">
<!-- Generated by graphviz version 13.1.0 (0)
 -->
<!-- Title: constraintModel.hpp Pages: 1 -->
<svg width="232pt" height="196pt"
 viewBox="0.00 0.00 232.00 196.00" xmlns="http://www.w3.org/2000/svg" xmlns:xlink="http://www.w3.org/1999/xlink">
<g id="graph0" class="graph" transform="scale(1 1) rotate(0) translate(4 192)">
<title>constraintModel.hpp</title>
<!-- Node1 -->
<g id="Node000001" class="node">
<title>Node1</title>
<g id="a_Node000001"><a xlink:title=" ">
<polygon fill="#999999" stroke="#666666" points="139.62,-188 35.88,-188 35.88,-168 139.62,-168 139.62,-188"/>
<text xml:space="preserve" text-anchor="middle" x="87.75" y="-174.5" font-family="Helvetica,sans-Serif" font-size="10.00">constraintModel.hpp</text>
</a>
</g>
</g>
<!-- Node2 -->
<g id="Node000002" class="node">
<title>Node2</title>
<g id="a_Node000002"><a xlink:href="analyzer_8hpp.html" target="_top" xlink:title=" ">
<polygon fill="white" stroke="#666666" points="123.5,-132 52,-132 52,-112 123.5,-112 123.5,-132"/>
<text xml:space="preserve" text-anchor="middle" x="87.75" y="-118.5" font-family="Helvetica,sans-Serif" font-size="10.00">analyzer.hpp</text>
</a>
</g>
</g>
<!-- Node1&#45;&gt;Node2 -->
<g id="edge1_Node000001_Node000002" class="edge">
<title>Node1&#45;&gt;Node2</title>
<g id="a_edge1_Node000001_Node000002"><a xlink:title=" ">
<path fill="none" stroke="#63b8ff" d="M87.75,-156.13C87.75,-147.9 87.75,-138.85 87.75,-132.3"/>
<polygon fill="#63b8ff" stroke="#63b8ff" points="84.25,-156.08 87.75,-166.08 91.25,-156.08 84.25,-156.08"/>
</a>
</g>
</g>
<!-- Node3 -->
<g id="Node000003" class="node">
<title>Node3</title>
<g id="a_Node000003"><a xlink:href="analyzer_8cpp.html" target="_top" xlink:title=" ">
<polygon fill="white" stroke="#666666" points="71.5,-76 0,-76 0,-56 71.5,-56 71.5,-76"/>
<text xml:space="preserve" text-anchor="middle" x="35.75" y="-62.5" font-family="Helvetica,sans-Serif" font-size="10.00">analyzer.cpp</text>
</a>
</g>
</g>
<!-- Node2&#45;&gt;Node3 -->
<g id="edge2_Node000002_Node000003" class="edge">
<title>Node2&#45;&gt;Node3</title>
<g id="a_edge2_Node000002_Node000003"><a xlink:title=" ">
<path fill="none" stroke="#63b8ff" d="M70.96,-103.57C62.23,-94.5 51.91,-83.78 44.7,-76.3"/>
<polygon fill="#63b8ff" stroke="#63b8ff" points="68.18,-105.73 77.64,-110.5 73.23,-100.87 68.18,-105.73"/>
</a>
</g>
</g>
<!-- Node4 -->
<g id="Node000004" class="node">
<title>Node4</title>
<g id="a_Node000004"><a xlink:href="loopComponent_8hpp.html" target="_top" xlink:title=" ">
<polygon fill="white" stroke="#666666" points="192.25,-76 89.25,-76 89.25,-56 192.25,-56 192.25,-76"/>
<text xml:space="preserve" text-anchor="middle" x="140.75" y="-62.5" font-family="Helvetica,sans-Serif" font-size="10.00">loopComponent.hpp</text>
</a>
</g>
</g>
<!-- Node2&#45;&gt;Node4 -->
<g id="edge3_Node000002_Node000004" class="edge">
<title>Node2&#45;&gt;Node4</title>
<g id="a_edge3_Node000002_Node000004"><a xlink:title=" ">
<path fill="none" stroke="#63b8ff" d="M104.86,-103.57C113.76,-94.5 124.28,-83.78 131.62,-76.3"/>
<polygon fill="#63b8ff" stroke="#63b8ff" points="102.55,-100.93 98.04,-110.51 107.54,-105.83 102.55,-100.93"/>
</a>
</g>
</g>
<!-- Node5 -->
<g id="Node000005" class="node">
<title>Node5</title>
<g id="a_Node000005"><a xlink:href="loopComponent_8cpp.html" target="_top" xlink:title=" ">
<polygon fill="white" stroke="#666666" points="141.25,-20 38.25,-20 38.25,0 141.25,0 141.25,-20"/>
<text xml:space="preserve" text-anchor="middle" x="89.75" y="-6.5" font-family="Helvetica,sans-Serif" font-size="10.00">loopComponent.cpp</text>
</a>
</g>
</g>
<!-- Node4&#45;&gt;Node5 -->
<g id="edge4_Node000004_Node000005" class="edge">
<title>Node4&#45;&gt;Node5</title>
<g id="a_edge4_Node000004_Node000005"><a xlink:title=" ">
<path fill="none" stroke="#63b8ff" d="M124.02,-47.29C115.51,-38.28 105.52,-27.7 98.53,-20.3"/>
<polygon fill="#63b8ff" stroke="#63b8ff" points="121.42,-49.63 130.83,-54.49 126.51,-44.82 121.42,-49.63"/>
</a>
</g>
</g>
<!-- Node6 -->
<g id="Node000006" class="node">
<title>Node6</title>
<g id="a_Node000006"><a xlink:href="mapek_8hpp.html" target="_top" xlink:title=" ">
<polygon fill="white" stroke="#666666" points="223.75,-20 159.75,-20 159.75,0 223.75,0 223.75,-20"/>
<text xml:space="preserve" text-anchor="middle" x="191.75" y="-6.5" font-family="Helvetica,sans-Serif" font-size="10.00">mapek.hpp</text>
</a>
</g>
</g>
<!-- Node4&#45;&gt;Node6 -->
<g id="edge5_Node000004_Node000006" class="edge">
<title>Node4&#45;&gt;Node6</title>
<g id="a_edge5_Node000004_Node000006"><a xlink:title=" ">
<path fill="none" stroke="#63b8ff" d="M157.48,-47.29C165.99,-38.28 175.98,-27.7 182.97,-20.3"/>
<polygon fill="#63b8ff" stroke="#63b8ff" points="154.99,-44.82 150.67,-54.49 160.08,-49.63 154.99,-44.82"/>
</a>
</g>
</g>
</g>
</svg>
