<?xml version="1.0" encoding="UTF-8" standalone="no"?>
<!DOCTYPE svg PUBLIC "-//W3C//DTD SVG 1.1//EN"
 "http://www.w3.org/Graphics/SVG/1.1/DTD/svg11.dtd">
<!-- Generated by graphviz version 13.1.0 (0)
 -->
<!-- Title: element.cpp Pages: 1 -->
<svg width="478pt" height="252pt"
 viewBox="0.00 0.00 478.00 252.00" xmlns="http://www.w3.org/2000/svg" xmlns:xlink="http://www.w3.org/1999/xlink">
<g id="graph0" class="graph" transform="scale(1 1) rotate(0) translate(4 248)">
<title>element.cpp</title>
<!-- Node1 -->
<g id="Node000001" class="node">
<title>Node1</title>
<g id="a_Node000001"><a xlink:title=" ">
<polygon fill="#999999" stroke="#666666" points="165.38,-244 96.12,-244 96.12,-224 165.38,-224 165.38,-244"/>
<text xml:space="preserve" text-anchor="middle" x="130.75" y="-230.5" font-family="Helvetica,sans-Serif" font-size="10.00">element.cpp</text>
</a>
</g>
</g>
<!-- Node2 -->
<g id="Node000002" class="node">
<title>Node2</title>
<g id="a_Node000002"><a xlink:href="element_8hpp.html" target="_top" xlink:title=" ">
<polygon fill="white" stroke="#666666" points="165.38,-188 96.12,-188 96.12,-168 165.38,-168 165.38,-188"/>
<text xml:space="preserve" text-anchor="middle" x="130.75" y="-174.5" font-family="Helvetica,sans-Serif" font-size="10.00">element.hpp</text>
</a>
</g>
</g>
<!-- Node1&#45;&gt;Node2 -->
<g id="edge1_Node000001_Node000002" class="edge">
<title>Node1&#45;&gt;Node2</title>
<g id="a_edge1_Node000001_Node000002"><a xlink:title=" ">
<path fill="none" stroke="#63b8ff" d="M130.75,-223.59C130.75,-217.01 130.75,-207.96 130.75,-199.73"/>
<polygon fill="#63b8ff" stroke="#63b8ff" points="134.25,-199.81 130.75,-189.81 127.25,-199.81 134.25,-199.81"/>
</a>
</g>
</g>
<!-- Node3 -->
<g id="Node000003" class="node">
<title>Node3</title>
<g id="a_Node000003"><a xlink:title=" ">
<polygon fill="#e0e0e0" stroke="#999999" points="53.5,-20 0,-20 0,0 53.5,0 53.5,-20"/>
<text xml:space="preserve" text-anchor="middle" x="26.75" y="-6.5" font-family="Helvetica,sans-Serif" font-size="10.00">iostream</text>
</a>
</g>
</g>
<!-- Node2&#45;&gt;Node3 -->
<g id="edge2_Node000002_Node000003" class="edge">
<title>Node2&#45;&gt;Node3</title>
<g id="a_edge2_Node000002_Node000003"><a xlink:title=" ">
<path fill="none" stroke="#63b8ff" d="M115.01,-167.7C90.8,-152.3 45.67,-118.88 30.75,-76 25.79,-61.74 24.91,-44.68 25.21,-31.61"/>
<polygon fill="#63b8ff" stroke="#63b8ff" points="28.71,-31.81 25.72,-21.64 21.72,-31.45 28.71,-31.81"/>
</a>
</g>
</g>
<!-- Node4 -->
<g id="Node000004" class="node">
<title>Node4</title>
<g id="a_Node000004"><a xlink:href="compositeNode_8hpp.html" target="_top" xlink:title=" ">
<polygon fill="white" stroke="#666666" points="182.25,-132 79.25,-132 79.25,-112 182.25,-112 182.25,-132"/>
<text xml:space="preserve" text-anchor="middle" x="130.75" y="-118.5" font-family="Helvetica,sans-Serif" font-size="10.00">compositeNode.hpp</text>
</a>
</g>
</g>
<!-- Node2&#45;&gt;Node4 -->
<g id="edge3_Node000002_Node000004" class="edge">
<title>Node2&#45;&gt;Node4</title>
<g id="a_edge3_Node000002_Node000004"><a xlink:title=" ">
<path fill="none" stroke="#63b8ff" d="M130.75,-167.59C130.75,-161.01 130.75,-151.96 130.75,-143.73"/>
<polygon fill="#63b8ff" stroke="#63b8ff" points="134.25,-143.81 130.75,-133.81 127.25,-143.81 134.25,-143.81"/>
</a>
</g>
</g>
<!-- Node5 -->
<g id="Node000005" class="node">
<title>Node5</title>
<g id="a_Node000005"><a xlink:href="knowledge_8hpp.html" target="_top" xlink:title=" ">
<polygon fill="white" stroke="#666666" points="305.38,-76 224.12,-76 224.12,-56 305.38,-56 305.38,-76"/>
<text xml:space="preserve" text-anchor="middle" x="264.75" y="-62.5" font-family="Helvetica,sans-Serif" font-size="10.00">knowledge.hpp</text>
</a>
</g>
</g>
<!-- Node2&#45;&gt;Node5 -->
<g id="edge12_Node000002_Node000005" class="edge">
<title>Node2&#45;&gt;Node5</title>
<g id="a_edge12_Node000002_Node000005"><a xlink:title=" ">
<path fill="none" stroke="#63b8ff" d="M144.1,-167.69C156.64,-158.81 175.81,-144.93 191.75,-132 211.18,-116.24 232.43,-97.08 246.97,-83.66"/>
<polygon fill="#63b8ff" stroke="#63b8ff" points="249.03,-86.53 253.97,-77.16 244.26,-81.4 249.03,-86.53"/>
</a>
</g>
</g>
<!-- Node4&#45;&gt;Node3 -->
<g id="edge4_Node000004_Node000003" class="edge">
<title>Node4&#45;&gt;Node3</title>
<g id="a_edge4_Node000004_Node000003"><a xlink:title=" ">
<path fill="none" stroke="#63b8ff" d="M100.05,-111.58C81.84,-104.51 59.68,-93.08 45.75,-76 35.51,-63.44 30.79,-45.57 28.61,-31.74"/>
<polygon fill="#63b8ff" stroke="#63b8ff" points="32.1,-31.46 27.43,-21.95 25.15,-32.3 32.1,-31.46"/>
</a>
</g>
</g>
<!-- Node4&#45;&gt;Node5 -->
<g id="edge5_Node000004_Node000005" class="edge">
<title>Node4&#45;&gt;Node5</title>
<g id="a_edge5_Node000004_Node000005"><a xlink:title=" ">
<path fill="none" stroke="#63b8ff" d="M154.09,-111.59C175.29,-103.05 206.82,-90.35 230.8,-80.68"/>
<polygon fill="#63b8ff" stroke="#63b8ff" points="231.86,-84.03 239.82,-77.05 229.24,-77.54 231.86,-84.03"/>
</a>
</g>
</g>
<!-- Node10 -->
<g id="Node000010" class="node">
<title>Node10</title>
<g id="a_Node000010"><a xlink:title=" ">
<polygon fill="#e0e0e0" stroke="#999999" points="206.25,-76 55.25,-76 55.25,-56 206.25,-56 206.25,-76"/>
<text xml:space="preserve" text-anchor="middle" x="130.75" y="-62.5" font-family="Helvetica,sans-Serif" font-size="10.00">enum/compositeNodeType.hpp</text>
</a>
</g>
</g>
<!-- Node4&#45;&gt;Node10 -->
<g id="edge11_Node000004_Node000010" class="edge">
<title>Node4&#45;&gt;Node10</title>
<g id="a_edge11_Node000004_Node000010"><a xlink:title=" ">
<path fill="none" stroke="#63b8ff" d="M130.75,-111.59C130.75,-105.01 130.75,-95.96 130.75,-87.73"/>
<polygon fill="#63b8ff" stroke="#63b8ff" points="134.25,-87.81 130.75,-77.81 127.25,-87.81 134.25,-87.81"/>
</a>
</g>
</g>
<!-- Node5&#45;&gt;Node3 -->
<g id="edge6_Node000005_Node000003" class="edge">
<title>Node5&#45;&gt;Node3</title>
<g id="a_edge6_Node000005_Node000003"><a xlink:title=" ">
<path fill="none" stroke="#63b8ff" d="M223.84,-55.72C179.18,-45.59 108.27,-29.5 64.78,-19.63"/>
<polygon fill="#63b8ff" stroke="#63b8ff" points="65.82,-16.28 55.3,-17.48 64.28,-23.1 65.82,-16.28"/>
</a>
</g>
</g>
<!-- Node6 -->
<g id="Node000006" class="node">
<title>Node6</title>
<g id="a_Node000006"><a xlink:title=" ">
<polygon fill="#e0e0e0" stroke="#999999" points="176.15,-20 147.35,-20 147.35,0 176.15,0 176.15,-20"/>
<text xml:space="preserve" text-anchor="middle" x="161.75" y="-6.5" font-family="Helvetica,sans-Serif" font-size="10.00">list</text>
</a>
</g>
</g>
<!-- Node5&#45;&gt;Node6 -->
<g id="edge7_Node000005_Node000006" class="edge">
<title>Node5&#45;&gt;Node6</title>
<g id="a_edge7_Node000005_Node000006"><a xlink:title=" ">
<path fill="none" stroke="#63b8ff" d="M246.81,-55.59C230.14,-46.85 205.16,-33.76 186.58,-24.02"/>
<polygon fill="#63b8ff" stroke="#63b8ff" points="188.31,-20.97 177.83,-19.43 185.06,-27.17 188.31,-20.97"/>
</a>
</g>
</g>
<!-- Node7 -->
<g id="Node000007" class="node">
<title>Node7</title>
<g id="a_Node000007"><a xlink:title=" ">
<polygon fill="#e0e0e0" stroke="#999999" points="245.38,-20 194.12,-20 194.12,0 245.38,0 245.38,-20"/>
<text xml:space="preserve" text-anchor="middle" x="219.75" y="-6.5" font-family="Helvetica,sans-Serif" font-size="10.00">memory</text>
</a>
</g>
</g>
<!-- Node5&#45;&gt;Node7 -->
<g id="edge8_Node000005_Node000007" class="edge">
<title>Node5&#45;&gt;Node7</title>
<g id="a_edge8_Node000005_Node000007"><a xlink:title=" ">
<path fill="none" stroke="#63b8ff" d="M256.91,-55.59C250.78,-48.24 242.08,-37.8 234.64,-28.87"/>
<polygon fill="#63b8ff" stroke="#63b8ff" points="237.56,-26.9 228.47,-21.46 232.18,-31.38 237.56,-26.9"/>
</a>
</g>
</g>
<!-- Node8 -->
<g id="Node000008" class="node">
<title>Node8</title>
<g id="a_Node000008"><a xlink:title=" ">
<polygon fill="#e0e0e0" stroke="#999999" points="353.88,-20 263.62,-20 263.62,0 353.88,0 353.88,-20"/>
<text xml:space="preserve" text-anchor="middle" x="308.75" y="-6.5" font-family="Helvetica,sans-Serif" font-size="10.00">model/model.hpp</text>
</a>
</g>
</g>
<!-- Node5&#45;&gt;Node8 -->
<g id="edge9_Node000005_Node000008" class="edge">
<title>Node5&#45;&gt;Node8</title>
<g id="a_edge9_Node000005_Node000008"><a xlink:title=" ">
<path fill="none" stroke="#63b8ff" d="M272.41,-55.59C278.34,-48.32 286.74,-38.02 293.96,-29.15"/>
<polygon fill="#63b8ff" stroke="#63b8ff" points="296.61,-31.43 300.22,-21.47 291.19,-27.01 296.61,-31.43"/>
</a>
</g>
</g>
<!-- Node9 -->
<g id="Node000009" class="node">
<title>Node9</title>
<g id="a_Node000009"><a xlink:title=" ">
<polygon fill="#e0e0e0" stroke="#999999" points="470,-20 371.5,-20 371.5,0 470,0 470,-20"/>
<text xml:space="preserve" text-anchor="middle" x="420.75" y="-6.5" font-family="Helvetica,sans-Serif" font-size="10.00">model/strategy.hpp</text>
</a>
</g>
</g>
<!-- Node5&#45;&gt;Node9 -->
<g id="edge10_Node000005_Node000009" class="edge">
<title>Node5&#45;&gt;Node9</title>
<g id="a_edge10_Node000005_Node000009"><a xlink:title=" ">
<path fill="none" stroke="#63b8ff" d="M291.92,-55.59C317.05,-46.9 354.63,-33.89 382.73,-24.16"/>
<polygon fill="#63b8ff" stroke="#63b8ff" points="383.63,-27.55 391.93,-20.97 381.34,-20.94 383.63,-27.55"/>
</a>
</g>
</g>
</g>
</svg>
