<?xml version="1.0" encoding="UTF-8" standalone="no"?>
<!DOCTYPE svg PUBLIC "-//W3C//DTD SVG 1.1//EN"
 "http://www.w3.org/Graphics/SVG/1.1/DTD/svg11.dtd">
<!-- Generated by graphviz version 13.1.0 (0)
 -->
<!-- Title: element.hpp Pages: 1 -->
<svg width="489pt" height="196pt"
 viewBox="0.00 0.00 489.00 196.00" xmlns="http://www.w3.org/2000/svg" xmlns:xlink="http://www.w3.org/1999/xlink">
<g id="graph0" class="graph" transform="scale(1 1) rotate(0) translate(4 192)">
<title>element.hpp</title>
<!-- Node1 -->
<g id="Node000001" class="node">
<title>Node1</title>
<g id="a_Node000001"><a xlink:title=" ">
<polygon fill="#999999" stroke="#666666" points="310.38,-188 241.12,-188 241.12,-168 310.38,-168 310.38,-188"/>
<text xml:space="preserve" text-anchor="middle" x="275.75" y="-174.5" font-family="Helvetica,sans-Serif" font-size="10.00">element.hpp</text>
</a>
</g>
</g>
<!-- Node2 -->
<g id="Node000002" class="node">
<title>Node2</title>
<g id="a_Node000002"><a xlink:href="analyzer_8hpp.html" target="_top" xlink:title=" ">
<polygon fill="white" stroke="#666666" points="133.5,-132 62,-132 62,-112 133.5,-112 133.5,-132"/>
<text xml:space="preserve" text-anchor="middle" x="97.75" y="-118.5" font-family="Helvetica,sans-Serif" font-size="10.00">analyzer.hpp</text>
</a>
</g>
</g>
<!-- Node1&#45;&gt;Node2 -->
<g id="edge1_Node000001_Node000002" class="edge">
<title>Node1&#45;&gt;Node2</title>
<g id="a_edge1_Node000001_Node000002"><a xlink:title=" ">
<path fill="none" stroke="#63b8ff" d="M233.9,-164.31C201.78,-154.56 158.12,-141.32 129,-132.48"/>
<polygon fill="#63b8ff" stroke="#63b8ff" points="232.71,-167.6 243.3,-167.15 234.74,-160.9 232.71,-167.6"/>
</a>
</g>
</g>
<!-- Node7 -->
<g id="Node000007" class="node">
<title>Node7</title>
<g id="a_Node000007"><a xlink:href="element_8cpp.html" target="_top" xlink:title=" ">
<polygon fill="white" stroke="#666666" points="481.38,-132 412.12,-132 412.12,-112 481.38,-112 481.38,-132"/>
<text xml:space="preserve" text-anchor="middle" x="446.75" y="-118.5" font-family="Helvetica,sans-Serif" font-size="10.00">element.cpp</text>
</a>
</g>
</g>
<!-- Node1&#45;&gt;Node7 -->
<g id="edge6_Node000001_Node000007" class="edge">
<title>Node1&#45;&gt;Node7</title>
<g id="a_edge6_Node000001_Node000007"><a xlink:title=" ">
<path fill="none" stroke="#63b8ff" d="M316.35,-164.18C347.18,-154.44 388.87,-141.28 416.73,-132.48"/>
<polygon fill="#63b8ff" stroke="#63b8ff" points="315.46,-160.79 306.98,-167.14 317.57,-167.46 315.46,-160.79"/>
</a>
</g>
</g>
<!-- Node8 -->
<g id="Node000008" class="node">
<title>Node8</title>
<g id="a_Node000008"><a xlink:href="executor_8hpp.html" target="_top" xlink:title=" ">
<polygon fill="white" stroke="#666666" points="223.88,-132 151.62,-132 151.62,-112 223.88,-112 223.88,-132"/>
<text xml:space="preserve" text-anchor="middle" x="187.75" y="-118.5" font-family="Helvetica,sans-Serif" font-size="10.00">executor.hpp</text>
</a>
</g>
</g>
<!-- Node1&#45;&gt;Node8 -->
<g id="edge7_Node000001_Node000008" class="edge">
<title>Node1&#45;&gt;Node8</title>
<g id="a_edge7_Node000001_Node000008"><a xlink:title=" ">
<path fill="none" stroke="#63b8ff" d="M251,-161.81C235.65,-152.39 216.4,-140.58 203.2,-132.48"/>
<polygon fill="#63b8ff" stroke="#63b8ff" points="248.78,-164.56 259.13,-166.8 252.44,-158.59 248.78,-164.56"/>
</a>
</g>
</g>
<!-- Node10 -->
<g id="Node000010" class="node">
<title>Node10</title>
<g id="a_Node000010"><a xlink:href="monitor_8hpp.html" target="_top" xlink:title=" ">
<polygon fill="white" stroke="#666666" points="309.25,-132 242.25,-132 242.25,-112 309.25,-112 309.25,-132"/>
<text xml:space="preserve" text-anchor="middle" x="275.75" y="-118.5" font-family="Helvetica,sans-Serif" font-size="10.00">monitor.hpp</text>
</a>
</g>
</g>
<!-- Node1&#45;&gt;Node10 -->
<g id="edge10_Node000001_Node000010" class="edge">
<title>Node1&#45;&gt;Node10</title>
<g id="a_edge10_Node000001_Node000010"><a xlink:title=" ">
<path fill="none" stroke="#63b8ff" d="M275.75,-156.13C275.75,-147.9 275.75,-138.85 275.75,-132.3"/>
<polygon fill="#63b8ff" stroke="#63b8ff" points="272.25,-156.08 275.75,-166.08 279.25,-156.08 272.25,-156.08"/>
</a>
</g>
</g>
<!-- Node12 -->
<g id="Node000012" class="node">
<title>Node12</title>
<g id="a_Node000012"><a xlink:href="planner_8hpp.html" target="_top" xlink:title=" ">
<polygon fill="white" stroke="#666666" points="393.88,-132 327.62,-132 327.62,-112 393.88,-112 393.88,-132"/>
<text xml:space="preserve" text-anchor="middle" x="360.75" y="-118.5" font-family="Helvetica,sans-Serif" font-size="10.00">planner.hpp</text>
</a>
</g>
</g>
<!-- Node1&#45;&gt;Node12 -->
<g id="edge13_Node000001_Node000012" class="edge">
<title>Node1&#45;&gt;Node12</title>
<g id="a_edge13_Node000001_Node000012"><a xlink:title=" ">
<path fill="none" stroke="#63b8ff" d="M300.08,-161.54C314.84,-152.17 333.19,-140.51 345.83,-132.48"/>
<polygon fill="#63b8ff" stroke="#63b8ff" points="298.4,-158.47 291.83,-166.78 302.15,-164.37 298.4,-158.47"/>
</a>
</g>
</g>
<!-- Node3 -->
<g id="Node000003" class="node">
<title>Node3</title>
<g id="a_Node000003"><a xlink:href="analyzer_8cpp.html" target="_top" xlink:title=" ">
<polygon fill="white" stroke="#666666" points="71.5,-76 0,-76 0,-56 71.5,-56 71.5,-76"/>
<text xml:space="preserve" text-anchor="middle" x="35.75" y="-62.5" font-family="Helvetica,sans-Serif" font-size="10.00">analyzer.cpp</text>
</a>
</g>
</g>
<!-- Node2&#45;&gt;Node3 -->
<g id="edge2_Node000002_Node000003" class="edge">
<title>Node2&#45;&gt;Node3</title>
<g id="a_edge2_Node000002_Node000003"><a xlink:title=" ">
<path fill="none" stroke="#63b8ff" d="M78.38,-104.13C67.83,-94.94 55.19,-83.93 46.43,-76.3"/>
<polygon fill="#63b8ff" stroke="#63b8ff" points="75.97,-106.67 85.81,-110.6 80.57,-101.39 75.97,-106.67"/>
</a>
</g>
</g>
<!-- Node4 -->
<g id="Node000004" class="node">
<title>Node4</title>
<g id="a_Node000004"><a xlink:href="loopComponent_8hpp.html" target="_top" xlink:title=" ">
<polygon fill="white" stroke="#666666" points="283.25,-76 180.25,-76 180.25,-56 283.25,-56 283.25,-76"/>
<text xml:space="preserve" text-anchor="middle" x="231.75" y="-62.5" font-family="Helvetica,sans-Serif" font-size="10.00">loopComponent.hpp</text>
</a>
</g>
</g>
<!-- Node2&#45;&gt;Node4 -->
<g id="edge3_Node000002_Node000004" class="edge">
<title>Node2&#45;&gt;Node4</title>
<g id="a_edge3_Node000002_Node000004"><a xlink:title=" ">
<path fill="none" stroke="#63b8ff" d="M131.49,-107.4C155.44,-97.75 186.97,-85.05 208.23,-76.48"/>
<polygon fill="#63b8ff" stroke="#63b8ff" points="130.46,-104.04 122.49,-111.03 133.08,-110.54 130.46,-104.04"/>
</a>
</g>
</g>
<!-- Node5 -->
<g id="Node000005" class="node">
<title>Node5</title>
<g id="a_Node000005"><a xlink:href="loopComponent_8cpp.html" target="_top" xlink:title=" ">
<polygon fill="white" stroke="#666666" points="232.25,-20 129.25,-20 129.25,0 232.25,0 232.25,-20"/>
<text xml:space="preserve" text-anchor="middle" x="180.75" y="-6.5" font-family="Helvetica,sans-Serif" font-size="10.00">loopComponent.cpp</text>
</a>
</g>
</g>
<!-- Node4&#45;&gt;Node5 -->
<g id="edge4_Node000004_Node000005" class="edge">
<title>Node4&#45;&gt;Node5</title>
<g id="a_edge4_Node000004_Node000005"><a xlink:title=" ">
<path fill="none" stroke="#63b8ff" d="M215.02,-47.29C206.51,-38.28 196.52,-27.7 189.53,-20.3"/>
<polygon fill="#63b8ff" stroke="#63b8ff" points="212.42,-49.63 221.83,-54.49 217.51,-44.82 212.42,-49.63"/>
</a>
</g>
</g>
<!-- Node6 -->
<g id="Node000006" class="node">
<title>Node6</title>
<g id="a_Node000006"><a xlink:href="mapek_8hpp.html" target="_top" xlink:title=" ">
<polygon fill="white" stroke="#666666" points="314.75,-20 250.75,-20 250.75,0 314.75,0 314.75,-20"/>
<text xml:space="preserve" text-anchor="middle" x="282.75" y="-6.5" font-family="Helvetica,sans-Serif" font-size="10.00">mapek.hpp</text>
</a>
</g>
</g>
<!-- Node4&#45;&gt;Node6 -->
<g id="edge5_Node000004_Node000006" class="edge">
<title>Node4&#45;&gt;Node6</title>
<g id="a_edge5_Node000004_Node000006"><a xlink:title=" ">
<path fill="none" stroke="#63b8ff" d="M248.48,-47.29C256.99,-38.28 266.98,-27.7 273.97,-20.3"/>
<polygon fill="#63b8ff" stroke="#63b8ff" points="245.99,-44.82 241.67,-54.49 251.08,-49.63 245.99,-44.82"/>
</a>
</g>
</g>
<!-- Node8&#45;&gt;Node4 -->
<g id="edge9_Node000008_Node000004" class="edge">
<title>Node8&#45;&gt;Node4</title>
<g id="a_edge9_Node000008_Node000004"><a xlink:title=" ">
<path fill="none" stroke="#63b8ff" d="M202.64,-102.72C209.88,-93.84 218.27,-83.55 224.17,-76.3"/>
<polygon fill="#63b8ff" stroke="#63b8ff" points="199.97,-100.46 196.37,-110.42 205.4,-104.88 199.97,-100.46"/>
</a>
</g>
</g>
<!-- Node9 -->
<g id="Node000009" class="node">
<title>Node9</title>
<g id="a_Node000009"><a xlink:href="executor_8cpp.html" target="_top" xlink:title=" ">
<polygon fill="white" stroke="#666666" points="161.88,-76 89.62,-76 89.62,-56 161.88,-56 161.88,-76"/>
<text xml:space="preserve" text-anchor="middle" x="125.75" y="-62.5" font-family="Helvetica,sans-Serif" font-size="10.00">executor.cpp</text>
</a>
</g>
</g>
<!-- Node8&#45;&gt;Node9 -->
<g id="edge8_Node000008_Node000009" class="edge">
<title>Node8&#45;&gt;Node9</title>
<g id="a_edge8_Node000008_Node000009"><a xlink:title=" ">
<path fill="none" stroke="#63b8ff" d="M168.38,-104.13C157.83,-94.94 145.19,-83.93 136.43,-76.3"/>
<polygon fill="#63b8ff" stroke="#63b8ff" points="165.97,-106.67 175.81,-110.6 170.57,-101.39 165.97,-106.67"/>
</a>
</g>
</g>
<!-- Node10&#45;&gt;Node4 -->
<g id="edge11_Node000010_Node000004" class="edge">
<title>Node10&#45;&gt;Node4</title>
<g id="a_edge11_Node000010_Node000004"><a xlink:title=" ">
<path fill="none" stroke="#63b8ff" d="M260.86,-102.72C253.62,-93.84 245.23,-83.55 239.33,-76.3"/>
<polygon fill="#63b8ff" stroke="#63b8ff" points="258.1,-104.88 267.13,-110.42 263.53,-100.46 258.1,-104.88"/>
</a>
</g>
</g>
<!-- Node11 -->
<g id="Node000011" class="node">
<title>Node11</title>
<g id="a_Node000011"><a xlink:href="monitor_8cpp.html" target="_top" xlink:title=" ">
<polygon fill="white" stroke="#666666" points="368.25,-76 301.25,-76 301.25,-56 368.25,-56 368.25,-76"/>
<text xml:space="preserve" text-anchor="middle" x="334.75" y="-62.5" font-family="Helvetica,sans-Serif" font-size="10.00">monitor.cpp</text>
</a>
</g>
</g>
<!-- Node10&#45;&gt;Node11 -->
<g id="edge12_Node000010_Node000011" class="edge">
<title>Node10&#45;&gt;Node11</title>
<g id="a_edge12_Node000010_Node000011"><a xlink:title=" ">
<path fill="none" stroke="#63b8ff" d="M294.49,-103.85C304.46,-94.72 316.33,-83.86 324.59,-76.3"/>
<polygon fill="#63b8ff" stroke="#63b8ff" points="292.16,-101.24 287.14,-110.57 296.88,-106.4 292.16,-101.24"/>
</a>
</g>
</g>
<!-- Node12&#45;&gt;Node4 -->
<g id="edge14_Node000012_Node000004" class="edge">
<title>Node12&#45;&gt;Node4</title>
<g id="a_edge14_Node000012_Node000004"><a xlink:title=" ">
<path fill="none" stroke="#63b8ff" d="M327.95,-107.27C304.94,-97.64 274.77,-85.01 254.4,-76.48"/>
<polygon fill="#63b8ff" stroke="#63b8ff" points="326.31,-110.38 336.88,-111.01 329.01,-103.92 326.31,-110.38"/>
</a>
</g>
</g>
<!-- Node13 -->
<g id="Node000013" class="node">
<title>Node13</title>
<g id="a_Node000013"><a xlink:href="planner_8cpp.html" target="_top" xlink:title=" ">
<polygon fill="white" stroke="#666666" points="452.88,-76 386.62,-76 386.62,-56 452.88,-56 452.88,-76"/>
<text xml:space="preserve" text-anchor="middle" x="419.75" y="-62.5" font-family="Helvetica,sans-Serif" font-size="10.00">planner.cpp</text>
</a>
</g>
</g>
<!-- Node12&#45;&gt;Node13 -->
<g id="edge15_Node000012_Node000013" class="edge">
<title>Node12&#45;&gt;Node13</title>
<g id="a_edge15_Node000012_Node000013"><a xlink:title=" ">
<path fill="none" stroke="#63b8ff" d="M379.49,-103.85C389.46,-94.72 401.33,-83.86 409.59,-76.3"/>
<polygon fill="#63b8ff" stroke="#63b8ff" points="377.16,-101.24 372.14,-110.57 381.88,-106.4 377.16,-101.24"/>
</a>
</g>
</g>
</g>
</svg>
