<?xml version="1.0" encoding="UTF-8" standalone="no"?>
<!DOCTYPE svg PUBLIC "-//W3C//DTD SVG 1.1//EN"
 "http://www.w3.org/Graphics/SVG/1.1/DTD/svg11.dtd">
<!-- Generated by graphviz version 13.1.0 (0)
 -->
<!-- Title: executor.hpp Pages: 1 -->
<svg width="233pt" height="140pt"
 viewBox="0.00 0.00 233.00 140.00" xmlns="http://www.w3.org/2000/svg" xmlns:xlink="http://www.w3.org/1999/xlink">
<g id="graph0" class="graph" transform="scale(1 1) rotate(0) translate(4 136)">
<title>executor.hpp</title>
<!-- Node1 -->
<g id="Node000001" class="node">
<title>Node1</title>
<g id="a_Node000001"><a xlink:title=" ">
<polygon fill="#999999" stroke="#666666" points="125.25,-132 53,-132 53,-112 125.25,-112 125.25,-132"/>
<text xml:space="preserve" text-anchor="middle" x="89.12" y="-118.5" font-family="Helvetica,sans-Serif" font-size="10.00">executor.hpp</text>
</a>
</g>
</g>
<!-- Node2 -->
<g id="Node000002" class="node">
<title>Node2</title>
<g id="a_Node000002"><a xlink:href="executor_8cpp.html" target="_top" xlink:title=" ">
<polygon fill="white" stroke="#666666" points="72.25,-76 0,-76 0,-56 72.25,-56 72.25,-76"/>
<text xml:space="preserve" text-anchor="middle" x="36.12" y="-62.5" font-family="Helvetica,sans-Serif" font-size="10.00">executor.cpp</text>
</a>
</g>
</g>
<!-- Node1&#45;&gt;Node2 -->
<g id="edge1_Node000001_Node000002" class="edge">
<title>Node1&#45;&gt;Node2</title>
<g id="a_edge1_Node000001_Node000002"><a xlink:title=" ">
<path fill="none" stroke="#63b8ff" d="M72.01,-103.57C63.11,-94.5 52.59,-83.78 45.25,-76.3"/>
<polygon fill="#63b8ff" stroke="#63b8ff" points="69.33,-105.83 78.83,-110.51 74.33,-100.93 69.33,-105.83"/>
</a>
</g>
</g>
<!-- Node3 -->
<g id="Node000003" class="node">
<title>Node3</title>
<g id="a_Node000003"><a xlink:href="loopComponent_8hpp.html" target="_top" xlink:title=" ">
<polygon fill="white" stroke="#666666" points="193.62,-76 90.62,-76 90.62,-56 193.62,-56 193.62,-76"/>
<text xml:space="preserve" text-anchor="middle" x="142.12" y="-62.5" font-family="Helvetica,sans-Serif" font-size="10.00">loopComponent.hpp</text>
</a>
</g>
</g>
<!-- Node1&#45;&gt;Node3 -->
<g id="edge2_Node000001_Node000003" class="edge">
<title>Node1&#45;&gt;Node3</title>
<g id="a_edge2_Node000001_Node000003"><a xlink:title=" ">
<path fill="none" stroke="#63b8ff" d="M106.24,-103.57C115.14,-94.5 125.66,-83.78 133,-76.3"/>
<polygon fill="#63b8ff" stroke="#63b8ff" points="103.92,-100.93 99.42,-110.51 108.92,-105.83 103.92,-100.93"/>
</a>
</g>
</g>
<!-- Node4 -->
<g id="Node000004" class="node">
<title>Node4</title>
<g id="a_Node000004"><a xlink:href="loopComponent_8cpp.html" target="_top" xlink:title=" ">
<polygon fill="white" stroke="#666666" points="142.62,-20 39.62,-20 39.62,0 142.62,0 142.62,-20"/>
<text xml:space="preserve" text-anchor="middle" x="91.12" y="-6.5" font-family="Helvetica,sans-Serif" font-size="10.00">loopComponent.cpp</text>
</a>
</g>
</g>
<!-- Node3&#45;&gt;Node4 -->
<g id="edge3_Node000003_Node000004" class="edge">
<title>Node3&#45;&gt;Node4</title>
<g id="a_edge3_Node000003_Node000004"><a xlink:title=" ">
<path fill="none" stroke="#63b8ff" d="M125.39,-47.29C116.89,-38.28 106.9,-27.7 99.91,-20.3"/>
<polygon fill="#63b8ff" stroke="#63b8ff" points="122.79,-49.63 132.2,-54.49 127.88,-44.82 122.79,-49.63"/>
</a>
</g>
</g>
<!-- Node5 -->
<g id="Node000005" class="node">
<title>Node5</title>
<g id="a_Node000005"><a xlink:href="mapek_8hpp.html" target="_top" xlink:title=" ">
<polygon fill="white" stroke="#666666" points="225.12,-20 161.12,-20 161.12,0 225.12,0 225.12,-20"/>
<text xml:space="preserve" text-anchor="middle" x="193.12" y="-6.5" font-family="Helvetica,sans-Serif" font-size="10.00">mapek.hpp</text>
</a>
</g>
</g>
<!-- Node3&#45;&gt;Node5 -->
<g id="edge4_Node000003_Node000005" class="edge">
<title>Node3&#45;&gt;Node5</title>
<g id="a_edge4_Node000003_Node000005"><a xlink:title=" ">
<path fill="none" stroke="#63b8ff" d="M158.86,-47.29C167.36,-38.28 177.35,-27.7 184.34,-20.3"/>
<polygon fill="#63b8ff" stroke="#63b8ff" points="156.37,-44.82 152.05,-54.49 161.46,-49.63 156.37,-44.82"/>
</a>
</g>
</g>
</g>
</svg>
