<?xml version="1.0" encoding="UTF-8" standalone="no"?>
<!DOCTYPE svg PUBLIC "-//W3C//DTD SVG 1.1//EN"
 "http://www.w3.org/Graphics/SVG/1.1/DTD/svg11.dtd">
<!-- Generated by graphviz version 13.1.0 (0)
 -->
<!-- Title: executor.cpp Pages: 1 -->
<svg width="532pt" height="308pt"
 viewBox="0.00 0.00 532.00 308.00" xmlns="http://www.w3.org/2000/svg" xmlns:xlink="http://www.w3.org/1999/xlink">
<g id="graph0" class="graph" transform="scale(1 1) rotate(0) translate(4 304)">
<title>executor.cpp</title>
<!-- Node1 -->
<g id="Node000001" class="node">
<title>Node1</title>
<g id="a_Node000001"><a xlink:title=" ">
<polygon fill="#999999" stroke="#666666" points="72.25,-300 0,-300 0,-280 72.25,-280 72.25,-300"/>
<text xml:space="preserve" text-anchor="middle" x="36.12" y="-286.5" font-family="Helvetica,sans-Serif" font-size="10.00">executor.cpp</text>
</a>
</g>
</g>
<!-- Node2 -->
<g id="Node000002" class="node">
<title>Node2</title>
<g id="a_Node000002"><a xlink:href="executor_8hpp.html" target="_top" xlink:title=" ">
<polygon fill="white" stroke="#666666" points="72.25,-244 0,-244 0,-224 72.25,-224 72.25,-244"/>
<text xml:space="preserve" text-anchor="middle" x="36.12" y="-230.5" font-family="Helvetica,sans-Serif" font-size="10.00">executor.hpp</text>
</a>
</g>
</g>
<!-- Node1&#45;&gt;Node2 -->
<g id="edge1_Node000001_Node000002" class="edge">
<title>Node1&#45;&gt;Node2</title>
<g id="a_edge1_Node000001_Node000002"><a xlink:title=" ">
<path fill="none" stroke="#63b8ff" d="M36.12,-279.59C36.12,-273.01 36.12,-263.96 36.12,-255.73"/>
<polygon fill="#63b8ff" stroke="#63b8ff" points="39.63,-255.81 36.13,-245.81 32.63,-255.81 39.63,-255.81"/>
</a>
</g>
</g>
<!-- Node3 -->
<g id="Node000003" class="node">
<title>Node3</title>
<g id="a_Node000003"><a xlink:title=" ">
<polygon fill="#e0e0e0" stroke="#999999" points="88.88,-20 35.38,-20 35.38,0 88.88,0 88.88,-20"/>
<text xml:space="preserve" text-anchor="middle" x="62.12" y="-6.5" font-family="Helvetica,sans-Serif" font-size="10.00">iostream</text>
</a>
</g>
</g>
<!-- Node2&#45;&gt;Node3 -->
<g id="edge2_Node000002_Node000003" class="edge">
<title>Node2&#45;&gt;Node3</title>
<g id="a_edge2_Node000002_Node000003"><a xlink:title=" ">
<path fill="none" stroke="#63b8ff" d="M37.21,-223.74C41.07,-190.74 54.24,-78.31 59.71,-31.61"/>
<polygon fill="#63b8ff" stroke="#63b8ff" points="63.17,-32.14 60.86,-21.8 56.22,-31.32 63.17,-32.14"/>
</a>
</g>
</g>
<!-- Node4 -->
<g id="Node000004" class="node">
<title>Node4</title>
<g id="a_Node000004"><a xlink:href="element_8hpp.html" target="_top" xlink:title=" ">
<polygon fill="white" stroke="#666666" points="129.75,-188 60.5,-188 60.5,-168 129.75,-168 129.75,-188"/>
<text xml:space="preserve" text-anchor="middle" x="95.12" y="-174.5" font-family="Helvetica,sans-Serif" font-size="10.00">element.hpp</text>
</a>
</g>
</g>
<!-- Node2&#45;&gt;Node4 -->
<g id="edge3_Node000002_Node000004" class="edge">
<title>Node2&#45;&gt;Node4</title>
<g id="a_edge3_Node000002_Node000004"><a xlink:title=" ">
<path fill="none" stroke="#63b8ff" d="M46.4,-223.59C54.69,-216.01 66.57,-205.13 76.53,-196.02"/>
<polygon fill="#63b8ff" stroke="#63b8ff" points="78.84,-198.65 83.85,-189.32 74.11,-193.49 78.84,-198.65"/>
</a>
</g>
</g>
<!-- Node4&#45;&gt;Node3 -->
<g id="edge4_Node000004_Node000003" class="edge">
<title>Node4&#45;&gt;Node3</title>
<g id="a_edge4_Node000004_Node000003"><a xlink:title=" ">
<path fill="none" stroke="#63b8ff" d="M93.26,-167.6C88.06,-141.46 73.35,-67.48 66.17,-31.36"/>
<polygon fill="#63b8ff" stroke="#63b8ff" points="69.65,-30.91 64.27,-21.78 62.79,-32.27 69.65,-30.91"/>
</a>
</g>
</g>
<!-- Node5 -->
<g id="Node000005" class="node">
<title>Node5</title>
<g id="a_Node000005"><a xlink:href="compositeNode_8hpp.html" target="_top" xlink:title=" ">
<polygon fill="white" stroke="#666666" points="205.62,-132 102.62,-132 102.62,-112 205.62,-112 205.62,-132"/>
<text xml:space="preserve" text-anchor="middle" x="154.12" y="-118.5" font-family="Helvetica,sans-Serif" font-size="10.00">compositeNode.hpp</text>
</a>
</g>
</g>
<!-- Node4&#45;&gt;Node5 -->
<g id="edge5_Node000004_Node000005" class="edge">
<title>Node4&#45;&gt;Node5</title>
<g id="a_edge5_Node000004_Node000005"><a xlink:title=" ">
<path fill="none" stroke="#63b8ff" d="M105.4,-167.59C113.69,-160.01 125.57,-149.13 135.53,-140.02"/>
<polygon fill="#63b8ff" stroke="#63b8ff" points="137.84,-142.65 142.85,-133.32 133.11,-137.49 137.84,-142.65"/>
</a>
</g>
</g>
<!-- Node6 -->
<g id="Node000006" class="node">
<title>Node6</title>
<g id="a_Node000006"><a xlink:href="knowledge_8hpp.html" target="_top" xlink:title=" ">
<polygon fill="white" stroke="#666666" points="359.75,-76 278.5,-76 278.5,-56 359.75,-56 359.75,-76"/>
<text xml:space="preserve" text-anchor="middle" x="319.12" y="-62.5" font-family="Helvetica,sans-Serif" font-size="10.00">knowledge.hpp</text>
</a>
</g>
</g>
<!-- Node4&#45;&gt;Node6 -->
<g id="edge14_Node000004_Node000006" class="edge">
<title>Node4&#45;&gt;Node6</title>
<g id="a_edge14_Node000004_Node000006"><a xlink:title=" ">
<path fill="none" stroke="#63b8ff" d="M125.41,-167.52C150.1,-159.34 185.6,-146.58 215.12,-132 244.52,-117.48 276.18,-96.91 296.75,-82.82"/>
<polygon fill="#63b8ff" stroke="#63b8ff" points="298.69,-85.74 304.91,-77.16 294.7,-79.98 298.69,-85.74"/>
</a>
</g>
</g>
<!-- Node5&#45;&gt;Node3 -->
<g id="edge6_Node000005_Node000003" class="edge">
<title>Node5&#45;&gt;Node3</title>
<g id="a_edge6_Node000005_Node000003"><a xlink:title=" ">
<path fill="none" stroke="#63b8ff" d="M140.87,-111.68C129.45,-103.23 113,-89.99 101.12,-76 89.28,-62.05 78.8,-44.07 71.69,-30.56"/>
<polygon fill="#63b8ff" stroke="#63b8ff" points="74.89,-29.13 67.24,-21.8 68.65,-32.3 74.89,-29.13"/>
</a>
</g>
</g>
<!-- Node5&#45;&gt;Node6 -->
<g id="edge7_Node000005_Node000006" class="edge">
<title>Node5&#45;&gt;Node6</title>
<g id="a_edge7_Node000005_Node000006"><a xlink:title=" ">
<path fill="none" stroke="#63b8ff" d="M182.87,-111.59C209.56,-102.86 249.54,-89.77 279.3,-80.03"/>
<polygon fill="#63b8ff" stroke="#63b8ff" points="280.31,-83.39 288.72,-76.95 278.13,-76.73 280.31,-83.39"/>
</a>
</g>
</g>
<!-- Node11 -->
<g id="Node000011" class="node">
<title>Node11</title>
<g id="a_Node000011"><a xlink:title=" ">
<polygon fill="#e0e0e0" stroke="#999999" points="260.62,-76 109.62,-76 109.62,-56 260.62,-56 260.62,-76"/>
<text xml:space="preserve" text-anchor="middle" x="185.12" y="-62.5" font-family="Helvetica,sans-Serif" font-size="10.00">enum/compositeNodeType.hpp</text>
</a>
</g>
</g>
<!-- Node5&#45;&gt;Node11 -->
<g id="edge13_Node000005_Node000011" class="edge">
<title>Node5&#45;&gt;Node11</title>
<g id="a_edge13_Node000005_Node000011"><a xlink:title=" ">
<path fill="none" stroke="#63b8ff" d="M159.52,-111.59C163.57,-104.55 169.24,-94.67 174.22,-86"/>
<polygon fill="#63b8ff" stroke="#63b8ff" points="177.09,-88.03 179.03,-77.61 171.02,-84.54 177.09,-88.03"/>
</a>
</g>
</g>
<!-- Node6&#45;&gt;Node3 -->
<g id="edge8_Node000006_Node000003" class="edge">
<title>Node6&#45;&gt;Node3</title>
<g id="a_edge8_Node000006_Node000003"><a xlink:title=" ">
<path fill="none" stroke="#63b8ff" d="M278.12,-56.38C229.15,-46.1 147.91,-29.03 100.26,-19.01"/>
<polygon fill="#63b8ff" stroke="#63b8ff" points="101.18,-15.63 90.67,-17 99.74,-22.48 101.18,-15.63"/>
</a>
</g>
</g>
<!-- Node7 -->
<g id="Node000007" class="node">
<title>Node7</title>
<g id="a_Node000007"><a xlink:title=" ">
<polygon fill="#e0e0e0" stroke="#999999" points="230.53,-20 201.72,-20 201.72,0 230.53,0 230.53,-20"/>
<text xml:space="preserve" text-anchor="middle" x="216.12" y="-6.5" font-family="Helvetica,sans-Serif" font-size="10.00">list</text>
</a>
</g>
</g>
<!-- Node6&#45;&gt;Node7 -->
<g id="edge9_Node000006_Node000007" class="edge">
<title>Node6&#45;&gt;Node7</title>
<g id="a_edge9_Node000006_Node000007"><a xlink:title=" ">
<path fill="none" stroke="#63b8ff" d="M301.18,-55.59C284.51,-46.85 259.53,-33.76 240.95,-24.02"/>
<polygon fill="#63b8ff" stroke="#63b8ff" points="242.68,-20.97 232.2,-19.43 239.43,-27.17 242.68,-20.97"/>
</a>
</g>
</g>
<!-- Node8 -->
<g id="Node000008" class="node">
<title>Node8</title>
<g id="a_Node000008"><a xlink:title=" ">
<polygon fill="#e0e0e0" stroke="#999999" points="299.75,-20 248.5,-20 248.5,0 299.75,0 299.75,-20"/>
<text xml:space="preserve" text-anchor="middle" x="274.12" y="-6.5" font-family="Helvetica,sans-Serif" font-size="10.00">memory</text>
</a>
</g>
</g>
<!-- Node6&#45;&gt;Node8 -->
<g id="edge10_Node000006_Node000008" class="edge">
<title>Node6&#45;&gt;Node8</title>
<g id="a_edge10_Node000006_Node000008"><a xlink:title=" ">
<path fill="none" stroke="#63b8ff" d="M311.29,-55.59C305.16,-48.24 296.45,-37.8 289.01,-28.87"/>
<polygon fill="#63b8ff" stroke="#63b8ff" points="291.93,-26.9 282.84,-21.46 286.56,-31.38 291.93,-26.9"/>
</a>
</g>
</g>
<!-- Node9 -->
<g id="Node000009" class="node">
<title>Node9</title>
<g id="a_Node000009"><a xlink:title=" ">
<polygon fill="#e0e0e0" stroke="#999999" points="408.25,-20 318,-20 318,0 408.25,0 408.25,-20"/>
<text xml:space="preserve" text-anchor="middle" x="363.12" y="-6.5" font-family="Helvetica,sans-Serif" font-size="10.00">model/model.hpp</text>
</a>
</g>
</g>
<!-- Node6&#45;&gt;Node9 -->
<g id="edge11_Node000006_Node000009" class="edge">
<title>Node6&#45;&gt;Node9</title>
<g id="a_edge11_Node000006_Node000009"><a xlink:title=" ">
<path fill="none" stroke="#63b8ff" d="M326.79,-55.59C332.72,-48.32 341.11,-38.02 348.34,-29.15"/>
<polygon fill="#63b8ff" stroke="#63b8ff" points="350.99,-31.43 354.59,-21.47 345.56,-27.01 350.99,-31.43"/>
</a>
</g>
</g>
<!-- Node10 -->
<g id="Node000010" class="node">
<title>Node10</title>
<g id="a_Node000010"><a xlink:title=" ">
<polygon fill="#e0e0e0" stroke="#999999" points="524.38,-20 425.88,-20 425.88,0 524.38,0 524.38,-20"/>
<text xml:space="preserve" text-anchor="middle" x="475.12" y="-6.5" font-family="Helvetica,sans-Serif" font-size="10.00">model/strategy.hpp</text>
</a>
</g>
</g>
<!-- Node6&#45;&gt;Node10 -->
<g id="edge12_Node000006_Node000010" class="edge">
<title>Node6&#45;&gt;Node10</title>
<g id="a_edge12_Node000006_Node000010"><a xlink:title=" ">
<path fill="none" stroke="#63b8ff" d="M346.3,-55.59C371.42,-46.9 409.01,-33.89 437.1,-24.16"/>
<polygon fill="#63b8ff" stroke="#63b8ff" points="438,-27.55 446.31,-20.97 435.71,-20.94 438,-27.55"/>
</a>
</g>
</g>
</g>
</svg>
