<?xml version="1.0" encoding="UTF-8" standalone="no"?>
<!DOCTYPE svg PUBLIC "-//W3C//DTD SVG 1.1//EN"
 "http://www.w3.org/Graphics/SVG/1.1/DTD/svg11.dtd">
<!-- Generated by graphviz version 13.1.0 (0)
 -->
<!-- Title: loopComponent.cpp Pages: 1 -->
<svg width="753pt" height="364pt"
 viewBox="0.00 0.00 753.00 364.00" xmlns="http://www.w3.org/2000/svg" xmlns:xlink="http://www.w3.org/1999/xlink">
<g id="graph0" class="graph" transform="scale(1 1) rotate(0) translate(4 360)">
<title>loopComponent.cpp</title>
<!-- Node1 -->
<g id="Node000001" class="node">
<title>Node1</title>
<g id="a_Node000001"><a xlink:title=" ">
<polygon fill="#999999" stroke="#666666" points="394.5,-356 291.5,-356 291.5,-336 394.5,-336 394.5,-356"/>
<text xml:space="preserve" text-anchor="middle" x="343" y="-342.5" font-family="Helvetica,sans-Serif" font-size="10.00">loopComponent.cpp</text>
</a>
</g>
</g>
<!-- Node2 -->
<g id="Node000002" class="node">
<title>Node2</title>
<g id="a_Node000002"><a xlink:href="loopComponent_8hpp.html" target="_top" xlink:title=" ">
<polygon fill="white" stroke="#666666" points="394.5,-300 291.5,-300 291.5,-280 394.5,-280 394.5,-300"/>
<text xml:space="preserve" text-anchor="middle" x="343" y="-286.5" font-family="Helvetica,sans-Serif" font-size="10.00">loopComponent.hpp</text>
</a>
</g>
</g>
<!-- Node1&#45;&gt;Node2 -->
<g id="edge1_Node000001_Node000002" class="edge">
<title>Node1&#45;&gt;Node2</title>
<g id="a_edge1_Node000001_Node000002"><a xlink:title=" ">
<path fill="none" stroke="#63b8ff" d="M343,-335.59C343,-329.01 343,-319.96 343,-311.73"/>
<polygon fill="#63b8ff" stroke="#63b8ff" points="346.5,-311.81 343,-301.81 339.5,-311.81 346.5,-311.81"/>
</a>
</g>
</g>
<!-- Node3 -->
<g id="Node000003" class="node">
<title>Node3</title>
<g id="a_Node000003"><a xlink:title=" ">
<polygon fill="#e0e0e0" stroke="#999999" points="316.75,-20 263.25,-20 263.25,0 316.75,0 316.75,-20"/>
<text xml:space="preserve" text-anchor="middle" x="290" y="-6.5" font-family="Helvetica,sans-Serif" font-size="10.00">iostream</text>
</a>
</g>
</g>
<!-- Node2&#45;&gt;Node3 -->
<g id="edge2_Node000002_Node000003" class="edge">
<title>Node2&#45;&gt;Node3</title>
<g id="a_edge2_Node000002_Node000003"><a xlink:title=" ">
<path fill="none" stroke="#63b8ff" d="M291.28,-283.3C195.46,-271.31 0,-239.43 0,-179 0,-179 0,-179 0,-121 0,-67.69 173.5,-31.04 252.1,-17.17"/>
<polygon fill="#63b8ff" stroke="#63b8ff" points="252.23,-20.7 261.49,-15.55 251.04,-13.8 252.23,-20.7"/>
</a>
</g>
</g>
<!-- Node4 -->
<g id="Node000004" class="node">
<title>Node4</title>
<g id="a_Node000004"><a xlink:title=" ">
<polygon fill="#e0e0e0" stroke="#999999" points="657.62,-20 606.38,-20 606.38,0 657.62,0 657.62,-20"/>
<text xml:space="preserve" text-anchor="middle" x="632" y="-6.5" font-family="Helvetica,sans-Serif" font-size="10.00">memory</text>
</a>
</g>
</g>
<!-- Node2&#45;&gt;Node4 -->
<g id="edge3_Node000002_Node000004" class="edge">
<title>Node2&#45;&gt;Node4</title>
<g id="a_edge3_Node000002_Node000004"><a xlink:title=" ">
<path fill="none" stroke="#63b8ff" d="M391.4,-279.55C468.85,-263.03 612,-226.11 612,-179 612,-179 612,-179 612,-121 612,-89.21 620.18,-53.08 626.08,-31.17"/>
<polygon fill="#63b8ff" stroke="#63b8ff" points="629.39,-32.34 628.72,-21.77 622.65,-30.45 629.39,-32.34"/>
</a>
</g>
</g>
<!-- Node5 -->
<g id="Node000005" class="node">
<title>Node5</title>
<g id="a_Node000005"><a xlink:title=" ">
<polygon fill="#e0e0e0" stroke="#999999" points="683.5,-244 640.5,-244 640.5,-224 683.5,-224 683.5,-244"/>
<text xml:space="preserve" text-anchor="middle" x="662" y="-230.5" font-family="Helvetica,sans-Serif" font-size="10.00">vector</text>
</a>
</g>
</g>
<!-- Node2&#45;&gt;Node5 -->
<g id="edge4_Node000002_Node000005" class="edge">
<title>Node2&#45;&gt;Node5</title>
<g id="a_edge4_Node000002_Node000005"><a xlink:title=" ">
<path fill="none" stroke="#63b8ff" d="M394.89,-282.14C451.83,-274.28 545.82,-260.37 626,-244 627.17,-243.76 628.35,-243.51 629.55,-243.25"/>
<polygon fill="#63b8ff" stroke="#63b8ff" points="629.95,-246.75 638.89,-241.08 628.36,-239.93 629.95,-246.75"/>
</a>
</g>
</g>
<!-- Node6 -->
<g id="Node000006" class="node">
<title>Node6</title>
<g id="a_Node000006"><a xlink:title=" ">
<polygon fill="#e0e0e0" stroke="#999999" points="744.5,-244 701.5,-244 701.5,-224 744.5,-224 744.5,-244"/>
<text xml:space="preserve" text-anchor="middle" x="723" y="-230.5" font-family="Helvetica,sans-Serif" font-size="10.00">thread</text>
</a>
</g>
</g>
<!-- Node2&#45;&gt;Node6 -->
<g id="edge5_Node000002_Node000006" class="edge">
<title>Node2&#45;&gt;Node6</title>
<g id="a_edge5_Node000002_Node000006"><a xlink:title=" ">
<path fill="none" stroke="#63b8ff" d="M394.74,-285.01C461.23,-279.3 580.3,-267.1 690.21,-244.32"/>
<polygon fill="#63b8ff" stroke="#63b8ff" points="690.61,-247.81 699.67,-242.32 689.16,-240.96 690.61,-247.81"/>
</a>
</g>
</g>
<!-- Node7 -->
<g id="Node000007" class="node">
<title>Node7</title>
<g id="a_Node000007"><a xlink:href="compositeNode_8hpp.html" target="_top" xlink:title=" ">
<polygon fill="white" stroke="#666666" points="293.5,-132 190.5,-132 190.5,-112 293.5,-112 293.5,-132"/>
<text xml:space="preserve" text-anchor="middle" x="242" y="-118.5" font-family="Helvetica,sans-Serif" font-size="10.00">compositeNode.hpp</text>
</a>
</g>
</g>
<!-- Node2&#45;&gt;Node7 -->
<g id="edge6_Node000002_Node000007" class="edge">
<title>Node2&#45;&gt;Node7</title>
<g id="a_edge6_Node000002_Node000007"><a xlink:title=" ">
<path fill="none" stroke="#63b8ff" d="M291.21,-285.67C233.5,-280.75 145.56,-269.24 125,-244 91.43,-202.79 164.65,-159.05 209.84,-137.18"/>
<polygon fill="#63b8ff" stroke="#63b8ff" points="211.17,-140.42 218.73,-133 208.19,-134.09 211.17,-140.42"/>
</a>
</g>
</g>
<!-- Node13 -->
<g id="Node000013" class="node">
<title>Node13</title>
<g id="a_Node000013"><a xlink:href="monitor_8hpp.html" target="_top" xlink:title=" ">
<polygon fill="white" stroke="#666666" points="291.5,-244 224.5,-244 224.5,-224 291.5,-224 291.5,-244"/>
<text xml:space="preserve" text-anchor="middle" x="258" y="-230.5" font-family="Helvetica,sans-Serif" font-size="10.00">monitor.hpp</text>
</a>
</g>
</g>
<!-- Node2&#45;&gt;Node13 -->
<g id="edge15_Node000002_Node000013" class="edge">
<title>Node2&#45;&gt;Node13</title>
<g id="a_edge15_Node000002_Node000013"><a xlink:title=" ">
<path fill="none" stroke="#63b8ff" d="M328.19,-279.59C315.6,-271.59 297.25,-259.93 282.47,-250.54"/>
<polygon fill="#63b8ff" stroke="#63b8ff" points="284.52,-247.7 274.2,-245.29 280.76,-253.61 284.52,-247.7"/>
</a>
</g>
</g>
<!-- Node15 -->
<g id="Node000015" class="node">
<title>Node15</title>
<g id="a_Node000015"><a xlink:href="analyzer_8hpp.html" target="_top" xlink:title=" ">
<polygon fill="white" stroke="#666666" points="465.75,-244 394.25,-244 394.25,-224 465.75,-224 465.75,-244"/>
<text xml:space="preserve" text-anchor="middle" x="430" y="-230.5" font-family="Helvetica,sans-Serif" font-size="10.00">analyzer.hpp</text>
</a>
</g>
</g>
<!-- Node2&#45;&gt;Node15 -->
<g id="edge21_Node000002_Node000015" class="edge">
<title>Node2&#45;&gt;Node15</title>
<g id="a_edge21_Node000002_Node000015"><a xlink:title=" ">
<path fill="none" stroke="#63b8ff" d="M358.15,-279.59C371.05,-271.59 389.83,-259.93 404.96,-250.54"/>
<polygon fill="#63b8ff" stroke="#63b8ff" points="406.79,-253.53 413.44,-245.28 403.1,-247.58 406.79,-253.53"/>
</a>
</g>
</g>
<!-- Node17 -->
<g id="Node000017" class="node">
<title>Node17</title>
<g id="a_Node000017"><a xlink:href="planner_8hpp.html" target="_top" xlink:title=" ">
<polygon fill="white" stroke="#666666" points="376.12,-244 309.88,-244 309.88,-224 376.12,-224 376.12,-244"/>
<text xml:space="preserve" text-anchor="middle" x="343" y="-230.5" font-family="Helvetica,sans-Serif" font-size="10.00">planner.hpp</text>
</a>
</g>
</g>
<!-- Node2&#45;&gt;Node17 -->
<g id="edge28_Node000002_Node000017" class="edge">
<title>Node2&#45;&gt;Node17</title>
<g id="a_edge28_Node000002_Node000017"><a xlink:title=" ">
<path fill="none" stroke="#63b8ff" d="M343,-279.59C343,-273.01 343,-263.96 343,-255.73"/>
<polygon fill="#63b8ff" stroke="#63b8ff" points="346.5,-255.81 343,-245.81 339.5,-255.81 346.5,-255.81"/>
</a>
</g>
</g>
<!-- Node18 -->
<g id="Node000018" class="node">
<title>Node18</title>
<g id="a_Node000018"><a xlink:href="executor_8hpp.html" target="_top" xlink:title=" ">
<polygon fill="white" stroke="#666666" points="206.12,-244 133.88,-244 133.88,-224 206.12,-224 206.12,-244"/>
<text xml:space="preserve" text-anchor="middle" x="170" y="-230.5" font-family="Helvetica,sans-Serif" font-size="10.00">executor.hpp</text>
</a>
</g>
</g>
<!-- Node2&#45;&gt;Node18 -->
<g id="edge31_Node000002_Node000018" class="edge">
<title>Node2&#45;&gt;Node18</title>
<g id="a_edge31_Node000002_Node000018"><a xlink:title=" ">
<path fill="none" stroke="#63b8ff" d="M312.87,-279.59C284.76,-270.82 242.59,-257.66 211.34,-247.9"/>
<polygon fill="#63b8ff" stroke="#63b8ff" points="212.4,-244.57 201.81,-244.93 210.32,-251.25 212.4,-244.57"/>
</a>
</g>
</g>
<!-- Node7&#45;&gt;Node3 -->
<g id="edge7_Node000007_Node000003" class="edge">
<title>Node7&#45;&gt;Node3</title>
<g id="a_edge7_Node000007_Node000003"><a xlink:title=" ">
<path fill="none" stroke="#63b8ff" d="M263.41,-111.63C277.48,-104.19 294.75,-92.33 303,-76 310.14,-61.86 305.84,-44.13 300.34,-30.76"/>
<polygon fill="#63b8ff" stroke="#63b8ff" points="303.51,-29.27 296.1,-21.7 297.17,-32.24 303.51,-29.27"/>
</a>
</g>
</g>
<!-- Node8 -->
<g id="Node000008" class="node">
<title>Node8</title>
<g id="a_Node000008"><a xlink:href="knowledge_8hpp.html" target="_top" xlink:title=" ">
<polygon fill="white" stroke="#666666" points="545.62,-76 464.38,-76 464.38,-56 545.62,-56 545.62,-76"/>
<text xml:space="preserve" text-anchor="middle" x="505" y="-62.5" font-family="Helvetica,sans-Serif" font-size="10.00">knowledge.hpp</text>
</a>
</g>
</g>
<!-- Node7&#45;&gt;Node8 -->
<g id="edge8_Node000007_Node000008" class="edge">
<title>Node7&#45;&gt;Node8</title>
<g id="a_edge8_Node000007_Node000008"><a xlink:title=" ">
<path fill="none" stroke="#63b8ff" d="M288.11,-111.53C334.21,-102.07 404.97,-87.54 453.03,-77.67"/>
<polygon fill="#63b8ff" stroke="#63b8ff" points="453.56,-81.14 462.65,-75.7 452.15,-74.28 453.56,-81.14"/>
</a>
</g>
</g>
<!-- Node12 -->
<g id="Node000012" class="node">
<title>Node12</title>
<g id="a_Node000012"><a xlink:title=" ">
<polygon fill="#e0e0e0" stroke="#999999" points="293.5,-76 142.5,-76 142.5,-56 293.5,-56 293.5,-76"/>
<text xml:space="preserve" text-anchor="middle" x="218" y="-62.5" font-family="Helvetica,sans-Serif" font-size="10.00">enum/compositeNodeType.hpp</text>
</a>
</g>
</g>
<!-- Node7&#45;&gt;Node12 -->
<g id="edge14_Node000007_Node000012" class="edge">
<title>Node7&#45;&gt;Node12</title>
<g id="a_edge14_Node000007_Node000012"><a xlink:title=" ">
<path fill="none" stroke="#63b8ff" d="M237.82,-111.59C234.76,-104.7 230.49,-95.1 226.7,-86.57"/>
<polygon fill="#63b8ff" stroke="#63b8ff" points="230.01,-85.4 222.75,-77.68 223.61,-88.24 230.01,-85.4"/>
</a>
</g>
</g>
<!-- Node8&#45;&gt;Node3 -->
<g id="edge9_Node000008_Node000003" class="edge">
<title>Node8&#45;&gt;Node3</title>
<g id="a_edge9_Node000008_Node000003"><a xlink:title=" ">
<path fill="none" stroke="#63b8ff" d="M467.55,-55.59C428.46,-45.78 367.48,-30.46 328.13,-20.58"/>
<polygon fill="#63b8ff" stroke="#63b8ff" points="329.17,-17.23 318.62,-18.19 327.47,-24.02 329.17,-17.23"/>
</a>
</g>
</g>
<!-- Node8&#45;&gt;Node4 -->
<g id="edge11_Node000008_Node000004" class="edge">
<title>Node8&#45;&gt;Node4</title>
<g id="a_edge11_Node000008_Node000004"><a xlink:title=" ">
<path fill="none" stroke="#63b8ff" d="M527.12,-55.59C547.03,-47.13 576.55,-34.58 599.21,-24.94"/>
<polygon fill="#63b8ff" stroke="#63b8ff" points="600.48,-28.21 608.31,-21.07 597.74,-21.76 600.48,-28.21"/>
</a>
</g>
</g>
<!-- Node9 -->
<g id="Node000009" class="node">
<title>Node9</title>
<g id="a_Node000009"><a xlink:title=" ">
<polygon fill="#e0e0e0" stroke="#999999" points="588.4,-20 559.6,-20 559.6,0 588.4,0 588.4,-20"/>
<text xml:space="preserve" text-anchor="middle" x="574" y="-6.5" font-family="Helvetica,sans-Serif" font-size="10.00">list</text>
</a>
</g>
</g>
<!-- Node8&#45;&gt;Node9 -->
<g id="edge10_Node000008_Node000009" class="edge">
<title>Node8&#45;&gt;Node9</title>
<g id="a_edge10_Node000008_Node000009"><a xlink:title=" ">
<path fill="none" stroke="#63b8ff" d="M517.02,-55.59C527.01,-47.77 541.46,-36.46 553.31,-27.19"/>
<polygon fill="#63b8ff" stroke="#63b8ff" points="555.21,-30.15 560.93,-21.23 550.89,-24.64 555.21,-30.15"/>
</a>
</g>
</g>
<!-- Node10 -->
<g id="Node000010" class="node">
<title>Node10</title>
<g id="a_Node000010"><a xlink:title=" ">
<polygon fill="#e0e0e0" stroke="#999999" points="425.12,-20 334.88,-20 334.88,0 425.12,0 425.12,-20"/>
<text xml:space="preserve" text-anchor="middle" x="380" y="-6.5" font-family="Helvetica,sans-Serif" font-size="10.00">model/model.hpp</text>
</a>
</g>
</g>
<!-- Node8&#45;&gt;Node10 -->
<g id="edge12_Node000008_Node000010" class="edge">
<title>Node8&#45;&gt;Node10</title>
<g id="a_edge12_Node000008_Node000010"><a xlink:title=" ">
<path fill="none" stroke="#63b8ff" d="M483.23,-55.59C463.63,-47.13 434.57,-34.58 412.28,-24.94"/>
<polygon fill="#63b8ff" stroke="#63b8ff" points="413.9,-21.83 403.33,-21.08 411.12,-28.26 413.9,-21.83"/>
</a>
</g>
</g>
<!-- Node11 -->
<g id="Node000011" class="node">
<title>Node11</title>
<g id="a_Node000011"><a xlink:title=" ">
<polygon fill="#e0e0e0" stroke="#999999" points="541.25,-20 442.75,-20 442.75,0 541.25,0 541.25,-20"/>
<text xml:space="preserve" text-anchor="middle" x="492" y="-6.5" font-family="Helvetica,sans-Serif" font-size="10.00">model/strategy.hpp</text>
</a>
</g>
</g>
<!-- Node8&#45;&gt;Node11 -->
<g id="edge13_Node000008_Node000011" class="edge">
<title>Node8&#45;&gt;Node11</title>
<g id="a_edge13_Node000008_Node000011"><a xlink:title=" ">
<path fill="none" stroke="#63b8ff" d="M502.74,-55.59C501.13,-48.93 498.92,-39.75 496.92,-31.44"/>
<polygon fill="#63b8ff" stroke="#63b8ff" points="500.34,-30.67 494.59,-21.77 493.53,-32.31 500.34,-30.67"/>
</a>
</g>
</g>
<!-- Node13&#45;&gt;Node3 -->
<g id="edge16_Node000013_Node000003" class="edge">
<title>Node13&#45;&gt;Node3</title>
<g id="a_edge16_Node000013_Node000003"><a xlink:title=" ">
<path fill="none" stroke="#63b8ff" d="M240.61,-223.6C193.96,-197.2 72.81,-120.1 122,-56 137.69,-35.55 207.19,-22.36 251.73,-15.84"/>
<polygon fill="#63b8ff" stroke="#63b8ff" points="252.11,-19.33 261.52,-14.47 251.13,-12.39 252.11,-19.33"/>
</a>
</g>
</g>
<!-- Node14 -->
<g id="Node000014" class="node">
<title>Node14</title>
<g id="a_Node000014"><a xlink:href="element_8hpp.html" target="_top" xlink:title=" ">
<polygon fill="white" stroke="#666666" points="292.62,-188 223.38,-188 223.38,-168 292.62,-168 292.62,-188"/>
<text xml:space="preserve" text-anchor="middle" x="258" y="-174.5" font-family="Helvetica,sans-Serif" font-size="10.00">element.hpp</text>
</a>
</g>
</g>
<!-- Node13&#45;&gt;Node14 -->
<g id="edge17_Node000013_Node000014" class="edge">
<title>Node13&#45;&gt;Node14</title>
<g id="a_edge17_Node000013_Node000014"><a xlink:title=" ">
<path fill="none" stroke="#63b8ff" d="M258,-223.59C258,-217.01 258,-207.96 258,-199.73"/>
<polygon fill="#63b8ff" stroke="#63b8ff" points="261.5,-199.81 258,-189.81 254.5,-199.81 261.5,-199.81"/>
</a>
</g>
</g>
<!-- Node14&#45;&gt;Node3 -->
<g id="edge18_Node000014_Node000003" class="edge">
<title>Node14&#45;&gt;Node3</title>
<g id="a_edge18_Node000014_Node000003"><a xlink:title=" ">
<path fill="none" stroke="#63b8ff" d="M234.23,-167.65C189.14,-148.54 98.74,-102.87 134,-56 148.14,-37.2 210.16,-23.79 251.61,-16.73"/>
<polygon fill="#63b8ff" stroke="#63b8ff" points="252.17,-20.18 261.47,-15.11 251.03,-13.27 252.17,-20.18"/>
</a>
</g>
</g>
<!-- Node14&#45;&gt;Node7 -->
<g id="edge19_Node000014_Node000007" class="edge">
<title>Node14&#45;&gt;Node7</title>
<g id="a_edge19_Node000014_Node000007"><a xlink:title=" ">
<path fill="none" stroke="#63b8ff" d="M255.21,-167.59C253.22,-160.86 250.45,-151.53 247.97,-143.15"/>
<polygon fill="#63b8ff" stroke="#63b8ff" points="251.38,-142.34 245.19,-133.75 244.67,-144.33 251.38,-142.34"/>
</a>
</g>
</g>
<!-- Node14&#45;&gt;Node8 -->
<g id="edge20_Node000014_Node000008" class="edge">
<title>Node14&#45;&gt;Node8</title>
<g id="a_edge20_Node000014_Node000008"><a xlink:title=" ">
<path fill="none" stroke="#63b8ff" d="M279.06,-167.62C322.53,-148.26 422.42,-103.78 473.56,-81"/>
<polygon fill="#63b8ff" stroke="#63b8ff" points="474.9,-84.24 482.61,-76.97 472.05,-77.84 474.9,-84.24"/>
</a>
</g>
</g>
<!-- Node15&#45;&gt;Node3 -->
<g id="edge22_Node000015_Node000003" class="edge">
<title>Node15&#45;&gt;Node3</title>
<g id="a_edge22_Node000015_Node000003"><a xlink:title=" ">
<path fill="none" stroke="#63b8ff" d="M426.23,-223.58C414.98,-196.13 379.77,-114.51 336,-56 328.35,-45.78 318.36,-35.71 309.65,-27.7"/>
<polygon fill="#63b8ff" stroke="#63b8ff" points="312.11,-25.21 302.31,-21.18 307.46,-30.44 312.11,-25.21"/>
</a>
</g>
</g>
<!-- Node15&#45;&gt;Node9 -->
<g id="edge23_Node000015_Node000009" class="edge">
<title>Node15&#45;&gt;Node9</title>
<g id="a_edge23_Node000015_Node000009"><a xlink:title=" ">
<path fill="none" stroke="#63b8ff" d="M444.34,-223.64C467.69,-207.65 513.82,-172.85 539,-132 558.64,-100.15 567.66,-56.83 571.48,-31.59"/>
<polygon fill="#63b8ff" stroke="#63b8ff" points="574.91,-32.37 572.8,-21.99 567.97,-31.42 574.91,-32.37"/>
</a>
</g>
</g>
<!-- Node15&#45;&gt;Node14 -->
<g id="edge24_Node000015_Node000014" class="edge">
<title>Node15&#45;&gt;Node14</title>
<g id="a_edge24_Node000015_Node000014"><a xlink:title=" ">
<path fill="none" stroke="#63b8ff" d="M400.04,-223.59C372.09,-214.82 330.17,-201.66 299.1,-191.9"/>
<polygon fill="#63b8ff" stroke="#63b8ff" points="300.23,-188.59 289.64,-188.93 298.13,-195.27 300.23,-188.59"/>
</a>
</g>
</g>
<!-- Node16 -->
<g id="Node000016" class="node">
<title>Node16</title>
<g id="a_Node000016"><a xlink:href="constraintModel_8hpp.html" target="_top" xlink:title=" ">
<polygon fill="white" stroke="#666666" points="529.88,-132 426.12,-132 426.12,-112 529.88,-112 529.88,-132"/>
<text xml:space="preserve" text-anchor="middle" x="478" y="-118.5" font-family="Helvetica,sans-Serif" font-size="10.00">constraintModel.hpp</text>
</a>
</g>
</g>
<!-- Node15&#45;&gt;Node16 -->
<g id="edge25_Node000015_Node000016" class="edge">
<title>Node15&#45;&gt;Node16</title>
<g id="a_edge25_Node000015_Node000016"><a xlink:title=" ">
<path fill="none" stroke="#63b8ff" d="M434.09,-223.62C441.89,-205.76 459.01,-166.53 469.42,-142.67"/>
<polygon fill="#63b8ff" stroke="#63b8ff" points="472.52,-144.31 473.31,-133.74 466.11,-141.51 472.52,-144.31"/>
</a>
</g>
</g>
<!-- Node16&#45;&gt;Node3 -->
<g id="edge26_Node000016_Node000003" class="edge">
<title>Node16&#45;&gt;Node3</title>
<g id="a_edge26_Node000016_Node000003"><a xlink:title=" ">
<path fill="none" stroke="#63b8ff" d="M470.84,-111.78C459.65,-97.92 436.71,-71.69 412,-56 397.66,-46.9 358.01,-32.94 327.76,-22.99"/>
<polygon fill="#63b8ff" stroke="#63b8ff" points="329.14,-19.76 318.55,-19.99 326.98,-26.41 329.14,-19.76"/>
</a>
</g>
</g>
<!-- Node16&#45;&gt;Node8 -->
<g id="edge27_Node000016_Node000008" class="edge">
<title>Node16&#45;&gt;Node8</title>
<g id="a_edge27_Node000016_Node000008"><a xlink:title=" ">
<path fill="none" stroke="#63b8ff" d="M482.7,-111.59C486.15,-104.7 490.95,-95.1 495.21,-86.57"/>
<polygon fill="#63b8ff" stroke="#63b8ff" points="498.33,-88.16 499.67,-77.65 492.07,-85.03 498.33,-88.16"/>
</a>
</g>
</g>
<!-- Node17&#45;&gt;Node3 -->
<g id="edge29_Node000017_Node000003" class="edge">
<title>Node17&#45;&gt;Node3</title>
<g id="a_edge29_Node000017_Node000003"><a xlink:title=" ">
<path fill="none" stroke="#63b8ff" d="M343.14,-223.83C343.25,-197.06 341.55,-117.09 319,-56 315.55,-46.66 309.92,-37.26 304.52,-29.49"/>
<polygon fill="#63b8ff" stroke="#63b8ff" points="307.43,-27.53 298.68,-21.56 301.8,-31.69 307.43,-27.53"/>
</a>
</g>
</g>
<!-- Node17&#45;&gt;Node14 -->
<g id="edge30_Node000017_Node000014" class="edge">
<title>Node17&#45;&gt;Node14</title>
<g id="a_edge30_Node000017_Node000014"><a xlink:title=" ">
<path fill="none" stroke="#63b8ff" d="M328.19,-223.59C315.6,-215.59 297.25,-203.93 282.47,-194.54"/>
<polygon fill="#63b8ff" stroke="#63b8ff" points="284.52,-191.7 274.2,-189.29 280.76,-197.61 284.52,-191.7"/>
</a>
</g>
</g>
<!-- Node18&#45;&gt;Node3 -->
<g id="edge32_Node000018_Node000003" class="edge">
<title>Node18&#45;&gt;Node3</title>
<g id="a_edge32_Node000018_Node000003"><a xlink:title=" ">
<path fill="none" stroke="#63b8ff" d="M161,-223.53C135.23,-195.26 65.65,-110.1 108,-56 125.52,-33.63 203.8,-20.84 251.81,-14.97"/>
<polygon fill="#63b8ff" stroke="#63b8ff" points="251.99,-18.47 261.52,-13.83 251.18,-11.52 251.99,-18.47"/>
</a>
</g>
</g>
<!-- Node18&#45;&gt;Node14 -->
<g id="edge33_Node000018_Node000014" class="edge">
<title>Node18&#45;&gt;Node14</title>
<g id="a_edge33_Node000018_Node000014"><a xlink:title=" ">
<path fill="none" stroke="#63b8ff" d="M185.33,-223.59C198.5,-215.51 217.73,-203.71 233.11,-194.27"/>
<polygon fill="#63b8ff" stroke="#63b8ff" points="234.57,-197.48 241.26,-189.27 230.91,-191.52 234.57,-197.48"/>
</a>
</g>
</g>
</g>
</svg>
