<?xml version="1.0" encoding="UTF-8" standalone="no"?>
<!DOCTYPE svg PUBLIC "-//W3C//DTD SVG 1.1//EN"
 "http://www.w3.org/Graphics/SVG/1.1/DTD/svg11.dtd">
<!-- Generated by graphviz version 13.1.0 (0)
 -->
<!-- Title: mapek.hpp Pages: 1 -->
<svg width="702pt" height="364pt"
 viewBox="0.00 0.00 702.00 364.00" xmlns="http://www.w3.org/2000/svg" xmlns:xlink="http://www.w3.org/1999/xlink">
<g id="graph0" class="graph" transform="scale(1 1) rotate(0) translate(4 360)">
<title>mapek.hpp</title>
<!-- Node1 -->
<g id="Node000001" class="node">
<title>Node1</title>
<g id="a_Node000001"><a xlink:title=" ">
<polygon fill="#999999" stroke="#666666" points="557.62,-356 493.62,-356 493.62,-336 557.62,-336 557.62,-356"/>
<text xml:space="preserve" text-anchor="middle" x="525.62" y="-342.5" font-family="Helvetica,sans-Serif" font-size="10.00">mapek.hpp</text>
</a>
</g>
</g>
<!-- Node2 -->
<g id="Node000002" class="node">
<title>Node2</title>
<g id="a_Node000002"><a xlink:title=" ">
<polygon fill="#e0e0e0" stroke="#999999" points="546.38,-20 492.88,-20 492.88,0 546.38,0 546.38,-20"/>
<text xml:space="preserve" text-anchor="middle" x="519.62" y="-6.5" font-family="Helvetica,sans-Serif" font-size="10.00">iostream</text>
</a>
</g>
</g>
<!-- Node1&#45;&gt;Node2 -->
<g id="edge1_Node000001_Node000002" class="edge">
<title>Node1&#45;&gt;Node2</title>
<g id="a_edge1_Node000001_Node000002"><a xlink:title=" ">
<path fill="none" stroke="#63b8ff" d="M558.02,-339.01C606.84,-327.91 693.62,-299.15 693.62,-235 693.62,-235 693.62,-235 693.62,-121 693.62,-57.21 609.03,-28.9 557.81,-17.6"/>
<polygon fill="#63b8ff" stroke="#63b8ff" points="558.8,-14.23 548.29,-15.63 557.38,-21.08 558.8,-14.23"/>
</a>
</g>
</g>
<!-- Node3 -->
<g id="Node000003" class="node">
<title>Node3</title>
<g id="a_Node000003"><a xlink:href="loopComponent_8hpp.html" target="_top" xlink:title=" ">
<polygon fill="white" stroke="#666666" points="440.12,-300 337.12,-300 337.12,-280 440.12,-280 440.12,-300"/>
<text xml:space="preserve" text-anchor="middle" x="388.62" y="-286.5" font-family="Helvetica,sans-Serif" font-size="10.00">loopComponent.hpp</text>
</a>
</g>
</g>
<!-- Node1&#45;&gt;Node3 -->
<g id="edge2_Node000001_Node000003" class="edge">
<title>Node1&#45;&gt;Node3</title>
<g id="a_edge2_Node000001_Node000003"><a xlink:title=" ">
<path fill="none" stroke="#63b8ff" d="M501.76,-335.59C480.09,-327.05 447.86,-314.35 423.33,-304.68"/>
<polygon fill="#63b8ff" stroke="#63b8ff" points="424.67,-301.45 414.08,-301.03 422.1,-307.96 424.67,-301.45"/>
</a>
</g>
</g>
<!-- Node3&#45;&gt;Node2 -->
<g id="edge3_Node000003_Node000002" class="edge">
<title>Node3&#45;&gt;Node2</title>
<g id="a_edge3_Node000003_Node000002"><a xlink:title=" ">
<path fill="none" stroke="#63b8ff" d="M440.5,-285.9C504.53,-281.04 608.41,-269.4 636.62,-244 658.99,-223.86 655.62,-209.1 655.62,-179 655.62,-179 655.62,-179 655.62,-121 655.62,-70.23 597.63,-38.86 557.38,-23.2"/>
<polygon fill="#63b8ff" stroke="#63b8ff" points="558.83,-20.01 548.24,-19.82 556.4,-26.57 558.83,-20.01"/>
</a>
</g>
</g>
<!-- Node4 -->
<g id="Node000004" class="node">
<title>Node4</title>
<g id="a_Node000004"><a xlink:title=" ">
<polygon fill="#e0e0e0" stroke="#999999" points="51.25,-20 0,-20 0,0 51.25,0 51.25,-20"/>
<text xml:space="preserve" text-anchor="middle" x="25.62" y="-6.5" font-family="Helvetica,sans-Serif" font-size="10.00">memory</text>
</a>
</g>
</g>
<!-- Node3&#45;&gt;Node4 -->
<g id="edge4_Node000003_Node000004" class="edge">
<title>Node3&#45;&gt;Node4</title>
<g id="a_edge4_Node000003_Node000004"><a xlink:title=" ">
<path fill="none" stroke="#63b8ff" d="M337.01,-286.93C282.75,-283.22 195.84,-272.87 126.62,-244 80.75,-224.87 35.62,-228.7 35.62,-179 35.62,-179 35.62,-179 35.62,-121 35.62,-89.74 31.57,-53.69 28.62,-31.63"/>
<polygon fill="#63b8ff" stroke="#63b8ff" points="32.11,-31.31 27.27,-21.89 25.18,-32.28 32.11,-31.31"/>
</a>
</g>
</g>
<!-- Node5 -->
<g id="Node000005" class="node">
<title>Node5</title>
<g id="a_Node000005"><a xlink:title=" ">
<polygon fill="#e0e0e0" stroke="#999999" points="268.12,-244 225.12,-244 225.12,-224 268.12,-224 268.12,-244"/>
<text xml:space="preserve" text-anchor="middle" x="246.62" y="-230.5" font-family="Helvetica,sans-Serif" font-size="10.00">vector</text>
</a>
</g>
</g>
<!-- Node3&#45;&gt;Node5 -->
<g id="edge5_Node000003_Node000005" class="edge">
<title>Node3&#45;&gt;Node5</title>
<g id="a_edge5_Node000003_Node000005"><a xlink:title=" ">
<path fill="none" stroke="#63b8ff" d="M363.89,-279.59C340.36,-270.64 304.81,-257.13 279.02,-247.32"/>
<polygon fill="#63b8ff" stroke="#63b8ff" points="280.29,-244.06 269.7,-243.78 277.81,-250.6 280.29,-244.06"/>
</a>
</g>
</g>
<!-- Node6 -->
<g id="Node000006" class="node">
<title>Node6</title>
<g id="a_Node000006"><a xlink:title=" ">
<polygon fill="#e0e0e0" stroke="#999999" points="329.12,-244 286.12,-244 286.12,-224 329.12,-224 329.12,-244"/>
<text xml:space="preserve" text-anchor="middle" x="307.62" y="-230.5" font-family="Helvetica,sans-Serif" font-size="10.00">thread</text>
</a>
</g>
</g>
<!-- Node3&#45;&gt;Node6 -->
<g id="edge6_Node000003_Node000006" class="edge">
<title>Node3&#45;&gt;Node6</title>
<g id="a_edge6_Node000003_Node000006"><a xlink:title=" ">
<path fill="none" stroke="#63b8ff" d="M374.52,-279.59C362.63,-271.67 345.36,-260.16 331.35,-250.82"/>
<polygon fill="#63b8ff" stroke="#63b8ff" points="333.37,-247.95 323.1,-245.32 329.48,-253.78 333.37,-247.95"/>
</a>
</g>
</g>
<!-- Node7 -->
<g id="Node000007" class="node">
<title>Node7</title>
<g id="a_Node000007"><a xlink:href="compositeNode_8hpp.html" target="_top" xlink:title=" ">
<polygon fill="white" stroke="#666666" points="424.12,-132 321.12,-132 321.12,-112 424.12,-112 424.12,-132"/>
<text xml:space="preserve" text-anchor="middle" x="372.62" y="-118.5" font-family="Helvetica,sans-Serif" font-size="10.00">compositeNode.hpp</text>
</a>
</g>
</g>
<!-- Node3&#45;&gt;Node7 -->
<g id="edge7_Node000003_Node000007" class="edge">
<title>Node3&#45;&gt;Node7</title>
<g id="a_edge7_Node000003_Node000007"><a xlink:title=" ">
<path fill="none" stroke="#63b8ff" d="M385.52,-279.82C382.63,-270.82 378.49,-256.64 376.62,-244 371.46,-209.1 371.35,-167.96 371.89,-143.75"/>
<polygon fill="#63b8ff" stroke="#63b8ff" points="375.38,-144.09 372.17,-133.99 368.38,-143.89 375.38,-144.09"/>
</a>
</g>
</g>
<!-- Node13 -->
<g id="Node000013" class="node">
<title>Node13</title>
<g id="a_Node000013"><a xlink:href="monitor_8hpp.html" target="_top" xlink:title=" ">
<polygon fill="white" stroke="#666666" points="627.12,-244 560.12,-244 560.12,-224 627.12,-224 627.12,-244"/>
<text xml:space="preserve" text-anchor="middle" x="593.62" y="-230.5" font-family="Helvetica,sans-Serif" font-size="10.00">monitor.hpp</text>
</a>
</g>
</g>
<!-- Node3&#45;&gt;Node13 -->
<g id="edge16_Node000003_Node000013" class="edge">
<title>Node3&#45;&gt;Node13</title>
<g id="a_edge16_Node000003_Node000013"><a xlink:title=" ">
<path fill="none" stroke="#63b8ff" d="M424.33,-279.59C458.85,-270.5 511.26,-256.7 548.61,-246.86"/>
<polygon fill="#63b8ff" stroke="#63b8ff" points="549.44,-250.26 558.22,-244.33 547.66,-243.49 549.44,-250.26"/>
</a>
</g>
</g>
<!-- Node15 -->
<g id="Node000015" class="node">
<title>Node15</title>
<g id="a_Node000015"><a xlink:href="analyzer_8hpp.html" target="_top" xlink:title=" ">
<polygon fill="white" stroke="#666666" points="207.38,-244 135.88,-244 135.88,-224 207.38,-224 207.38,-244"/>
<text xml:space="preserve" text-anchor="middle" x="171.62" y="-230.5" font-family="Helvetica,sans-Serif" font-size="10.00">analyzer.hpp</text>
</a>
</g>
</g>
<!-- Node3&#45;&gt;Node15 -->
<g id="edge22_Node000003_Node000015" class="edge">
<title>Node3&#45;&gt;Node15</title>
<g id="a_edge22_Node000003_Node000015"><a xlink:title=" ">
<path fill="none" stroke="#63b8ff" d="M350.83,-279.59C314.06,-270.44 258.09,-256.52 218.51,-246.67"/>
<polygon fill="#63b8ff" stroke="#63b8ff" points="219.57,-243.32 209.02,-244.31 217.88,-250.12 219.57,-243.32"/>
</a>
</g>
</g>
<!-- Node17 -->
<g id="Node000017" class="node">
<title>Node17</title>
<g id="a_Node000017"><a xlink:href="planner_8hpp.html" target="_top" xlink:title=" ">
<polygon fill="white" stroke="#666666" points="451.75,-244 385.5,-244 385.5,-224 451.75,-224 451.75,-244"/>
<text xml:space="preserve" text-anchor="middle" x="418.62" y="-230.5" font-family="Helvetica,sans-Serif" font-size="10.00">planner.hpp</text>
</a>
</g>
</g>
<!-- Node3&#45;&gt;Node17 -->
<g id="edge29_Node000003_Node000017" class="edge">
<title>Node3&#45;&gt;Node17</title>
<g id="a_edge29_Node000003_Node000017"><a xlink:title=" ">
<path fill="none" stroke="#63b8ff" d="M393.85,-279.59C397.72,-272.63 403.13,-262.89 407.91,-254.29"/>
<polygon fill="#63b8ff" stroke="#63b8ff" points="410.93,-256.06 412.72,-245.62 404.81,-252.66 410.93,-256.06"/>
</a>
</g>
</g>
<!-- Node18 -->
<g id="Node000018" class="node">
<title>Node18</title>
<g id="a_Node000018"><a xlink:href="executor_8hpp.html" target="_top" xlink:title=" ">
<polygon fill="white" stroke="#666666" points="541.75,-244 469.5,-244 469.5,-224 541.75,-224 541.75,-244"/>
<text xml:space="preserve" text-anchor="middle" x="505.62" y="-230.5" font-family="Helvetica,sans-Serif" font-size="10.00">executor.hpp</text>
</a>
</g>
</g>
<!-- Node3&#45;&gt;Node18 -->
<g id="edge32_Node000003_Node000018" class="edge">
<title>Node3&#45;&gt;Node18</title>
<g id="a_edge32_Node000003_Node000018"><a xlink:title=" ">
<path fill="none" stroke="#63b8ff" d="M409,-279.59C427.18,-271.21 454.05,-258.8 474.84,-249.21"/>
<polygon fill="#63b8ff" stroke="#63b8ff" points="476.1,-252.48 483.71,-245.11 473.17,-246.13 476.1,-252.48"/>
</a>
</g>
</g>
<!-- Node7&#45;&gt;Node2 -->
<g id="edge8_Node000007_Node000002" class="edge">
<title>Node7&#45;&gt;Node2</title>
<g id="a_edge8_Node000007_Node000002"><a xlink:title=" ">
<path fill="none" stroke="#63b8ff" d="M352.94,-111.67C329.6,-99.36 295.86,-76.81 312.62,-56 333.43,-30.19 427.58,-18.42 481.46,-13.71"/>
<polygon fill="#63b8ff" stroke="#63b8ff" points="481.44,-17.22 491.12,-12.91 480.86,-10.25 481.44,-17.22"/>
</a>
</g>
</g>
<!-- Node8 -->
<g id="Node000008" class="node">
<title>Node8</title>
<g id="a_Node000008"><a xlink:href="knowledge_8hpp.html" target="_top" xlink:title=" ">
<polygon fill="white" stroke="#666666" points="188.25,-76 107,-76 107,-56 188.25,-56 188.25,-76"/>
<text xml:space="preserve" text-anchor="middle" x="147.62" y="-62.5" font-family="Helvetica,sans-Serif" font-size="10.00">knowledge.hpp</text>
</a>
</g>
</g>
<!-- Node7&#45;&gt;Node8 -->
<g id="edge9_Node000007_Node000008" class="edge">
<title>Node7&#45;&gt;Node8</title>
<g id="a_edge9_Node000007_Node000008"><a xlink:title=" ">
<path fill="none" stroke="#63b8ff" d="M333.18,-111.53C295.62,-102.52 238.93,-88.91 198.1,-79.11"/>
<polygon fill="#63b8ff" stroke="#63b8ff" points="199.04,-75.74 188.5,-76.81 197.41,-82.55 199.04,-75.74"/>
</a>
</g>
</g>
<!-- Node12 -->
<g id="Node000012" class="node">
<title>Node12</title>
<g id="a_Node000012"><a xlink:title=" ">
<polygon fill="#e0e0e0" stroke="#999999" points="472.12,-76 321.12,-76 321.12,-56 472.12,-56 472.12,-76"/>
<text xml:space="preserve" text-anchor="middle" x="396.62" y="-62.5" font-family="Helvetica,sans-Serif" font-size="10.00">enum/compositeNodeType.hpp</text>
</a>
</g>
</g>
<!-- Node7&#45;&gt;Node12 -->
<g id="edge15_Node000007_Node000012" class="edge">
<title>Node7&#45;&gt;Node12</title>
<g id="a_edge15_Node000007_Node000012"><a xlink:title=" ">
<path fill="none" stroke="#63b8ff" d="M376.81,-111.59C379.87,-104.7 384.14,-95.1 387.93,-86.57"/>
<polygon fill="#63b8ff" stroke="#63b8ff" points="391.01,-88.24 391.88,-77.68 384.62,-85.4 391.01,-88.24"/>
</a>
</g>
</g>
<!-- Node8&#45;&gt;Node2 -->
<g id="edge10_Node000008_Node000002" class="edge">
<title>Node8&#45;&gt;Node2</title>
<g id="a_edge10_Node000008_Node000002"><a xlink:title=" ">
<path fill="none" stroke="#63b8ff" d="M188.46,-58.22C193.23,-57.46 198.03,-56.7 202.62,-56 303.08,-40.65 421.72,-24.28 481.34,-16.17"/>
<polygon fill="#63b8ff" stroke="#63b8ff" points="481.52,-19.68 490.96,-14.86 480.58,-12.74 481.52,-19.68"/>
</a>
</g>
</g>
<!-- Node8&#45;&gt;Node4 -->
<g id="edge12_Node000008_Node000004" class="edge">
<title>Node8&#45;&gt;Node4</title>
<g id="a_edge12_Node000008_Node000004"><a xlink:title=" ">
<path fill="none" stroke="#63b8ff" d="M126.37,-55.59C107.34,-47.17 79.15,-34.69 57.42,-25.07"/>
<polygon fill="#63b8ff" stroke="#63b8ff" points="58.99,-21.94 48.43,-21.09 56.15,-28.34 58.99,-21.94"/>
</a>
</g>
</g>
<!-- Node9 -->
<g id="Node000009" class="node">
<title>Node9</title>
<g id="a_Node000009"><a xlink:title=" ">
<polygon fill="#e0e0e0" stroke="#999999" points="98.03,-20 69.22,-20 69.22,0 98.03,0 98.03,-20"/>
<text xml:space="preserve" text-anchor="middle" x="83.62" y="-6.5" font-family="Helvetica,sans-Serif" font-size="10.00">list</text>
</a>
</g>
</g>
<!-- Node8&#45;&gt;Node9 -->
<g id="edge11_Node000008_Node000009" class="edge">
<title>Node8&#45;&gt;Node9</title>
<g id="a_edge11_Node000008_Node000009"><a xlink:title=" ">
<path fill="none" stroke="#63b8ff" d="M136.48,-55.59C127.3,-47.85 114.07,-36.69 103.14,-27.47"/>
<polygon fill="#63b8ff" stroke="#63b8ff" points="105.7,-25.05 95.8,-21.27 101.19,-30.4 105.7,-25.05"/>
</a>
</g>
</g>
<!-- Node10 -->
<g id="Node000010" class="node">
<title>Node10</title>
<g id="a_Node000010"><a xlink:title=" ">
<polygon fill="#e0e0e0" stroke="#999999" points="322.75,-20 232.5,-20 232.5,0 322.75,0 322.75,-20"/>
<text xml:space="preserve" text-anchor="middle" x="277.62" y="-6.5" font-family="Helvetica,sans-Serif" font-size="10.00">model/model.hpp</text>
</a>
</g>
</g>
<!-- Node8&#45;&gt;Node10 -->
<g id="edge13_Node000008_Node000010" class="edge">
<title>Node8&#45;&gt;Node10</title>
<g id="a_edge13_Node000008_Node000010"><a xlink:title=" ">
<path fill="none" stroke="#63b8ff" d="M170.27,-55.59C190.74,-47.09 221.14,-34.46 244.37,-24.81"/>
<polygon fill="#63b8ff" stroke="#63b8ff" points="245.51,-28.13 253.41,-21.06 242.83,-21.66 245.51,-28.13"/>
</a>
</g>
</g>
<!-- Node11 -->
<g id="Node000011" class="node">
<title>Node11</title>
<g id="a_Node000011"><a xlink:title=" ">
<polygon fill="#e0e0e0" stroke="#999999" points="214.88,-20 116.38,-20 116.38,0 214.88,0 214.88,-20"/>
<text xml:space="preserve" text-anchor="middle" x="165.62" y="-6.5" font-family="Helvetica,sans-Serif" font-size="10.00">model/strategy.hpp</text>
</a>
</g>
</g>
<!-- Node8&#45;&gt;Node11 -->
<g id="edge14_Node000008_Node000011" class="edge">
<title>Node8&#45;&gt;Node11</title>
<g id="a_edge14_Node000008_Node000011"><a xlink:title=" ">
<path fill="none" stroke="#63b8ff" d="M150.76,-55.59C153.01,-48.86 156.11,-39.53 158.91,-31.15"/>
<polygon fill="#63b8ff" stroke="#63b8ff" points="162.2,-32.33 162.05,-21.73 155.56,-30.11 162.2,-32.33"/>
</a>
</g>
</g>
<!-- Node13&#45;&gt;Node2 -->
<g id="edge17_Node000013_Node000002" class="edge">
<title>Node13&#45;&gt;Node2</title>
<g id="a_edge17_Node000013_Node000002"><a xlink:title=" ">
<path fill="none" stroke="#63b8ff" d="M594.7,-223.77C597.45,-196.15 602.39,-112.63 569.62,-56 563.13,-44.78 552.87,-34.83 543.33,-27.16"/>
<polygon fill="#63b8ff" stroke="#63b8ff" points="545.5,-24.41 535.4,-21.19 541.29,-30 545.5,-24.41"/>
</a>
</g>
</g>
<!-- Node14 -->
<g id="Node000014" class="node">
<title>Node14</title>
<g id="a_Node000014"><a xlink:href="element_8hpp.html" target="_top" xlink:title=" ">
<polygon fill="white" stroke="#666666" points="455.25,-188 386,-188 386,-168 455.25,-168 455.25,-188"/>
<text xml:space="preserve" text-anchor="middle" x="420.62" y="-174.5" font-family="Helvetica,sans-Serif" font-size="10.00">element.hpp</text>
</a>
</g>
</g>
<!-- Node13&#45;&gt;Node14 -->
<g id="edge18_Node000013_Node000014" class="edge">
<title>Node13&#45;&gt;Node14</title>
<g id="a_edge18_Node000013_Node000014"><a xlink:title=" ">
<path fill="none" stroke="#63b8ff" d="M563.49,-223.59C535.38,-214.82 493.21,-201.66 461.97,-191.9"/>
<polygon fill="#63b8ff" stroke="#63b8ff" points="463.03,-188.57 452.44,-188.93 460.94,-195.25 463.03,-188.57"/>
</a>
</g>
</g>
<!-- Node14&#45;&gt;Node2 -->
<g id="edge19_Node000014_Node000002" class="edge">
<title>Node14&#45;&gt;Node2</title>
<g id="a_edge19_Node000014_Node000002"><a xlink:title=" ">
<path fill="none" stroke="#63b8ff" d="M426.39,-167.56C437.27,-149.72 461.53,-109.81 481.62,-76 490.81,-60.55 501.09,-42.94 508.64,-29.96"/>
<polygon fill="#63b8ff" stroke="#63b8ff" points="511.5,-32 513.49,-21.59 505.45,-28.48 511.5,-32"/>
</a>
</g>
</g>
<!-- Node14&#45;&gt;Node7 -->
<g id="edge20_Node000014_Node000007" class="edge">
<title>Node14&#45;&gt;Node7</title>
<g id="a_edge20_Node000014_Node000007"><a xlink:title=" ">
<path fill="none" stroke="#63b8ff" d="M412.26,-167.59C405.73,-160.24 396.44,-149.8 388.51,-140.87"/>
<polygon fill="#63b8ff" stroke="#63b8ff" points="391.16,-138.58 381.9,-133.43 385.92,-143.23 391.16,-138.58"/>
</a>
</g>
</g>
<!-- Node14&#45;&gt;Node8 -->
<g id="edge21_Node000014_Node000008" class="edge">
<title>Node14&#45;&gt;Node8</title>
<g id="a_edge21_Node000014_Node000008"><a xlink:title=" ">
<path fill="none" stroke="#63b8ff" d="M397.35,-167.62C349,-148.14 237.51,-103.22 181.31,-80.57"/>
<polygon fill="#63b8ff" stroke="#63b8ff" points="182.83,-77.41 172.25,-76.92 180.21,-83.9 182.83,-77.41"/>
</a>
</g>
</g>
<!-- Node15&#45;&gt;Node2 -->
<g id="edge23_Node000015_Node000002" class="edge">
<title>Node15&#45;&gt;Node2</title>
<g id="a_edge23_Node000015_Node000002"><a xlink:title=" ">
<path fill="none" stroke="#63b8ff" d="M177.21,-223.94C197.68,-191.03 269.27,-78.48 304.62,-56 359.13,-21.34 435.62,-12.85 481.15,-11.07"/>
<polygon fill="#63b8ff" stroke="#63b8ff" points="481.17,-14.57 491.06,-10.78 480.96,-7.57 481.17,-14.57"/>
</a>
</g>
</g>
<!-- Node15&#45;&gt;Node9 -->
<g id="edge24_Node000015_Node000009" class="edge">
<title>Node15&#45;&gt;Node9</title>
<g id="a_edge24_Node000015_Node000009"><a xlink:title=" ">
<path fill="none" stroke="#63b8ff" d="M164.47,-223.51C151.78,-206.23 125.27,-168.06 110.62,-132 101.01,-108.33 103.2,-100.93 97.62,-76 94.3,-61.13 90.68,-44.31 87.96,-31.51"/>
<polygon fill="#63b8ff" stroke="#63b8ff" points="91.38,-30.8 85.89,-21.75 84.54,-32.26 91.38,-30.8"/>
</a>
</g>
</g>
<!-- Node15&#45;&gt;Node14 -->
<g id="edge25_Node000015_Node000014" class="edge">
<title>Node15&#45;&gt;Node14</title>
<g id="a_edge25_Node000015_Node000014"><a xlink:title=" ">
<path fill="none" stroke="#63b8ff" d="M207.83,-225.15C251.91,-215.59 326.41,-199.43 374.54,-188.99"/>
<polygon fill="#63b8ff" stroke="#63b8ff" points="375.07,-192.46 384.1,-186.92 373.59,-185.62 375.07,-192.46"/>
</a>
</g>
</g>
<!-- Node16 -->
<g id="Node000016" class="node">
<title>Node16</title>
<g id="a_Node000016"><a xlink:href="constraintModel_8hpp.html" target="_top" xlink:title=" ">
<polygon fill="white" stroke="#666666" points="223.5,-132 119.75,-132 119.75,-112 223.5,-112 223.5,-132"/>
<text xml:space="preserve" text-anchor="middle" x="171.62" y="-118.5" font-family="Helvetica,sans-Serif" font-size="10.00">constraintModel.hpp</text>
</a>
</g>
</g>
<!-- Node15&#45;&gt;Node16 -->
<g id="edge26_Node000015_Node000016" class="edge">
<title>Node15&#45;&gt;Node16</title>
<g id="a_edge26_Node000015_Node000016"><a xlink:title=" ">
<path fill="none" stroke="#63b8ff" d="M171.62,-223.62C171.62,-206.01 171.62,-167.59 171.62,-143.65"/>
<polygon fill="#63b8ff" stroke="#63b8ff" points="175.13,-143.87 171.63,-133.87 168.13,-143.87 175.13,-143.87"/>
</a>
</g>
</g>
<!-- Node16&#45;&gt;Node2 -->
<g id="edge27_Node000016_Node000002" class="edge">
<title>Node16&#45;&gt;Node2</title>
<g id="a_edge27_Node000016_Node000002"><a xlink:title=" ">
<path fill="none" stroke="#63b8ff" d="M178.48,-111.64C189.7,-97.11 213.46,-69.38 240.62,-56 319.76,-17.01 425.37,-10.59 481.22,-10.23"/>
<polygon fill="#63b8ff" stroke="#63b8ff" points="481.17,-13.73 491.17,-10.23 481.17,-6.73 481.17,-13.73"/>
</a>
</g>
</g>
<!-- Node16&#45;&gt;Node8 -->
<g id="edge28_Node000016_Node000008" class="edge">
<title>Node16&#45;&gt;Node8</title>
<g id="a_edge28_Node000016_Node000008"><a xlink:title=" ">
<path fill="none" stroke="#63b8ff" d="M167.44,-111.59C164.38,-104.7 160.11,-95.1 156.32,-86.57"/>
<polygon fill="#63b8ff" stroke="#63b8ff" points="159.63,-85.4 152.37,-77.68 153.24,-88.24 159.63,-85.4"/>
</a>
</g>
</g>
<!-- Node17&#45;&gt;Node2 -->
<g id="edge30_Node000017_Node000002" class="edge">
<title>Node17&#45;&gt;Node2</title>
<g id="a_edge30_Node000017_Node000002"><a xlink:title=" ">
<path fill="none" stroke="#63b8ff" d="M431.19,-223.56C441.49,-215.22 455.76,-202.22 464.62,-188 496.49,-136.92 511.16,-65.96 516.74,-31.46"/>
<polygon fill="#63b8ff" stroke="#63b8ff" points="520.19,-32.05 518.23,-21.64 513.27,-31 520.19,-32.05"/>
</a>
</g>
</g>
<!-- Node17&#45;&gt;Node14 -->
<g id="edge31_Node000017_Node000014" class="edge">
<title>Node17&#45;&gt;Node14</title>
<g id="a_edge31_Node000017_Node000014"><a xlink:title=" ">
<path fill="none" stroke="#63b8ff" d="M418.97,-223.59C419.22,-217.01 419.55,-207.96 419.86,-199.73"/>
<polygon fill="#63b8ff" stroke="#63b8ff" points="423.35,-199.93 420.22,-189.81 416.36,-199.67 423.35,-199.93"/>
</a>
</g>
</g>
<!-- Node18&#45;&gt;Node2 -->
<g id="edge33_Node000018_Node000002" class="edge">
<title>Node18&#45;&gt;Node2</title>
<g id="a_edge33_Node000018_Node000002"><a xlink:title=" ">
<path fill="none" stroke="#63b8ff" d="M520.61,-223.62C531.77,-215.67 546.15,-203.17 552.62,-188 575.66,-134.05 570.88,-111.76 552.62,-56 549.37,-46.05 542.98,-36.48 536.69,-28.75"/>
<polygon fill="#63b8ff" stroke="#63b8ff" points="539.5,-26.65 530.27,-21.45 534.25,-31.27 539.5,-26.65"/>
</a>
</g>
</g>
<!-- Node18&#45;&gt;Node14 -->
<g id="edge34_Node000018_Node000014" class="edge">
<title>Node18&#45;&gt;Node14</title>
<g id="a_edge34_Node000018_Node000014"><a xlink:title=" ">
<path fill="none" stroke="#63b8ff" d="M490.82,-223.59C478.22,-215.59 459.87,-203.93 445.09,-194.54"/>
<polygon fill="#63b8ff" stroke="#63b8ff" points="447.14,-191.7 436.82,-189.29 443.39,-197.61 447.14,-191.7"/>
</a>
</g>
</g>
</g>
</svg>
