<?xml version="1.0" encoding="UTF-8" standalone="no"?>
<!DOCTYPE svg PUBLIC "-//W3C//DTD SVG 1.1//EN"
 "http://www.w3.org/Graphics/SVG/1.1/DTD/svg11.dtd">
<!-- Generated by graphviz version 13.1.0 (0)
 -->
<!-- Title: modularComponent.hpp Pages: 1 -->
<svg width="402pt" height="196pt"
 viewBox="0.00 0.00 402.00 196.00" xmlns="http://www.w3.org/2000/svg" xmlns:xlink="http://www.w3.org/1999/xlink">
<g id="graph0" class="graph" transform="scale(1 1) rotate(0) translate(4 192)">
<title>modularComponent.hpp</title>
<!-- Node1 -->
<g id="Node000001" class="node">
<title>Node1</title>
<g id="a_Node000001"><a xlink:title=" ">
<polygon fill="#999999" stroke="#666666" points="126.5,-188 7,-188 7,-168 126.5,-168 126.5,-188"/>
<text xml:space="preserve" text-anchor="middle" x="66.75" y="-174.5" font-family="Helvetica,sans-Serif" font-size="10.00">modularComponent.hpp</text>
</a>
</g>
</g>
<!-- Node2 -->
<g id="Node000002" class="node">
<title>Node2</title>
<g id="a_Node000002"><a xlink:title=" ">
<polygon fill="#e0e0e0" stroke="#999999" points="53.5,-20 0,-20 0,0 53.5,0 53.5,-20"/>
<text xml:space="preserve" text-anchor="middle" x="26.75" y="-6.5" font-family="Helvetica,sans-Serif" font-size="10.00">iostream</text>
</a>
</g>
</g>
<!-- Node1&#45;&gt;Node2 -->
<g id="edge1_Node000001_Node000002" class="edge">
<title>Node1&#45;&gt;Node2</title>
<g id="a_edge1_Node000001_Node000002"><a xlink:title=" ">
<path fill="none" stroke="#63b8ff" d="M64.48,-167.6C58.19,-141.46 40.36,-67.48 31.66,-31.36"/>
<polygon fill="#63b8ff" stroke="#63b8ff" points="35.09,-30.67 29.34,-21.77 28.28,-32.31 35.09,-30.67"/>
</a>
</g>
</g>
<!-- Node3 -->
<g id="Node000003" class="node">
<title>Node3</title>
<g id="a_Node000003"><a xlink:href="compositeNode_8hpp.html" target="_top" xlink:title=" ">
<polygon fill="white" stroke="#666666" points="171.25,-132 68.25,-132 68.25,-112 171.25,-112 171.25,-132"/>
<text xml:space="preserve" text-anchor="middle" x="119.75" y="-118.5" font-family="Helvetica,sans-Serif" font-size="10.00">compositeNode.hpp</text>
</a>
</g>
</g>
<!-- Node1&#45;&gt;Node3 -->
<g id="edge2_Node000001_Node000003" class="edge">
<title>Node1&#45;&gt;Node3</title>
<g id="a_edge2_Node000001_Node000003"><a xlink:title=" ">
<path fill="none" stroke="#63b8ff" d="M75.98,-167.59C83.35,-160.08 93.88,-149.35 102.77,-140.3"/>
<polygon fill="#63b8ff" stroke="#63b8ff" points="105.06,-142.97 109.56,-133.38 100.06,-138.06 105.06,-142.97"/>
</a>
</g>
</g>
<!-- Node3&#45;&gt;Node2 -->
<g id="edge3_Node000003_Node000002" class="edge">
<title>Node3&#45;&gt;Node2</title>
<g id="a_edge3_Node000003_Node000002"><a xlink:title=" ">
<path fill="none" stroke="#63b8ff" d="M111.82,-111.62C96.38,-93.36 62.03,-52.73 42.03,-29.07"/>
<polygon fill="#63b8ff" stroke="#63b8ff" points="44.77,-26.89 35.64,-21.51 39.42,-31.41 44.77,-26.89"/>
</a>
</g>
</g>
<!-- Node4 -->
<g id="Node000004" class="node">
<title>Node4</title>
<g id="a_Node000004"><a xlink:href="knowledge_8hpp.html" target="_top" xlink:title=" ">
<polygon fill="white" stroke="#666666" points="174.38,-76 93.12,-76 93.12,-56 174.38,-56 174.38,-76"/>
<text xml:space="preserve" text-anchor="middle" x="133.75" y="-62.5" font-family="Helvetica,sans-Serif" font-size="10.00">knowledge.hpp</text>
</a>
</g>
</g>
<!-- Node3&#45;&gt;Node4 -->
<g id="edge4_Node000003_Node000004" class="edge">
<title>Node3&#45;&gt;Node4</title>
<g id="a_edge4_Node000003_Node000004"><a xlink:title=" ">
<path fill="none" stroke="#63b8ff" d="M122.19,-111.59C123.92,-104.93 126.3,-95.75 128.45,-87.44"/>
<polygon fill="#63b8ff" stroke="#63b8ff" points="131.84,-88.32 130.96,-77.76 125.06,-86.56 131.84,-88.32"/>
</a>
</g>
</g>
<!-- Node9 -->
<g id="Node000009" class="node">
<title>Node9</title>
<g id="a_Node000009"><a xlink:title=" ">
<polygon fill="#e0e0e0" stroke="#999999" points="343.25,-76 192.25,-76 192.25,-56 343.25,-56 343.25,-76"/>
<text xml:space="preserve" text-anchor="middle" x="267.75" y="-62.5" font-family="Helvetica,sans-Serif" font-size="10.00">enum/compositeNodeType.hpp</text>
</a>
</g>
</g>
<!-- Node3&#45;&gt;Node9 -->
<g id="edge10_Node000003_Node000009" class="edge">
<title>Node3&#45;&gt;Node9</title>
<g id="a_edge10_Node000003_Node000009"><a xlink:title=" ">
<path fill="none" stroke="#63b8ff" d="M145.53,-111.59C169.15,-102.97 204.39,-90.12 230.97,-80.42"/>
<polygon fill="#63b8ff" stroke="#63b8ff" points="232.15,-83.71 240.35,-77 229.75,-77.14 232.15,-83.71"/>
</a>
</g>
</g>
<!-- Node4&#45;&gt;Node2 -->
<g id="edge5_Node000004_Node000002" class="edge">
<title>Node4&#45;&gt;Node2</title>
<g id="a_edge5_Node000004_Node000002"><a xlink:title=" ">
<path fill="none" stroke="#63b8ff" d="M115.11,-55.59C98.72,-47.32 74.59,-35.14 55.69,-25.6"/>
<polygon fill="#63b8ff" stroke="#63b8ff" points="57.39,-22.54 46.88,-21.16 54.24,-28.79 57.39,-22.54"/>
</a>
</g>
</g>
<!-- Node5 -->
<g id="Node000005" class="node">
<title>Node5</title>
<g id="a_Node000005"><a xlink:title=" ">
<polygon fill="#e0e0e0" stroke="#999999" points="100.15,-20 71.35,-20 71.35,0 100.15,0 100.15,-20"/>
<text xml:space="preserve" text-anchor="middle" x="85.75" y="-6.5" font-family="Helvetica,sans-Serif" font-size="10.00">list</text>
</a>
</g>
</g>
<!-- Node4&#45;&gt;Node5 -->
<g id="edge6_Node000004_Node000005" class="edge">
<title>Node4&#45;&gt;Node5</title>
<g id="a_edge6_Node000004_Node000005"><a xlink:title=" ">
<path fill="none" stroke="#63b8ff" d="M125.39,-55.59C118.85,-48.24 109.57,-37.8 101.63,-28.87"/>
<polygon fill="#63b8ff" stroke="#63b8ff" points="104.28,-26.58 95.02,-21.43 99.05,-31.23 104.28,-26.58"/>
</a>
</g>
</g>
<!-- Node6 -->
<g id="Node000006" class="node">
<title>Node6</title>
<g id="a_Node000006"><a xlink:title=" ">
<polygon fill="#e0e0e0" stroke="#999999" points="169.38,-20 118.12,-20 118.12,0 169.38,0 169.38,-20"/>
<text xml:space="preserve" text-anchor="middle" x="143.75" y="-6.5" font-family="Helvetica,sans-Serif" font-size="10.00">memory</text>
</a>
</g>
</g>
<!-- Node4&#45;&gt;Node6 -->
<g id="edge7_Node000004_Node000006" class="edge">
<title>Node4&#45;&gt;Node6</title>
<g id="a_edge7_Node000004_Node000006"><a xlink:title=" ">
<path fill="none" stroke="#63b8ff" d="M135.49,-55.59C136.73,-48.93 138.43,-39.75 139.96,-31.44"/>
<polygon fill="#63b8ff" stroke="#63b8ff" points="143.37,-32.26 141.75,-21.79 136.49,-30.98 143.37,-32.26"/>
</a>
</g>
</g>
<!-- Node7 -->
<g id="Node000007" class="node">
<title>Node7</title>
<g id="a_Node000007"><a xlink:title=" ">
<polygon fill="#e0e0e0" stroke="#999999" points="277.88,-20 187.62,-20 187.62,0 277.88,0 277.88,-20"/>
<text xml:space="preserve" text-anchor="middle" x="232.75" y="-6.5" font-family="Helvetica,sans-Serif" font-size="10.00">model/model.hpp</text>
</a>
</g>
</g>
<!-- Node4&#45;&gt;Node7 -->
<g id="edge8_Node000004_Node000007" class="edge">
<title>Node4&#45;&gt;Node7</title>
<g id="a_edge8_Node000004_Node000007"><a xlink:title=" ">
<path fill="none" stroke="#63b8ff" d="M150.99,-55.59C166.09,-47.36 188.28,-35.26 205.73,-25.74"/>
<polygon fill="#63b8ff" stroke="#63b8ff" points="206.94,-29.07 214.04,-21.2 203.59,-22.92 206.94,-29.07"/>
</a>
</g>
</g>
<!-- Node8 -->
<g id="Node000008" class="node">
<title>Node8</title>
<g id="a_Node000008"><a xlink:title=" ">
<polygon fill="#e0e0e0" stroke="#999999" points="394,-20 295.5,-20 295.5,0 394,0 394,-20"/>
<text xml:space="preserve" text-anchor="middle" x="344.75" y="-6.5" font-family="Helvetica,sans-Serif" font-size="10.00">model/strategy.hpp</text>
</a>
</g>
</g>
<!-- Node4&#45;&gt;Node8 -->
<g id="edge9_Node000004_Node000008" class="edge">
<title>Node4&#45;&gt;Node8</title>
<g id="a_edge9_Node000004_Node000008"><a xlink:title=" ">
<path fill="none" stroke="#63b8ff" d="M170.5,-55.59C205.54,-46.63 258.48,-33.08 296.82,-23.27"/>
<polygon fill="#63b8ff" stroke="#63b8ff" points="297.42,-26.72 306.24,-20.85 295.69,-19.94 297.42,-26.72"/>
</a>
</g>
</g>
</g>
</svg>
