<?xml version="1.0" encoding="UTF-8" standalone="no"?>
<!DOCTYPE svg PUBLIC "-//W3C//DTD SVG 1.1//EN"
 "http://www.w3.org/Graphics/SVG/1.1/DTD/svg11.dtd">
<!-- Generated by graphviz version 13.1.0 (0)
 -->
<!-- Title: module.hpp Pages: 1 -->
<svg width="402pt" height="252pt"
 viewBox="0.00 0.00 402.00 252.00" xmlns="http://www.w3.org/2000/svg" xmlns:xlink="http://www.w3.org/1999/xlink">
<g id="graph0" class="graph" transform="scale(1 1) rotate(0) translate(4 248)">
<title>module.hpp</title>
<!-- Node1 -->
<g id="Node000001" class="node">
<title>Node1</title>
<g id="a_Node000001"><a xlink:title=" ">
<polygon fill="#999999" stroke="#666666" points="70.88,-244 4.62,-244 4.62,-224 70.88,-224 70.88,-244"/>
<text xml:space="preserve" text-anchor="middle" x="37.75" y="-230.5" font-family="Helvetica,sans-Serif" font-size="10.00">module.hpp</text>
</a>
</g>
</g>
<!-- Node2 -->
<g id="Node000002" class="node">
<title>Node2</title>
<g id="a_Node000002"><a xlink:title=" ">
<polygon fill="#e0e0e0" stroke="#999999" points="53.5,-20 0,-20 0,0 53.5,0 53.5,-20"/>
<text xml:space="preserve" text-anchor="middle" x="26.75" y="-6.5" font-family="Helvetica,sans-Serif" font-size="10.00">iostream</text>
</a>
</g>
</g>
<!-- Node1&#45;&gt;Node2 -->
<g id="edge1_Node000001_Node000002" class="edge">
<title>Node1&#45;&gt;Node2</title>
<g id="a_edge1_Node000001_Node000002"><a xlink:title=" ">
<path fill="none" stroke="#63b8ff" d="M30.65,-223.61C24.55,-214.9 16.2,-201.32 12.75,-188 -1.58,-132.7 12.17,-64.71 20.86,-31.38"/>
<polygon fill="#63b8ff" stroke="#63b8ff" points="24.2,-32.43 23.47,-21.86 17.45,-30.58 24.2,-32.43"/>
</a>
</g>
</g>
<!-- Node3 -->
<g id="Node000003" class="node">
<title>Node3</title>
<g id="a_Node000003"><a xlink:href="modularComponent_8hpp.html" target="_top" xlink:title=" ">
<polygon fill="white" stroke="#666666" points="141.5,-188 22,-188 22,-168 141.5,-168 141.5,-188"/>
<text xml:space="preserve" text-anchor="middle" x="81.75" y="-174.5" font-family="Helvetica,sans-Serif" font-size="10.00">modularComponent.hpp</text>
</a>
</g>
</g>
<!-- Node1&#45;&gt;Node3 -->
<g id="edge2_Node000001_Node000003" class="edge">
<title>Node1&#45;&gt;Node3</title>
<g id="a_edge2_Node000001_Node000003"><a xlink:title=" ">
<path fill="none" stroke="#63b8ff" d="M45.41,-223.59C51.34,-216.32 59.74,-206.02 66.96,-197.15"/>
<polygon fill="#63b8ff" stroke="#63b8ff" points="69.61,-199.43 73.22,-189.47 64.19,-195.01 69.61,-199.43"/>
</a>
</g>
</g>
<!-- Node3&#45;&gt;Node2 -->
<g id="edge3_Node000003_Node000002" class="edge">
<title>Node3&#45;&gt;Node2</title>
<g id="a_edge3_Node000003_Node000002"><a xlink:title=" ">
<path fill="none" stroke="#63b8ff" d="M78.08,-167.75C74.53,-158.69 69.06,-144.47 64.75,-132 52.62,-96.91 39.99,-55.55 32.77,-31.41"/>
<polygon fill="#63b8ff" stroke="#63b8ff" points="36.16,-30.51 29.96,-21.92 29.45,-32.51 36.16,-30.51"/>
</a>
</g>
</g>
<!-- Node4 -->
<g id="Node000004" class="node">
<title>Node4</title>
<g id="a_Node000004"><a xlink:href="compositeNode_8hpp.html" target="_top" xlink:title=" ">
<polygon fill="white" stroke="#666666" points="176.25,-132 73.25,-132 73.25,-112 176.25,-112 176.25,-132"/>
<text xml:space="preserve" text-anchor="middle" x="124.75" y="-118.5" font-family="Helvetica,sans-Serif" font-size="10.00">compositeNode.hpp</text>
</a>
</g>
</g>
<!-- Node3&#45;&gt;Node4 -->
<g id="edge4_Node000003_Node000004" class="edge">
<title>Node3&#45;&gt;Node4</title>
<g id="a_edge4_Node000003_Node000004"><a xlink:title=" ">
<path fill="none" stroke="#63b8ff" d="M89.24,-167.59C95.04,-160.32 103.24,-150.02 110.3,-141.15"/>
<polygon fill="#63b8ff" stroke="#63b8ff" points="112.91,-143.49 116.4,-133.48 107.44,-139.12 112.91,-143.49"/>
</a>
</g>
</g>
<!-- Node4&#45;&gt;Node2 -->
<g id="edge5_Node000004_Node000002" class="edge">
<title>Node4&#45;&gt;Node2</title>
<g id="a_edge5_Node000004_Node000002"><a xlink:title=" ">
<path fill="none" stroke="#63b8ff" d="M116.39,-111.62C100.05,-93.27 63.61,-52.37 42.57,-28.75"/>
<polygon fill="#63b8ff" stroke="#63b8ff" points="45.36,-26.62 36.09,-21.48 40.13,-31.28 45.36,-26.62"/>
</a>
</g>
</g>
<!-- Node5 -->
<g id="Node000005" class="node">
<title>Node5</title>
<g id="a_Node000005"><a xlink:href="knowledge_8hpp.html" target="_top" xlink:title=" ">
<polygon fill="white" stroke="#666666" points="179.38,-76 98.12,-76 98.12,-56 179.38,-56 179.38,-76"/>
<text xml:space="preserve" text-anchor="middle" x="138.75" y="-62.5" font-family="Helvetica,sans-Serif" font-size="10.00">knowledge.hpp</text>
</a>
</g>
</g>
<!-- Node4&#45;&gt;Node5 -->
<g id="edge6_Node000004_Node000005" class="edge">
<title>Node4&#45;&gt;Node5</title>
<g id="a_edge6_Node000004_Node000005"><a xlink:title=" ">
<path fill="none" stroke="#63b8ff" d="M127.19,-111.59C128.92,-104.93 131.3,-95.75 133.45,-87.44"/>
<polygon fill="#63b8ff" stroke="#63b8ff" points="136.84,-88.32 135.96,-77.76 130.06,-86.56 136.84,-88.32"/>
</a>
</g>
</g>
<!-- Node10 -->
<g id="Node000010" class="node">
<title>Node10</title>
<g id="a_Node000010"><a xlink:title=" ">
<polygon fill="#e0e0e0" stroke="#999999" points="348.25,-76 197.25,-76 197.25,-56 348.25,-56 348.25,-76"/>
<text xml:space="preserve" text-anchor="middle" x="272.75" y="-62.5" font-family="Helvetica,sans-Serif" font-size="10.00">enum/compositeNodeType.hpp</text>
</a>
</g>
</g>
<!-- Node4&#45;&gt;Node10 -->
<g id="edge12_Node000004_Node000010" class="edge">
<title>Node4&#45;&gt;Node10</title>
<g id="a_edge12_Node000004_Node000010"><a xlink:title=" ">
<path fill="none" stroke="#63b8ff" d="M150.53,-111.59C174.15,-102.97 209.39,-90.12 235.97,-80.42"/>
<polygon fill="#63b8ff" stroke="#63b8ff" points="237.15,-83.71 245.35,-77 234.75,-77.14 237.15,-83.71"/>
</a>
</g>
</g>
<!-- Node5&#45;&gt;Node2 -->
<g id="edge7_Node000005_Node000002" class="edge">
<title>Node5&#45;&gt;Node2</title>
<g id="a_edge7_Node000005_Node000002"><a xlink:title=" ">
<path fill="none" stroke="#63b8ff" d="M119.24,-55.59C102,-47.28 76.59,-35.03 56.76,-25.47"/>
<polygon fill="#63b8ff" stroke="#63b8ff" points="58.3,-22.33 47.77,-21.14 55.26,-28.63 58.3,-22.33"/>
</a>
</g>
</g>
<!-- Node6 -->
<g id="Node000006" class="node">
<title>Node6</title>
<g id="a_Node000006"><a xlink:title=" ">
<polygon fill="#e0e0e0" stroke="#999999" points="100.15,-20 71.35,-20 71.35,0 100.15,0 100.15,-20"/>
<text xml:space="preserve" text-anchor="middle" x="85.75" y="-6.5" font-family="Helvetica,sans-Serif" font-size="10.00">list</text>
</a>
</g>
</g>
<!-- Node5&#45;&gt;Node6 -->
<g id="edge8_Node000005_Node000006" class="edge">
<title>Node5&#45;&gt;Node6</title>
<g id="a_edge8_Node000005_Node000006"><a xlink:title=" ">
<path fill="none" stroke="#63b8ff" d="M129.52,-55.59C122.15,-48.08 111.62,-37.35 102.73,-28.3"/>
<polygon fill="#63b8ff" stroke="#63b8ff" points="105.44,-26.06 95.94,-21.38 100.44,-30.97 105.44,-26.06"/>
</a>
</g>
</g>
<!-- Node7 -->
<g id="Node000007" class="node">
<title>Node7</title>
<g id="a_Node000007"><a xlink:title=" ">
<polygon fill="#e0e0e0" stroke="#999999" points="169.38,-20 118.12,-20 118.12,0 169.38,0 169.38,-20"/>
<text xml:space="preserve" text-anchor="middle" x="143.75" y="-6.5" font-family="Helvetica,sans-Serif" font-size="10.00">memory</text>
</a>
</g>
</g>
<!-- Node5&#45;&gt;Node7 -->
<g id="edge9_Node000005_Node000007" class="edge">
<title>Node5&#45;&gt;Node7</title>
<g id="a_edge9_Node000005_Node000007"><a xlink:title=" ">
<path fill="none" stroke="#63b8ff" d="M139.62,-55.59C140.23,-49.01 141.07,-39.96 141.83,-31.73"/>
<polygon fill="#63b8ff" stroke="#63b8ff" points="145.31,-32.09 142.75,-21.81 138.34,-31.44 145.31,-32.09"/>
</a>
</g>
</g>
<!-- Node8 -->
<g id="Node000008" class="node">
<title>Node8</title>
<g id="a_Node000008"><a xlink:title=" ">
<polygon fill="#e0e0e0" stroke="#999999" points="277.88,-20 187.62,-20 187.62,0 277.88,0 277.88,-20"/>
<text xml:space="preserve" text-anchor="middle" x="232.75" y="-6.5" font-family="Helvetica,sans-Serif" font-size="10.00">model/model.hpp</text>
</a>
</g>
</g>
<!-- Node5&#45;&gt;Node8 -->
<g id="edge10_Node000005_Node000008" class="edge">
<title>Node5&#45;&gt;Node8</title>
<g id="a_edge10_Node000005_Node000008"><a xlink:title=" ">
<path fill="none" stroke="#63b8ff" d="M155.12,-55.59C169.32,-47.44 190.13,-35.48 206.63,-26"/>
<polygon fill="#63b8ff" stroke="#63b8ff" points="208.01,-29.25 214.94,-21.23 204.52,-23.18 208.01,-29.25"/>
</a>
</g>
</g>
<!-- Node9 -->
<g id="Node000009" class="node">
<title>Node9</title>
<g id="a_Node000009"><a xlink:title=" ">
<polygon fill="#e0e0e0" stroke="#999999" points="394,-20 295.5,-20 295.5,0 394,0 394,-20"/>
<text xml:space="preserve" text-anchor="middle" x="344.75" y="-6.5" font-family="Helvetica,sans-Serif" font-size="10.00">model/strategy.hpp</text>
</a>
</g>
</g>
<!-- Node5&#45;&gt;Node9 -->
<g id="edge11_Node000005_Node000009" class="edge">
<title>Node5&#45;&gt;Node9</title>
<g id="a_edge11_Node000005_Node000009"><a xlink:title=" ">
<path fill="none" stroke="#63b8ff" d="M174.63,-55.59C208.69,-46.67 260.08,-33.19 297.47,-23.39"/>
<polygon fill="#63b8ff" stroke="#63b8ff" points="298.34,-26.78 307.12,-20.86 296.56,-20.01 298.34,-26.78"/>
</a>
</g>
</g>
</g>
</svg>
