<?xml version="1.0" encoding="UTF-8" standalone="no"?>
<!DOCTYPE svg PUBLIC "-//W3C//DTD SVG 1.1//EN"
 "http://www.w3.org/Graphics/SVG/1.1/DTD/svg11.dtd">
<!-- Generated by graphviz version 13.1.0 (0)
 -->
<!-- Title: monitor.hpp Pages: 1 -->
<svg width="247pt" height="140pt"
 viewBox="0.00 0.00 247.00 140.00" xmlns="http://www.w3.org/2000/svg" xmlns:xlink="http://www.w3.org/1999/xlink">
<g id="graph0" class="graph" transform="scale(1 1) rotate(0) translate(4 136)">
<title>monitor.hpp</title>
<!-- Node1 -->
<g id="Node000001" class="node">
<title>Node1</title>
<g id="a_Node000001"><a xlink:title=" ">
<polygon fill="#999999" stroke="#666666" points="187,-132 120,-132 120,-112 187,-112 187,-132"/>
<text xml:space="preserve" text-anchor="middle" x="153.5" y="-118.5" font-family="Helvetica,sans-Serif" font-size="10.00">monitor.hpp</text>
</a>
</g>
</g>
<!-- Node2 -->
<g id="Node000002" class="node">
<title>Node2</title>
<g id="a_Node000002"><a xlink:href="loopComponent_8hpp.html" target="_top" xlink:title=" ">
<polygon fill="white" stroke="#666666" points="154,-76 51,-76 51,-56 154,-56 154,-76"/>
<text xml:space="preserve" text-anchor="middle" x="102.5" y="-62.5" font-family="Helvetica,sans-Serif" font-size="10.00">loopComponent.hpp</text>
</a>
</g>
</g>
<!-- Node1&#45;&gt;Node2 -->
<g id="edge1_Node000001_Node000002" class="edge">
<title>Node1&#45;&gt;Node2</title>
<g id="a_edge1_Node000001_Node000002"><a xlink:title=" ">
<path fill="none" stroke="#63b8ff" d="M136.77,-103.29C128.26,-94.28 118.27,-83.7 111.28,-76.3"/>
<polygon fill="#63b8ff" stroke="#63b8ff" points="134.17,-105.63 143.58,-110.49 139.26,-100.82 134.17,-105.63"/>
</a>
</g>
</g>
<!-- Node5 -->
<g id="Node000005" class="node">
<title>Node5</title>
<g id="a_Node000005"><a xlink:href="monitor_8cpp.html" target="_top" xlink:title=" ">
<polygon fill="white" stroke="#666666" points="239,-76 172,-76 172,-56 239,-56 239,-76"/>
<text xml:space="preserve" text-anchor="middle" x="205.5" y="-62.5" font-family="Helvetica,sans-Serif" font-size="10.00">monitor.cpp</text>
</a>
</g>
</g>
<!-- Node1&#45;&gt;Node5 -->
<g id="edge4_Node000001_Node000005" class="edge">
<title>Node1&#45;&gt;Node5</title>
<g id="a_edge4_Node000001_Node000005"><a xlink:title=" ">
<path fill="none" stroke="#63b8ff" d="M170.29,-103.57C179.02,-94.5 189.34,-83.78 196.55,-76.3"/>
<polygon fill="#63b8ff" stroke="#63b8ff" points="168.02,-100.87 163.61,-110.5 173.07,-105.73 168.02,-100.87"/>
</a>
</g>
</g>
<!-- Node3 -->
<g id="Node000003" class="node">
<title>Node3</title>
<g id="a_Node000003"><a xlink:href="loopComponent_8cpp.html" target="_top" xlink:title=" ">
<polygon fill="white" stroke="#666666" points="103,-20 0,-20 0,0 103,0 103,-20"/>
<text xml:space="preserve" text-anchor="middle" x="51.5" y="-6.5" font-family="Helvetica,sans-Serif" font-size="10.00">loopComponent.cpp</text>
</a>
</g>
</g>
<!-- Node2&#45;&gt;Node3 -->
<g id="edge2_Node000002_Node000003" class="edge">
<title>Node2&#45;&gt;Node3</title>
<g id="a_edge2_Node000002_Node000003"><a xlink:title=" ">
<path fill="none" stroke="#63b8ff" d="M85.77,-47.29C77.26,-38.28 67.27,-27.7 60.28,-20.3"/>
<polygon fill="#63b8ff" stroke="#63b8ff" points="83.17,-49.63 92.58,-54.49 88.26,-44.82 83.17,-49.63"/>
</a>
</g>
</g>
<!-- Node4 -->
<g id="Node000004" class="node">
<title>Node4</title>
<g id="a_Node000004"><a xlink:href="mapek_8hpp.html" target="_top" xlink:title=" ">
<polygon fill="white" stroke="#666666" points="185.5,-20 121.5,-20 121.5,0 185.5,0 185.5,-20"/>
<text xml:space="preserve" text-anchor="middle" x="153.5" y="-6.5" font-family="Helvetica,sans-Serif" font-size="10.00">mapek.hpp</text>
</a>
</g>
</g>
<!-- Node2&#45;&gt;Node4 -->
<g id="edge3_Node000002_Node000004" class="edge">
<title>Node2&#45;&gt;Node4</title>
<g id="a_edge3_Node000002_Node000004"><a xlink:title=" ">
<path fill="none" stroke="#63b8ff" d="M119.23,-47.29C127.74,-38.28 137.73,-27.7 144.72,-20.3"/>
<polygon fill="#63b8ff" stroke="#63b8ff" points="116.74,-44.82 112.42,-54.49 121.83,-49.63 116.74,-44.82"/>
</a>
</g>
</g>
</g>
</svg>
