<?xml version="1.0" encoding="UTF-8" standalone="no"?>
<!DOCTYPE svg PUBLIC "-//W3C//DTD SVG 1.1//EN"
 "http://www.w3.org/Graphics/SVG/1.1/DTD/svg11.dtd">
<!-- Generated by graphviz version 13.1.0 (0)
 -->
<!-- Title: monitor.cpp Pages: 1 -->
<svg width="530pt" height="308pt"
 viewBox="0.00 0.00 530.00 308.00" xmlns="http://www.w3.org/2000/svg" xmlns:xlink="http://www.w3.org/1999/xlink">
<g id="graph0" class="graph" transform="scale(1 1) rotate(0) translate(4 304)">
<title>monitor.cpp</title>
<!-- Node1 -->
<g id="Node000001" class="node">
<title>Node1</title>
<g id="a_Node000001"><a xlink:title=" ">
<polygon fill="#999999" stroke="#666666" points="67,-300 0,-300 0,-280 67,-280 67,-300"/>
<text xml:space="preserve" text-anchor="middle" x="33.5" y="-286.5" font-family="Helvetica,sans-Serif" font-size="10.00">monitor.cpp</text>
</a>
</g>
</g>
<!-- Node2 -->
<g id="Node000002" class="node">
<title>Node2</title>
<g id="a_Node000002"><a xlink:href="monitor_8hpp.html" target="_top" xlink:title=" ">
<polygon fill="white" stroke="#666666" points="67,-244 0,-244 0,-224 67,-224 67,-244"/>
<text xml:space="preserve" text-anchor="middle" x="33.5" y="-230.5" font-family="Helvetica,sans-Serif" font-size="10.00">monitor.hpp</text>
</a>
</g>
</g>
<!-- Node1&#45;&gt;Node2 -->
<g id="edge1_Node000001_Node000002" class="edge">
<title>Node1&#45;&gt;Node2</title>
<g id="a_edge1_Node000001_Node000002"><a xlink:title=" ">
<path fill="none" stroke="#63b8ff" d="M33.5,-279.59C33.5,-273.01 33.5,-263.96 33.5,-255.73"/>
<polygon fill="#63b8ff" stroke="#63b8ff" points="37,-255.81 33.5,-245.81 30,-255.81 37,-255.81"/>
</a>
</g>
</g>
<!-- Node3 -->
<g id="Node000003" class="node">
<title>Node3</title>
<g id="a_Node000003"><a xlink:title=" ">
<polygon fill="#e0e0e0" stroke="#999999" points="86.25,-20 32.75,-20 32.75,0 86.25,0 86.25,-20"/>
<text xml:space="preserve" text-anchor="middle" x="59.5" y="-6.5" font-family="Helvetica,sans-Serif" font-size="10.00">iostream</text>
</a>
</g>
</g>
<!-- Node2&#45;&gt;Node3 -->
<g id="edge2_Node000002_Node000003" class="edge">
<title>Node2&#45;&gt;Node3</title>
<g id="a_edge2_Node000002_Node000003"><a xlink:title=" ">
<path fill="none" stroke="#63b8ff" d="M34.58,-223.74C38.45,-190.74 51.62,-78.31 57.09,-31.61"/>
<polygon fill="#63b8ff" stroke="#63b8ff" points="60.55,-32.14 58.24,-21.8 53.6,-31.32 60.55,-32.14"/>
</a>
</g>
</g>
<!-- Node4 -->
<g id="Node000004" class="node">
<title>Node4</title>
<g id="a_Node000004"><a xlink:href="element_8hpp.html" target="_top" xlink:title=" ">
<polygon fill="white" stroke="#666666" points="127.12,-188 57.88,-188 57.88,-168 127.12,-168 127.12,-188"/>
<text xml:space="preserve" text-anchor="middle" x="92.5" y="-174.5" font-family="Helvetica,sans-Serif" font-size="10.00">element.hpp</text>
</a>
</g>
</g>
<!-- Node2&#45;&gt;Node4 -->
<g id="edge3_Node000002_Node000004" class="edge">
<title>Node2&#45;&gt;Node4</title>
<g id="a_edge3_Node000002_Node000004"><a xlink:title=" ">
<path fill="none" stroke="#63b8ff" d="M43.78,-223.59C52.07,-216.01 63.95,-205.13 73.9,-196.02"/>
<polygon fill="#63b8ff" stroke="#63b8ff" points="76.21,-198.65 81.22,-189.32 71.48,-193.49 76.21,-198.65"/>
</a>
</g>
</g>
<!-- Node4&#45;&gt;Node3 -->
<g id="edge4_Node000004_Node000003" class="edge">
<title>Node4&#45;&gt;Node3</title>
<g id="a_edge4_Node000004_Node000003"><a xlink:title=" ">
<path fill="none" stroke="#63b8ff" d="M90.63,-167.6C85.44,-141.46 70.73,-67.48 63.55,-31.36"/>
<polygon fill="#63b8ff" stroke="#63b8ff" points="67.03,-30.91 61.64,-21.78 60.16,-32.27 67.03,-30.91"/>
</a>
</g>
</g>
<!-- Node5 -->
<g id="Node000005" class="node">
<title>Node5</title>
<g id="a_Node000005"><a xlink:href="compositeNode_8hpp.html" target="_top" xlink:title=" ">
<polygon fill="white" stroke="#666666" points="203,-132 100,-132 100,-112 203,-112 203,-132"/>
<text xml:space="preserve" text-anchor="middle" x="151.5" y="-118.5" font-family="Helvetica,sans-Serif" font-size="10.00">compositeNode.hpp</text>
</a>
</g>
</g>
<!-- Node4&#45;&gt;Node5 -->
<g id="edge5_Node000004_Node000005" class="edge">
<title>Node4&#45;&gt;Node5</title>
<g id="a_edge5_Node000004_Node000005"><a xlink:title=" ">
<path fill="none" stroke="#63b8ff" d="M102.78,-167.59C111.07,-160.01 122.95,-149.13 132.9,-140.02"/>
<polygon fill="#63b8ff" stroke="#63b8ff" points="135.21,-142.65 140.22,-133.32 130.48,-137.49 135.21,-142.65"/>
</a>
</g>
</g>
<!-- Node6 -->
<g id="Node000006" class="node">
<title>Node6</title>
<g id="a_Node000006"><a xlink:href="knowledge_8hpp.html" target="_top" xlink:title=" ">
<polygon fill="white" stroke="#666666" points="357.12,-76 275.88,-76 275.88,-56 357.12,-56 357.12,-76"/>
<text xml:space="preserve" text-anchor="middle" x="316.5" y="-62.5" font-family="Helvetica,sans-Serif" font-size="10.00">knowledge.hpp</text>
</a>
</g>
</g>
<!-- Node4&#45;&gt;Node6 -->
<g id="edge14_Node000004_Node000006" class="edge">
<title>Node4&#45;&gt;Node6</title>
<g id="a_edge14_Node000004_Node000006"><a xlink:title=" ">
<path fill="none" stroke="#63b8ff" d="M122.79,-167.52C147.48,-159.34 182.97,-146.58 212.5,-132 241.9,-117.48 273.56,-96.91 294.12,-82.82"/>
<polygon fill="#63b8ff" stroke="#63b8ff" points="296.06,-85.74 302.29,-77.16 292.07,-79.98 296.06,-85.74"/>
</a>
</g>
</g>
<!-- Node5&#45;&gt;Node3 -->
<g id="edge6_Node000005_Node000003" class="edge">
<title>Node5&#45;&gt;Node3</title>
<g id="a_edge6_Node000005_Node000003"><a xlink:title=" ">
<path fill="none" stroke="#63b8ff" d="M138.24,-111.68C126.83,-103.23 110.37,-89.99 98.5,-76 86.66,-62.05 76.17,-44.07 69.07,-30.56"/>
<polygon fill="#63b8ff" stroke="#63b8ff" points="72.27,-29.13 64.62,-21.8 66.02,-32.3 72.27,-29.13"/>
</a>
</g>
</g>
<!-- Node5&#45;&gt;Node6 -->
<g id="edge7_Node000005_Node000006" class="edge">
<title>Node5&#45;&gt;Node6</title>
<g id="a_edge7_Node000005_Node000006"><a xlink:title=" ">
<path fill="none" stroke="#63b8ff" d="M180.24,-111.59C206.93,-102.86 246.92,-89.77 276.68,-80.03"/>
<polygon fill="#63b8ff" stroke="#63b8ff" points="277.68,-83.39 286.1,-76.95 275.5,-76.73 277.68,-83.39"/>
</a>
</g>
</g>
<!-- Node11 -->
<g id="Node000011" class="node">
<title>Node11</title>
<g id="a_Node000011"><a xlink:title=" ">
<polygon fill="#e0e0e0" stroke="#999999" points="258,-76 107,-76 107,-56 258,-56 258,-76"/>
<text xml:space="preserve" text-anchor="middle" x="182.5" y="-62.5" font-family="Helvetica,sans-Serif" font-size="10.00">enum/compositeNodeType.hpp</text>
</a>
</g>
</g>
<!-- Node5&#45;&gt;Node11 -->
<g id="edge13_Node000005_Node000011" class="edge">
<title>Node5&#45;&gt;Node11</title>
<g id="a_edge13_Node000005_Node000011"><a xlink:title=" ">
<path fill="none" stroke="#63b8ff" d="M156.9,-111.59C160.94,-104.55 166.62,-94.67 171.59,-86"/>
<polygon fill="#63b8ff" stroke="#63b8ff" points="174.47,-88.03 176.41,-77.61 168.39,-84.54 174.47,-88.03"/>
</a>
</g>
</g>
<!-- Node6&#45;&gt;Node3 -->
<g id="edge8_Node000006_Node000003" class="edge">
<title>Node6&#45;&gt;Node3</title>
<g id="a_edge8_Node000006_Node000003"><a xlink:title=" ">
<path fill="none" stroke="#63b8ff" d="M275.49,-56.38C226.53,-46.1 145.29,-29.03 97.63,-19.01"/>
<polygon fill="#63b8ff" stroke="#63b8ff" points="98.55,-15.63 88.05,-17 97.11,-22.48 98.55,-15.63"/>
</a>
</g>
</g>
<!-- Node7 -->
<g id="Node000007" class="node">
<title>Node7</title>
<g id="a_Node000007"><a xlink:title=" ">
<polygon fill="#e0e0e0" stroke="#999999" points="227.9,-20 199.1,-20 199.1,0 227.9,0 227.9,-20"/>
<text xml:space="preserve" text-anchor="middle" x="213.5" y="-6.5" font-family="Helvetica,sans-Serif" font-size="10.00">list</text>
</a>
</g>
</g>
<!-- Node6&#45;&gt;Node7 -->
<g id="edge9_Node000006_Node000007" class="edge">
<title>Node6&#45;&gt;Node7</title>
<g id="a_edge9_Node000006_Node000007"><a xlink:title=" ">
<path fill="none" stroke="#63b8ff" d="M298.56,-55.59C281.89,-46.85 256.91,-33.76 238.33,-24.02"/>
<polygon fill="#63b8ff" stroke="#63b8ff" points="240.06,-20.97 229.58,-19.43 236.81,-27.17 240.06,-20.97"/>
</a>
</g>
</g>
<!-- Node8 -->
<g id="Node000008" class="node">
<title>Node8</title>
<g id="a_Node000008"><a xlink:title=" ">
<polygon fill="#e0e0e0" stroke="#999999" points="297.12,-20 245.88,-20 245.88,0 297.12,0 297.12,-20"/>
<text xml:space="preserve" text-anchor="middle" x="271.5" y="-6.5" font-family="Helvetica,sans-Serif" font-size="10.00">memory</text>
</a>
</g>
</g>
<!-- Node6&#45;&gt;Node8 -->
<g id="edge10_Node000006_Node000008" class="edge">
<title>Node6&#45;&gt;Node8</title>
<g id="a_edge10_Node000006_Node000008"><a xlink:title=" ">
<path fill="none" stroke="#63b8ff" d="M308.66,-55.59C302.53,-48.24 293.83,-37.8 286.39,-28.87"/>
<polygon fill="#63b8ff" stroke="#63b8ff" points="289.31,-26.9 280.22,-21.46 283.93,-31.38 289.31,-26.9"/>
</a>
</g>
</g>
<!-- Node9 -->
<g id="Node000009" class="node">
<title>Node9</title>
<g id="a_Node000009"><a xlink:title=" ">
<polygon fill="#e0e0e0" stroke="#999999" points="405.62,-20 315.38,-20 315.38,0 405.62,0 405.62,-20"/>
<text xml:space="preserve" text-anchor="middle" x="360.5" y="-6.5" font-family="Helvetica,sans-Serif" font-size="10.00">model/model.hpp</text>
</a>
</g>
</g>
<!-- Node6&#45;&gt;Node9 -->
<g id="edge11_Node000006_Node000009" class="edge">
<title>Node6&#45;&gt;Node9</title>
<g id="a_edge11_Node000006_Node000009"><a xlink:title=" ">
<path fill="none" stroke="#63b8ff" d="M324.16,-55.59C330.09,-48.32 338.49,-38.02 345.71,-29.15"/>
<polygon fill="#63b8ff" stroke="#63b8ff" points="348.36,-31.43 351.97,-21.47 342.94,-27.01 348.36,-31.43"/>
</a>
</g>
</g>
<!-- Node10 -->
<g id="Node000010" class="node">
<title>Node10</title>
<g id="a_Node000010"><a xlink:title=" ">
<polygon fill="#e0e0e0" stroke="#999999" points="521.75,-20 423.25,-20 423.25,0 521.75,0 521.75,-20"/>
<text xml:space="preserve" text-anchor="middle" x="472.5" y="-6.5" font-family="Helvetica,sans-Serif" font-size="10.00">model/strategy.hpp</text>
</a>
</g>
</g>
<!-- Node6&#45;&gt;Node10 -->
<g id="edge12_Node000006_Node000010" class="edge">
<title>Node6&#45;&gt;Node10</title>
<g id="a_edge12_Node000006_Node000010"><a xlink:title=" ">
<path fill="none" stroke="#63b8ff" d="M343.67,-55.59C368.8,-46.9 406.38,-33.89 434.48,-24.16"/>
<polygon fill="#63b8ff" stroke="#63b8ff" points="435.38,-27.55 443.68,-20.97 433.09,-20.94 435.38,-27.55"/>
</a>
</g>
</g>
</g>
</svg>
