<?xml version="1.0" encoding="UTF-8" standalone="no"?>
<!DOCTYPE svg PUBLIC "-//W3C//DTD SVG 1.1//EN"
 "http://www.w3.org/Graphics/SVG/1.1/DTD/svg11.dtd">
<!-- Generated by graphviz version 13.1.0 (0)
 -->
<!-- Title: planner.hpp Pages: 1 -->
<svg width="529pt" height="252pt"
 viewBox="0.00 0.00 529.00 252.00" xmlns="http://www.w3.org/2000/svg" xmlns:xlink="http://www.w3.org/1999/xlink">
<g id="graph0" class="graph" transform="scale(1 1) rotate(0) translate(4 248)">
<title>planner.hpp</title>
<!-- Node1 -->
<g id="Node000001" class="node">
<title>Node1</title>
<g id="a_Node000001"><a xlink:title=" ">
<polygon fill="#999999" stroke="#666666" points="66.25,-244 0,-244 0,-224 66.25,-224 66.25,-244"/>
<text xml:space="preserve" text-anchor="middle" x="33.12" y="-230.5" font-family="Helvetica,sans-Serif" font-size="10.00">planner.hpp</text>
</a>
</g>
</g>
<!-- Node2 -->
<g id="Node000002" class="node">
<title>Node2</title>
<g id="a_Node000002"><a xlink:title=" ">
<polygon fill="#e0e0e0" stroke="#999999" points="85.88,-20 32.38,-20 32.38,0 85.88,0 85.88,-20"/>
<text xml:space="preserve" text-anchor="middle" x="59.12" y="-6.5" font-family="Helvetica,sans-Serif" font-size="10.00">iostream</text>
</a>
</g>
</g>
<!-- Node1&#45;&gt;Node2 -->
<g id="edge1_Node000001_Node000002" class="edge">
<title>Node1&#45;&gt;Node2</title>
<g id="a_edge1_Node000001_Node000002"><a xlink:title=" ">
<path fill="none" stroke="#63b8ff" d="M34.21,-223.74C38.07,-190.74 51.24,-78.31 56.71,-31.61"/>
<polygon fill="#63b8ff" stroke="#63b8ff" points="60.17,-32.14 57.86,-21.8 53.22,-31.32 60.17,-32.14"/>
</a>
</g>
</g>
<!-- Node3 -->
<g id="Node000003" class="node">
<title>Node3</title>
<g id="a_Node000003"><a xlink:href="element_8hpp.html" target="_top" xlink:title=" ">
<polygon fill="white" stroke="#666666" points="126.75,-188 57.5,-188 57.5,-168 126.75,-168 126.75,-188"/>
<text xml:space="preserve" text-anchor="middle" x="92.12" y="-174.5" font-family="Helvetica,sans-Serif" font-size="10.00">element.hpp</text>
</a>
</g>
</g>
<!-- Node1&#45;&gt;Node3 -->
<g id="edge2_Node000001_Node000003" class="edge">
<title>Node1&#45;&gt;Node3</title>
<g id="a_edge2_Node000001_Node000003"><a xlink:title=" ">
<path fill="none" stroke="#63b8ff" d="M43.4,-223.59C51.69,-216.01 63.57,-205.13 73.53,-196.02"/>
<polygon fill="#63b8ff" stroke="#63b8ff" points="75.84,-198.65 80.85,-189.32 71.11,-193.49 75.84,-198.65"/>
</a>
</g>
</g>
<!-- Node3&#45;&gt;Node2 -->
<g id="edge3_Node000003_Node000002" class="edge">
<title>Node3&#45;&gt;Node2</title>
<g id="a_edge3_Node000003_Node000002"><a xlink:title=" ">
<path fill="none" stroke="#63b8ff" d="M90.26,-167.6C85.06,-141.46 70.35,-67.48 63.17,-31.36"/>
<polygon fill="#63b8ff" stroke="#63b8ff" points="66.65,-30.91 61.27,-21.78 59.79,-32.27 66.65,-30.91"/>
</a>
</g>
</g>
<!-- Node4 -->
<g id="Node000004" class="node">
<title>Node4</title>
<g id="a_Node000004"><a xlink:href="compositeNode_8hpp.html" target="_top" xlink:title=" ">
<polygon fill="white" stroke="#666666" points="202.62,-132 99.62,-132 99.62,-112 202.62,-112 202.62,-132"/>
<text xml:space="preserve" text-anchor="middle" x="151.12" y="-118.5" font-family="Helvetica,sans-Serif" font-size="10.00">compositeNode.hpp</text>
</a>
</g>
</g>
<!-- Node3&#45;&gt;Node4 -->
<g id="edge4_Node000003_Node000004" class="edge">
<title>Node3&#45;&gt;Node4</title>
<g id="a_edge4_Node000003_Node000004"><a xlink:title=" ">
<path fill="none" stroke="#63b8ff" d="M102.4,-167.59C110.69,-160.01 122.57,-149.13 132.53,-140.02"/>
<polygon fill="#63b8ff" stroke="#63b8ff" points="134.84,-142.65 139.85,-133.32 130.11,-137.49 134.84,-142.65"/>
</a>
</g>
</g>
<!-- Node5 -->
<g id="Node000005" class="node">
<title>Node5</title>
<g id="a_Node000005"><a xlink:href="knowledge_8hpp.html" target="_top" xlink:title=" ">
<polygon fill="white" stroke="#666666" points="356.75,-76 275.5,-76 275.5,-56 356.75,-56 356.75,-76"/>
<text xml:space="preserve" text-anchor="middle" x="316.12" y="-62.5" font-family="Helvetica,sans-Serif" font-size="10.00">knowledge.hpp</text>
</a>
</g>
</g>
<!-- Node3&#45;&gt;Node5 -->
<g id="edge13_Node000003_Node000005" class="edge">
<title>Node3&#45;&gt;Node5</title>
<g id="a_edge13_Node000003_Node000005"><a xlink:title=" ">
<path fill="none" stroke="#63b8ff" d="M122.41,-167.52C147.1,-159.34 182.6,-146.58 212.12,-132 241.52,-117.48 273.18,-96.91 293.75,-82.82"/>
<polygon fill="#63b8ff" stroke="#63b8ff" points="295.69,-85.74 301.91,-77.16 291.7,-79.98 295.69,-85.74"/>
</a>
</g>
</g>
<!-- Node4&#45;&gt;Node2 -->
<g id="edge5_Node000004_Node000002" class="edge">
<title>Node4&#45;&gt;Node2</title>
<g id="a_edge5_Node000004_Node000002"><a xlink:title=" ">
<path fill="none" stroke="#63b8ff" d="M137.87,-111.68C126.45,-103.23 110,-89.99 98.12,-76 86.28,-62.05 75.8,-44.07 68.69,-30.56"/>
<polygon fill="#63b8ff" stroke="#63b8ff" points="71.89,-29.13 64.24,-21.8 65.65,-32.3 71.89,-29.13"/>
</a>
</g>
</g>
<!-- Node4&#45;&gt;Node5 -->
<g id="edge6_Node000004_Node000005" class="edge">
<title>Node4&#45;&gt;Node5</title>
<g id="a_edge6_Node000004_Node000005"><a xlink:title=" ">
<path fill="none" stroke="#63b8ff" d="M179.87,-111.59C206.56,-102.86 246.54,-89.77 276.3,-80.03"/>
<polygon fill="#63b8ff" stroke="#63b8ff" points="277.31,-83.39 285.72,-76.95 275.13,-76.73 277.31,-83.39"/>
</a>
</g>
</g>
<!-- Node10 -->
<g id="Node000010" class="node">
<title>Node10</title>
<g id="a_Node000010"><a xlink:title=" ">
<polygon fill="#e0e0e0" stroke="#999999" points="257.62,-76 106.62,-76 106.62,-56 257.62,-56 257.62,-76"/>
<text xml:space="preserve" text-anchor="middle" x="182.12" y="-62.5" font-family="Helvetica,sans-Serif" font-size="10.00">enum/compositeNodeType.hpp</text>
</a>
</g>
</g>
<!-- Node4&#45;&gt;Node10 -->
<g id="edge12_Node000004_Node000010" class="edge">
<title>Node4&#45;&gt;Node10</title>
<g id="a_edge12_Node000004_Node000010"><a xlink:title=" ">
<path fill="none" stroke="#63b8ff" d="M156.52,-111.59C160.57,-104.55 166.24,-94.67 171.22,-86"/>
<polygon fill="#63b8ff" stroke="#63b8ff" points="174.09,-88.03 176.03,-77.61 168.02,-84.54 174.09,-88.03"/>
</a>
</g>
</g>
<!-- Node5&#45;&gt;Node2 -->
<g id="edge7_Node000005_Node000002" class="edge">
<title>Node5&#45;&gt;Node2</title>
<g id="a_edge7_Node000005_Node000002"><a xlink:title=" ">
<path fill="none" stroke="#63b8ff" d="M275.12,-56.38C226.15,-46.1 144.91,-29.03 97.26,-19.01"/>
<polygon fill="#63b8ff" stroke="#63b8ff" points="98.18,-15.63 87.67,-17 96.74,-22.48 98.18,-15.63"/>
</a>
</g>
</g>
<!-- Node6 -->
<g id="Node000006" class="node">
<title>Node6</title>
<g id="a_Node000006"><a xlink:title=" ">
<polygon fill="#e0e0e0" stroke="#999999" points="227.53,-20 198.72,-20 198.72,0 227.53,0 227.53,-20"/>
<text xml:space="preserve" text-anchor="middle" x="213.12" y="-6.5" font-family="Helvetica,sans-Serif" font-size="10.00">list</text>
</a>
</g>
</g>
<!-- Node5&#45;&gt;Node6 -->
<g id="edge8_Node000005_Node000006" class="edge">
<title>Node5&#45;&gt;Node6</title>
<g id="a_edge8_Node000005_Node000006"><a xlink:title=" ">
<path fill="none" stroke="#63b8ff" d="M298.18,-55.59C281.51,-46.85 256.53,-33.76 237.95,-24.02"/>
<polygon fill="#63b8ff" stroke="#63b8ff" points="239.68,-20.97 229.2,-19.43 236.43,-27.17 239.68,-20.97"/>
</a>
</g>
</g>
<!-- Node7 -->
<g id="Node000007" class="node">
<title>Node7</title>
<g id="a_Node000007"><a xlink:title=" ">
<polygon fill="#e0e0e0" stroke="#999999" points="296.75,-20 245.5,-20 245.5,0 296.75,0 296.75,-20"/>
<text xml:space="preserve" text-anchor="middle" x="271.12" y="-6.5" font-family="Helvetica,sans-Serif" font-size="10.00">memory</text>
</a>
</g>
</g>
<!-- Node5&#45;&gt;Node7 -->
<g id="edge9_Node000005_Node000007" class="edge">
<title>Node5&#45;&gt;Node7</title>
<g id="a_edge9_Node000005_Node000007"><a xlink:title=" ">
<path fill="none" stroke="#63b8ff" d="M308.29,-55.59C302.16,-48.24 293.45,-37.8 286.01,-28.87"/>
<polygon fill="#63b8ff" stroke="#63b8ff" points="288.93,-26.9 279.84,-21.46 283.56,-31.38 288.93,-26.9"/>
</a>
</g>
</g>
<!-- Node8 -->
<g id="Node000008" class="node">
<title>Node8</title>
<g id="a_Node000008"><a xlink:title=" ">
<polygon fill="#e0e0e0" stroke="#999999" points="405.25,-20 315,-20 315,0 405.25,0 405.25,-20"/>
<text xml:space="preserve" text-anchor="middle" x="360.12" y="-6.5" font-family="Helvetica,sans-Serif" font-size="10.00">model/model.hpp</text>
</a>
</g>
</g>
<!-- Node5&#45;&gt;Node8 -->
<g id="edge10_Node000005_Node000008" class="edge">
<title>Node5&#45;&gt;Node8</title>
<g id="a_edge10_Node000005_Node000008"><a xlink:title=" ">
<path fill="none" stroke="#63b8ff" d="M323.79,-55.59C329.72,-48.32 338.11,-38.02 345.34,-29.15"/>
<polygon fill="#63b8ff" stroke="#63b8ff" points="347.99,-31.43 351.59,-21.47 342.56,-27.01 347.99,-31.43"/>
</a>
</g>
</g>
<!-- Node9 -->
<g id="Node000009" class="node">
<title>Node9</title>
<g id="a_Node000009"><a xlink:title=" ">
<polygon fill="#e0e0e0" stroke="#999999" points="521.38,-20 422.88,-20 422.88,0 521.38,0 521.38,-20"/>
<text xml:space="preserve" text-anchor="middle" x="472.12" y="-6.5" font-family="Helvetica,sans-Serif" font-size="10.00">model/strategy.hpp</text>
</a>
</g>
</g>
<!-- Node5&#45;&gt;Node9 -->
<g id="edge11_Node000005_Node000009" class="edge">
<title>Node5&#45;&gt;Node9</title>
<g id="a_edge11_Node000005_Node000009"><a xlink:title=" ">
<path fill="none" stroke="#63b8ff" d="M343.3,-55.59C368.42,-46.9 406.01,-33.89 434.1,-24.16"/>
<polygon fill="#63b8ff" stroke="#63b8ff" points="435,-27.55 443.31,-20.97 432.71,-20.94 435,-27.55"/>
</a>
</g>
</g>
</g>
</svg>
